<?xml version="1.0" encoding="utf-8"?>
<!-- Generator: Adobe Illustrator 15.0.0, SVG Export Plug-In . SVG Version: 6.00 Build 0)  -->
<!DOCTYPE svg PUBLIC "-//W3C//DTD SVG 1.1//EN" "http://www.w3.org/Graphics/SVG/1.1/DTD/svg11.dtd">
<svg version="1.1" id="レイヤー_1" xmlns="http://www.w3.org/2000/svg" xmlns:xlink="http://www.w3.org/1999/xlink" x="0px"
	 y="0px" width="800px" height="400px" viewBox="0 200 800 400" enable-background="new 0 200 800 400" xml:space="preserve">
<g>
	<defs>
		<path id="SVGID_1_" d="M36.786,321.866h64.582h0.004c43.437,0,78.645,35.212,78.645,78.643c0,24.025-10.781,45.513-27.757,59.941
			h30.492c12.558-16.875,19.993-37.797,19.993-60.453c0-55.984-45.384-101.368-101.372-101.368
			C76.828,298.63,54.323,307.352,36.786,321.866"/>
	</defs>
	<use xlink:href="#SVGID_1_"  overflow="visible" fill="#FFFFFF"/>
	<clipPath id="SVGID_2_">
		<use xlink:href="#SVGID_1_"  overflow="visible"/>
	</clipPath>
	<rect x="36.785" y="298.63" clip-path="url(#SVGID_2_)" fill="#FFFFFF" width="165.958" height="161.821"/>
</g>
<g>
	<defs>
		<path id="SVGID_3_" d="M19.587,340.107C7.276,356.889,0,377.593,0,399.998C0,455.99,45.386,501.37,101.372,501.37
			c24.224,0,46.102-8.211,63.537-22.388c0,0-60.674,0.169-63.537,0.169c-43.434,0-78.642-35.206-78.642-78.642
			c0-24.273,11.005-45.976,28.291-60.402H19.587z"/>
	</defs>
	<use xlink:href="#SVGID_3_"  overflow="visible" fill="#FFFFFF"/>
	<clipPath id="SVGID_4_">
		<use xlink:href="#SVGID_3_"  overflow="visible"/>
	</clipPath>
	<rect y="340.107" clip-path="url(#SVGID_4_)" fill="#FFFFFF" width="164.908" height="161.263"/>
</g>
<g>
	<defs>
		<path id="SVGID_5_" d="M331.126,351.668c0,6.384,5.169,11.559,11.558,11.559c6.384,0,11.559-5.175,11.559-11.559
			c0-6.385-5.175-11.561-11.559-11.561C336.296,340.107,331.126,345.283,331.126,351.668"/>
	</defs>
	<use xlink:href="#SVGID_5_"  overflow="visible" fill="#FFFFFF"/>
	<clipPath id="SVGID_6_">
		<use xlink:href="#SVGID_5_"  overflow="visible"/>
	</clipPath>
	<rect x="331.126" y="340.107" clip-path="url(#SVGID_6_)" fill="#FFFFFF" width="23.117" height="23.12"/>
</g>
<g>
	<defs>
		<path id="SVGID_7_" d="M774.295,388.275l-13.916,27.144l-10.937-25.859c-3.917-8.841-14.321-13.068-22.686-8.924l-4.598,2.294
			l24.98,58.285l-19.271,37.521l3.457,1.751c8.111,4.662,17.931,1.23,22.333-7.351L800,382.824l-2.541-1.642
			c-2.534-1.456-5.319-2.147-8.081-2.148C783.302,379.034,777.325,382.375,774.295,388.275"/>
	</defs>
	<use xlink:href="#SVGID_7_"  overflow="visible" fill="#FFFFFF"/>
	<clipPath id="SVGID_8_">
		<use xlink:href="#SVGID_7_"  overflow="visible"/>
	</clipPath>
	<rect x="722.159" y="376.491" clip-path="url(#SVGID_8_)" fill="#FFFFFF" width="77.842" height="108.657"/>
</g>
<g>
	<defs>
		<path id="SVGID_9_" d="M331.126,379.036v81.153h22.963v-63.472c0-9.765-7.916-17.681-17.673-17.681H331.126z"/>
	</defs>
	<use xlink:href="#SVGID_9_"  overflow="visible" fill="#FFFFFF"/>
	<clipPath id="SVGID_10_">
		<use xlink:href="#SVGID_9_"  overflow="visible"/>
	</clipPath>
	<rect x="331.126" y="379.036" clip-path="url(#SVGID_10_)" fill="#FFFFFF" width="22.963" height="81.153"/>
</g>
<g>
	<defs>
		<path id="SVGID_11_" d="M259.03,420.349c0-15.648,7.551-22.35,15.841-22.35c9.477,0,16.579,8.383,16.579,22.768
			c0,13.832-6.807,20.443-16.874,20.443C264.211,441.211,259.03,433.899,259.03,420.349 M235.729,340.107l-0.001,120.439h23.185
			l0-12.299c2.489,3.972,8.615,12.203,22.299,12.203c18.802,0,33.543-14.816,33.543-40.847c0-14.345-5.335-40.375-32.449-40.375
			c-14.264,0-20.249,7.419-23.393,11.758v-26.405c0-0.004,0-0.008,0-0.016v-6.612c0-9.857-7.99-17.848-17.845-17.848H235.729z"/>
	</defs>
	<use xlink:href="#SVGID_11_"  overflow="visible" fill="#FFFFFF"/>
	<clipPath id="SVGID_12_">
		<use xlink:href="#SVGID_11_"  overflow="visible"/>
	</clipPath>
	<rect x="235.727" y="340.107" clip-path="url(#SVGID_12_)" fill="#FFFFFF" width="79.027" height="120.439"/>
</g>
<g>
	<defs>
		<path id="SVGID_13_" d="M379.063,359.525v19.512h-8.523v19.417h8.523v44.252c0,9.769,7.917,17.683,17.682,17.683h4.894
			l0.058,0.063c9.766,0,17.683-7.916,17.683-17.68v-1.561h-17.35l-0.067-42.757h17.417v-19.417h-17.345v-19.512H379.063z"/>
	</defs>
	<use xlink:href="#SVGID_13_"  overflow="visible" fill="#FFFFFF"/>
	<clipPath id="SVGID_14_">
		<use xlink:href="#SVGID_13_"  overflow="visible"/>
	</clipPath>
	<rect x="370.54" y="359.525" clip-path="url(#SVGID_14_)" fill="#FFFFFF" width="48.839" height="100.926"/>
</g>
<g>
	<defs>
		<path id="SVGID_15_" d="M682.691,379.119v0.11v47.977l-32.524-48.087h-5.294c-9.764,0-17.674,7.825-17.674,17.482v63.757h22.968
			v-47.594l32.524,47.594h5.12c9.767,0,17.678-7.829,17.678-17.483v-63.755H682.691z"/>
	</defs>
	<use xlink:href="#SVGID_15_"  overflow="visible" fill="#FFFFFF"/>
	<clipPath id="SVGID_16_">
		<use xlink:href="#SVGID_15_"  overflow="visible"/>
	</clipPath>
	<rect x="627.199" y="379.119" clip-path="url(#SVGID_16_)" fill="#FFFFFF" width="78.29" height="81.239"/>
</g>
<g>
	<defs>
		<path id="SVGID_17_" d="M442.559,379.036v19.417h44.656l-44.771,42.757v1.561c0,9.764,7.916,17.68,17.682,17.68h60.612v-17.68
			v-1.557v-0.004H472.61l48.127-42.757v-1.738c0-9.764-7.918-17.679-17.68-17.679H442.559z"/>
	</defs>
	<use xlink:href="#SVGID_17_"  overflow="visible" fill="#FFFFFF"/>
	<clipPath id="SVGID_18_">
		<use xlink:href="#SVGID_17_"  overflow="visible"/>
	</clipPath>
	<rect x="442.443" y="379.036" clip-path="url(#SVGID_18_)" fill="#FFFFFF" width="78.294" height="81.415"/>
</g>
<g>
	<defs>
		<path id="SVGID_19_" d="M83.238,382.317h36.268v36.273H83.238V382.317z M78.151,359.689c-9.689,0-17.544,7.854-17.544,17.544
			v46.436c0,9.691,7.855,17.541,17.544,17.541h46.439c9.689,0,17.543-7.85,17.543-17.541v-46.436c0-9.69-7.854-17.544-17.543-17.544
			H78.151z"/>
	</defs>
	<use xlink:href="#SVGID_19_"  overflow="visible" fill="#FFFFFF"/>
	<clipPath id="SVGID_20_">
		<use xlink:href="#SVGID_19_"  overflow="visible"/>
	</clipPath>
	<rect x="60.607" y="359.689" clip-path="url(#SVGID_20_)" fill="#FFFFFF" width="81.526" height="81.521"/>
</g>
<g>
	<defs>
		<path id="SVGID_21_" d="M571.111,398.453c11.229,0,15.19,6.773,16.009,11.845h-32.023
			C555.749,405.226,559.99,398.453,571.111,398.453 M532.031,420.061c0,24.788,17.134,40.728,40.464,40.728
			c20.216,0,31.767-11.41,35.299-19.578l-20.605-5.961c-1.312,1.517-5.048,5.583-12.711,5.961
			c-12.298,0.617-18.871-7.053-19.381-11.814h55.157c3.727-24.959-9.185-50.36-38.576-50.36
			C551.583,379.036,532.031,392.228,532.031,420.061"/>
	</defs>
	<use xlink:href="#SVGID_21_"  overflow="visible" fill="#FFFFFF"/>
	<clipPath id="SVGID_22_">
		<use xlink:href="#SVGID_21_"  overflow="visible"/>
	</clipPath>
	<rect x="532.031" y="379.036" clip-path="url(#SVGID_22_)" fill="#FFFFFF" width="81.949" height="81.752"/>
</g>
</svg>
