<?xml version="1.0" encoding="utf-8"?>
<!-- Generator: Adobe Illustrator 15.0.0, SVG Export Plug-In . SVG Version: 6.00 Build 0)  -->
<!DOCTYPE svg PUBLIC "-//W3C//DTD SVG 1.1//EN" "http://www.w3.org/Graphics/SVG/1.1/DTD/svg11.dtd">
<svg version="1.1" id="レイヤー_1" xmlns="http://www.w3.org/2000/svg" xmlns:xlink="http://www.w3.org/1999/xlink" x="0px"
	 y="0px" width="800px" height="800px" viewBox="0 0 800 800" enable-background="new 0 0 800 800" xml:space="preserve">
<g>
	<path fill="#FFFFFF" d="M364.552,11.972c-0.182,2.87-6.103,0.003-7.194,1.963C356.008,12.022,363.159,11.364,364.552,11.972z"/>
	<path fill="#FFFFFF" d="M401.184,54.494c-0.905,1.491-4.551,0.245-6.54,0.654C394.981,52.135,399.454,54.708,401.184,54.494z"/>
	<path fill="#FFFFFF" d="M428.659,58.418c-3.791,0.085-6.181-1.231-9.813-1.307C419.771,55.266,427.663,56.152,428.659,58.418z"/>
	<path fill="#FFFFFF" d="M549.68,62.998c2.863,0.622,4.346,2.631,5.887,4.579C553.808,68.436,550.73,65.021,549.68,62.998z"/>
	<path fill="#FFFFFF" d="M456.789,64.306c1.279,1.121,3.662,1.137,5.234,1.964C460.635,67.825,456.462,66.633,456.789,64.306z"/>
	<path fill="#FFFFFF" d="M246.803,64.963c0.097,1.838-1.601,1.886-3.27,1.962C243.439,65.084,245.136,65.036,246.803,64.963z"/>
	<path fill="#FFFFFF" d="M464.639,68.231c2.203-1.944,4.84,1.239,7.194,1.309C469.693,71.428,467.479,67.818,464.639,68.231z"/>
	<path fill="#FFFFFF" d="M219.984,81.968c-3.541,3.219-5.21,8.31-10.467,9.812C212.834,88.34,215.578,84.32,219.984,81.968z"/>
	<path fill="#FFFFFF" d="M219.984,89.819c1.277,2.317-1.521,2.503-3.925,2.617C216.249,90.446,219.519,91.534,219.984,89.819z"/>
	<path fill="#FFFFFF" d="M216.058,95.052c-1.087,1.313-1.756,3.04-3.926,3.271C212.542,96.332,213.587,94.977,216.058,95.052z"/>
	<path fill="#FFFFFF" d="M191.201,114.677c1.773,0.984-1.041,2.821-1.31,3.925C188.12,117.617,190.932,115.781,191.201,114.677z"/>
	<path fill="#FFFFFF" d="M214.097,168.317c2.225,2.059-2.712,2.487-2.618,4.579C209.759,171.344,213.054,169.278,214.097,168.317z"
		/>
	<path fill="#FFFFFF" d="M210.171,168.972c-0.062,2.181,0.202,6.593-2.619,8.504C206.899,174.265,208.796,172.015,210.171,168.972z"
		/>
	<path fill="#FFFFFF" d="M214.097,172.242c-0.098,2.304-1.977,2.821-3.271,3.925C211.246,174.19,211.848,172.392,214.097,172.242z"
		/>
	<path fill="#FFFFFF" d="M211.479,178.133c0.172,1.914-1.478,2.008-1.308,3.922C208.775,181.447,209.278,177.298,211.479,178.133z"
		/>
	<path fill="#FFFFFF" d="M607.247,269.713c1.58,2.428-1.435,10.365-0.655,1.963C607.357,271.57,607.145,270.482,607.247,269.713z"/>
	<path fill="#FFFFFF" d="M184.658,283.451c1.959,0.658,1.293,3.942,1.962,5.888C184.867,288.474,185.536,285.191,184.658,283.451z"
		/>
	<path fill="#FFFFFF" d="M596.125,303.075c3.407,0.877-1.047,3.813-0.654,5.889C593.571,307.442,596.699,305.437,596.125,303.075z"
		/>
	<path fill="#FFFFFF" d="M586.968,331.204c1.892,2.362-0.799,5.718-1.31,7.851C582.722,336.671,586.036,334.376,586.968,331.204z"/>
	<path fill="#FFFFFF" d="M589.584,334.474c2.97,3.325-2.052,9.626-3.925,12.43C585.104,342.499,589.165,340.532,589.584,334.474z"/>
	<path fill="#FFFFFF" d="M225.871,340.364c3.107-2.208,3.796,3.597,5.234,5.233C228.89,346.911,228.803,340.505,225.871,340.364z"/>
	<path fill="#FFFFFF" d="M590.894,342.979c3.079,2.81-3.403,6.944-3.925,10.466C585.451,349.736,591.387,347.846,590.894,342.979z"
		/>
	<path fill="#FFFFFF" d="M580.426,344.943c-1.561,5.42-3.974,15.648-10.466,18.314C574.306,357.563,576.497,351.956,580.426,344.943
		z"/>
	<path fill="#FFFFFF" d="M584.35,348.213c3.356,2.076-1.87,6.236-3.271,7.849C578.958,352.826,584.531,351.682,584.35,348.213z"/>
	<path fill="#FFFFFF" d="M584.35,362.602c-2.138-1.758,1.095-3.656,1.309-5.233C587.784,359.118,584.154,360.619,584.35,362.602z"/>
	<path fill="#FFFFFF" d="M568.648,363.913c0.56-0.121,0.62,0.252,0.654,0.655c0.073,1.601,2.163,0.138,1.965-0.655
		c1.838,3.166-2.753,5.516-4.58,7.194C565.333,368.943,568.802,366.95,568.648,363.913z"/>
	<path fill="#FFFFFF" d="M573.229,374.377c-1.448,0.362-0.929-1.248-1.961-1.307c-1.988,0.807,0.71,2.249,0,3.926
		c-0.806-0.286-1.343-0.837-1.308-1.964c-1.621,0.998-1.171,4.065-3.928,3.924c0-1.089,0-2.178,0-3.27
		c0.981-1.416,4.178-0.618,3.271-3.924C571.889,371.148,573.199,371.153,573.229,374.377z"/>
	<path fill="#FFFFFF" d="M551.645,380.919c1.396,1.024-1.233,3.524-2.617,3.926C549.452,383.093,550.899,382.357,551.645,380.919z"
		/>
	<path fill="#FFFFFF" d="M553.604,392.04c-1.082-0.881-2.251-1.672-2.615-3.27C552.827,388.893,553.774,389.907,553.604,392.04z"/>
	<path fill="#FFFFFF" d="M563.417,390.08c-0.737,1.225-0.772,3.15-3.271,2.615C560.372,390.96,561.864,390.489,563.417,390.08z"/>
	<path fill="#FFFFFF" d="M541.831,394.004c-1.6,3.557-2.331,5.389-5.89,5.888C537.974,397.997,539.054,395.154,541.831,394.004z"/>
	<path fill="#FFFFFF" d="M538.557,401.198c2.032-0.066,1.87,2.06,4.58,1.309c-2.968,1.627-4.163,6.214-8.504,4.58
		C535.612,404.792,540.024,405.933,538.557,401.198z"/>
	<path fill="#FFFFFF" d="M549.68,403.816c1.946,1.884-3.689,7.1-6.543,8.503C544.727,408.893,547.98,407.133,549.68,403.816z"/>
	<path fill="#FFFFFF" d="M223.91,407.743c1.311,1.085,3.04,1.756,3.271,3.923C225.386,411.06,224.446,409.604,223.91,407.743z"/>
	<path fill="#FFFFFF" d="M541.175,412.319c2.908,1.148-0.104,4.815-3.271,3.926C539.083,415.022,541.789,415.332,541.175,412.319z"
		/>
	<path fill="#FFFFFF" d="M531.366,424.093c0.333,2.735-3.005,1.796-3.926,3.271C525.956,426.197,529.744,422.272,531.366,424.093z"
		/>
	<path fill="#FFFFFF" d="M225.217,428.021c1.723-0.199,2.148,0.904,1.963,2.611C225.457,430.836,225.035,429.728,225.217,428.021z"
		/>
	<path fill="#FFFFFF" d="M232.413,433.252c2.607-0.208,4.833-0.034,5.887,1.311c-0.429,1.959-1.398-0.625-2.615,0
		c3.507,3.838,11.945,5.727,10.465,12.428c-5.813-1.384-6.473-7.919-12.43-9.158c0.2-2.411-2.402-4.106-5.233-5.234
		c1.674-1.898-1.144-3.761,0-4.577C231.217,428.345,231.635,430.976,232.413,433.252z M245.496,444.373
		c-2.023-0.16-1.105-3.256-3.926-2.614C241.568,443.549,244.636,445.61,245.496,444.373z"/>
	<path fill="#FFFFFF" d="M516.972,428.673c0.281-1.46,3.226-0.265,4.579-0.651C521.969,432.359,518.011,430.03,516.972,428.673z"/>
	<path fill="#FFFFFF" d="M526.13,428.673c-1.255,1.364-2.506,2.724-4.578,3.271C522.795,430.572,523.333,428.494,526.13,428.673z"/>
	<path fill="#FFFFFF" d="M443.706,443.065c-0.764,3.597-7.865,0.861-8.504,4.58c-4.651-2.85-10.92,2.516-16.355,0.652
		C426.032,445.78,434.945,445.35,443.706,443.065z"/>
	<path fill="#FFFFFF" d="M477.723,443.065c-0.481,1.48-2.494,1.435-2.616,3.27c-2.871-1.777-3.506,0.837-5.89,1.311
		C470.574,444.638,474.362,444.067,477.723,443.065z"/>
	<path fill="#FFFFFF" d="M344.928,445.03c2.601,1.918,5.979,0.477,9.814,1.964C351.164,448.557,346.378,448.501,344.928,445.03z"/>
	<path fill="#FFFFFF" d="M447.631,445.03c1.057-0.184,1.126,0.619,1.963,0.653c-0.705,3.656-6.815,1.905-9.158,3.926
		C440.5,445.747,447.94,449.262,447.631,445.03z"/>
	<path fill="#FFFFFF" d="M450.898,446.337c2.993-0.023,0.037,2.295,0.656,3.925c-2.055-0.014-3.649,2.16-5.231,0.655
		C447.372,447.492,451.814,451.521,450.898,446.337z"/>
	<path fill="#FFFFFF" d="M257.924,446.992c2.359,1.13,2.921,4.056,5.234,5.231c4.642-2.787,8.32,5.247,13.735,5.891
		c-1.689,2.065-4.097-0.654-5.887-0.654c1.458,2.687,3.146,5.14,7.196,5.233c-0.149,1.695,1.38,3.02,0.656,4.581
		c-3.105,0.268-3.438-2.233-6.541-1.966c1.829-2.643-1.206-1.819-1.31-3.924c-2.422,0.078-1.644,0.953-1.309,2.617
		c-2.318-1.386-4.275-3.139-5.887-5.235c1.19,1.426,5.35-0.117,6.542,1.307c1.343-1.207-3.997-1.976-0.655-3.922
		c-1.392-1.009-2.437-2.361-3.925-3.272c0.332,2.069,1.925,2.874,1.962,5.235c-3.303,0.663-8.517-1.185-9.812-4.579
		c2.646-2.174,4.776,1.745,6.542,2.617C265.582,452.405,257.159,452.564,257.924,446.992z"/>
	<path fill="#FFFFFF" d="M368.478,450.261c-4.188,2.1-9.061-2.361-13.736,0C357.55,446.413,363.873,450.105,368.478,450.261z"/>
	<path fill="#FFFFFF" d="M412.305,448.952c-0.722,1.677-3.513,1.286-5.889,1.312C406.648,448.093,410.189,449.233,412.305,448.952z"
		/>
	<path fill="#FFFFFF" d="M439.781,449.605c-0.074,1.238-2.163,0.454-1.963,1.964c2.397,0.484,3.632-1.609,5.233,0
		c-2.21,1.282-5.385,1.595-8.504,1.962c0-0.654,0-1.309,0-1.962c-0.651,0.576-5.663,1.821-5.235-0.652
		C433.947,451.625,436.167,449.921,439.781,449.605z"/>
	<path fill="#FFFFFF" d="M403.802,450.917c-1.877,0.838-4.019-0.005-7.195,0.652C396.604,449.043,402.723,450.309,403.802,450.917z"
		/>
	<path fill="#FFFFFF" d="M365.207,455.495c-3.081,3.559-7.264-2.634-9.158-4.578c1.803,0.783,2.733,1.419,4.579,0.652
		C360.743,454.29,362.364,455.502,365.207,455.495z"/>
	<path fill="#FFFFFF" d="M428.008,450.917c0.984,1.547,0.192,3.212,2.615,1.96c0.38,2.344-1.937,1.989-3.923,1.967
		c-0.279-1.371,0.446-1.734,0.654-2.62c-2.311,0.093-2.926,1.872-5.236,1.967C422.41,451.426,425.489,451.453,428.008,450.917z"/>
	<path fill="#FFFFFF" d="M395.952,453.531c3.113,0.159,7.372-0.828,7.85,1.964c1.307-0.943-1.023-2.634,2.614-1.964
		c-0.737,2.056,0.191,1.729-0.65,3.272c-2.25-0.287-3.67,0.258-5.237,0.655c0.284-0.808,0.836-1.345,1.964-1.31
		c-2.223-2.182-3.156,2.48-5.888,1.962c0.2-2.67-1.367-0.348-2.617-0.652c-0.224-2.81,2.382-1.771,3.924-1.31
		C398.876,453.662,394.988,456.02,395.952,453.531z"/>
	<path fill="#FFFFFF" d="M388.103,454.188c1.518,0.223,3.063,0.421,2.615,2.613C389.259,456.518,388.386,455.647,388.103,454.188z"
		/>
	<path fill="#FFFFFF" d="M394.643,454.188c-0.203,1.541-2.269,1.214-1.962,3.271C389.833,456.554,392.836,454.295,394.643,454.188z"
		/>
	<path fill="#FFFFFF" d="M423.426,454.844c-0.205,1.983-3.695,2.653-5.23,1.308C419.356,453.683,421.112,455.881,423.426,454.844z"
		/>
	<path fill="#FFFFFF" d="M299.136,462.691c1.992-0.029,2.543,1.379,3.926,1.961C302.414,465.885,299.076,464.332,299.136,462.691z"
		/>
	<path fill="#FFFFFF" d="M313.529,468.576c1.95,0.013,2.223,1.702,3.923,1.965C316.805,471.775,313.467,470.218,313.529,468.576z"/>
	<path fill="#FFFFFF" d="M293.249,471.195c0.728,2.81,5.768,1.102,6.541,5.237c-3.343-1.783-7.344-0.437-10.466-3.272
		C292.294,474.517,293.256,473.171,293.249,471.195z"/>
	<path fill="#FFFFFF" d="M308.295,471.846c4.955-1.021,11.455,2.063,16.354,3.272c-2.372,3.613-4.506-2.398-8.505-1.31
		c-0.691,2.437,1.379,2.112,1.963,3.271c0.195-4.262,3.021,0.8,5.235,1.963c-3.957,1.108-9.996-1.335-11.776-4.578
		c1.244,0.277,1.644,1.411,3.271,1.309C314.848,472.273,310.194,473.441,308.295,471.846z"/>
	<path fill="#FFFFFF" d="M305.68,475.12c-0.496,2-5.646-1.396-3.271,1.313c-0.639,2.164-1.293-0.735-1.962-0.657
		C300.497,473.782,304.722,474.24,305.68,475.12z"/>
	<path fill="#FFFFFF" d="M293.904,476.429c1.335,0.625,2.587,1.336,3.924,1.96C296.905,479.899,293.568,478.342,293.904,476.429z"/>
	<path fill="#FFFFFF" d="M350.161,480.353c1.036-1.621,4.575-0.269,5.887,0C354.755,482.231,351.966,480.128,350.161,480.353z"/>
	<path fill="#FFFFFF" d="M305.025,481.006c2.466-1.567,6.274,1.121,7.193,3.269C309.064,483.943,308.474,481.048,305.025,481.006z"
		/>
	<path fill="#FFFFFF" d="M315.491,481.006c1.058-1.433,4.523,0.231,4.579,1.965C317.6,483.261,316.998,481.679,315.491,481.006z"/>
	<path fill="#FFFFFF" d="M362.593,482.316c1.624-2.003,3.969,0.783,6.54,0C367.947,483.879,364.011,482.684,362.593,482.316z"/>
	<path fill="#FFFFFF" d="M371.096,482.316c6.592,1.256,14.6,1.1,21.585,1.96C386.271,485.451,375.891,484.939,371.096,482.316z"/>
	<path fill="#FFFFFF" d="M427.354,482.971c-3.546,1.687-8.641,1.826-13.74,1.962C416.882,482.969,422.569,483.422,427.354,482.971z"
		/>
	<path fill="#FFFFFF" d="M406.417,484.276c-1.952,2.26-4.614,0.532-7.847,0.657C397.509,483.619,404.278,484.562,406.417,484.276z"
		/>
	<path fill="#FFFFFF" d="M330.537,484.933c2.043-0.3,2.09,1.396,1.963,3.269C330.514,488.441,331.142,486.069,330.537,484.933z"/>
	<path fill="#FFFFFF" d="M333.807,486.896c2.783,3.044,5.432-1.035,8.505,0.65C340.419,489.334,334.538,490.866,333.807,486.896z"/>
	<path fill="#FFFFFF" d="M367.17,489.51c0.851-1.437,3.535,0.772,5.233,0.653C371.216,491.937,368.455,489.802,367.17,489.51z"/>
	<path fill="#FFFFFF" d="M526.785,44.028c4.741-1.145,8.789,3.184,11.118,6.54c-2.529-0.568-2.326,1.598-3.923,1.964
		c0.992,0.149,4.162,0.805,1.963,3.271c4.224,5.153,12.112,6.642,14.392,13.737c0.917-0.23,0.058-1.149-0.653-1.309
		c7.303,0.988,13.166,12.559,19.625,14.393c5.076,6.045,12.518,9.722,16.353,17.009c4.919-1.415,4.242,5.169,5.891,7.85
		c0.632-0.018,0.505-0.802,0.651-1.309c2.149,3.478,8.472,6.798,9.813,13.082c-1.297,0.008-0.831,1.784-2.614,1.309
		c7.658,12.618,16.138,24.422,22.241,38.596c4.319,8.082,10.938,19.865,13.082,29.438c0.377,1.685,2.142,3.508,0,5.233
		c-1.849,0.104-1.523-1.966-3.272-1.963c-1.631,0.453,1.218,1.745,0.657,3.271c-1.445-1.37-4.359-0.512-5.233,0.655
		c3.233,14.272,11.176,27.117,9.813,43.828c-4.612,3.186-7.102,8.353-10.468,11.12c-1.898-1.705-3.144,1.209-4.578,1.964
		c-2.133-0.997-5.597-0.078-9.16-2.618c-0.107-4.249-3.554-5.95-3.923-9.813c-0.484-5.045,3.967-9.702,1.963-15.044
		c-2.394,0.007-3.505,1.293-4.578,2.616c-1.915-0.438-3.215-2.317-4.578,0c-1.854-1.405-1.188-3.382-4.579-1.963
		c-0.662-6.143,2.664-8.676-0.655-12.43c0.655,0,1.309,0,1.963,0c-0.007-1.737,0.246-3.736-0.654-4.578
		c-1.79,0.595,1.159,2.292-0.653,3.27c-3.309-4.98-2.436-14.137-5.889-18.971c-2.013-0.486-1.258,1.796-3.271,1.309
		c-0.842-1.557-1.676-3.121-2.617-4.579c-0.97,0.284,0.26,0.836,0,1.962c-3.174-4.673-3.1-12.599-6.54-17.008
		c0.526,0.346,1.063,0.685,1.964,0.654c-9.528-14.24-14.933-32.604-27.475-43.829c0.422-0.665,1.502-0.677,1.307-1.962
		c-3.998-2.542-5.076-8.008-9.813-9.814c-0.242-1.113,0.512-1.234,1.31-1.309c-3.636-8.445-14.834-14.009-18.317-19.624
		c-0.463-0.74-5.472-1.677-1.964-1.963c-3.795-1.654-5.752-5.149-10.466-5.887c-0.342-0.967-0.969-1.649-1.309-2.618
		c-9.178-3.035-16.468-7.956-23.55-13.081c-4.834-0.182-7.764-2.266-9.158-5.888c-2.805-0.031-4.968-0.705-6.541-1.962
		c1.278-1.178,5.351,1.429,6.541,0.654c-0.205-1.252,1.286-2.507,1.963-4.579c5.997-0.329,8.509,2.833,12.429,4.579
		c0.916-0.23,0.056-1.151-0.655-1.308c1.19-1.148,3.821,1.814,5.233,2.617c0.183,1.057-0.616,1.128-0.654,1.963
		c0.016,1.949,3.086,0.84,3.925,1.964c1.596-0.806-2.054-1.812-2.617-2.617c2.041-1.14,5.265,2.13,6.545,3.926
		c4.487-2.24-3.789-3.013-1.312-5.235c-2.386,1.347-2.937-0.293-4.578-1.309c0.479-1.165,1.19-0.093,1.963,0
		c-1.944-2.06-6.144,0.026-6.542-4.579c-0.758,0.549-1.753,0.864-3.269,0.655c0-0.873,0-1.745,0-2.617
		c-9.2-0.83-13.535-6.523-21.587-8.504c-0.531,0.124-0.653,0.656-1.307,0.653c1.44,2.097,0.53,3.567,0,5.888
		c-3.352,0.459,1.104-2.796-1.313-3.27c-0.968,0.284,0.26,0.835,0,1.96c-2.362-0.49-3.518-2.58-5.889-1.306
		c2.912,0.58,4.705,2.273,6.542,3.925c0.704,1.67-2.813,2.29-0.654,3.271c-0.906,1.492-4.552,0.245-6.541,0.656
		c-6.574-5.638-18.753-5.667-26.82-9.813c-1.575-0.268-1.422,1.192-3.271,0.654c0.199-2.67-1.365-0.349-2.614-0.654
		c-3.585-4.367-7.689-0.291-12.429-3.271c-1.785-0.477-1.317,1.3-2.617,1.308c-13.813-2.624-30.451-1.011-43.828,0.655
		c-2.711,4.454-17.989,3.118-26.819,5.887c-1.6,0.5-2.983,2.132-4.582,2.616c-2.73,0.832-2.204,0.04-4.578,1.309
		c-5.507,2.948-12.054,2.465-15.7,7.196c-0.829-1.679-2.212-1.318-1.963,1.309c-7.47,1.289-16.69,6.397-22.242,11.775
		c-20.78,7.132-31.092,24.729-47.098,36.633c1.71,3.155-6.678,6.584-7.196,11.775c-0.888-0.203-0.542-1.639-0.654-2.616
		c-2.099,0.543-1.357,0.556-2.617-0.654c-0.455,3.172-3.046,0.142-3.925,2.616c1.015,2.069,3.927-0.817,4.579,0.655
		c0,1.089,0,2.18,0,3.27c-1.089,0-2.18,0-3.271,0c-0.306,1.396,0.934,1.246,1.962,1.309c-0.65,1.747-1.787,3.01-2.616,4.579
		c-1.918-0.553,0.391-2.105,0-3.271c-3.038,0.132-0.251,3.605-0.654,5.233c-1.16,1.677-3.776,1.894-5.889,2.616
		c0.569,0.958,0.98,2.074,2.617,1.963c-0.896,1.722-2.754,2.479-3.271,4.579c0.347-2.964-1.266-5.107,0.654-7.851
		c-0.183-1.373-1.747,0.949-2.615-0.651c0.042-2.226,0.202-4.566-1.309-5.236c1.67-1.31,2.051-4.632,4.578-3.271
		c0.525-2.267-0.976-2.514-0.655-4.578c1.804-0.156,1.996-1.928,2.617-3.271c0.767,0.106,0.553,1.195,0.656,1.965
		c4.22-3.205-0.665-4.622,1.962-7.85c-0.204-0.888-1.639-0.544-2.616-0.655c-6.507,6.873-7.378,15.336-15.045,20.934
		c0.123-1.841,2.134-1.792,2.616-3.271c-3.292,0.201-4.875,2.103-7.85,2.617c1.253,3.198,2.507-0.807,4.579-0.654
		c-0.751,1.832-0.751,3.402,0,5.232c-2.177,0.878-2.293,3.814-3.27,5.889c-2.507,0.12-0.238-0.535-0.654-1.962
		c-7.187,1.083,1.15,6.337-4.579,8.504c-0.487-2.014,1.796-1.258,1.307-3.272c-4.87,2.049,0.418,6.208-3.271,9.157
		c-1.646,1.332,0.751-2.072,0.658-3.27c-3.949,2.406-1.19,7.503-3.926,11.121c-1.861-0.874,0.505-2.909,0.654-3.927
		c-2.323,3.566-4.341,7.436-5.89,11.776c2.066-0.334,1.813-2.988,2.618-4.578c1.008,5.942-6.163,12.405-4.578,18.971
		c-3.786,1.449-4.076,6.392-5.235,10.467c-1.172,0.083-1.379-0.8-2.617-0.654c4.167,0.972-1.017,7.679,3.271,7.849
		c-0.725,1.239-0.835,3.091-1.308,4.581c-0.872-0.853-1.975-0.404-2.618,0.655c-2.044,0.2,1.663-1.892-0.654-1.964
		c-0.769,0.105-0.553,1.193-0.654,1.964c0.201,0.888,1.637,0.544,2.614,0.654c-1.129,2.14-0.099,6.442-3.272,6.542
		c-0.514,2.2,2.531,6.543-0.653,7.196c0.064,1.662,2.556,1.662,2.617,0c1.316,1.147-0.885,4.311-0.655,6.542
		c-1.443-0.082-0.277-2.777-0.654-3.926c-0.941,0.366-1.597,1.02-1.962,1.963c3.147-0.015-1.545,4.309,0.654,7.194
		c0.971-0.555,1.408-1.645,1.311-3.271c2.157,5.153-3.458,6.947-1.964,11.775c-1.112,0.241-1.235-0.511-1.309-1.309
		c-1.962,0.43,0.626,1.399,0,2.617c2.015,0.488,1.256-1.795,3.273-1.308c-0.194,3.08-3.563,2.981-3.273,6.541
		c0.366,1.477,1.018-0.793,1.962,0.655c-0.375,5.275-3.449,4.988-2.617,10.466c2.135,0.329,1.387-3.253,3.27-1.309
		c0.287-2.25-0.259-3.666-0.654-5.233c3.666,0.042,1.279,6.135,1.963,9.157c-1.368-0.278-1.732,0.448-2.617,0.654
		c0.192,2.425,3.63,1.602,3.27,4.578c-0.654,0-1.306,0-1.963,0c0.597,5.219-1.119,9.266,0.657,16.355
		c0.657,0.353,2.892,3.39,2.616,0.654c1.796,0.821,1.694,3.54,1.963,5.888c-1.576-0.267-1.422,1.195-3.27,0.655
		c1.74,0.096,3.159,3.357,0.655,3.926c0.096,1.429,1.648,1.405,3.271,1.308c-0.289,5.092,1.778,6.642,2.615,11.775
		c1.763-0.771-0.001-3.41,0-4.578c2.069,1.421,1.589,5.389,3.926,6.542c0.258,1.269-2.982,0.957-1.963-0.654
		c-0.655,1.526-1.439,2.926-2.618,3.926c2.751-0.605,2.749-0.168,5.235-1.309c-1.381,2.752,1.186,4.706,1.31,7.849
		c-2.327,1.018-0.396-2.222-1.963-1.962c-1.917,0.553,0.392,2.105,0,3.27c7.756,1.542,9.092,11.886,13.083,18.971
		c3.532,6.274,7.626,12.44,11.774,17.008c-0.542,1.85,0.921,1.695,0.655,3.272c-4.137,0.865-1.667-4.874-4.58-5.235
		c0.333,1.371-0.159,5.17,1.309,7.195c1.191-2.435,3.178-0.009,5.233-1.308c6.46,12.295,16.062,21.443,25.513,30.743
		c0.096,2.918-1.679-0.582-3.271,0c-1.58,1.521,1.021,1.75,1.308,3.271c0.247-1.499,2.619-0.871,3.273-1.962
		c6.383,5.826,12.313,12.109,19.624,17.009c1.663-0.066,1.663-2.555,0-2.617c0.556-1.917,1.646,0.852,3.27,0
		c-7.734-7.347-18.917-9.524-20.933-20.933c-0.804,0.286-1.344,0.835-1.31,1.964c-3.626-4.005-8.809-6.453-11.12-11.776
		c0.526,0.347,1.062,0.681,1.962,0.655c-0.097-1.432-1.647-1.405-3.271-1.307c-12.697-18.705-28.842-33.959-34.019-60.185
		c0.389-2.446,2.289-3.383,3.271-5.232c-1.324-5-2.754-9.893-5.232-13.738c-2.538,2.369,2.058,3.136,1.309,5.889
		c-2.604-0.379-1.553-5.132-4.579-3.271c4.197-3.786-1.219-8.528,2.618-12.43c-0.432-1.958-1.398,0.626-2.618,0
		c-0.626-2.204,2.003-4.467,0-5.887c-1.959,0.429,0.625,1.398,0,2.616c-6.553-4.038-1.767-15.778-5.234-22.241
		c-2.002,1.418,0.627,3.681,0,5.889c-4.045-5.154-0.438-12.274-1.309-16.354c-2.483-2.466-2.084-7.473,0-9.813
		c-2.358-1.693-2.313-4.351,0-6.541c-0.524,0.345-1.063,0.682-1.963,0.655c0.03-7.061,4.016-13.569,0.655-18.317
		c0.163-0.712,1.3-0.445,1.31-1.31c-0.367-1.477-1.02,0.794-1.964-0.654c3.508-11.172,3.93-45.042,18.316-41.866
		c1.869,3.434,7.732,3.12,7.194,8.504c-0.505,5.066-8.22,13.61-9.81,23.55c-0.481,3.004,0.818,5.953,0,8.505
		c-0.572,1.777-2.118,4.013-1.964,7.849c0.242,6.03-0.055,12.266,0,20.934c-0.87,0-1.745,0-2.615,0
		c0.59,2.204,1.462,0.078,2.615,1.31c1.105,6.352-3.565,9.686,0.654,10.466c-3.374,0.399,3.299,5.776-1.963,5.888
		c-0.247,1.992,2.378,1.113,2.617,2.618c-0.177,1.348-2.899,0.155-2.617,1.962c0.462,2.62,3.071,0.038,3.927,1.309
		c-2.652,4.719,2.711,6.183-0.654,10.465c0.96,1.875,2.403,3.264,3.924,4.58c-1.38,6.757,2.686,11.594,5.234,20.933
		c-0.605,2.447-2.668,3.437-3.27,5.886c-0.258,1.629,4.086,1.935,4.578,0.654c6.539,3.709,7.444,13.053,11.121,19.625
		c-2.433,0.252-1.212-3.15-3.271-3.271c-1.094,5.119,5.277,8.672,2.617,11.122c4.856,1.962,6.674,5.647,9.158,11.12
		c-3.283-1.513-2.207-7.388-7.196-7.195c0.805,2.346,4.42,2.612,5.234,5.888c0.221,0.886-0.949,1.423-0.654,1.963
		c2.702,5.001,10.346,9.673,7.849,13.085c0.068,1.262,2.439-1.018,3.272,0.653c-0.015,1.794-3.087,1.554-3.927,0.656
		c0.023,3.057,1.861,1.245,3.927,1.307c8.762,10.863,17.504,21.743,30.09,28.786c-3.241,1.046,1.803,4.614-1.962,2.615
		c0.252,2.147,1.914,2.885,2.617,4.579c1.72-0.679,4.015-0.782,6.541-0.656c1.116,5.278,9.78,6.261,9.813,10.468
		c14.623,6.689,27.341,17.161,45.139,22.242c-0.163,0.711-1.3,0.443-1.309,1.307c1.235,1.82,2.64-1.666,5.235-0.652
		c0.808,2.116-2.118,0.499-1.312,2.616c4.57-0.426,7.97,7.286,14.393,3.268c0.396,2.982-1.465,2.691-3.272,1.966
		c0.075,1.671,2.191,1.297,3.927,1.305c0.183,1.057-0.621,1.129-0.655,1.966c0.422,1.055,2.971-2.073,3.923,0.653
		c-1.79,2.873-9.301,0.744-10.466-1.311c-7.565,1.727-15.835-4.511-26.167-5.232c-0.688-1.928-2.958-2.273-4.578-3.271
		c-0.353,2.317,2.314,1.61,1.962,3.924c-1.519-0.284-1.75-2.887-3.269-1.309c-0.75,2.058,1.026,1.591,1.308,2.618
		c8.517-1.908,13.58,3.352,20.935,4.579c-0.519,1.445-2.29,1.637-3.273,2.613c0.149,0.94,1.952,0.229,1.963,1.309
		c-0.728-3.205,5.393-2.224,5.233,1.311c1.301-0.009,0.832-1.787,2.616-1.311c0.06,1.785-1.09,1.318,0,2.616
		c1.026-0.279,0.56-2.058,2.619-1.308c0.369,1.361,1.866,2.112,0.651,3.271c4.95-1.865,5.837,1.845,9.813,2.614
		c3.081-1.229,6.604-4.196,9.814-3.269c0.304,1.395-0.935,1.245-1.964,1.308c2.614,1.976,7.742,4.893,11.775,3.271
		c0.524-2.487-3.092-0.835-4.579-1.311c0.179-2.579-2.795-1.999-2.617-4.579c7.686,1.254,16.937,0.943,24.857,1.963
		c-3.545,2.391-12.155-0.722-18.315,0c5.89,4.517,15.269-0.023,23.549,1.964c1.794-0.595-1.275-2.409,1.309-2.616
		c2.671-0.199,0.352,1.367,0.658,2.616c2.427,1.35,1.711-0.938,4.576-0.654c0.061,1.782-1.087,1.317,0,2.615
		c1.935-0.937,4.302-2.151,5.891,0c1.357-0.171,0.175-2.874,1.307-3.27c-3.37-3.221-7.686,2.232-9.157-1.965
		c11.161,1.692,23.544-4.076,32.707-3.922c0.006,0-0.005,1.208,0,1.307c5.377-5.632,15.764-3.376,20.276-7.849
		c-1.466,4.039,3.819,2.021,5.888-0.654c-1.132-2.122-1.713,1.698-3.921,0.654c0.479-0.611,1.188-0.99,1.961-1.309
		c-2.525-1.685-4.445-0.701-7.849-0.655c2.942-1.053,0.834-3.324-1.307-3.922c-0.312-2.271,3.549-0.377,3.922-1.965
		c-0.488-1.475-3.668-0.257-5.235-0.653c-1.958,0.431,0.627,1.397,0,2.616c-2.629-0.723-2.59-2.663-5.887-1.31
		c1.014-3.131,5.715-2.568,8.503-3.926c-0.346,0.527-0.681,1.064-0.655,1.964c2.204-2.376,4.067-5.096,5.237-8.504
		c2.862,0.884,4.757-0.18,6.541-1.963c1.901,0.567,0.734,0.98,0.653,2.615c2.126-0.066,4.051-2.302,5.89-0.655
		c1.352-0.362-0.884-2.532-2.617-1.962c0.72-2.657,3.264-0.521,3.924,0.655c1.918-0.045,2.429-1.496,3.271-2.617
		c-1.7-0.391-2.354,0.264-1.964,1.964c-3.073-3.118,4.979-4.521,7.196-4.579c1.835-0.644-0.949-1.747,0.653-2.617
		c6.097,0.119,12.715-10.935,18.971-8.504c0.416-2.085,5.956-8.087,8.505-5.89c0.696-1.428,0.05-2.103,2.617-2.613
		c-2.56-1.604,6.713-6.24,9.159-9.159c1.627-0.099,2.022,1.028,3.271,1.309c1.753-1.082,2.896-2.775,4.576-3.924
		c0.891,0.199,0.544,1.636,0.656,2.615c1.445-0.082,0.279-2.773,0.654-3.926c1.167-0.359,2.718-0.336,3.272-1.307
		c-0.288-0.97-0.837,0.258-1.965,0c0.097-1.432,1.649-1.403,3.27-1.309c0.541-1.846-0.921-1.694-0.654-3.271
		c2.817,1.704,3.477-1.293,2.616-3.27c3.229-0.44,4.875-5.347,7.195-4.579c-0.017-4.47,4.571-9.756,7.851-13.083
		c-1.03,3.548-2.207,6.951-5.234,8.504c-3.772,10.183-12.43,15.481-16.355,25.512c-2.727-0.109-3.226,2.008-5.887,1.964
		c-0.803-2.986,2.296-2.067,2.615-3.925c-4.133-0.465-6.203,4.011-9.158,2.617c-0.572,2.096,1.007,2.046,1.964,2.616
		c1.678-0.067,1.05-2.438,1.961-3.272c1.623,0.777,0.79,4.009,3.925,3.272c-4.94,7.922-15.244,10.486-19.623,18.97
		c-1.992,0.028-2.545-1.381-3.924-1.964c-1.284,1.337-3.863,1.37-3.928,3.926c2.971,0.351,1.748-3.487,4.581-3.272
		c1.734,2.723-1.129,5.606-4.581,5.236c-9.228,8.432-23.318,12.003-32.704,20.279c4.101,2.948,5.931-1.25,11.12-0.655
		c1.2-0.981,1.631-2.731,3.27-3.271c0.324-2.05-2.257-1.727-0.655-3.268c1.121-0.028,1.694,0.482,1.965,1.307
		c3.995-4.289,10.033-6.54,15.699-9.158c-0.593,1.153-2.411,1.083-2.617,2.616c1.734,1.256,4.26-1.066,4.58-3.271
		c1.541,2.761,3.944-1.763,7.195-1.311c0.209-1.734-3.666,0.616-2.616-1.959c2.087-0.389,2.022,1.227,3.27,0
		c0.307-1.397-0.934-1.248-1.962-1.31c2.13-3.541,6.086-5.252,9.156-7.85c1.913,0.729-0.83,2.127-1.961,1.96
		c2.26,1.22,2.865-1.153,6.54,0c-0.429-0.876-1.398-1.218-2.614-1.305c0.606-2.555,4.097-0.785,5.235,0
		c2.724-1.2,5.656-2.193,5.888-5.891c3.619,0.768,3.801-2.302,6.542-0.652c1.543-0.581-1.5-3.654,1.96-3.271
		c0.149,2.732-1.063,3.089,0,5.233c-2.418-0.457-1.631,2.293-2.613,3.27c0.656,1.592,2.893-1.281,2.613,1.962
		c-1.709,0.415-2.004,0.147-3.922,1.309c0.474-2.001-1.129-1.925-0.656-3.922c-1.538,2.195-2.859,2.031-5.233,0.654
		c0.227,1.518,0.424,3.063,2.616,2.612c-1.177,1.878-3.402,2.708-3.923,5.236c-1.445-3.418-4.279,0.701-5.235-1.964
		c-1.261,0.269-0.519,2.538-2.616,1.964c-1.01-0.034-1.881-1.351-2.615-3.27c-1.538,0.205-0.387,3.102-2.616,2.617
		c-0.056-1.038,0.315-2.497-0.655-2.617c-0.258,3.366-2.338,0.847-3.268,3.27c2.469,0.665,4.006,0.04,7.196,1.308
		c-0.797,4.254-2.164,0.258-3.927,2.614c1.342,3.187,3.905-0.494,5.887-0.649c-2.188,1.896,0.068,1.693,0,4.577
		c2.955,0.772,1.466-2.899,4.582-1.963c-6.611,7.346-16.033,11.88-24.858,17.01c-0.56-3.612,1.291-4.812,3.922-5.236
		c-5.174-1.958-4.081,4.021-7.193,5.891c-0.2,1.328,1.889-0.135,1.962-0.654c1.224,2.768-5.769,2.936-7.194,5.232
		c-2.116-1.119-3.906-1.749-5.892,0c-0.174,1.19,4.01-1.246,1.965,1.31c0.527-0.563,1.792-0.39,1.962-1.31
		c-4.669,8.482-22.994,7.208-28.783,13.738c-2.294,0.325-4.255,0.975-7.195,0.653c-42.525,15.958-107.017,5.127-143.259-9.158
		c-2.186-0.861-3.294-3.032-5.236-3.924c-6.785-3.127-13.109-3.656-18.317-7.194c-0.24-1.114,0.51-1.237,1.31-1.311
		c-0.808-1.988-2.249,0.71-3.925,0c-0.185-1.056,0.62-1.124,0.655-1.961c-38.517-20.758-66.825-51.533-87.657-88.314
		c-0.563-2.087,1.028-2.023,1.306-3.27c-1.298-1.089-0.832,0.06-2.616,0c-0.208-1.535-1.034-2.455-0.655-4.579
		c-10.678-10.852-9.935-30.428-18.316-42.52c2.9,15.651,8.519,32.186,14.391,45.791c-1.157-0.588-1.909-1.581-3.269-1.963
		c1.348-2.442-0.205-4.135-1.311-5.886c-1.854,4.851,3.643,6.45,4.58,11.773c2.197-0.598,0.326-1.216,0.657-3.27
		c2.665,0.604,2.193,4.349,3.269,6.541c-1.118-0.029-1.695,0.487-1.962,1.31c-0.569,2.531,1.597,2.326,1.962,3.924
		c1.841-0.661-0.18-2.776,0-3.924c3.271,1.712,2.07,3.987,1.31,7.194c0.008,1.538,1.785-0.239,1.307-1.307
		c2.051,0.452,0.854,1.744,0.654,3.27c8.89,7.939,15.615,23.607,25.515,32.707c-4.913-0.327-7.234-8.898-11.777-11.774
		c-1.713,0.872-1.248,2.903-0.653,4.579c2.317-0.074-1.391-2.164,0.653-1.965c15.975,18.482,33.943,34.964,51.678,51.682
		c12.446,3.053,22.053,14.569,35.979,18.316c-0.104,0.764-1.192,0.55-1.96,0.652c2.676,2.221,6.608-0.215,9.157,2.618
		c-0.073,1.232-2.164,0.452-1.963,1.961c0.36,0.684,3.793-0.563,5.236,0.656c-0.777,2.954,1.525,2.832,3.27,3.269
		c-0.402,2.346-4.402,1.087-5.888,0.652c0.427-0.664,1.504-0.674,1.309-1.964c-1.219-2.139-3.583-0.215-5.887-1.958
		c-0.119-1.429,0.535-2.083,1.962-1.964c0.202-1.51-1.889-0.729-1.962-1.964c-0.972,0.284,0.259,0.835,0,1.964
		c-3.876-0.05-5.413-2.436-8.503-3.271c-0.251,2.584-3.043,2.627-3.926,4.578c1.058,1.341,3.148,1.648,4.579,2.615
		c-2.462,0.769-4.596-0.509-7.85-1.308c0.285-1.454,1.505-3.549-0.654-3.923c-1.134,0.592-1.807,2.406,0,2.615
		c-0.43,1.96-1.398-0.625-2.617,0c-0.538-2.938,1.875-2.918,2.617-4.578c-1.965-1.087-2.435-3.672-4.578-4.58
		c4.274-0.779,6.367,3.078,11.121,4.58c-10.472-7.189-20.902-14.423-33.363-19.625c0.164-0.714,1.301-0.445,1.309-1.31
		c-0.202-0.886-1.639-0.54-2.619-0.655c-1.734-0.207,0.612,3.667-1.961,2.616c-1.42-1.361,0.079-2.114,0.655-3.269
		c-1.058-0.907-2.072-1.854-3.271-2.616c-0.971,0.282,0.257,0.835,0,1.964c-3.864-1.151-6.387-3.646-7.85-7.198
		c-3.143,1.646-3.354-3.032-5.235-4.578c-1.998-0.474-2.384,0.668-3.926,0.65c-1.207-2.141-1.977-3.269-3.924-3.269
		c-0.325-2.057,1.426-2.557,0-3.922c-0.438,2.38-4.824-0.536-3.27-1.966c-1.393-0.636-2.437-0.277-3.926-1.96
		c1.595,4.182,3.5,4.535,6.542,6.541c-5.264,4.612-6.514-4.362-11.121-4.579c-2.86-10.222-14.67-11.5-15.7-23.55
		c-1.736-0.207,0.611,3.665-1.963,2.618c-4.746-9.863-10.853-18.366-17.662-26.167c0.161-0.71,1.301-0.443,1.309-1.307
		c-7.293-12.989-13.623-26.938-18.971-41.867c1.164,0.581,1.664,1.826,3.925,1.309c0.095-2.629-1.68-1.73-3.271-1.309
		c-2.486-7.592-5.072-12.265-5.887-22.24c-10.988-11.479-11.261-39.794-9.815-59.529c2.305,1.99-1.377,6.021,0.655,7.849
		c2.148-15.167-0.408-35.923,5.887-49.716c3.97-33.539,18.618-62.06,32.707-87.659c3.488-0.219,4.249-3.166,7.197-3.924
		c0.215,1.528,0.787,2.702,1.308,3.924c3.046-0.806,3.486-3.753,1.963-5.888c2.913-0.359,4.934-1.607,5.232-4.579
		c2.413,1.318,3.434-0.908,3.926-3.27c3.043,0.222,11.196-9.199,13.083-14.393c0.873,0,1.744,0,2.616,0
		c1.553-2.632-1.041-1.605-1.306-3.922c2.439-1.271,4.862-2.551,7.195-3.925c-1.068-1.398-2.369,1.986-4.578,0
		c0.342-2.275,2.19-3.041,3.269-4.581c1.83,0.841-2.061,1.352-1.309,3.271c5.729-1.467,4.254-10.136,11.775-9.812
		c1.54-0.206,0.387-3.1,2.616-2.617c-2.585,2.573,3.486-0.167,2.619,2.617c1.524-0.217,2.818-0.67,3.268-1.963
		c-0.926-0.544-4.352,1.791-3.925-2.615c2.101,0.111,5.377,0.269,4.58-3.271c3.471-2.49,5.864-1.65,8.505-2.616
		c-0.203-0.889-1.639-0.544-2.615-0.656c-0.576-2.102,2.154-0.895,1.961-2.616c-1.636-0.111-2.046,1.004-2.616,1.961
		c0.06-4.38,6.77-5.318,11.773-4.578c-0.077-2.318-3.709-1.085-4.579-2.617c1.374-1.986,6.009,2.208,5.234-2.618
		c4.013,1.804,3.743-2.762,8.504-1.962c0.392-1.7-0.262-2.354-1.962-1.963c1.459-2.589,4.5,0.008,6.541-1.31
		c-0.099-1.209-2.213-0.401-2.616-1.309c0.409-1.553,4.027,0.101,4.578-1.31c0.809-2.116-2.115-0.499-1.309-2.616
		c0.928,0.058,1.853,0.108,1.963-0.653c1.36,0.365,1.387,1.02,0.655,1.961c2.731-0.755,4.067-2.91,7.849-2.614
		c0.261-1.568-2.978,0.363-1.963-1.962c6.359-1.95,13.49-1.029,15.7-5.89c4.515-0.717,10.249-0.218,9.812-5.888
		c2.576-1.048,0.228,2.827,1.964,2.617c-0.396-5.204,11.958-2.701,14.39-7.196c1.468,0.277,2.086,1.403,3.271,1.961
		c1.43-0.097,1.404-1.646,1.309-3.27c3.655,0.383,5.04-1.5,8.503-1.309c0.086,1.173-0.801,1.379-0.654,2.616
		c2.404-0.212,3.619-1.614,5.887-1.962c0.209,1.518-0.104,2.512-0.654,3.271c2.985,0.397,2.69-1.465,1.963-3.271
		c6.304-5.261,18.957-5.389,28.128-5.889c0.809-2.116-2.117-0.5-1.308-2.615c2.28,0.241,6.317,1.056,5.234,2.615
		c4.546-0.581,10.065-3.171,13.737-0.654c1.577,0.268,1.421-1.194,3.271-0.654c0.105-0.761-0.145-1.163-0.655-1.308
		c4.742,0.114,10.71,1.225,16.354,1.962c-0.02-0.636-0.802-0.507-1.31-0.654c2.363-1.991,4.1,1.913,5.89-0.655
		c2.101-0.573,1.358,1.697,2.616,1.963c10.845-1.417,24.03,2.083,32.054,5.236c5.628-2.84,14.484,3.54,17.664,3.924
		c6.725,0.812,26.131,5.676,30.745,11.12C512.062,35.977,520.648,39.152,526.785,44.028z M233.066,142.153
		c-1.8,0.787-3.462,0.705-1.961-1.309c-1.578-0.269-1.423,1.193-3.272,0.654c0.476,1.924,2.039,2.757,4.579,2.616
		C232.386,143.216,232.719,142.677,233.066,142.153z M191.855,191.216c0.204-1.543,2.271-1.218,1.963-3.271
		c-3.949-0.32,1.518-4.041-0.655-4.58C190.675,186.311,192.19,189.255,191.855,191.216z M318.107,435.216
		c-0.253,2.572,2.61,2.426,0,3.925c2.222,1.269,5.626,1.35,7.848,2.618C322.096,439.389,321.289,437.594,318.107,435.216z
		 M333.153,441.1c-0.258,1.13,0.972,1.68,0,1.965c-1.447-1.485-5.854-4.265-8.506-3.925c1.585,1.033,2.893,2.34,3.926,3.925
		c-1.468,0.279-2.086,1.404-3.271,1.962c3.436,1.586,6.745-3.799,5.889,0.656C332.663,444.917,337.129,441.423,333.153,441.1z
		 M501.926,416.899c-2.584-0.599-5.839-0.899-7.197,1.31c0.838,1.125,3.913,0.014,3.926,1.963c-1.594,1.399-3.883-0.47-5.234-1.308
		c-1.992,1.151,1.786,2.023,0,2.614c-1.709,0.253-3.588,0.335-4.579,1.31c0.734,0.137,1.02,0.724,1.309,1.308
		c-1.49-0.184-2.459,0.156-2.616,1.309c3.415-3.893,12.704-0.72,11.121-7.195c5.297,2.025,4.79-4.503,8.503-1.963
		c1.401-3.832,4.554-5.912,8.504-7.197c0.01-1.734-0.362-3.851,1.31-3.924c0.103,0.767-0.113,1.857,0.654,1.964
		c2.014-3.274-2.616-1.743-3.924-2.618C513.432,410.007,505.421,412.508,501.926,416.899z M319.415,27.02
		c0.67-2.536,4.38,2.026,3.926-1.309C322.86,24.025,317.573,26.382,319.415,27.02z M376.327,36.832
		c4.625,1.807,9.328,0.735,13.082-1.962C385.173,36.021,378.624,35.547,376.327,36.832z M330.537,52.533
		c1.335,1.613,2.675-2.183,4.578,0c0.196-1.286-0.882-1.297-1.309-1.964c1.082-3.16,3.603-2.021,5.234-2.615
		c9.521-3.482,21.398-8.448,32.057-8.505c-2.571-4.135-10.371,1.837-17.01,0c-2.678,2.211-11.652,4.794-13.081,3.926
		c-6.383,4.737-17.14,5.103-23.552,9.812c-0.003-0.657,0.529-0.779,0.656-1.309c-2.065-0.32-2.311,1.179-4.578,0.655
		c-0.69,3.073,2.206-1.075,2.615,1.308c-3.661,2.66-9.086,3.561-12.428,6.541c-0.102-0.77,0.111-1.855-0.655-1.963
		c-0.84,4.898-9.23,4.472-10.466,5.234c-1.017,2.326,2.221,0.396,1.962,1.962c-2.177,1.312-4.419,2.558-5.888,4.578
		c9.634-4.027,15.049-8.423,24.205-12.427c0.28,1.807-2.438,0.614-2.617,1.963c5.431-0.324,4.535-5.495,11.121-3.27
		c1.017-2.327-2.223-0.396-1.962-1.963c6.063-1.295,9.844-1.349,13.737-5.233C332.813,50.885,331.558,51.593,330.537,52.533z
		 M449.594,42.719c0.761,0.109,0.711,1.036,0.654,1.963c6.06,1.137,12.24,2.151,17.009,4.579
		C464.132,45.059,454.094,41.231,449.594,42.719z M307.641,66.923c-0.671,2.199,2.033,1.019,3.271,1.308
		C311.371,65.968,308.62,65.885,307.641,66.923z M495.387,75.428c0.268-1.576-1.193-1.422-0.657-3.271
		c-1.621,0.848-3.173-1.461-3.269,0C492.188,73.826,494.36,74.051,495.387,75.428z M243.533,105.518
		c-0.21-4.353,5.043-3.242,5.888-6.542C247.194,100.391,240.896,103.458,243.533,105.518z M230.45,117.295
		c0.947,2.437,5.484-0.422,3.926-1.965C234,116.918,230.143,115.023,230.45,117.295z M207.553,149.347
		c0.909-1.056,0.553-3.371,1.964-3.924c0.11,0.979-0.235,2.413,0.655,2.616c0.754-0.771,0.739-2.313,0.654-3.924
		c-0.902,0.028-1.438-0.308-1.963-0.654C208.729,145.327,205.83,147.791,207.553,149.347z M618.369,158.507
		c0.072-2.473-1.282-3.52-3.271-3.926C613.66,156.347,616.827,157.694,618.369,158.507z M623.6,170.935
		c0.207-2.168,2.024,2.551,2.615,0c-1.776,0.468,0.469-3.085-1.309-2.618C624.507,168.884,621.241,169.755,623.6,170.935z
		 M628.179,187.944c0.654,0,1.309,0,1.964,0c-0.112-0.98,0.232-2.415-0.655-2.618C629.207,186.352,627.431,185.885,628.179,187.944z
		 M151.296,268.404c-0.112-1.85,0.564-4.487-1.309-4.58C150.006,265.839,148.075,268.456,151.296,268.404z M154.568,295.226
		c0.184-1.71-0.239-2.814-1.963-2.617C152.421,294.32,152.842,295.422,154.568,295.226z M224.562,334.474
		c-0.506-1.455-0.376-3.546-1.962-3.925C222.365,332.818,221.063,334.802,224.562,334.474z M209.517,336.438
		c-0.049-1.139,0.146-2.036,0.655-2.617c-0.834-0.035-0.907-0.837-1.963-0.655C207.826,334.721,207.207,336.213,209.517,336.438z
		 M180.079,339.709c-0.028-0.899,0.308-1.438,0.655-1.964c-1.849-0.181-2.227-0.49-3.27-2.616
		C175.768,337.152,178.796,338.64,180.079,339.709z M225.871,382.883c-0.75-2.057,1.025-1.59,1.308-2.616
		c-0.933-0.155-1.102-1.078-1.963-1.309C224.935,380.413,223.712,382.503,225.871,382.883z M206.901,389.427
		c-1.213-1.017-4.687-5.853-4.579-3.929C203.994,386.254,204.949,391.12,206.901,389.427z M197.741,392.04
		c1.125-2.168-0.394-2.836-1.961-3.924C193.93,390.042,196.427,391.314,197.741,392.04z M252.691,389.427
		c-1.245-0.284-1.644-1.411-3.272-1.31C249.159,390.214,252.205,391.853,252.691,389.427z M257.271,402.507
		c-1.16-0.583-0.834-2.655-3.271-1.963C254.088,402.376,256.653,405.067,257.271,402.507z M219.984,416.246
		c-1.774-1.729-4.365-6.081-6.542-5.233C215.896,412.061,218.077,416.823,219.984,416.246z M215.404,414.937
		c1.576,0.212,2.167,4.749,3.924,2.613C217.467,417.626,217.184,412.78,215.404,414.937z M261.198,419.515
		c0.908-2.115,4.373-1.154,3.923-1.963c-3.396-0.965-6.082-2.642-8.502-4.579C256.867,416.486,263.07,415.853,261.198,419.515z
		 M267.084,422.788c-0.478-1.783,1.299-1.318,1.307-2.616c-0.55-0.614-4.17-1.396-4.578,0
		C265.333,420.611,265.563,422.344,267.084,422.788z M521.551,421.478c-0.261,4.815,5.692-1.069,1.963-1.307
		C523.697,422.825,523.273,421.647,521.551,421.478z M284.091,434.562c2.055,0.31,2.672-0.815,3.271-1.963
		c-4.935-0.542-8.563-7.806-12.428-5.236c1.22,2.51,4.933,4.917,7.193,2.617C282.298,431.993,283.548,432.924,284.091,434.562z
		 M502.581,437.178c2.656,0.258,4.557-0.238,4.577-2.616c-0.004-1.784-3.979-2.939-5.232-1.308c1.621-0.097,3.175-0.124,3.271,1.308
		c-1.8,1.811-2.734-0.588-4.581-0.654c-1.623,1.208-3.691,1.979-4.577,3.926c2.817-0.232,2.479-3.624,6.539-2.618
		C502.581,435.871,502.581,436.524,502.581,437.178z M474.454,437.178c1.886-1.168,6.45,0.349,5.887-3.271
		C477.643,434.26,476.138,435.812,474.454,437.178z M293.249,437.178c-0.771,0.104-1.856-0.113-1.963,0.655
		c0.969,0.757,1.649,0.757,2.618,0c0.078-2.08-3.182-4.183-4.58-2.618C290.341,436.161,292.376,436.088,293.249,437.178z
		 M247.46,439.14c-0.606-1.139,0.021-3.511-1.963-3.27C245.366,437.744,245.413,439.443,247.46,439.14z M467.909,440.449
		c0.312-1.266,4.604-1.865,2.617-3.269C470.214,438.444,465.92,439.047,467.909,440.449z M486.879,440.449
		c3.148-2.717,4.977,0.259,7.195-1.961C491.97,437.189,487.334,438.015,486.879,440.449z M303.062,443.065
		c-1.331-0.479-2.673-1.968-1.309-3.271c-1.676,0.307-3.708-2.313-4.579-0.654C299.112,440.059,301.008,444.436,303.062,443.065z
		 M488.189,442.413c2.257,0.246,4.965,0.824,3.271-1.313c-0.367,1.898-1.021-1.002-1.962-0.652
		C489.341,441.382,488.419,441.553,488.189,442.413z M305.68,445.03c-0.036-1.127,0.502-1.68,1.306-1.963
		c3.073,0.852,2.231,5.617,7.198,4.58c-1.267-4.403-6.963-4.377-10.469-6.544C303.684,443.098,304.31,444.431,305.68,445.03z
		 M480.992,443.72c1.508,1.516,2.109-1.213,4.579-0.655C485.438,439.299,481.764,442.406,480.992,443.72z M479.03,450.917
		c-0.281-2.465,1.384-2.979,2.616-3.925c2.616-0.221,6.51,0.839,6.542-1.965c-2.223,0.098-3.596,1.443-4.577-0.654
		C481.098,445.582,471.784,453.849,479.03,450.917z M486.226,448.952c-0.113,1.857,2.212,1.279,1.309,3.925
		c2.422,0.46,1.633-2.293,2.617-3.268C488.45,448.772,488.178,448.172,486.226,448.952z M478.375,452.877
		c2.287,1.497-1.543,2.318-0.652,4.582c1.675-0.071,3.117-0.374,3.924-1.31c-3.969,0.356-0.606-5.332,1.311-5.235
		C480.771,448.924,479.835,452.145,478.375,452.877z M352.778,454.188c0.777-1.946-2.758-2.813-3.271-1.312
		C350.754,453.159,351.151,454.287,352.778,454.188z M328.574,453.531c-0.718,2.557,3.896,2.624,3.924,0.657
		C330.901,452.818,331.105,453.252,328.574,453.531z M447.631,456.803c-0.843-0.901-2.842-0.646-4.58-0.652
		C443.193,459.523,446.237,456.392,447.631,456.803z M465.948,460.073c0.256-0.933,0.783-1.101,0-1.963
		c1.526-0.219,2.815-0.672,3.269-1.961C467.356,456.291,463.687,457.981,465.948,460.073z M473.141,461.382
		c1.024-1.593,3.524-1.709,3.926-3.922c-1.282-1.091-5.172-0.82-5.235,1.307c1.678,0.711,3.121-1.986,3.925,0
		C474.904,459.281,470.925,459.952,473.141,461.382z M450.898,460.728c1.898,0.366-1.002,1.019-0.652,1.963
		c3.168-0.26,3.334-0.569,1.965-2.618c1.09,0,2.178,0,3.27,0c0-0.434,0-0.871,0-1.307c-0.656,0.002-0.78-0.529-1.308-0.655
		C453.654,459.555,451.097,458.962,450.898,460.728z M428.659,462.691c1.952-0.936,5.016-3.337,7.853-1.312
		c-0.114-0.977,0.229-2.411-0.657-2.614C434.326,460.944,428.632,458.954,428.659,462.691z M416.23,462.691
		c-0.075,2.727,4.364,0.492,4.579-0.656C419.073,462.043,417.074,461.788,416.23,462.691z M435.202,463.344
		c0.619-2.364-2.576-0.913-3.926-1.31C430.656,464.4,433.854,462.949,435.202,463.344z M453.519,465.962
		c0.509,0.148,1.29,0.021,1.307,0.654c-0.949,0.358-3.38-0.763-3.27,0.655c4.056,1.739,8.549-3.104,8.504-5.234
		C457.985,464.684,454.871,462.41,453.519,465.962z M286.707,467.27c-0.401-1.777-1.296-3.065-2.616-3.924
		C283.83,465.785,284.614,467.181,286.707,467.27z M446.324,464.655c-0.076,1.234-2.165,0.453-1.965,1.961
		c1.675-0.071,3.119-0.372,3.925-1.309c-1.153,0.188-2.025-3.081-2.614-1.307C446.068,464.036,446.442,464.097,446.324,464.655z
		 M378.945,467.27c1.246-1.187,7.737,1.133,8.502-0.654C386.192,465.831,379.161,464.846,378.945,467.27z M390.719,467.924
		c1.566-0.397,4.747,0.821,5.235-0.653C394.737,466.132,391.264,466.428,390.719,467.924z M407.727,469.888
		c-2.11,0.582-0.918-2.136-1.96-2.617c-1.749,0.377-4.089-1.936-5.237,0C404.37,467.39,405.225,470.262,407.727,469.888z
		 M445.016,468.576c0.862,0.011,0.598,1.148,1.309,1.313c-0.196-1.722,2.536-0.517,1.96-2.617
		C446.662,467.175,445.112,467.148,445.016,468.576z M386.14,469.888c-2.325,0.845-2.377,1.476-5.233,0.652
		c1.485,1.803,6.612,3.392,8.503,2.617c-1.029-0.063-2.267,0.086-1.962-1.312c0.86,0.087,4.731,0.101,2.616-0.653
		c-3.014,0.588-3.606-4.645-6.542-1.962C384.503,469.345,385.937,468.999,386.14,469.888z M420.811,472.504
		c-1.565-0.398-4.747,0.82-5.235-0.657c-0.476-1.783,1.301-1.315,1.309-2.615c-2.238,0.383-3.044,2.189-5.888,1.964
		c0.559,2.084-0.569,2.482-1.31,3.27c1.563-0.398,4.746,0.823,5.237-0.655c-0.486-1.043-3.205,0.151-2.619-1.963
		c0.901,0.03,1.438-0.306,1.965-0.653C414.479,473.407,419.626,475.335,420.811,472.504z M398.57,473.158
		c-2.201,0.198-5.671-0.873-5.235,1.961c3.309,0.689,3.741-1.492,6.543-1.31c-1.336-1.553,1.355-3.043-1.309-3.269
		C397.479,471.841,398.627,471.372,398.57,473.158z M429.969,472.504c2.683,0.068,5.342,0.106,6.543-1.311
		C433.937,471.24,431.593,471.51,429.969,472.504z"/>
	<path fill="#FFFFFF" d="M199.704,111.407c1.009,0.838-1.276,3.918-3.27,3.923C195.696,112.194,198.928,113.028,199.704,111.407z"/>
	<path fill="#FFFFFF" d="M436.513,59.728c4.175-1.703,12.756,3.323,18.969,3.924C450.889,65.651,443.036,60.104,436.513,59.728z"/>
	<path fill="#FFFFFF" d="M214.097,91.781c1.023,2.137-3.179,4.654-5.235,5.888C210.213,95.312,212.746,94.14,214.097,91.781z"/>
	<path fill="#FFFFFF" d="M515.663,93.745c6.108,2.833,9.941,7.938,15.047,11.774C526.467,103.433,519.634,98.28,515.663,93.745z"/>
	<path fill="#FFFFFF" d="M217.368,157.851c0.959,1.544,1.378,1.217,0.654,3.272c-3.598,0.327-4.982,2.866-6.543,5.233
		c-1.082-1.769,1.792-5.164,3.926-5.889c-1.289-1.767,0.403-4.924,3.271-4.578c2.536-1.169,0.344-7.071,3.924-7.196
		c-0.429-1.961-1.396,0.623-2.615,0c0.8-2.471,0.938-5.604,3.925-5.888c-0.111,2.727,2.007,3.227,1.963,5.888
		c-2.102,0.138-1.591-2.333-2.617-3.271c-1.632,0.843,0.191,3.67,1.307,3.923c-4.083,1.761-1.299,6.839-4.579,9.814
		C218.702,157.413,221.003,157.242,217.368,157.851z"/>
	<path fill="#FFFFFF" d="M224.562,159.814c-0.678,1.722-2.593,2.203-3.271,3.924C220.14,162.901,222.922,157.97,224.562,159.814z"/>
	<path fill="#FFFFFF" d="M163.726,167.664c1.582,1.413-1.375,3.819-1.309,5.888C160.835,172.138,163.795,169.733,163.726,167.664z"
		/>
	<path fill="#FFFFFF" d="M190.546,201.68c1.468,1.939,0.348,6.865-1.961,7.196C190.659,207.056,188.892,204.527,190.546,201.68z"/>
	<path fill="#FFFFFF" d="M502.581,246.819c0.743,1.389-6.427,8.807-8.507,3.27C498.185,250.27,500.527,248.688,502.581,246.819z"/>
	<path fill="#FFFFFF" d="M617.062,358.678c2.354-0.91,2.254-5.533,5.231-3.925c0.316-2.06-2.007-1.48-1.309-3.924
		c3.738,0.969,2.804-7.99,3.925-11.775c1.444,0.079,0.277,2.774,0.654,3.925c0.859-0.231,1.028-1.152,1.963-1.309
		c-1.1,0.043-2.264-4.23-0.654-5.889c0.498,2.957,2.618,3.281,3.271,4.58c0.59-1.355,0.218-3.626,1.307-5.889
		c-0.944-1.934-1.374,2.039-1.962,2.616c-1.872-0.093-1.195-2.729-1.31-4.581c3.124,1.757,4.969-0.923,5.891-3.268
		c2.217,0.18,0.496,4.301,2.615,4.579c-12.755,38.27-35.486,66.563-62.799,90.272c0.4-0.582,0.791-1.168,0-1.308
		c-1.713,0.686-2.14,2.66-1.964,5.232c-2.325,0.079-2.378,2.418-5.234,1.965c-6.773,8.271-17.677,12.419-24.858,20.279
		c-0.76,0.105-1.163-0.145-1.307-0.656c-16.537,11.157-32.174,23.215-52.334,30.747c-15.404,8.943-37.78,13.173-55.605,17.661
		c-9.184,2.056-19.118-0.233-26.167,3.271c-25.335,0.516-47.308,0.979-64.105-7.194c3.401,2.25,8.678-0.24,10.465,2.613
		c2.329-0.192,3.462-3.909,5.889-1.959c0.468,1.775-3.083-0.471-2.617,1.305c0.553,2.341,3.374-1.683,3.926,0.654
		c0.97-0.282-0.257-0.835,0-1.959c3.692-0.205,5.818,1.157,9.813,0.654c-1.652-2.81-8.25-0.888-11.122-3.927
		c-1.507,3.276-6.787-0.436-9.812,0c-0.63-2.374,2.938-0.549,2.617-2.615c0.957,0.569,2.533,0.521,1.962,2.615
		c9.307-1.059,22.471,3.41,28.783,1.308c2.509-0.12,0.237,0.535,0.656,1.965c12.899-2.614,25.515-0.93,35.977-3.927
		c-3.077-0.813-4.525-0.131-7.195-1.961c-0.972,0.283,0.26,0.838,0,1.961c-24.026,0.753-47.697-0.714-60.182-7.847
		c3.506-0.486,7.081,0.67,12.428,0.651c0.361,1.45-1.247,0.933-1.307,1.964c2.654,1.846,3.484-2.783,7.851-1.31
		c0.359,1.451-1.25,0.933-1.308,1.965c11.412-0.38,28.324,0.537,39.25,1.307c25.106-2.641,45.857-4.335,65.416-13.736
		c-1.12,1.499-3.686,1.547-5.89,1.964c3.509,3.063,6.691-2.12,10.466-3.927c4.062-1.938,9.901-2.064,12.43-5.887
		c18.131-7.601,35.114-16.345,48.41-28.781c3.808,0.937,5.653-3.758,8.503-6.546c4.023-3.936,10.279-5.435,13.737-9.809
		c-0.583,0.506-1.479,0.702-2.616,0.652c3.046-4.842,7.754-10.644,12.429-11.774c0.08-1.175-0.8-1.379-0.652-2.615
		c5.639-4.174,8.748-11.342,13.734-14.392c-0.34-1.87-0.967,1.055-1.307,1.305c1.404-4.92,6.525-11.785,11.118-15.697
		c13.443-25.553,27.997-54.419,31.4-88.312c0.583-5.814,0.488-12.67,1.308-18.97c3.764-0.71,0.629,5.476,2.615,6.54
		c2.046-1.352,0.88-5.165,2.618-7.851c1.479,0.482,1.429,2.494,3.268,2.617c-0.502,27.508-4.997,48.605-11.772,68.688
		c-1.544,0.84-1.219-0.085-3.271,0.655c0.148,0.942,1.952,0.227,1.961,1.308C620.081,349.032,620.046,353.307,617.062,358.678z
		 M626.872,288.684c0.486-0.882,1.454-4.567,0.654-4.579C627.185,285.135,625.006,287.609,626.872,288.684z M629.487,296.532
		c0.998-0.938,0.637-3.409-1.309-3.271C626.818,294.567,628.158,296.057,629.487,296.532z M626.872,347.558
		c0.234-1.557,3.158-3.762,1.308-5.233C627.784,343.718,625.426,346.491,626.872,347.558z M627.526,354.753
		c-0.906-3.741,1.498-4.169,1.961-6.541C626.949,348.252,625.551,354.304,627.526,354.753z M485.571,480.353
		c1.992-0.629,4.464-0.773,5.233-2.619C488.95,478.499,486.481,478.643,485.571,480.353z M375.02,496.052
		c0.023-1.983-2.294-1.629-3.924-1.96C371.034,496.116,373.071,496.04,375.02,496.052z"/>
	<path fill="#FFFFFF" d="M577.155,367.182c-3.529-1.275-1.731-8.056,2.615-7.194C580.364,364.401,575.411,363.324,577.155,367.182z"
		/>
	<path fill="#FFFFFF" d="M552.297,388.77c-0.211-1.518,0.107-2.512,0.653-3.272c1.359,0.168,0.179,2.876,1.31,3.272
		c1.788-0.831,2.609-2.625,3.925-3.926c0.475-1.999-1.13-1.925-0.655-3.926c5.26,1.014,3.557-6.823,7.197-8.502
		c1.278,6.956-6.706,10.295-7.851,17.008C554.604,389.949,554.361,388.449,552.297,388.77z"/>
	<path fill="#FFFFFF" d="M560.146,394.658c-0.872,0-1.746,0-2.616,0c1.6,3.709-3.294,5.011-4.577,7.849
		c-0.728-1.235-1.633-2.292-1.964-3.925c1.785-0.476,1.316,1.3,2.615,1.307c-0.458-2.011-0.458-1.255,0-3.267
		c-4.84,2.407-5.042,0.66-9.157,1.96c3.215-2.166,1.656-5.223,5.888-5.887c0.316,2.059-2.007,1.479-1.308,3.925
		c3.515,0.028,3.28-3.696,5.233-5.236c2.223,1.239-1.121,2.295-0.655,3.929c1.715-1.271,3.587-3.099,2.615-5.236
		c3.649,0.814,1.42-4.249,4.58-3.924c0,0.654,0,1.307,0,1.962c4.893-1.648,5.794-7.289,9.815-9.813
		c-1.733,3.723-6.726,9.843-11.776,12.428C558.667,392.646,560.316,392.741,560.146,394.658z"/>
	<path fill="#FFFFFF" d="M531.366,386.155c1.184,2.801-5.508,8.816-9.814,10.467C524.407,392.719,529.632,391.183,531.366,386.155z"
		/>
	<path fill="#FFFFFF" d="M548.372,403.161c-0.687,2.15-2.81,2.862-4.58,3.926c0.02,0.636,0.802,0.51,1.311,0.656
		c-1.418,3.107-6.942,3.363-5.888-0.656C542.664,406.177,545.125,404.277,548.372,403.161z"/>
	<path fill="#FFFFFF" d="M242.879,426.057c-4.401-0.621-7.992-7.702-12.429-10.468C234.045,417.019,238.427,423.312,242.879,426.057
		z"/>
	<path fill="#FFFFFF" d="M252.691,450.261c-0.583,0.509-1.477,0.702-2.615,0.655c-0.296-2.322-2.21-3.026-2.618-5.235
		c1.396,0.306,1.247-0.937,1.308-1.961c1.518,0.44,1.751,2.171,3.271,2.614c-0.018,0.636-0.801,0.509-1.309,0.655
		c1.456,1.996,2.96,2.938,5.887,1.96c0.315,2.15-3.066,3.452,0,4.578C255.345,454.974,253.476,451.476,252.691,450.261z"/>
	<path fill="#FFFFFF" d="M348.198,457.46c-3.895,0.185-6.053-1.363-9.159-1.965c7.599-0.181,16.585,3.911,25.515,4.578
		c-2.047,2.005-4.834-0.801-7.85,0c0.158,1.151,1.123,1.492,2.616,1.309C355.583,463.923,348.752,461.17,348.198,457.46z"/>
	<path fill="#FFFFFF" d="M460.714,475.773c0.965,4.028-8.63,3.138-12.429,4.58C451.228,477.623,458.095,478.823,460.714,475.773z"/>
	<path fill="#FFFFFF" d="M325.956,481.661c-0.494-1.692-3.327-3.022-1.96-4.578c1.96,0,3.924,0,5.886,0
		c2.001,1.012-2.837,0.573-3.926,0.651c1.526,4.422,8.848-3.347,11.777,1.964c-0.556,1.917-2.105-0.39-3.271,0
		c1.091,3.055,7.045,1.243,9.159,3.272c1.34-3.738-4.131-0.667-4.582-2.617c2.957-3.839,6.833,2.173,11.123,1.31
		C343.737,490.462,336.419,480.175,325.956,481.661z"/>
	<path fill="#FFFFFF" d="M455.48,182.71c-15.272,13.508-28.989,28.578-43.829,42.521c0.597,1.778,1.218-1.745,3.272-0.654
		c0.387,2.088-1.229,2.023,0,3.271c2.835,0.548,5.355-0.042,9.157,0.654c3.181,3.575,5.55,7.967,11.772,8.504
		c2.456,5.394,8.979,6.724,11.772,11.773c0.669,7.477,1.613,13.288,0.656,19.624c-6.929,6.695-17.411-0.416-23.548-2.616
		c-1.652-4.285-7.129-4.169-12.431-5.235c-10.795-2.166-22.158-4.934-33.359-7.195c-13.508,10.042-25.453,21.647-38.596,32.054
		c19.246-2.582,41.824-1.499,56.257,4.578c5.4-8.521,20.196,4.71,22.241-6.542c10.997-3.381,17.997,5.791,26.821,4.578
		c3.167-0.434,8.73-5.109,11.116-7.194c6.499-5.682,14.187-15.054,17.667-22.896c0.834-0.906,3.087-0.399,3.922-1.306
		c-0.203-0.89-1.638-0.543-2.615-0.655c5.578-0.298,7.582-7.513,11.774-11.121c-1.322,10.028-12.263,19.39-6.542,30.092
		c6.367-1.046,6.693-8.136,10.467-11.775c1.836,1.253-0.897,3.41-0.654,5.234c4.865-1.895,5.117-8.403,9.813-10.467
		c-3.89,5.487-5.692,13.061-9.158,18.97c1.222,9.547-2.779,15.225-4.58,24.205c1.693,6.197,2.078,12.971,5.236,18.971
		c1.637,0.111,2.047-1.004,2.614-1.963c2.303,2.558-2.901,3.178-2.614,5.888c1.676,3.207,4.211,2.702,6.541,2.615
		c0.842,5.264,2.219,9.992,7.194,11.121c-0.826,4.17,3.858,6.532,4.578,11.122c0.869-0.657,2.435-0.619,2.616-1.962
		c-1.34,8.103,4.756,19.967,1.309,32.053c-0.834,2.931-3.743,5.436-4.579,8.505c-2.397,8.815-2.771,16.144-11.118,18.315
		c-12.551,3.268-25.75-0.991-33.361-7.848c-1.023-0.925-0.722-2.516-1.965-3.929c-0.82-0.932-3.102-0.976-3.926-1.96
		c-2.479-2.956-2.908-7.681-5.231-10.469c-0.993-1.188-3.121-1.457-3.928-2.614c-1.713-2.463-2.114-5.448-3.92-7.851
		c-1.598-2.123-3.297-3.753-5.237-5.888c-0.883-9.362-4.982-15.514-11.118-19.624c-2.487-12.379-11.243-23.9-19.624-31.401
		c-5.957-5.328-10.997-10.527-22.241-9.811c-17.953,1.142-40.209,12.417-49.063,24.858c0.842,2.645,4.167,2.809,7.195,3.269
		c-5.05,4.827-3.138,12.172-3.27,18.317c4.893,4.18,3.794,8.318,8.505,17.008c4.247,7.834-0.639,28.686-5.888,32.708
		c-9.476,7.26-29.125,2.863-41.211-1.309c-4.873-6.381-9.82-15.379-16.355-20.933c-6.02-5.116-11.427-12.904-17.663-18.97
		c7.601-17.673-10.332-28.833-14.391-43.176c-0.085-2.921,1.44-4.228,2.617-5.888c-3.999-2.052-0.465-8.072,1.963-11.774
		c3.922,1.808,6.611-2.886,10.466-3.271c3.053-0.305,5.345,1.998,8.504,2.617c5.529,1.085,12.134-0.771,15.701,3.271
		c9.074-1.384,12.839-9.241,18.971-15.701c11.7-12.328,25.306-24.627,37.286-36.633c-4.51-4.067-10.52-2.699-16.355-5.234
		c-3.815-1.659-6.35-5.721-9.812-7.195c-8.792-3.748-20.347-1.292-24.205-11.12c7.237,1.5,15.094,1.388,21.589,0
		c-7.493-5.877-15.647-8.227-20.933-17.009c2.511-2.042,4.684,1.833,7.85,1.308c1.556-0.192-0.727-1.771-1.31-1.962
		c2.217-1.534,4.18,2.775,7.197,2.615c-3.424-4.21-14.302-6.63-18.316-12.428c21.387,11.538,45.041,20.813,73.267,25.513
		c0.306-1.395-0.936-1.246-1.964-1.307c0.282-1.465,3.225-0.267,4.578-0.655c2.035-0.146,1.105-3.255,1.307-5.232
		c2.823,0.049,2.136,4.314,0.656,5.232c9.367-3.498,14.006-11.724,18.971-19.624c-18.099,1.842-38.287,4.606-54.948-1.963
		c-7.634-3.01-16.098-8.065-24.204-12.428c-3.927-2.115-7.929-3.941-11.775-6.542c-6.951-4.698-15.015-7.272-17.008-16.353
		c-4.109-6.853-10.022-20.691-5.235-30.092c26.634,21.051,74.207-3.077,100.742-10.467c4.204-4.503,2.836-11.027,5.888-15.699
		c2.32-3.556,10.296-10.045,15.047-11.12c1.565-0.354,3.586,0.512,5.232,0c10.975-3.419,17.438-12.933,33.363-13.083
		c6.606-0.063,15.73-0.652,22.24,2.615c6.397,3.212,11.965,13.126,17.665,18.971c2.123,2.181,5.167,3.444,6.541,5.235
		c1.647,2.147,2.209,4.988,3.924,7.196c2.252,2.897,4.537,6.158,7.195,9.158c2.839,3.203,7.698,5.009,9.813,8.504
		c5.303,8.78,4.958,19.524,13.082,27.475c-1.011,13.375,2.075,32.289-7.194,39.25c-6.813,5.113-23.499,4.718-30.745,0
		C474.515,196.411,465.643,186.164,455.48,182.71z M387.448,220.65c2.446-1.447,3.384-1.23,5.234,0.656
		c2.831-4.583,7.116-7.71,8.502-13.738C395.242,208.104,390.453,215.037,387.448,220.65z M355.394,249.434
		c-13.223,12.705-28.742,26.884-40.559,40.558c-1.158,1.343-4.521,2.78-3.27,5.234c8.934-2.073,12.318-7.548,18.316-13.082
		c11.378-10.501,22.386-21.537,32.707-32.055C359.893,250.171,358.494,248.951,355.394,249.434z"/>
	<path fill="#FFFFFF" d="M578.464,286.72c-2.177-1.536-3.131,2.671-4.579,3.926c0.678,1.262,2.595-1.715,3.271-2.617
		c1.897,1.521-1.229,3.524-0.656,5.889c-1.217,0.625-2.186-1.96-2.614,0c-0.462,3.349,2.797-1.106,3.271,1.309
		c0.491,2.743-2.502-0.888-2.616,1.962c2.671,0.743-1.165,8.939-4.578,9.813c-0.489-6.833-3.115-14.053-1.312-24.857
		c2.064-0.321,2.312,1.177,4.579,0.654c0.888-0.203,0.542-1.638,0.656-2.617c-1.29-0.997-3.563,0.799-1.964-2.616
		c-2.185-0.657-2.146,0.907-1.961,2.616c-2.018-1.036-1.668-6.678,0.655-7.194c-2.587-0.959-4.961-9.432-1.312-10.467
		c-0.157-1.15-1.125-1.491-2.616-1.309c0-1.09,0-2.18,0-3.27C582.304,249.616,581.72,275.484,578.464,286.72z M573.885,268.404
		c0.196-1.724-0.906-2.146-2.617-1.962C571.07,268.166,572.172,268.59,573.885,268.404z M573.885,278.218
		c1.302-1.629,0.366-5.21-1.311-5.889C573.168,274.135,572.779,276.924,573.885,278.218z M569.961,284.76
		c5.106-0.541-0.926,6.376,3.268,4.578c-2.165-1.998,2.178-3.017,1.311-5.888C573.369,284.244,570.731,283.569,569.961,284.76z
		 M568.648,297.187c2.628-0.423,0.438-5.667,2.616-6.541c-0.139-0.733-0.725-1.018-1.307-1.309
		C567.929,291.379,569.429,295.238,568.648,297.187z"/>
	<path fill="#FFFFFF" d="M586.968,355.408c0.579-0.507,1.475-0.703,2.615-0.654c-2.511-2.107,2.566-6.094,3.925-8.503
		c-0.46-4.729-1.097-9.229,3.922-9.812c-1.329-3.281,1.188-3.209,1.966-5.888c2.275,2.112-1.849,3.347-0.656,6.541
		c4.132-4.287,0.36-12.619,6.543-15.046c-1.028-2.053-1.334-1.773-0.655-4.579c2.586-0.11-0.209,1.005,1.31,1.962
		c0.803-3.123,2.669-5.179,3.271-8.505c1.357-0.584,0.177,4.455,1.308,1.964c2.803,7.105-3.622,13.609-3.271,18.316
		c-5.263,10.437-11.339,20.06-16.354,30.745c-6.1,4.616-8.613,16.21-17.008,16.356C578.688,371.115,585.377,365.81,586.968,355.408z
		 M607.247,324.01c2.012,1,2.012-4.273,0-3.271C607.247,321.827,607.247,322.918,607.247,324.01z M595.471,344.286
		c0.84-1.686,0.304-4.727,0-5.887C594.457,340.267,593.648,342.73,595.471,344.286z M591.546,350.829c0.435,0,0.874,0,1.309,0
		c1.21-0.098,0.401-2.215,1.308-2.617C592.499,348.293,591.625,349.165,591.546,350.829z"/>
	<path fill="#FFFFFF" d="M361.282,452.877c2.678-0.915,9.133,0.012,9.812,3.272c1.885-1.372,11.616-1.754,12.429,0.654
		C375.536,457.18,365.14,458.425,361.282,452.877z"/>
	<path fill="#FFFFFF" d="M272.317,465.962c2.368,3.52,7.363,4.413,11.121,6.542c-1.108,1.669-4.367-1.41-5.234,1.309
		c6.719,1.568,10.98,5.59,17.009,7.851c-9.935-0.098-23.02-2.708-27.473-10.468c0.617-1.631,3.37,1.759,3.27-1.307
		c2.309,0.087,2.925,1.868,5.234,1.96c-0.18-3.308-4.701-2.276-5.234-5.232C271.767,466.723,272.171,466.471,272.317,465.962z"/>
</g>
<g>
	<path fill="#EDECEA" d="M71.435,625.424c2.067,0.123,4.015,0.214,5.84,0.273c1.825,0.063,3.587,0.092,5.292,0.092
		c3.404,0.122,6.569,0.214,9.489,0.273c2.92,0.063,5.534,0.091,7.847,0.091c2.31,0,4.591,0,6.843,0c2.25,0,4.471-0.06,6.661-0.182
		c1.703,0,3.436,0,5.201,0c1.762,0,3.496-0.061,5.201-0.183c2.067,0,4.197-0.028,6.387-0.092c2.19-0.06,4.44-0.091,6.752-0.091
		c0.485,0,0.973,0,1.46,0c0.485,0,0.973,0,1.46,0c7.907,0.122,15.175,1.825,21.807,5.109c6.629,3.285,9.945,9.794,9.945,19.526
		c0,9.246-3.316,15.938-9.945,20.073c-6.632,4.137-14.143,7.604-22.537,10.401v0.183c11.679,0.61,20.712,3.193,27.099,7.756
		c6.387,4.562,9.581,12.135,9.581,22.719c0,11.072-4.562,20.319-13.687,27.738c-9.124,7.422-20.926,11.132-35.402,11.132
		c-0.246,0-0.519,0-0.821,0c-0.305,0-0.579,0-0.821,0c-1.34,0-2.709-0.032-4.106-0.092c-1.4-0.063-2.829-0.091-4.289-0.091
		c-2.8-0.123-5.657-0.214-8.577-0.274c-2.92-0.063-5.839-0.091-8.759-0.091c-2.555,0-5.081,0.028-7.573,0.091
		c-2.495,0.061-4.958,0.151-7.391,0.274c-1.217,0-2.403,0.028-3.558,0.091c-1.158,0.06-2.281,0.092-3.376,0.092v-4.197l5.839-3.285
		c1.46-0.729,2.432-1.916,2.92-3.559c0.484-1.643,0.729-3.86,0.729-6.66v-81.937c0-3.77-0.063-6.871-0.182-9.307
		c-0.123-2.432-0.488-4.197-1.095-5.292c-0.487-0.972-1.249-1.702-2.281-2.189c-1.035-0.485-2.769-0.79-5.201-0.913l-6.752-0.729
		V625.424z M112.676,635.278v41.424h5.475c8.149,0.123,14.599-1.368,19.344-4.471s7.117-9.093,7.117-17.975
		c0-7.177-1.796-12.227-5.383-15.146c-3.59-2.92-8.731-4.38-15.42-4.38c-1.825,0-3.65,0.063-5.475,0.183
		c-1.825,0.123-3.712,0.305-5.657,0.548V635.278z M112.676,739.477c0.973,0.364,1.917,0.578,2.829,0.639
		c0.913,0.063,1.793,0.153,2.646,0.273c0.73,0,1.46,0,2.19,0s1.46,0,2.19,0c9.731,0,16.483-2.592,20.256-7.781
		c3.77-5.187,5.657-11.811,5.657-19.868c0-10.254-2.708-17.239-8.121-20.963c-5.415-3.724-12.805-5.586-22.172-5.586h-5.475V739.477
		z"/>
	<path fill="#EDECEA" d="M205.195,731.448v-39.965c0-5.109-0.246-8.454-0.73-10.036c-0.488-1.58-1.825-2.433-4.015-2.556
		l-8.212-0.729v-6.569c0.365,0.122,0.73,0.153,1.095,0.091c0.365-0.06,0.79-0.15,1.277-0.273c3.04-0.365,6.082-0.79,9.125-1.277
		c3.04-0.484,6.082-1.215,9.124-2.189l12.774-4.197l1.825,1.095v66.607c0,2.312,0.06,4.105,0.182,5.383
		c0.12,1.277,0.302,2.403,0.548,3.376c0.242,0.853,0.79,1.522,1.642,2.008c0.85,0.487,2.25,0.853,4.197,1.095l6.387,0.183v6.752
		c-0.487,0-0.943,0-1.369,0c-0.427,0-0.821,0-1.186,0c-0.853-0.123-1.733-0.183-2.646-0.183c-0.912,0-1.796,0-2.646,0
		c-2.677-0.123-5.383-0.214-8.121-0.274c-2.737-0.063-5.628-0.091-8.668-0.091c-2.677,0-5.323,0.028-7.938,0.091
		c-2.618,0.061-5.201,0.151-7.756,0.274c-1.34,0-2.646,0.028-3.923,0.091c-1.277,0.06-2.586,0.092-3.923,0.092v-6.752l6.387-0.365
		c1.945-0.12,3.345-0.425,4.197-0.912c0.85-0.485,1.397-1.155,1.643-2.008c0.242-0.973,0.425-2.099,0.547-3.376
		c0.12-1.277,0.183-3.011,0.183-5.201V731.448z M215.597,620.861c3.892,0.123,7.146,1.491,9.763,4.106
		c2.615,2.617,3.923,5.931,3.923,9.945c0,3.772-1.369,6.966-4.106,9.58c-2.737,2.618-5.931,3.924-9.581,3.924
		c-3.649,0-6.843-1.306-9.581-3.924c-2.737-2.614-4.106-5.808-4.106-9.58c0-4.015,1.337-7.328,4.015-9.945
		c2.674-2.615,5.899-3.924,9.671-3.924V620.861z"/>
	<path fill="#EDECEA" d="M262.494,729.745v-47.386l-11.679,0.729v-4.015l12.044-7.847v-10.949c0-1.337-0.031-2.706-0.091-4.105
		c-0.063-1.397-0.091-2.766-0.091-4.106c-0.123-1.337-0.213-2.706-0.273-4.105c-0.063-1.397-0.154-2.829-0.274-4.289
		c0.73-0.242,1.46-0.516,2.19-0.82c0.73-0.303,1.46-0.576,2.19-0.821c0.972-0.365,1.885-0.73,2.737-1.095
		c0.85-0.365,1.702-0.668,2.555-0.913c2.432-0.972,4.745-1.944,6.935-2.92c2.189-0.972,4.074-1.824,5.657-2.555l2.555,1.643
		c-0.488,2.678-0.913,5.537-1.278,8.577c-0.365,3.042-0.61,6.084-0.729,9.124c-0.123,1.218-0.183,2.435-0.183,3.649
		c0,1.218,0,2.436,0,3.65v10.401l20.803-1.095l-1.46,11.861h-19.343v43.432c0,4.744,0.85,7.938,2.555,9.58
		c1.702,1.643,4.622,2.464,8.759,2.464c1.46,0,2.706-0.151,3.741-0.456c1.032-0.303,2.036-0.639,3.011-1.004
		c0.242-0.12,0.516-0.273,0.821-0.456c0.302-0.183,0.576-0.334,0.821-0.456l1.459,3.299l-8.941,10.935
		c-0.61,0.85-1.888,1.611-3.833,2.281c-1.947,0.667-4.379,1.004-7.299,1.004c-8.274,0-14.234-1.8-17.883-5.398
		c-3.65-3.598-5.475-9.483-5.475-17.655V729.745z"/>
	<path fill="#EDECEA" d="M409.759,651.884l-59.308,87.411h50.366c5.229,0.122,8.879-0.456,10.949-1.734
		c2.067-1.277,3.345-3.011,3.832-5.2l2.737-14.416h7.3c-0.488,2.677-0.913,5.565-1.277,8.668c-0.365,3.102-0.67,6.295-0.913,9.58
		c-0.245,2.435-0.428,4.867-0.547,7.3c-0.123,2.435-0.183,4.685-0.183,6.752c-2.555,0-5.141-0.032-7.756-0.092
		c-2.617-0.063-5.264-0.091-7.938-0.091c-6.45-0.123-12.806-0.214-19.07-0.274c-6.267-0.063-12.135-0.091-17.61-0.091
		c-7.787,0-16.15,0.06-25.091,0.183c-8.942,0.119-18.828,0.242-29.654,0.365v-6.935c1.337-1.58,2.674-3.254,4.015-5.019
		c1.337-1.762,2.737-3.559,4.197-5.384c1.825-2.432,3.65-4.864,5.475-7.299c1.825-2.433,3.587-4.928,5.292-7.482l55.841-81.57
		h-40.512c-6.57,0.122-10.707,0.67-12.409,1.643c-1.705,0.975-2.86,3.284-3.467,6.934l-1.46,9.854h-6.752v-29.563
		c3.527,0.123,6.903,0.214,10.128,0.273c3.222,0.063,6.356,0.092,9.398,0.092c5.959,0.122,11.434,0.214,16.424,0.273
		c4.987,0.063,9.549,0.091,13.687,0.091c4.257,0,8.851-0.028,13.777-0.091c4.927-0.06,10.371-0.151,16.333-0.273
		c2.919,0,5.99-0.028,9.215-0.092c3.223-0.06,6.599-0.091,10.128-0.091v6.204c-1.095,1.341-2.189,2.709-3.284,4.106
		c-1.095,1.399-2.19,2.828-3.285,4.288c-0.975,1.218-1.916,2.464-2.828,3.741c-0.913,1.277-1.856,2.586-2.829,3.923
		c-0.487,0.73-0.975,1.432-1.46,2.099c-0.487,0.67-0.975,1.369-1.459,2.099V651.884z"/>
	<path fill="#EDECEA" d="M460.671,709.002c0,9.005,2.463,16.424,7.391,22.264c4.927,5.839,12.135,8.759,21.624,8.759
		c1.46,0,2.979-0.151,4.563-0.456c1.579-0.302,3.222-0.698,4.927-1.187c1.825-0.607,3.587-1.337,5.292-2.189
		c1.702-0.85,3.345-1.702,4.928-2.555l2.189,2.555l-4.015,8.76c-2.8,1.582-5.415,2.859-7.847,3.832
		c-2.436,0.972-4.808,1.762-7.117,2.372c-2.313,0.607-4.594,1.032-6.843,1.277c-2.253,0.242-4.717,0.365-7.391,0.365
		c-13.262,0-23.481-3.747-30.658-11.246c-7.18-7.499-10.767-17.77-10.767-30.817c0-7.556,0.973-14.596,2.92-21.119
		c1.944-6.524,6.752-12.042,14.416-16.553l8.577-5.303c2.31-1.215,4.714-2.19,7.208-2.92c2.492-0.73,5.078-1.095,7.756-1.095
		c10.097,0,18.551,2.677,25.365,8.029c6.813,5.354,10.22,13.384,10.22,24.088v9.307c-1.341,0.487-2.709,0.884-4.106,1.187
		c-1.399,0.305-2.769,0.578-4.105,0.82c-3.65,0.73-7.271,1.218-10.858,1.46c-3.59,0.246-6.843,0.365-9.763,0.365H460.671z
		 M463.499,680.351c-2.617,4.138-3.923,10.524-3.923,19.161c0.85,0,1.702,0.031,2.555,0.092c0.85,0.063,1.702,0.091,2.555,0.091
		c1.702,0.123,3.404,0.214,5.109,0.273c1.702,0.063,3.404,0.092,5.109,0.092c1.702,0,3.404-0.028,5.109-0.092
		c1.703-0.06,3.405-0.15,5.11-0.276c0.85,0,1.702-0.028,2.555-0.091c0.85-0.061,1.702-0.092,2.555-0.092
		c0-1.101-0.031-2.264-0.092-3.49c-0.063-1.226-0.153-2.452-0.273-3.678c-0.365-4.533-1.551-8.728-3.559-12.589
		c-2.007-3.857-5.688-5.788-11.04-5.788C470.037,674.088,466.114,676.218,463.499,680.351z"/>
	<path fill="#EDECEA" d="M537.861,731.419v-40.066c0-5.121-0.245-8.478-0.729-10.063c-0.488-1.585-1.825-2.438-4.015-2.561
		l-8.212-0.732v-6.587c5.475,0,10.644-0.667,15.511-2.008c4.864-1.337,9.672-2.737,14.417-4.196c0.729-0.243,1.428-0.485,2.099-0.73
		c0.667-0.242,1.368-0.484,2.098-0.729l1.096,0.912v13.687l14.599-11.314c0.85-0.484,1.702-0.94,2.555-1.368
		c0.85-0.425,1.702-0.759,2.555-1.004c1.58-0.484,3.131-0.759,4.653-0.821c1.52-0.06,2.889-0.091,4.106-0.091
		c0.729,0,1.428,0.031,2.099,0.091c0.667,0.063,1.368,0.092,2.098,0.092c2.92,0.364,5.749,1.157,8.486,2.372
		c2.737,1.217,5.078,2.8,7.025,4.744c3.162,3.294,5.078,7.197,5.748,11.708c0.667,4.514,1.004,9.452,1.004,14.818v33.845
		c0,2.321,0.06,4.12,0.183,5.4c0.12,1.28,0.302,2.407,0.547,3.382c0.243,0.855,0.79,1.525,1.643,2.014
		c0.85,0.49,2.25,0.855,4.197,1.098l6.022,0.183v6.752c-1.096,0-2.161-0.032-3.193-0.092c-1.035-0.063-2.039-0.091-3.012-0.091
		c-1.34-0.123-2.586-0.183-3.74-0.183c-1.158,0-2.344-0.063-3.559-0.183c-0.73,0-1.46,0-2.19,0c-0.729,0-1.46,0-2.189,0
		c-2.189,0-4.26,0.028-6.204,0.091c-1.948,0.061-3.772,0.151-5.475,0.274c-0.976,0-1.888,0.028-2.737,0.091
		c-0.853,0.06-1.705,0.092-2.556,0.092v-49.819c0-4.257-0.364-7.692-1.095-10.31c-0.729-2.615-1.947-4.714-3.649-6.296
		c-1.582-1.58-3.438-2.675-5.565-3.285c-2.13-0.607-4.836-0.912-8.121-0.912c-2.92,0-5.628,0.943-8.12,2.828
		c-2.495,1.888-4.289,3.924-5.384,6.113c-0.245,0.61-0.428,1.218-0.547,1.825c-0.123,0.61-0.183,1.157-0.183,1.643v39.417
		c0,2.312,0.06,4.105,0.183,5.383c0.119,1.277,0.302,2.403,0.547,3.376c0.242,0.853,0.79,1.522,1.643,2.008
		c0.85,0.487,2.25,0.853,4.197,1.095l6.387,0.183v6.752c-0.487,0-0.943,0-1.368,0c-0.428,0-0.821,0-1.187,0
		c-0.853-0.123-1.733-0.183-2.646-0.183c-0.912,0-1.796,0-2.646,0c-2.678-0.123-5.384-0.214-8.121-0.274
		c-2.737-0.063-5.628-0.091-8.668-0.091c-2.677,0-5.323,0.028-7.938,0.091c-2.618,0.061-5.201,0.151-7.756,0.274
		c-1.34,0-2.646,0.028-3.924,0.091c-1.277,0.06-2.586,0.092-3.923,0.092v-6.752l6.387-0.365c1.944-0.12,3.345-0.425,4.197-0.912
		c0.85-0.488,1.397-1.161,1.643-2.017c0.242-0.975,0.425-2.102,0.547-3.382c0.12-1.28,0.183-3.02,0.183-5.215V731.419z"/>
	<path fill="#EDECEA" d="M670.527,687.103l15.328,39.782l18.432-45.986c0.119-0.12,0.211-0.273,0.273-0.456
		c0.06-0.183,0.092-0.334,0.092-0.456c0.119-0.607,0.211-1.187,0.273-1.734c0.06-0.547,0.091-1.003,0.091-1.368
		c0-0.973-0.456-1.762-1.368-2.372c-0.913-0.607-1.916-0.973-3.012-1.096c-0.122,0-0.213,0-0.273,0c-0.063,0-0.153,0-0.273,0
		l-6.022-0.547v-6.935c0.973,0.123,1.916,0.214,2.829,0.273c0.912,0.063,1.854,0.092,2.828,0.092
		c1.825,0.122,3.71,0.214,5.657,0.273c1.944,0.063,3.832,0.091,5.657,0.091c1.944,0,3.86-0.028,5.748-0.091
		c1.885-0.06,3.741-0.151,5.565-0.273c0.973,0,1.917-0.028,2.829-0.092c0.912-0.06,1.854-0.091,2.828-0.091v6.752l-4.744,0.912
		c-0.365,0.245-0.702,0.428-1.004,0.548c-0.305,0.122-0.639,0.305-1.004,0.547c-0.975,0.61-1.916,1.552-2.828,2.829
		c-0.913,1.277-1.797,2.891-2.646,4.836l-36.314,84.308c-0.61,1.46-1.522,3.527-2.737,6.205c-1.218,2.674-2.8,5.534-4.744,8.576
		c-2.678,4.135-6.022,7.938-10.037,11.405c-4.015,3.468-8.882,5.201-14.599,5.201c-0.487,0-0.943,0-1.369,0
		c-0.428,0-0.884-0.063-1.368-0.183c-1.825-0.122-3.649-0.456-5.475-1.004c-1.825-0.547-3.53-1.186-5.109-1.916l3.284-17.336
		l2.008-0.729c1.702,2.067,3.649,3.709,5.84,4.927c2.189,1.215,4.622,1.825,7.299,1.825c3.527,0,6.721-1.705,9.581-5.109
		c2.856-3.408,5.138-7.24,6.843-11.497l4.197-10.219l-28.833-73.725c-0.364-0.972-0.761-1.916-1.186-2.828
		c-0.428-0.913-0.885-1.733-1.369-2.464c-0.853-1.46-1.674-2.583-2.464-3.376c-0.792-0.79-1.673-1.187-2.646-1.187l-6.387-0.547
		v-6.935c1.337,0.123,2.674,0.214,4.015,0.273c1.337,0.063,2.674,0.092,4.015,0.092c0.729,0,1.429,0.031,2.099,0.091
		c0.667,0.063,1.368,0.092,2.099,0.092c1.944,0,3.951,0.031,6.021,0.091c2.067,0.063,4.074,0.091,6.022,0.091
		c2.674,0,5.352-0.028,8.029-0.091c2.674-0.06,5.352-0.151,8.029-0.273c1.337,0,2.675-0.028,4.015-0.092
		c1.337-0.06,2.675-0.091,4.015-0.091v6.926l-6.387,0.373c-1.218,0.123-2.313,0.52-3.285,1.187c-0.976,0.67-1.46,1.674-1.46,3.011
		c0,0.365,0.028,0.702,0.092,1.004c0.06,0.306,0.091,0.639,0.091,1.004c0.242,0.975,0.607,2.07,1.095,3.284
		c0.485,1.218,1.095,2.678,1.825,4.38V687.103z"/>
</g>
</svg>
