<?xml version="1.0" encoding="utf-8"?>
<!-- Generator: Adobe Illustrator 15.0.0, SVG Export Plug-In . SVG Version: 6.00 Build 0)  -->
<!DOCTYPE svg PUBLIC "-//W3C//DTD SVG 1.1//EN" "http://www.w3.org/Graphics/SVG/1.1/DTD/svg11.dtd">
<svg version="1.1" id="レイヤー_1" xmlns="http://www.w3.org/2000/svg" xmlns:xlink="http://www.w3.org/1999/xlink" x="0px"
	 y="0px" width="595.281px" height="841.891px" viewBox="0 0 595.281 841.891" enable-background="new 0 0 595.281 841.891"
	 xml:space="preserve">
<path opacity="0.3" fill="#911F07" d="M222.856,705.177c5.239-0.594,9.763-1.309,13.572-2.262c1.905-0.477,3.572-1.07,5.001-1.666
	s2.738-1.311,3.69-2.023c0,0,1.548,0,4.167-0.119c1.31-0.119,2.977-0.119,4.763-0.238c1.785-0.238,3.81-0.477,6.071-0.834
	c2.144-0.357,4.524-0.715,6.905-1.191c2.382-0.475,4.882-1.189,7.382-2.023c2.5-0.715,5-1.666,7.5-2.619
	c2.501-1.072,4.882-2.262,7.263-3.453c2.381-1.309,4.524-2.619,6.667-4.166c2.024-1.549,4.049-3.334,5.715-5.119
	c3.453-3.572,5.953-7.619,7.382-12.145c2.857-8.93,0.833-19.525-6.667-32.025c-0.952-1.549-1.786-3.096-2.619-4.525
	c-0.834-1.428-1.548-2.857-2.381-4.285c-1.43-2.619-2.739-5.119-3.93-7.262c-1.19-2.145-2.262-4.049-3.215-5.953
	c-0.952-1.787-1.785-3.453-2.619-4.762c-1.666-2.738-3.095-4.764-4.404-6.072c-1.311-1.311-2.62-2.143-4.049-2.381
	s-2.856,0-4.523,0.594c-1.667,0.596-3.572,1.311-5.715,2.383c-4.405,2.023-10.239,4.404-18.216,5.832
	c-16.072,2.5-30.479-0.713-42.026-6.547c-11.549-5.953-20.239-14.406-26.669-22.859c-3.096-4.404-4.405-6.668-5.596-8.572
	c-1.19-2.023-2.5-3.689-5.715-6.666c-1.547-1.549-3.452-3.572-6.19-6.072c-0.715-0.596-1.31-1.311-2.024-2.143
	c-0.714-0.715-1.429-1.549-2.262-2.383c-0.833-0.832-1.667-1.785-2.619-2.738c-0.952-0.951-1.786-2.023-2.738-3.094
	c-1.905-2.264-4.167-4.525-6.31-7.383c-1.072-1.428-2.263-2.857-3.572-4.404c-1.19-1.549-2.381-3.215-3.571-5
	c-1.31-1.787-2.619-3.572-3.811-5.596c-1.31-2.025-2.619-4.049-4.048-6.191c-1.31-2.262-2.619-4.523-4.048-7.023
	c-0.714-1.191-1.31-2.502-2.023-3.811c-0.715-1.311-1.31-2.619-2.024-3.93c-5.357-10.834-10.357-23.93-13.811-38.813
	c-3.452-14.762-5.119-31.311-4.762-48.574c0-1.071,0-2.143,0.119-3.214c0-1.071,0.119-2.143,0.238-3.214
	c0.118-2.143,0.356-4.286,0.476-6.548c0-1.071,0.238-2.143,0.357-3.214l0.477-3.214l0.356-3.215l0.238-1.667l0.238-1.667
	c0.833-4.286,1.548-8.691,2.619-12.977l0.715-3.214c0.237-1.072,0.476-2.143,0.833-3.215c0.596-2.143,1.31-4.286,1.905-6.429
	c0.595-2.143,1.429-4.286,2.143-6.31l1.071-3.214c0.357-1.072,0.715-2.143,1.19-3.096c1.667-4.167,3.334-8.334,5.358-12.263
	l1.428-2.977l0.715-1.547l0.833-1.429c1.072-1.905,2.144-3.929,3.096-5.834l0.834-1.429l0.833-1.429l1.667-2.857l1.667-2.857
	l0.833-1.429l0.952-1.31c9.524-14.525,20.597-27.502,32.503-37.979c11.786-10.596,23.93-18.93,35.479-25.24
	c11.429-6.31,22.264-10.358,31.073-13.096c2.262-0.595,4.286-1.31,6.311-1.786c2.023-0.476,3.81-0.833,5.595-1.19
	c3.453-0.833,6.311-1.071,8.572-1.19c9.049-0.595,20.954-4.048,36.193-7.263c1.905-0.357,3.929-0.833,5.834-1.19
	c2.023-0.357,4.048-0.714,6.19-1.071c4.286-0.833,8.691-1.31,13.335-1.905c0.595-0.119,1.19-0.119,1.785-0.238
	c0.596,0,1.191-0.119,1.786-0.119c1.19-0.119,2.381-0.238,3.572-0.238c2.381-0.119,4.881-0.476,7.262-0.476
	c2.5-0.119,5.001-0.119,7.62-0.238c2.5,0,5.119,0.119,7.738,0.119c8.691,0.357,17.739,1.19,26.906,2.857
	c10.954,5.833,23.098,13.215,33.098,21.311c14.525,11.191,31.669,26.312,43.218,40.241c3.096,3.334,5.596,6.787,7.977,9.763
	c1.19,1.429,2.263,2.977,3.215,4.286s1.904,2.619,2.738,3.691c3.214,4.643,5.119,7.5,5.119,7.5s0-0.833-0.238-2.619
	c-0.238-1.667-0.595-4.167-1.666-7.382c-0.596-1.547-1.191-3.333-2.024-5.238c-0.357-0.953-0.833-1.905-1.31-2.977
	c-0.596-0.952-1.071-2.024-1.786-3.095c-0.595-1.072-1.31-2.143-2.023-3.333c-0.715-1.191-1.548-2.381-2.382-3.453
	c-0.952-1.191-1.904-2.381-2.856-3.572c-1.072-1.19-2.024-2.5-3.215-3.691c-4.644-4.881-11.668-12.263-20.358-20.121
	c-8.691-7.738-19.287-15.834-30.359-22.501c-1.905-1.19-3.929-2.381-5.834-3.453c6.19,2.024,12.382,4.405,18.572,7.144
	c11.191,5.119,21.907,11.548,31.907,19.287c10.001,7.738,18.931,16.787,26.669,26.788c7.619,10,15.12,21.549,21.668,34.407
	c6.548,12.858,12.024,26.907,15.954,41.55c3.929,14.644,6.19,29.883,6.905,45.003c0.714,15.002-0.238,29.883-2.501,43.574
	c-4.404,27.502-13.811,50.361-22.382,65.719c-1.072,1.906-2.024,3.811-2.977,5.477c-1.071,1.668-2.024,3.215-2.977,4.762
	c-0.952,1.43-1.786,2.857-2.5,4.049c-0.834,1.191-1.667,2.381-2.263,3.334c-1.429,2.023-2.381,3.572-3.095,4.643
	c-0.715,1.072-1.19,1.549-1.19,1.549s-1.191,2.262-2.857,5.357c-0.834,1.547-1.905,3.332-2.857,5.119
	c-1.072,1.785-2.144,3.689-3.096,5.477c-4.286,6.785-7.263,12.262-1.786,5.834c1.429-1.549,2.738-3.096,4.167-4.406
	c1.31-1.428,2.619-2.738,3.81-4.047c1.31-1.191,2.501-2.381,3.691-3.453c1.071-1.072,2.143-2.023,3.214-2.977
	c2.024-1.785,3.691-3.096,4.882-3.93c1.19-0.951,1.786-1.428,1.786-1.428s-0.477,0.715-1.191,2.023
	c-0.833,1.311-1.904,2.977-3.333,5.119c-0.715,1.072-1.429,2.264-2.263,3.453c-0.833,1.191-1.785,2.381-2.619,3.691
	c-1.904,2.619-3.81,5.357-5.952,7.977c-2.144,2.619-4.167,5.357-6.311,7.738c-1.071,1.191-2.023,2.381-2.977,3.453
	c-0.476,0.596-0.952,1.07-1.428,1.666c-0.477,0.477-0.953,0.953-1.429,1.43c-3.572,3.689-5.953,6.189-5.953,6.189
	s0.714,0.477,2.143,0.834c-4.881,1.785-9.881,3.811-13.811,5.834c-5.833,2.977-16.072,10.596-27.739,18.215
	c-1.429,0.953-2.977,1.906-4.405,2.977c-1.548,0.953-3.096,1.906-4.524,2.738c-1.548,0.953-2.977,1.906-4.524,2.857
	c-1.548,0.834-3.095,1.787-4.643,2.619c-1.548,0.834-2.977,1.787-4.405,2.619c-1.548,0.834-2.977,1.668-4.405,2.383
	c-1.429,0.832-2.857,1.547-4.167,2.381c-1.31,0.713-2.619,1.428-3.929,2.023c-5,2.619-3.929,2.977,0.833,1.785
	c1.191-0.357,2.62-0.596,4.286-1.189c1.667-0.596,3.453-1.191,5.357-1.787c4.048-1.189,8.453-3.213,13.335-5.119
	c9.644-4.166,20.239-9.523,29.645-14.762c4.644-2.738,9.167-5.121,13.097-7.502c2.023-1.07,3.81-2.143,5.596-2.977
	c1.666-0.951,3.214-1.785,4.643-2.381s2.738-1.189,3.929-1.666s2.382-1.072,3.334-1.549c2.023-0.951,3.69-1.785,5.119-2.5
	c2.857-1.309,4.524-2.143,5.357-2.619c0.596-0.357,0.953-0.477,1.071-0.477c0.119-0.355,0.715-1.547,1.072-2.975
	c0.238-1.072,0.476-2.145,0.238-3.096c0.595-0.357,1.071-0.715,1.666-1.191c1.905-1.428,3.811-3.453,5.834-5.715
	c0.952-1.189,2.024-2.262,2.977-3.572c0.952-1.309,1.905-2.619,2.977-4.047c0.952-1.43,2.023-2.738,3.095-4.168
	c0.953-1.428,1.905-2.975,2.857-4.404c0.953-1.428,1.905-2.857,2.857-4.285c0.953-1.43,1.786-2.857,2.619-4.287
	c0.834-1.428,1.667-2.738,2.501-4.047c0.356-0.596,0.833-1.311,1.19-1.906c0.356-0.594,0.714-1.189,1.071-1.785
	c2.857-4.643,5.357-7.857,7.024-8.453c0.833-0.357,1.548,0,2.143,1.311c0.238,0.594,0.477,1.428,0.596,2.5
	c0.119,0.713,0.119,1.666,0.119,2.619c-0.119,0.238-0.238,0.357-0.357,0.596c-0.952,1.428-1.905,2.855-2.977,4.404
	c-8.096,11.787-18.334,24.168-30.479,35.836c-2.381,2.262-4.762,4.523-7.262,6.666c0,0,0,0-0.119,0c0,0,0,0,0,0.119
	c-10.239,9.049-21.55,17.383-33.336,24.645c-14.644,9.049-30.24,16.193-45.122,21.432c-15.001,5.119-29.407,8.453-42.027,10.357
	c-3.095,0.477-6.19,0.834-9.048,1.191c-2.857,0.475-5.715,0.594-8.334,0.832c-1.31,0.119-2.619,0.238-3.81,0.357
	s-2.381,0.238-3.572,0.238c-2.381,0.119-4.523,0.238-6.429,0.238c-3.929,0.238-7.263,0.238-9.763,0.357s-4.167,0.357-4.881,0.596
	c-1.19,0.475-0.119,0.832,2.857,1.309c2.976,0.357,7.857,1.072,14.167,1.072c1.548,0,3.215,0.119,5.001,0.119
	c1.785,0,3.571-0.119,5.477-0.238c1.904-0.119,3.929-0.119,5.952-0.238c2.024-0.119,4.167-0.357,6.311-0.596
	c2.143-0.238,4.405-0.357,6.667-0.715s4.524-0.713,6.905-1.07c1.19-0.238,2.381-0.357,3.571-0.596s2.382-0.477,3.572-0.715
	c2.381-0.477,4.881-1.07,7.381-1.547c13.811-3.334,28.098-8.215,41.551-14.406s25.835-13.572,36.074-20.834
	c1.31-0.953,2.619-1.787,3.81-2.621c1.19-0.951,2.381-1.785,3.572-2.738c2.262-1.785,4.523-3.451,6.548-5.119
	c3.929-3.451,7.619-6.309,10.357-9.047c2.738-2.619,5.12-4.764,6.548-6.191c1.429-1.549,2.263-2.381,2.263-2.381
	s1.071-1.191,2.977-3.096c1.904-1.904,4.404-5,7.5-8.572c5.477-6.668,12.382-15.715,18.454-25.598c0,2.5,0,5-0.119,7.621
	c-0.238,3.451-0.357,7.023-0.596,10.357c-0.119,1.785-0.238,3.334-0.356,5c0,0.477-0.119,0.953-0.119,1.428
	c-0.238,0.238-0.357,0.357-0.596,0.715c-2.143,3.096-9.882,16.191-18.453,27.859c-2.144,2.857-4.286,5.715-6.191,8.453
	c-2.023,2.619-3.929,5-5.477,7.143c-0.833,1.072-1.548,2.025-2.143,2.977c-0.596,0.834-1.191,1.668-1.667,2.262
	c-0.834,1.311-1.19,2.145-1.071,2.383c0.237,0.238,1.071-0.119,2.262-0.953c0.595-0.357,1.31-0.953,2.143-1.547
	c0.834-0.715,1.667-1.43,2.619-2.264c1.905-1.666,4.049-3.689,6.311-5.951c2.143-2.264,4.405-4.764,6.667-7.264
	s4.286-5.119,6.31-7.619c2.024-2.5,3.811-4.762,5.239-6.787c1.785-2.5,3.214-4.404,4.048-5.596c0.476,1.787,1.548,2.145,3.214,0.715
	c1.31-1.07,2.738-3.215,4.644-6.428c0.952-1.668,2.023-3.572,3.096-5.834c1.071-2.383,2.143-5.002,3.333-7.977
	c4.524-12.145,9.405-22.621,14.049-32.623c2.5-4.881,4.763-9.762,7.144-14.523c1.31-2.381,2.381-4.764,3.571-7.025
	c1.19-2.381,2.382-4.643,3.572-7.023c4.523-9.406,9.048-18.691,12.619-28.455c0.953-2.5,1.786-4.881,2.62-7.381
	c0.714-2.5,1.429-5,2.143-7.619c0.357-1.311,0.596-2.619,0.952-3.811c0.357-1.311,0.596-2.619,0.834-3.93
	c0.476-2.619,0.833-5.238,1.19-7.977c0.119-1.309,0.357-2.738,0.477-4.166c0.118-1.43,0.237-2.977,0.356-4.525
	c0.238-3.094,0.596-6.428,0.715-10c0.119-3.214,0.238-6.667,0.238-10.239c0.118,2.024,0.476,4.286,1.071,6.786
	c2.023,8.81,3.096,2.619,3.571-5.833c0.357-4.286,0.119-9.048,0-12.739c-0.119-1.905-0.119-3.453-0.238-4.643
	c0-0.595,0-1.071-0.119-1.31c0-0.357,0-0.476,0-0.476s-0.476,0.476-1.071,1.548c-0.595,1.071-1.429,2.5-2.143,4.643
	c-0.477,1.548-0.834,3.214-1.071,5.357c0-1.905-0.119-3.81-0.119-5.715c-0.477-15.953-2.619-33.455-6.191-49.646
	c-3.452-16.192-8.215-31.312-12.739-42.741c-4.404-11.549-8.215-19.764-9.286-22.859c-2.143-6.191,0.357-6.786,4.286-4.286
	c1.905,1.19,4.286,3.214,6.429,5.715c2.144,2.5,4.167,5.477,5.596,8.453c1.548,2.976,2.024,2.976,1.429,0.476
	c-0.238-1.19-0.833-3.096-1.785-5.357c-0.834-2.381-2.024-5.358-3.691-8.572c-1.667-3.333-3.571-7.143-5.952-11.072
	c-1.191-2.024-2.62-4.048-3.93-6.31c-1.429-2.143-2.856-4.405-4.643-6.667c-1.667-2.262-3.453-4.524-5.357-6.905
	c-0.953-1.19-1.905-2.381-2.977-3.572c-1.071-1.19-2.144-2.381-3.215-3.571c-4.286-4.763-9.286-9.406-14.644-14.168
	c-2.738-2.262-5.357-4.286-7.857-6.31c-1.191-0.952-2.501-1.905-3.691-2.857c-1.19-0.833-2.381-1.667-3.571-2.5
	c-2.262-1.548-4.524-3.095-6.548-4.524c-2.024-1.429-4.167-2.62-6.072-3.81c-3.929-2.381-7.382-4.405-10.953-6.191
	c-1.667-0.952-3.334-1.905-5-2.738c-1.667-0.952-3.215-1.786-4.763-2.738c-3.215-1.786-6.31-3.572-9.524-5.596
	c-3.334-1.905-6.667-4.048-10.357-6.548c-1.786-1.31-3.811-2.381-5.834-3.81c-2.024-1.31-4.167-2.738-6.429-4.286
	c-2.263-1.548-4.644-3.096-7.263-4.762c-1.31-0.833-2.619-1.786-3.929-2.62c-1.31-0.952-2.857-1.786-4.286-2.738
	c-2.977-1.786-5.715-3.571-8.453-5.238c-2.738-1.548-5.357-2.857-7.857-4.286c-5.001-2.738-9.763-4.762-14.168-6.667
	c-1.071-0.476-2.144-0.953-3.334-1.429c-1.071-0.357-2.143-0.833-3.214-1.19c-2.144-0.714-4.286-1.548-6.311-2.143
	c-4.167-1.548-8.334-2.5-12.62-3.572c-2.143-0.476-4.285-1.071-6.667-1.548c-2.262-0.357-4.643-0.833-7.024-1.31
	c-1.19-0.238-2.5-0.476-3.69-0.595c-0.595-0.119-1.31-0.238-1.905-0.357c-0.595-0.119-1.31-0.119-1.904-0.238
	c-2.619-0.357-5.357-0.595-8.334-0.953c-1.429-0.119-2.977-0.357-4.524-0.476s-3.096-0.238-4.762-0.357
	c-3.215-0.238-6.668-0.477-10.239-0.596c-3.571-0.119-7.382-0.119-11.43-0.238c-0.952,0-2.023,0-3.095,0
	c-1.072,0-2.144,0-3.215,0.119c-2.143,0-4.286,0.119-6.548,0.119c-36.193,1.429-61.553,6.787-83.34,13.454
	c-10.953,3.333-20.835,7.381-30.716,12.144c-2.501,1.19-4.882,2.619-7.263,3.929c-2.382,1.429-4.882,2.738-7.263,4.286
	s-4.762,3.215-7.263,4.881c-1.19,0.833-2.5,1.667-3.69,2.619c-1.19,0.953-2.381,1.905-3.69,2.857
	c-2.382,1.905-4.882,3.691-7.263,5.477c-2.262,1.905-4.644,3.572-6.905,5.357c-1.19,0.833-2.262,1.667-3.452,2.5
	c-1.191,0.833-2.263,1.786-3.334,2.619c-2.262,1.667-4.524,3.453-6.905,5.119c-2.381,1.667-4.524,3.453-6.905,5.239
	c-1.19,0.833-2.381,1.786-3.571,2.619c-0.596,0.476-1.191,0.953-1.786,1.31c-0.596,0.476-1.19,0.953-1.786,1.429
	c-2.381,1.905-4.881,3.929-7.381,5.834c-1.31,0.952-2.501,2.024-3.811,3.214c-1.31,1.071-2.619,2.262-3.929,3.333
	c-10.477,9.167-22.145,20.24-34.407,35.955c-1.429,2.024-2.977,4.048-4.523,6.072c-1.548,2.143-3.096,4.167-4.644,6.548
	c-2.977,4.524-6.191,9.287-9.049,14.525c-1.428,2.619-2.976,5.239-4.523,7.977c-1.429,2.857-2.857,5.714-4.286,8.691
	c-0.715,1.429-1.429,2.977-2.144,4.524c-0.714,1.548-1.31,3.096-2.023,4.763c-0.715,1.547-1.31,3.214-2.024,4.881
	c-0.714,1.667-1.429,3.334-2.023,5c-5.238,13.572-9.763,28.692-13.334,44.765c-0.477,2.024-0.834,4.048-1.311,6.072
	c-0.356,2.024-0.833,4.048-1.19,6.191c-0.595,4.167-1.31,8.334-1.904,12.62c-0.477,4.286-0.953,8.572-1.429,12.858
	c-0.238,2.143-0.357,4.286-0.477,6.548c-0.119,2.143-0.238,4.405-0.357,6.548c-0.833,17.501-0.119,35.36,2.144,52.86
	c2.143,17.502,6.071,34.646,10.953,50.6c0.595,2.023,1.19,4.047,1.786,5.953c0.714,1.904,1.429,3.928,2.023,5.834
	c1.429,3.809,2.619,7.738,4.286,11.311c1.548,3.689,2.977,7.262,4.524,10.834c1.666,3.451,3.214,6.904,4.881,10.238
	c6.548,13.215,13.334,25.002,20.002,34.764c1.666,2.381,3.214,4.881,4.762,7.025c1.667,2.143,3.096,4.285,4.644,6.309
	c1.548,2.025,2.857,3.93,4.286,5.596c1.429,1.668,2.738,3.334,3.929,4.764c4.881,6.07,8.572,10,10.477,11.904
	c1.786,1.906,3.334,3.811,4.644,5.477c1.429,1.668,2.5,3.334,3.571,5c2.144,3.215,3.572,6.549,5.477,9.764
	c1.905,3.215,3.929,6.668,7.024,10.477c1.548,1.785,3.334,3.691,5.477,5.715c1.071,0.953,2.262,2.023,3.453,3.096
	c0.595,0.477,1.31,1.072,1.904,1.547c0.715,0.477,1.429,1.072,2.144,1.549c2.976,2.143,6.786,4.523,11.31,6.904
	c2.263,1.191,4.763,2.262,7.263,3.453c1.31,0.596,2.619,1.191,3.929,1.785c0.715,0.238,1.31,0.596,2.024,0.834
	c0.714,0.238,1.429,0.477,2.143,0.834c5.715,2.143,11.787,4.285,18.216,5.953c3.215,0.832,6.429,1.666,9.644,2.381
	c3.215,0.594,6.548,1.189,9.763,1.785c1.667,0.238,3.214,0.477,4.881,0.715c1.667,0.119,3.215,0.357,4.882,0.477
	c3.214,0.355,6.31,0.594,9.286,0.713C212.022,705.772,217.737,705.534,222.856,705.177z M578.358,325.746
	c0.119,0.714,0.238,1.428,0.357,2.143c0.238,1.429,0.476,2.857,0.595,4.286c0.477,2.738,0.834,5.239,1.19,7.024
	c0.596,3.691,0.715,6.786,0.953,11.429c0,1.191,0.119,2.381,0.119,3.81s0,2.857,0,4.524c0,1.667,0.119,3.453,0.119,5.477
	c0,0.953,0,2.024,0.119,3.215c0,1.071,0,2.262,0,3.453c-0.119,9.644,2.381,12.024,3.81,3.571c0.356-2.143,0.714-5,0.714-8.453
	c0-3.572-0.238-7.858-0.714-12.977c-0.238-2.5-0.715-5.239-1.19-8.215c-0.477-2.977-0.953-6.072-1.905-9.406
	c-0.833-3.333-1.667-6.786-2.738-10.596c-1.19-3.691-2.5-7.5-3.929-11.667c0,0,0.833,4.643,1.904,10.239
	C578.12,324.317,578.239,325.031,578.358,325.746z M414.894,597.075c-0.596,0.357-1.19,0.594-1.786,0.832
	c-2.143,0.953-4.523,2.502-6.548,4.168c-2.143,1.547-4.167,3.215-5.477,4.762c-1.429,1.549-2.262,2.738-2.143,3.334
	c0.118,0.357,0.356,0.477,0.952,0.477c0.595,0,1.548-0.357,2.738-0.834c5-1.904,16.668-8.572,26.312-15.834
	c1.19-0.953,2.381-1.787,3.571-2.619c0.596-0.477,1.19-0.834,1.667-1.311c0.595-0.477,1.071-0.951,1.548-1.309
	c2.023-1.787,3.929-3.334,5.477-4.645c1.548-1.428,2.738-2.619,3.69-3.332c0.833-0.834,1.31-1.311,1.31-1.311
	c-1.19,0.119-2.5,0.477-3.81,0.953s-2.619,1.189-4.167,1.904c-1.429,0.715-2.857,1.547-4.405,2.5
	c-0.714,0.477-1.429,0.953-2.143,1.43c-0.715,0.475-1.548,0.951-2.263,1.428c-3.095,1.904-5.952,4.168-8.81,5.834
	c-1.429,0.834-2.738,1.666-4.048,2.5C416.084,596.36,415.489,596.718,414.894,597.075z M476.088,605.528
	c1.072-0.715,2.144-1.549,3.096-2.264c2.144-1.547,4.167-3.094,5.953-4.523c3.571-2.977,6.31-5.357,6.786-5.953
	c0,0,0.833-1.428,1.548-2.977c0.714-1.547,1.429-2.977,1.429-2.977s-0.834,0.596-2.382,1.906c-1.547,1.189-3.81,2.857-6.429,4.881
	c-1.31,1.072-2.738,2.262-4.286,3.453c-1.548,1.189-3.214,2.5-4.881,3.809c-3.334,2.857-7.144,5.715-10.834,8.93
	c-1.905,1.666-2.977,2.5-3.334,3.096c-0.357,0.477-0.119,0.477,0.715,0.238c1.666-0.596,5.238-2.857,9.405-5.477
	C473.946,606.956,475.017,606.36,476.088,605.528z M418.109,585.288c2.738-1.666,5.714-3.453,8.69-5.238
	c11.668-7.619,22.979-17.264,26.907-21.668c0.476-0.477,1.19-1.191,1.904-2.023c0.715-0.834,1.667-1.787,2.619-2.857
	c0.953-1.072,2.024-2.145,3.215-3.453c1.19-1.191,2.262-2.619,3.571-4.049c1.191-1.428,2.62-2.857,3.811-4.523
	c1.31-1.547,2.619-3.215,3.929-4.881c0.595-0.834,1.31-1.668,2.023-2.5c0.596-0.834,1.31-1.787,1.905-2.619
	c1.19-1.787,2.619-3.572,3.81-5.357c2.263-3.691,4.763-7.145,6.667-10.598c0.953-1.666,1.905-3.332,2.857-4.881
	c0.834-1.547,1.548-3.096,2.263-4.404c1.429-2.738,2.619-5,3.333-6.549c0.715-1.547,1.19-2.5,1.19-2.5s-0.356,0.596-1.071,1.785
	c-0.357,0.596-0.714,1.311-1.19,2.145c-0.477,0.832-1.071,1.785-1.786,2.738c-0.595,1.07-1.31,2.143-2.143,3.332
	c-0.715,1.191-1.548,2.5-2.5,3.811c-0.953,1.311-1.905,2.738-2.977,4.285c-0.477,0.715-1.071,1.549-1.548,2.264
	c-0.596,0.713-1.19,1.547-1.786,2.262c-1.19,1.547-2.381,3.096-3.571,4.762c-1.19,1.547-2.619,3.096-4.048,4.762
	c-2.619,3.215-5.715,6.311-8.572,9.525c-1.429,1.547-3.096,2.977-4.524,4.523c-0.714,0.715-1.548,1.549-2.262,2.262
	c-0.715,0.715-1.548,1.43-2.381,2.145c-1.548,1.428-3.096,2.738-4.524,4.166c-1.548,1.311-3.096,2.5-4.524,3.691
	c-2.857,2.5-5.952,4.881-8.81,7.381l-1.072,0.953l-1.071,0.951l-2.262,1.787c-1.429,1.189-2.857,2.5-4.286,3.689
	c-1.429,1.191-2.857,2.381-4.286,3.572c-0.714,0.596-1.429,1.191-2.023,1.785c-0.715,0.596-1.429,1.072-2.024,1.668
	c-2.738,2.143-5.238,4.404-7.619,6.191c-9.406,7.5-15.716,12.262-13.097,10.953c1.31-0.596,4.882-2.502,9.644-4.764
	C412.632,588.264,415.251,586.835,418.109,585.288z M486.208,336.342c0.952,1.905,0.952,0.238,0-2.977
	c-0.477-1.667-1.071-3.69-2.023-5.833c-0.953-2.143-2.024-4.405-3.334-6.667c-2.738-4.286-3.096-1.786-2.619,1.905
	c0.357,3.929,1.429,8.929,2.023,10C480.255,332.77,484.303,332.532,486.208,336.342z M502.996,404.561
	c0-3.572-0.119-7.024-0.238-9.524c0-1.31-0.238-2.977-0.477-4.881c-0.237-1.905-0.356-4.286-0.833-6.667
	c-0.357-2.381-0.833-5-1.31-7.619c-0.477-2.62-1.19-5.239-1.667-7.858s-1.31-5-1.904-7.262c-0.715-2.262-1.191-4.405-1.786-6.072
	c-1.19-3.453-1.905-5.714-1.905-5.714l-0.357,6.429c0,0,0.119,0.238,0.238,0.595c0.119,0.357,0.357,0.953,0.477,1.667
	c0.357,1.429,0.952,3.572,1.667,6.072c0.714,2.5,1.31,5.596,2.023,8.81c0.238,0.833,0.357,1.667,0.596,2.5s0.238,1.786,0.476,2.619
	c0.238,1.786,0.596,3.572,0.953,5.357c0.357,1.786,0.476,3.691,0.714,5.596s0.477,3.691,0.715,5.477
	c0.238,3.691,0.476,7.262,0.714,10.477c0,3.333,0.119,6.191,0.238,8.691c0,2.5,0,4.524,0,5.834c0.119,5.356,0.715,1.905,1.429-4.286
	C502.876,411.823,502.876,408.133,502.996,404.561z M503.709,466.112c0.238-0.594,0.596-1.309,0.953-2.143
	c0.237-0.834,0.595-1.666,0.952-2.619c0.596-1.904,1.429-3.928,2.143-6.191c0.715-2.262,1.31-4.643,2.024-7.023
	c0.357-1.191,0.714-2.5,1.071-3.691c0.238-1.189,0.596-2.5,0.834-3.689c0.476-2.502,1.071-4.883,1.428-7.025
	c0.596-4.523,1.072-8.215,1.072-10.477c0,0,0,0.119-0.119,0.238c0,0.238-0.119,0.477-0.357,0.834
	c-0.357,0.832-0.833,2.143-1.548,4.047c-1.429,3.811-3.929,10.357-8.81,19.883c-0.596,1.189-1.191,2.262-1.667,3.334
	c-0.238,0.475-0.477,1.07-0.715,1.547s-0.476,0.953-0.595,1.43c-0.834,1.904-1.31,3.57-1.667,5.119
	c-0.596,3.096-0.715,5.238-0.357,6.904c0.834,3.215,3.215,3.93,4.167,1.904C502.757,468.257,503.234,467.423,503.709,466.112z"/>
<path opacity="0.3" fill="#911F07" d="M217.499,699.7c-4.167-1.547-7.262-3.213-9.524-4.881c-2.381-1.666-4.048-3.215-5.477-4.881
	c-2.857-3.215-4.643-6.191-9.048-8.334c-34.288-13.572-65.838-34.051-92.269-59.766c-2.5-2.738-5.001-5.357-7.501-8.096
	l-1.904-2.025l-1.786-2.143c-1.19-1.428-2.381-2.738-3.452-4.166c-3.572-3.811-6.787-7.977-10.001-12.025
	c-8.811-12.857-16.311-26.191-22.978-40.121c-1.548-3.572-3.334-7.025-4.882-10.598c-1.548-3.57-3.096-7.262-4.524-10.834
	c-1.429-3.689-2.857-7.5-4.285-11.189c-1.429-3.811-2.738-7.74-4.049-11.549c-1.071-2.857-1.904-5.953-2.856-8.93
	c-0.834-2.977-1.905-5.953-2.62-8.93c-2.5-5.119-6.19-23.691-6.905-30.836c0.119,0,0.357,0,0.477-0.119
	c-0.595-1.07-0.714-0.832-0.952-2.738c-0.119,0-0.357,0-0.477,0.119c-0.119-1.189-0.238-2.381-0.357-3.689
	c-0.118-1.191-0.237-2.381-0.356-3.572c-0.238-2.381-0.596-4.643-0.953-6.904c-0.356-2.264-0.595-4.645-0.714-7.025
	c-0.238-2.381-0.357-4.881-0.357-7.381c0-1.668,0-3.334,0.119-5l0.119-5.001l0.238-5c0.119-1.667,0.238-3.333,0.357-5l1.071-5.833
	c-0.238-0.477-0.357-1.905-0.357-3.81c0-1.905,0.238-4.405,0.357-7.381c0.357-5.833,1.548-13.334,2.857-21.073
	c2.857-15.358,7.857-31.193,9.763-36.669c0.356-3.095,3.214-9.763,6.19-16.549c3.215-6.786,6.667-13.691,8.691-17.62
	c0.952-3.572,3.096-6.786,5.119-10.239c1.429-2.738,2.857-5.477,4.286-8.215s3.096-5.358,4.644-8.096l2.381-3.81
	c0.833-1.19,1.667-2.5,2.619-3.691l5.238-7.262c1.786-2.381,3.69-4.762,5.477-7.024l2.738-3.572c0.952-1.19,1.905-2.262,2.977-3.453
	c1.31-2.143,3.215-4.762,5.238-7.262c2.144-2.5,4.524-4.881,6.548-7.144c11.668-12.5,25.002-24.645,39.766-35.122l3.095-2.262
	l3.096-2.143l6.31-4.167c2.024-1.429,4.286-2.619,6.43-3.929l6.429-3.81c11.191-6.31,22.858-11.906,34.884-16.668
	c14.882-5.477,30.121-9.762,45.717-12.62c2.738-0.595,5.596-1.31,8.334-1.905c20.24-4.048,41.432-4.405,62.981-3.215
	c4.048-0.476,9.048,0,14.049,0.595c5,0.477,10,1.548,14.405,2.143c18.216,2.738,36.193,7.62,53.456,14.406
	c17.264,6.667,33.693,15.12,49.17,24.883c1.191,0.476,2.501,1.19,4.048,1.905c1.429,0.833,3.096,1.905,4.763,2.977
	s3.453,2.381,5.357,3.691c1.905,1.31,3.69,2.738,5.477,4.286c1.786,1.429,3.69,2.977,5.477,4.405
	c1.786,1.548,3.453,3.095,5.119,4.524c1.667,1.429,3.215,2.857,4.644,4.167s2.738,2.5,3.81,3.572
	c2.263,2.143,4.524,4.167,6.786,6.31l6.549,6.667c2.262,2.143,4.285,4.524,6.31,6.786c2.024,2.381,4.167,4.644,6.072,7.024
	c9.167,11.072,17.263,22.859,24.645,35.122l2.738,4.643l1.31,2.262l1.31,2.381l5,9.525l4.524,9.762l1.071,2.381l1.071,2.5l2.024,5
	c5.477,14.049,9.286,28.812,12.739,43.932c0.952,4.643,1.904,9.287,2.738,14.049c0.356,1.19,0.833,3.453,1.19,6.31
	c0.237,1.428,0.356,2.976,0.595,4.643c0.238,1.667,0.238,3.333,0.477,5.119c0.238,3.453,0.477,7.024,0.595,10.239
	c0.119,3.214,0.119,5.953,0.119,7.857l0.238,4.881v4.881c0,3.215,0,6.547-0.119,9.762c-0.356,6.549-0.714,12.977-1.548,19.525
	l-0.595,4.881l-0.238,2.381l-0.357,2.383l-1.548,9.643c-0.476,3.215-1.31,6.311-1.904,9.525c-0.715,3.213-1.31,6.309-2.263,9.523
	c-1.429,4.762-2.619,9.525-4.285,14.287l-2.382,7.023c-0.714,2.383-1.785,4.645-2.619,6.906
	c-6.429,17.383-15.001,33.813-25.002,49.17c-10.119,15.357-21.668,29.525-34.407,42.504c-10,10.119-20.716,19.523-31.669,27.619
	c-2.381,1.906-4.881,3.572-7.262,5.479l-3.691,2.738l-3.81,2.5c-12.977,8.334-27.383,15.953-42.026,21.787
	c-4.048,1.309-7.977,2.619-12.025,3.928c-15.001,5.834-30.597,10.357-46.432,13.334c-17.024,2.977-34.288,4.287-51.433,3.93
	c-4.762,0-9.167-0.715-13.215-1.191c-2.023-0.355-3.929-0.594-5.953-0.832c-1.904-0.357-3.81-0.596-5.714-0.834
	c0,0.238,0,0.357,0,0.477c0,0.238-3.334,0.119-7.024-0.238c-3.691-0.477-7.739-1.191-9.524-1.43c0-0.355,0.119-0.713,0.119-1.07
	c3.095,0,5.952-0.119,8.929-0.119c2.977-0.119,5.953-0.357,9.286-0.238c4.763,0.357,9.405,0.238,14.168,0.238h3.571
	c1.19,0,2.382-0.119,3.572-0.119l7.024-0.357c3.215-0.119,6.31-0.596,9.524-0.953c3.096-0.357,6.31-0.713,9.405-1.309l9.405-1.668
	l9.287-2.023c2.856-0.477,5.714-1.189,8.452-1.904c2.857-0.715,5.596-1.311,8.453-2.143c3.929-1.549,7.858-2.977,11.668-4.645
	c3.69-2.143,5.715-4.166,10.119-6.189c2.501-1.191,5.001-2.264,7.501-3.334c1.31-0.596,2.619-1.072,3.81-1.668
	c1.31-0.594,2.5-1.189,3.81-1.785c2.619-1.191,5.239-2.262,7.739-3.572c2.619-1.309,5.119-2.619,7.738-3.928
	c2.262-1.072,4.286-2.5,6.429-3.811c2.024-1.309,4.048-2.738,5.953-4.047c1.905-1.43,3.81-2.857,5.715-4.287
	c1.905-1.428,3.81-2.738,5.596-4.285c2.023-1.549,4.167-3.096,6.429-4.764c2.144-1.547,4.286-3.332,6.43-4.881
	c4.404-3.215,8.452-6.785,12.263-10.238c10.119-9.525,18.334-21.072,26.192-31.906c6.429-8.453,12.977-17.383,18.811-26.432
	c1.667-3.453,3.452-6.904,5-10.357c1.548-3.572,3.096-7.023,4.524-10.596c1.548-3.453,3.096-6.906,4.524-10.357
	c1.31-3.572,2.619-7.145,3.69-10.479c4.644-12.738,8.215-25.953,10.715-39.287l0.952-7.74c0.238-2.619,0.357-5.238,0.477-7.738
	c0.477-5.119,0.357-10.357,0.477-15.477c0.357-4.404,0.595-8.811,0.952-13.215c-0.119-13.811-2.5-27.86-5.119-41.194
	c-0.357-2.024-0.477-3.929-0.952-5.953c-0.357-1.905-0.715-3.929-1.191-5.833c-0.356-1.548-0.714-2.977-1.19-4.405l-1.429-4.405
	c-0.952-2.857-1.904-5.834-3.095-8.572c-1.191-2.857-2.263-5.596-3.334-8.334c-1.19-2.738-2.5-5.477-3.571-8.096
	c-0.596-1.429-1.31-2.857-2.024-4.286l-2.143-4.167c-1.31-2.857-2.857-5.477-4.405-8.215c-1.31-2.024-2.619-3.333-4.048-4.643
	s-2.977-2.738-4.286-4.881l-1.667-2.857c-0.595-0.952-1.19-1.786-1.786-2.738l-3.571-5.477c-1.19-1.905-2.5-3.571-3.81-5.357
	c-1.31-1.786-2.5-3.572-3.929-5.238l-4.167-5.12l-2.024-2.5l-2.143-2.5l-4.286-4.881c-1.429-1.667-2.977-3.096-4.524-4.763
	c-9.167-9.762-18.454-18.691-29.169-26.43c-6.548-4.167-13.334-7.977-20.239-11.429c-1.31-0.833-2.619-1.667-3.81-2.381
	c-1.31-0.833-2.5-1.667-3.929-2.381c-10.239-5.834-22.264-10.001-33.574-14.287l-4.524-1.905c-1.548-0.595-3.095-1.071-4.523-1.667
	c-3.096-1.071-6.072-2.262-9.168-3.095l-4.762-1.071c-1.548-0.357-3.096-0.714-4.763-0.953c-3.214-0.476-6.429-1.072-9.644-1.548
	c-4.167-0.595-8.215-1.31-12.382-1.786l-6.19-0.595c-2.024-0.238-4.167-0.477-6.191-0.477c-2.5,0.119-5,0.119-7.381,0.238
	c-2.501,0.119-5.001,0.357-7.382,0.595c-8.811,0.357-17.264,0.595-25.835,1.786c-3.811,0.714-7.263,1.548-10.716,2.381
	c-3.333,1.071-6.548,2.143-9.763,3.214c-3.095,1.191-6.19,2.5-9.405,3.691c-3.095,1.31-6.31,2.738-9.524,3.929
	c-1.904,0.595-3.81,1.31-5.715,1.905c-1.904,0.714-3.81,1.31-5.714,2.024c-7.024,3.333-13.93,6.786-20.597,10.834
	c-1.905,1.071-3.811,2.024-5.834,3.095c-1.905,1.072-3.81,2.262-5.715,3.333c-10.001,6.667-19.406,15.239-27.74,23.454
	c-1.548,1.548-3.096,3.096-4.643,4.644c-1.548,1.547-2.977,3.214-4.524,4.762c-3.096,3.095-5.834,6.429-8.691,9.762l-1.071,1.191
	l-0.952,1.31l-2.024,2.619c-1.31,1.786-2.738,3.333-3.929,5.12c-2.381,3.571-5,7.024-7.024,10.715l-2.143,3.096
	c-0.715,1.071-1.429,2.024-2.024,3.214l-3.929,6.429c-1.31,2.143-2.381,4.405-3.571,6.548l-1.786,3.333l-1.667,3.453
	c-0.595,1.31-1.071,2.619-1.667,4.048l-0.833,2.024l-0.714,2.024l-2.977,7.144l-2.619,7.262c-0.953,2.381-1.548,4.881-2.382,7.382
	c-0.714,2.5-1.548,4.881-2.143,7.5c-0.834,3.095-1.905,5.953-2.738,8.929c-0.834,2.976-1.667,5.833-2.262,8.691
	c-2.738,15.954-3.691,32.026-2.738,48.099l0.595,3.689c0.119,1.191,0.477,2.383,0.715,3.691l0.714,6.311
	c0.238,2.143,0.596,4.166,0.952,6.309c0.596,4.525,1.905,9.168,2.977,13.93c0.715,2.383,1.31,4.645,2.024,7.025
	c0.356,1.189,0.595,2.381,0.952,3.453c0.357,1.189,0.715,2.262,1.071,3.451c0.357,1.191,0.596,2.264,0.953,3.453
	c0.356,1.191,0.595,2.262,0.952,3.334c0.714,2.262,1.31,4.404,2.023,6.666c0.238,1.072,0.715,2.145,1.072,3.334
	c0.356,1.072,0.714,2.143,1.071,3.215c0.714,2.143,1.429,4.287,2.262,6.311c5.357,12.857,12.024,25.24,20.002,36.906
	c1.071,1.549,2.143,3.096,3.214,4.764c1.31,1.547,2.619,3.213,3.929,4.881c0.715,0.834,1.31,1.666,2.024,2.5
	c0.714,0.834,1.429,1.666,2.262,2.5c1.548,1.666,3.096,3.215,4.524,4.881c6.429,6.072,13.096,11.43,18.335,13.93
	c0.595,0.357,3.214,1.549,1.547,0.119c-0.356-1.547-0.714-2.977-1.071-4.404c-0.356-1.43-0.595-2.857-0.714-4.168
	c-0.238-2.738,0.119-5,1.785-6.904c-0.237-0.238-0.476-0.477-0.714-0.715c-3.929-2.023-9.644-9.168-12.62-12.857l-1.786-2.025
	l-1.666-2.143l-3.334-4.285c-1.071-1.43-2.143-2.977-3.096-4.406c-1.071-1.428-2.143-2.977-3.095-4.404
	c-0.953-1.547-1.905-3.096-2.857-4.523c-0.953-1.549-1.905-2.977-2.619-4.645c-1.548-3.215-3.334-6.189-4.524-9.404
	c-0.715-1.787-1.429-3.572-2.024-5.357c-0.595-1.787-1.071-3.691-1.547-5.477c-1.191-3.572-2.024-7.383-3.453-10.953
	c0.119-0.119,0.357-0.119,0.477-0.238c0.952,2.143,1.904,4.285,2.619,6.428c0.833,2.145,1.667,4.168,2.5,6.311
	c0.357,1.072,0.714,2.143,1.19,3.215s0.833,2.023,1.31,3.096c0.477,1.07,0.952,2.143,1.31,3.096l0.715,1.547l0.833,1.549
	c6.311,12.262,14.049,24.287,24.168,34.764c9.049,9.404,19.764,17.502,30.24,23.334c2.382,1.191,4.763,2.383,7.263,3.572
	c2.5,1.191,5.12,2.143,7.739,3.334c5.238,2.262,10.477,4.523,15.596,7.5c1.786,1.191,5.12,3.572,8.096,6.311
	c1.548,1.428,2.977,2.619,4.286,3.811c1.19,1.189,2.144,2.143,2.619,2.855c2.024,3.096,1.072,4.883-0.356,6.549
	s-3.215,3.215-2.857,5.953c0.238,1.666,0.952,3.453,1.785,5.238c0.834,1.785,1.905,3.572,2.977,5.357s2.263,3.691,3.334,5.357
	s2.023,3.453,2.738,5.119c0.714,3.691,1.429,7.502,2.262,11.191c1.071,1.668,2.144,3.215,3.334,4.762
	c1.31,3.096,2.619,6.191,4.048,9.287c0.714,3.572-0.834,5.834-1.19,9.406c0.119,4.166,0.237,8.334,0.476,12.5
	c0,3.096,0.715,7.143-2.262,9.525c-1.905,1.547-5.238,2.5-8.811,3.57c-1.785,0.477-3.571,0.953-5.357,1.43
	c-1.667,0.477-3.333,0.834-4.643,1.428c-0.834,0.357-3.215,0.715-0.834,1.311C224.523,698.51,221.666,699.225,217.499,699.7z
	 M25.938,368.963c0.714,0.119,0.595-0.357,0.237,1.547c0.238,0,0.357,0.119,0.477,0.119c-0.238-1.19-0.357-0.952,0-2.857
	C26.414,368.13,26.175,368.487,25.938,368.963z M250.001,681.962c0.595-0.477,1.071-0.834,1.666-1.311
	c0.477,0.119,0.834,0.119,1.31,0.238c-0.118,0.357-0.118,0.715-0.118,1.072C251.787,681.843,250.834,681.843,250.001,681.962z
	 M327.15,209.904c-0.715-0.119-1.429-0.238-2.144-0.357c0,0.238,0,0.357-0.119,0.476c3.691,0.238,7.382,0.357,11.072,0.714
	c0.715,0.119,1.429,0.357,2.144,0.476c0-0.119,0.119-0.357,0.119-0.476c-1.786-0.357-3.572-0.833-5.477-1.072
	C330.959,209.785,329.054,209.785,327.15,209.904z M321.673,209.19c-1.548-0.119,0.595,0.476,1.071,0.595
	c0.119-0.595-0.238-0.714-0.952-1.19C321.792,208.833,321.673,208.951,321.673,209.19z M313.934,208.833l3.334,0.357
	L313.934,208.833z M168.448,573.62c2.024-0.832,4.048-1.666,6.072-2.5c-1.311-1.07-2.62-2.143-3.811-3.215
	c-0.952,0-2.262,0.238-3.333-0.713c-0.357,0.832-0.596,1.785-0.953,2.619c0.834,1.189,2.024,2.381,1.311,3.213
	C167.852,573.143,168.209,573.382,168.448,573.62z M121.54,488.018c-0.357-1.666-1.548-5.715-0.477-6.07
	c0.119,0.355,0.238,0.594,0.357,0.951c-0.119,0-0.357,0.119-0.477,0.119c0.238,0.715,0.715,2.381,0.953,3.572
	c0.238,1.309,0.595,2.023,0.119,1.189C121.897,487.899,121.659,487.899,121.54,488.018z M119.516,479.329
	c-0.357-0.953-0.596-1.906-0.834-2.738C118.92,477.542,119.159,478.495,119.516,479.329z"/>
<path opacity="0.3" fill="#64090D" d="M131.898,623.862c-0.953-3.334-2.024-6.668-2.857-10.119
	c-0.477-1.311-0.953-2.738-1.429-4.049c-0.477-2.619,0.714-4.523-0.834-7.5c-2.5-5-9.048-12.383-12.501-17.74
	c-2.976-4.404-6.071-9.047-8.81-13.811c-1.548-2.738-2.857-5.238-4.167-7.738s-2.5-5-3.81-7.5
	c-2.501-5.119-5.358-10.238-8.93-16.549c-4.286-4.287-7.738-13.334-10.357-19.287c-1.429-2.738-2.857-5.357-4.049-8.215
	c-3.333-7.977-6.19-16.311-8.69-24.764c-6.667-21.668-10.478-43.574-10.596-66.434c-0.596-2.143-0.596-5.119-0.596-8.215
	c0.238-2.976,0.477-6.072,0.714-8.691c0.119-2.5,0.357-5,0.477-7.5c0.119-2.738,0.596-5.477,0.952-8.334
	c0.238-1.429,0.357-2.738,0.596-4.167s0.596-2.738,0.833-4.167l0.834-4.167c0.238-1.429,0.595-2.619,0.952-3.929
	c0.596-2.5,1.31-5.12,1.905-7.62c3.214-13.215,7.381-26.312,12.263-38.813c0.595-1.547,1.31-3.095,1.904-4.643l2.024-4.524
	l2.023-4.524c0.715-1.548,1.429-2.976,2.144-4.405c1.548-2.857,3.096-5.834,4.762-8.572c0.834-1.429,1.548-2.857,2.501-4.167
	c0.952-1.31,1.785-2.738,2.738-4.048l2.976-4.881c1.072-1.548,1.905-3.214,3.096-4.762c2.144-3.095,4.405-6.191,6.548-9.286
	c1.311-1.905,2.857-3.453,4.286-5.12c1.548-1.667,3.096-3.214,4.644-5.119c9.405-12.62,19.883-24.288,31.431-34.646l6.548-4.643
	c14.406-11.906,30.24-21.668,46.67-29.645l9.524-4.167c1.548-0.714,3.215-1.31,4.763-1.905l4.881-1.786
	c2.263-0.714,4.524-1.429,6.905-1.905c4.763-1.548,9.524-3.333,14.406-4.524c2.381-0.714,4.881-1.429,7.263-2.024l7.262-1.786
	c3.691-0.476,7.382-0.595,10.953-0.833c0-0.119-0.118-0.357-0.118-0.476c0.833-0.119,1.31,0.119,1.19-0.714
	c0.595,0,2.619-0.238,4.643-0.476c1.905-0.238,3.691-0.477,3.572-0.953c2.143-0.119,4.286-0.357,6.429-0.476
	c3.215-0.357,5.834-1.31,8.691-1.786c1.666-0.119,3.452-0.238,5.119-0.357s3.453-0.119,5.119-0.119
	c2.263-0.952,5.358-0.952,8.215-0.952c3.572-0.238,7.144-0.477,10.835-0.596c2.976,0.238,5.952,0.596,9.048,0.833
	c3.096-1.19,8.215-1.19,12.144-1.071l1.905-0.357c0,0.119,0,0.357,0,0.477c-0.238,0-0.477,0-0.596,0
	c-2.143,0.714-6.429,1.786-8.929,1.667c0,0.833,0.119,2.024-1.19,1.905c0-0.119,0-0.357,0-0.476
	c-1.667-1.429-3.691-1.31-5.834-0.833c-2.144,0.477-4.286,1.191-6.191,1.191c0.357,0.476,1.31,1.31,1.429,2.024
	c-1.666,0.476-4.286,2.5-1.666,3.81c2.5,1.19,4.643-0.714,6.786-0.714c0-0.119,0-0.357,0-0.476c0.237,0,0.476,0,0.595,0
	c0.357,0.714,0.834,2.024,1.905,2.024c0,0.119,0,0.357,0,0.476c-0.834,0.119-1.667,0.357-2.5,0.476c0,0.119,0,0.357,0,0.477
	c1.666,0,3.333,0,5,0.119c-0.477-0.714-1.31-1.191-1.31-2.024c0.477,0.357,0.477,0.476,1.31,0.595l1.905-0.477
	c0-0.714-0.238-0.476,0.595-0.476c0.238,0.595,0.238,1.548,1.31,1.548c0,0.119,0,0.357,0,0.476c0.834,0,0.596,0.119,0.596-0.476
	c1.071-0.357,3.452-1.31,5.834-2.143c2.381-0.714,4.881-1.31,5.952-1.19c-0.238,0.714-0.476,1.31-0.595,1.905c1.19-0.119,5,0,5-1.19
	c0.952,0.357,1.905,1.19,3.096,1.31c0-0.119,0-0.357,0-0.477c0.833-0.119,1.667-0.119,2.5-0.238l3.69,0.952c0-0.119,0-0.357,0-0.476
	c2.619-0.238,5.477,0.714,8.096,1.071c3.691,0.477,7.024,0,10.716,1.429c0.833,0.357,1.31,0.357,1.19,1.072
	c-0.834-0.119-1.667-0.238-2.5-0.476c0,0.119,0,0.357,0,0.476c-0.477,0.238-0.715,0.357-0.715,0.833
	c0.238,0,0.477,0.119,0.596,0.119c0,0.119,0,0.357,0,0.477c0.595,0.119,1.19,0.238,1.904,0.357c0.477-0.357,1.071-0.714,1.786-1.071
	c0.357-0.119,0.714-0.238,1.071-0.357c0.357,0,0.834,0,1.31,0.119c0-0.119,0-0.357,0.119-0.476
	c-1.071-0.238-2.619-0.119-2.619-0.953c0.119-0.476,0.833-0.357,1.31-0.238c1.31,0.357,2.5,0.714,3.81,1.071s2.619,0.714,3.811,1.19
	c0.714,0,3.81,0.238,6.667,0.953s5.238,1.786,5,2.619c0.238,0.119,0.477,0.119,0.715,0.238c0-0.119,0.118-0.357,0.118-0.477
	c0.715,0.238,0.834-0.119,0.953-0.714c2.023,0.714,3.81,1.905,5.357,2.977c1.667,1.072,3.215,2.143,4.762,2.857
	c0-0.119,0.119-0.357,0.119-0.476c1.667,0.238,7.978,3.214,8.215,2.5c0.834,0.476,0.715,0.238,0.477,0.833
	c1.31,0.714,2.5,1.429,3.69,2.143c0.238-0.595,0-0.595,0.834-0.119c-0.119,0.238-0.238,0.595-0.357,0.833
	c0.833,0.476,0.714,0.238,0.477,0.833c-1.667-0.833-6.43-3.095-7.024-1.667c0.356,0.238,0.833,0.476,1.31,0.595
	c1.19,0.714,2.5,1.429,3.69,2.024c-0.119,0.119-0.119,0.357-0.238,0.476c-1.19-0.595-2.262-1.19-3.452-1.667
	c-1.19-0.477-2.263-0.953-3.453-1.429c-2.262-0.953-4.523-1.548-6.786-2.262c-2.023-0.476-4.167-0.714-6.19-1.19
	c0.119-0.357,0.238-0.595,0.238-0.953c0.476,0,1.666,0.238,0.833-0.238c-0.477-0.714-0.715-1.429-1.667-1.786
	c0.715-0.238,1.548-0.119,1.667-0.833c-0.833-0.357-1.786-0.714-2.619-1.071c0,0.119-0.119,0.357-0.119,0.476
	c-3.571,0.595-8.811-1.429-13.097-2.619c-0.833-0.238-0.595-0.357-0.714,0.238c-1.071-0.119-2.381,0.357-3.571,0.119
	c0-0.119,0-0.357,0.119-0.477c0.237,0,0.476,0.119,0.714,0.119c-0.119-0.833-0.238-1.667-0.357-2.619
	c-0.238,0-0.476-0.119-0.714-0.119c-1.19,0.238-2.381,0.357-3.453,0.357c-1.071,0.119-2.143,0.238-3.333,0.238
	c-2.263,0-4.644-0.119-6.905-0.238c-2.024,0-3.929-0.119-5.953-0.119c-0.714,0.119-1.548,0.476-1.548,1.19
	c-0.952-0.119-2.5,0-2.5-0.833c0.238,0,0.477,0,0.596,0.119c0-0.119,0-0.357,0-0.476c0.714-0.357,0.952-0.833,1.904-0.714
	c0-0.119,0-0.357,0-0.477c-0.238,0-0.357,0-0.595-0.119c-0.477,0.119-1.429,0.238-2.501,0.238c-1.19,0-2.5,0.119-3.81,0
	c-2.619,0-4.881-0.238-4.881-0.476c-0.357,0-0.834-0.119-1.19-0.119c0.356,1.072,0.833,2.143,1.19,3.096
	c-0.238,0-0.357,0-0.596-0.119c0,0.119,0,0.357,0,0.476c-0.952-0.238-2.5-0.238-2.381-1.19c-0.357,0-0.833,0-1.19-0.119
	c0,0.119,0,0.357,0,0.476c-1.667,0.833-3.334,1.31-5.596,1.072c0-0.119,0-0.357,0-0.476c0.595-0.357,1.19-0.596,1.19-1.429
	c-1.429,0.238-4.881,1.071-4.881,2.619c-1.429-0.238-5.477-0.714-5.477,0.833c-0.357,0-0.834,0-1.191,0
	c-0.356-2.5-2.381,0.476-2.5-1.548c-1.786,0-2.977-0.238-4.048-1.19c-0.119-0.119-0.238-0.238-0.357-0.357c0.238,0,0.477,0,0.596,0
	c-0.357-0.714-0.238-0.953-1.31-0.953c-2.024-0.476-5.238-0.119-8.334,0.596s-6.191,1.786-8.096,2.143
	c-1.19,0.119-2.5,0.357-3.69,0.477c-0.715,0.238-0.596,0.238-0.596-0.357c-2.381-0.476-5.357,0-8.334,0.714
	s-5.953,1.786-8.572,2.143c-2.619,0.238-5.119,0.714-7.619,1.072l-4.049,2.143c-0.476-0.476-1.785-2.262-2.262-2.262
	c0-0.119-0.119-0.357-0.119-0.477c-2.977,0.953-5.834,2.024-8.69,2.977l-2.738,0.476l-2.62,0.477
	c-1.785,0.357-3.571,0.714-5.357,1.071c-2.738,0.833-6.786,4.048-9.048,4.167c-0.833,0-3.096-0.119-2.857,0.714
	c-0.596,0.476-1.19,1.429-2.024,1.667c0,0.119,0.119,0.357,0.119,0.476c0.238,0,0.357-0.119,0.596-0.119
	c0-0.119-0.119-0.357-0.119-0.476c3.096-1.072,6.191-1.19,9.405-2.143c1.31-0.595,2.619-0.953,3.929-1.548
	c0,0.119,0.119,0.357,0.119,0.477c0.238,0,0.357-0.119,0.596-0.119c-0.119-0.714-0.952-1.786,0.119-2.143
	c0-0.119-0.119-0.357-0.119-0.477c0.238,0,0.357-0.119,0.595-0.119c0.238,0.476,1.905,2.738,1.667,1.667
	c1.667-0.119,3.334-0.357,5.001-0.595c1.666-0.238,3.452-0.595,5-1.19l3.452-1.429c0.834-0.119,2.501-0.119,2.263-0.953
	c0.238,0,0.356-0.119,0.595-0.119c0,0.714,0.357,2.5-0.714,2.739c-0.119-0.714,0.119-0.477-0.715-0.357
	c-2.262,1.19-4.881,1.429-7.5,2.143c-3.215,0.953-6.786,2.5-10.239,3.214c-0.714,0.119-0.714,0.238-0.833-0.357
	c-0.596,0-2.024-0.595-2.144-1.072c-1.19,0.714-6.071,3.096-5.714,4.167c-2.382-0.357-16.549,3.572-15.835,5.596
	c-2.738,0.238-4.881,1.19-7.382,2.5l-2.738,0.953c-0.952,0.357-1.785,0.714-2.737,1.072c-2.263,1.19-4.405,2.738-6.549,4.167
	c-2.143,1.548-4.286,3.215-6.667,4.405c-0.119-0.119-0.119-0.238-0.238-0.476c0.357-0.714,0.715-1.191,0.357-1.905
	c-0.714,0.833-1.429,1.786-2.024,2.619c-2.143,2.381-4.881,3.929-7.857,5.596c-1.19,0.119-2.977,0.833-5.238,2.024
	c-2.262,1.31-4.763,3.095-7.382,4.881c-2.619,1.786-5,3.929-7.024,5.714c-2.023,1.786-3.81,3.333-4.762,4.286
	c-2.024,1.667-4.048,3.333-6.072,5c-1.071,0.952-2.023,1.905-3.095,2.857l-2.977,2.976c-1.905,2.024-3.929,3.929-5.834,6.072
	c-1.786,2.143-3.69,4.286-5.477,6.429c-0.833,1.071-1.786,2.143-2.619,3.214c-0.834,1.191-1.548,2.262-2.381,3.334
	c-0.477,0.714-1.667,2.262-2.62,3.69c-0.476,0.714-1.071,1.429-1.429,1.905c-0.356,0.477-0.595,0.833-0.595,0.714
	c-2.024,2.738-4.048,5.596-6.072,8.453c0,0.714-0.595,1.548-1.19,2.262c-0.476,0.833-0.952,1.547-0.476,1.905
	c-0.119,0.119-0.238,0.357-0.357,0.476c0.119,0.119,0.238,0.238,0.357,0.357c0.595,0.238,1.31,0.476,1.904,0.714
	c0.119-0.119,0.238-0.357,0.357-0.477c0.357-2.381,1.429-3.81,2.619-5.119s2.619-2.381,3.929-4.167
	c0.596-2.619,3.453-6.191,6.429-9.644c0.715-0.833,1.548-1.667,2.263-2.5c0.833-0.833,1.548-1.548,2.381-2.262
	c1.548-1.429,2.857-2.619,3.81-3.453c0.596-0.595,1.548-0.833,0.953-1.548c0.119-0.119,0.237-0.238,0.356-0.476
	c-0.119-0.119-0.238-0.238-0.356-0.357c0.476-0.238,0.833-0.595,1.31-0.833c0.476-0.357,0.952-0.596,1.429-1.072
	c0.952-0.714,1.904-1.548,2.738-2.5c1.785-1.786,3.452-3.81,5-5.357l5.119-4.524c1.667-1.429,3.334-2.977,5.238-4.405
	c0.596-0.953,4.048-3.453,3.453-4.405c0.595-0.476,0.357-0.476,0.714,0.119c0.357-0.238,0.596-0.476,0.953-0.714
	c-0.119-0.119-0.238-0.238-0.238-0.476c0.357-0.238,0.595-0.477,0.952-0.714c0.119-0.238,0.119-0.477,0.238-0.833
	c0.119,0.119,0.238,0.238,0.238,0.476c0.833-0.119,2.023,0,2.5,0.714c0.119-0.119,0.357-0.238,0.477-0.357
	c1.548-2.5,5.477-4.881,8.334-6.667c1.071-1.071,6.786-3.929,8.571-5c0.596-0.238,1.905,0,1.548-0.833
	c2.381-3.929,2.5-3.572,7.024-5.834c0.477-1.429,3.572-3.453,3.215-4.286c0.714,0.476,0,1.667-0.952,2.976
	c-1.072,1.19-2.263,2.5-2.857,2.857c0.595,0.238,1.071,0.595,2.023,0.119c0.119,0.119,0.119,0.357,0.238,0.476
	c-1.786,1.072-3.571,2.143-5.357,3.214c-1.667,1.072-3.453,2.143-5.119,3.453c-1.667,1.191-3.334,2.381-5.001,3.572
	c-0.833,0.595-1.667,1.191-2.5,1.786s-1.667,1.19-2.5,1.786c-0.715,0.476-2.144,0.833-1.786,1.548
	c-0.477,0.595-0.833,0.833-0.477,1.548c0.596-0.596,1.072-1.191,1.667-1.667c0.119,0.119,0.119,0.357,0.238,0.476
	c-2.143,2.024-4.286,3.81-6.429,5.953c-0.715,0.833-0.834,2.024-1.786,2.738c-0.119-0.119-0.238-0.238-0.238-0.477
	c-0.356-0.595-1.429-0.238-1.904,0.238c-0.715,2.143-2.263,3.453-4.048,4.643c-1.786,1.191-3.811,2.381-5.357,3.929
	c-0.953,1.31-1.905,2.738-2.738,4.048c-0.953,0.714-1.905,1.547-2.977,2.262l-1.31,2.381c0.237,0.238,0.476,0.476,0.595,0.714
	c2.144-2.143,4.405-4.405,6.786-6.191c0.357,1.31,1.429,0.953,2.263,2.024c-0.357,0.357-2.263,2.381-3.93,4.286
	c-1.666,1.905-3.452,3.571-3.929,2.976l1.19-1.19c-0.118-0.119-0.237-0.238-0.356-0.357c-1.071,1.31-2.144,2.5-3.215,3.81
	c-1.071,1.19-2.143,2.619-3.215,4.167c-0.714,1.19-1.429,2.381-2.143,3.691c-0.952,1.071-1.786,0.476-2.619,1.31
	c0,0.595,0.119,0.595-0.357,1.19c0.477,0,0.596,0,1.071-0.476c0.477,0.476,0.477,0.238,0,0.714c0.119,0.119,0.238,0.238,0.357,0.357
	c-0.714,0.714-2.738,2.738-3.571,2.024c-0.596,1.905-1.31,3.215-2.144,4.643c-0.833,1.31-1.904,2.62-2.977,4.405
	c-1.071,1.667-1.19,3.572-2.381,5.357c-0.833,1.31-1.904,2.5-2.619,3.691c-0.833,1.31-1.429,2.5-1.905,4.048
	c-0.237,0.833-0.476,2.024,0.357,2.5c-0.119,0.119-0.238,0.357-0.357,0.477c-0.714,0.476-2.619,2.857-1.666,3.571
	c-0.238,0.477-0.596,0.953-0.834,1.429c-1.548,0-1.667,1.667-2.262,3.215c-1.548,3.81-3.69,6.786-5.119,10.715l-1.786,5.715
	c-0.477,1.429-1.071,2.738-1.548,4.167l-1.31,4.286c-0.833,2.857-1.905,5.596-2.738,8.572l-2.381,7.024
	c-0.477,1.905-0.953,3.69-1.31,5.596l-1.548,8.691c-0.477,2.857-1.19,5.715-1.429,8.691l-1.31,8.929
	c-0.238,1.429-0.477,2.977-0.596,4.405l-0.356,4.286c-0.238,8.453,0.237,16.906,1.19,25.001c0.356,2.5,0.595,5.119,0.833,7.74
	c0.119,1.309,0.238,2.619,0.357,3.928c0.119,1.311,0.238,2.619,0.357,3.93v1.547l0.118,1.549c0.119,1.07,0.119,2.143,0.238,3.213
	c0.596,4.049,1.429,7.977,2.263,12.025c0.356,2.023,0.833,4.049,1.31,6.072c0.476,2.023,1.071,3.928,1.548,5.953
	c0.476,1.189,1.071,2.262,1.666,3.451c0.596,1.191,1.072,2.264,1.667,3.453c0.952,2.023,1.667,4.049,2.619,6.072
	c0.357,1.072,0.834,2.023,1.19,3.096c0.477,1.07,0.953,2.023,1.31,3.096c1.31,2.5,2.857,5,4.286,7.381
	c2.144,4.762,6.191,6.43,9.763,8.811c1.429,0.951,2.977,1.904,4.405,2.857l4.405,2.619c1.667,0.477,3.452,0.951,5.119,1.428
	c1.19,0.357,1.786,1.668,3.096,1.906c1.19,0.238,3.096,0,4.167-0.715c1.31,2.023,2.619,1.904,4.167,3.096
	c1.429,1.309,2.857,2.619,4.286,3.928c0.476,0.357,1.666,0.357,2.143,0.953c0.477,1.547,1.667,2.262,2.5,3.691
	c1.071,1.785,1.31,3.689,2.263,5.357c1.071,1.904,2.262,4.166,3.571,5.834l2.619,3.094c0.952,1.43,1.548,2.857,2.144,4.406
	c0.595,1.428,1.19,2.977,1.904,4.404c0.596,1.311,1.548,2.619,2.5,3.93c0.953,1.309,1.786,2.619,2.501,3.809
	c1.071,2.264,1.904,4.645,3.452,6.787c1.19,1.666,2.5,3.334,3.81,5c2.977,2.738,6.786,4.168,9.524,7.5
	c1.548,2.857,3.096,5.596,4.763,8.453c1.548,1.668,3.215,3.334,4.762,5.002c2.977,4.881,6.072,9.762,9.287,14.643
	c2.5,3.334,5,6.549,7.619,9.883c1.905,3.451,3.929,6.785,5.953,10.238c1.786,2.857,3.81,5.238,5.357,8.215
	c1.31,3.096,2.619,6.072,3.929,9.168c1.905,3.451,5,7.143,7.263,10.953c2.262,3.689,3.81,7.5,2.5,11.309
	c0.238,0.357,0.714,1.311,1.071,2.025c0.238,0.357,0.357,0.713,0.357,0.951s-0.119,0.238-0.477,0.119
	c-1.071,0.834-2.023,1.549-3.096,2.381c-5.595,2.857-14.763,1.311-21.191,1.668c-4.048,0.238-5.238,2.381-10.12-0.357
	c-1.785,1.311-4.643,0.119-7.262-1.547c-1.191,0-3.572,0.119-4.763-0.715c-0.238-0.477-0.238-0.715-0.952-1.191
	c-0.238,0-0.477,0.119-0.715,0.119s-0.476,0-0.714,0.119c-2.857,0-7.501-1.904-12.144-4.285c-4.644-2.381-9.525-5-12.858-6.191
	c-6.667-2.5-13.215-5.119-19.883-7.977c-1.666-0.477-3.333-1.072-5-1.549c-1.548-0.119-3.334,0-5-0.713
	c-0.119-0.119-0.238-0.119-0.477-0.238c-1.19-1.072-2.381-2.143-3.453-3.215l-3.452-2.381c-2.024-2.143-4.048-4.168-6.072-6.311
	c-0.119,0.119-0.237,0.238-0.237,0.357c-0.238-0.119-0.357-0.357-0.596-0.477c-0.238,1.072,0,2.381-0.596,3.215
	c-0.476,0.238-0.952,0.477-1.429,0.715c-0.237-0.119-0.356-0.357-0.595-0.477c0.119-0.119,0.238-0.238,0.238-0.357
	c-0.238-0.119-0.357-0.357-0.596-0.477C142.375,625.885,136.898,624.458,131.898,623.862z M137.493,621.481
	c0.834,0,2.024,0,2.977,0.834c0.119-0.119,0.238-0.238,0.238-0.357c-0.238-0.119-0.357-0.357-0.476-0.477
	c0-3.334-0.357-7.145-4.524-10.002c-0.715-0.475-1.31-0.951-1.786-0.475C135.112,614.575,135.588,617.909,137.493,621.481z
	 M392.75,172.997c2.024,0.476,3.334,1.905,5.715,2.262c1.667,0.477,0.833-1.667,0.595-2.381c-0.237-0.119-0.476-0.119-0.714-0.238
	C396.44,172.639,394.536,172.759,392.75,172.997z M380.368,170.735c-0.238,0-0.477-0.119-0.596-0.119c0,0.119,0,0.357,0,0.477h2.977
	l3.453,0.238c0.119-1.071-1.548-1.667-2.857-2.143c-0.357,0.119-0.715,0.119-0.952,0.238c-0.238,0.119-0.477,0.238-0.715,0.357
	C381.201,170.02,380.844,170.259,380.368,170.735z M401.322,179.188c-0.119,0.595,0.119,0.595-0.834,0.238
	c0,0.119-0.119,0.357-0.119,0.477c1.905,0.714,2.501,0.238,3.811-0.119c-0.238,0.833,0.595,0.476,1.429,0.476
	c1.19,0.477,0,0.953-0.357,1.429c1.31,0.476,2.5,0.476,3.69,0.476c0.834,0.357,0.596,0.477,0.834-0.119
	c-0.834-0.357-0.715-0.238-0.715-0.953c-0.119-2.143,3.334-1.786,5.357-1.31c0-0.119,0.119-0.357,0.119-0.476
	c-2.023-0.953-4.167-1.786-6.31-2.738C406.441,178.354,404.417,178.711,401.322,179.188z M427.752,186.212
	c0.476,0.238,0.833,0.476,1.31,0.714c-0.119,0.119-0.119,0.357-0.238,0.477c0.238,0.476,0.476,0.833-0.238,0.476
	c-0.119,0.119-0.119,0.357-0.238,0.476c-1.31-0.595-3.929-2.024-3.452-3.095c0.833,0.476,1.785,0.953,2.619,1.429
	C427.633,186.45,427.752,186.331,427.752,186.212z M431.681,188.474c0.833,0.477,1.666,1.072,2.5,1.548
	c-0.119,0.119-0.119,0.238-0.238,0.476C433.229,189.783,432.395,189.069,431.681,188.474z M475.375,228.477
	c-2.619-1.667-5.119-3.333-7.738-4.881c0.833,0.833,0.237,0.833-0.119,1.19c0.119-0.119,0.237-0.238,0.356-0.357
	c-0.714-0.714-1.785-1.19-1.785-0.119c-0.715,0.119-0.715-0.476-1.19-0.357c0,1.071,1.19,2.857,1.904,3.929
	c0.119-0.119,0.238-0.238,0.357-0.357c0.595,0.596,1.548,0.238,2.381,0.714c1.429,0.953,2.738,1.786,4.048,2.738
	c-0.119,0.119-0.238,0.238-0.357,0.357c0.119,0.238,0.357,0.357,0.477,0.476c-0.119,0.119-0.238,0.238-0.357,0.357
	c-0.714-0.595-1.547-1.191-2.262-1.667c-0.119,0.119-0.238,0.238-0.357,0.357c1.786,1.786,3.572,3.571,5.357,5.357
	c1.786,1.429,4.286,2.857,5.834,4.405c-0.595-0.714-0.595-0.476-0.119-0.833c0.238,0.238,1.19-2.857,1.786-3.691
	c-0.596-0.714-1.19-1.429-1.905-2.262c-0.595,0.238-1.19,0.477-1.785,0.833c-0.357-0.357,1.19-3.453,1.19-4.286
	C479.065,229.667,477.161,229.072,475.375,228.477z M228.928,666.721c0.119-0.119,0.119-0.355,0.238-0.475
	C229.047,666.483,228.928,666.602,228.928,666.721z M405.25,175.973c-0.238,0.357-1.31,1.786-0.952,0.714
	C404.536,176.449,404.893,176.211,405.25,175.973z M416.799,181.449c-0.953-0.476-0.596-0.476-0.834,0.119
	c0.715,0.477,1.548,0.953,2.262,1.31c0.715,0.477,1.429,0.953,2.263,1.429c-0.119,0.119-0.119,0.357-0.238,0.477
	c-2.381-0.714-4.763-1.31-7.144-1.905c-0.238,0.714,1.667,1.667,3.691,2.5c2.023,0.833,4.285,1.667,4.881,1.786
	c0.952,0.476,1.905-0.476,2.738-0.714c-1.071-0.595-1.19-1.667-1.429-2.381c-1.071-0.595-1.31-0.238-1.667,0.238
	c-1.429-1.071-2.857-2.262-4.286-3.214C416.917,181.212,416.917,181.331,416.799,181.449z M439.539,195.737
	c0.119-0.119,0.119-0.238,0.238-0.357c0.952,0.714,0.714,0.119,1.071-0.476c-0.596-0.357-1.19-0.833-1.905-1.19
	C439.181,194.308,439.3,195.022,439.539,195.737z M347.747,167.877c0-0.119,0-0.357,0-0.476l-3.81,0.714
	c-1.191-0.119-0.357,0.952,0,1.548c-1.072-0.119-1.548,0.714-1.905,1.31c2.143-0.238,4.167-0.357,6.31-0.595
	c0,0.595-0.119,0.595-0.595,0.952c0,0.119,0,0.357,0,0.476c-1.071-0.119-0.596,0.238-0.596,0.953c0.238,0,0.357,0,0.596,0
	c0-0.714-0.238-0.476,0.595-0.476c0,0.833,1.667-1.786,1.31-3.453c4.048,0.357,4.405-2.619,9.644,0c0-0.119,0-0.357,0-0.477
	c0.238,0,0.477,0,0.596,0.119c0.119-1.667-5.357-2.5-7.024-2.738C351.199,166.568,349.414,167.163,347.747,167.877z
	 M360.009,166.568c0.833,0.119,1.31-0.119,1.31,0.595c0.833,0.119,0.595-0.119,0.595,0.595
	C361.2,167.401,360.604,167.044,360.009,166.568z M375.368,169.306c0.714,0.119-0.834,1.429-0.834,2.381
	c-0.238,0-0.476-0.119-0.595-0.119c0,0.119,0,0.357,0,0.476c-1.429-0.238-5.477-0.357-5.953,0.833
	c0.833,1.667,2.262,1.667,3.81,1.429c1.548-0.238,3.215-0.953,4.644-0.714c0.119-1.31-0.596-2.143,0.952-2.857
	c0.119-0.714,0.238-0.476-0.595-0.595c0-0.357,0.119-0.714,0.119-0.953c-0.477-0.119-0.834-0.119-1.31-0.238
	C375.368,168.949,375.368,169.187,375.368,169.306z M377.272,169.187c0.477,0.119,0.834,0.119,1.31,0.238
	c-0.476,0.476-0.476,0.953-1.429,0.714C377.272,169.782,377.272,169.425,377.272,169.187z M370.843,168.592
	c0.833,0.357,1.31,0.357,1.19,1.19c-0.477-0.119-0.833-0.119-1.31-0.238l-1.905,0.238c0-0.119,0-0.357,0-0.476
	c0.834,0.119,0.596,0.238,0.715-0.357C370.01,168.83,370.367,168.711,370.843,168.592z M386.44,173.949
	c-1.072-0.238-0.715,0.119-0.834,0.833c0.238,0,0.477,0.119,0.715,0.119c-0.119,0.595-0.357,0.476,0.595,0.595
	c0.238-1.548,4.882-0.833,4.286-2.977C389.654,172.997,388.106,173.354,386.44,173.949z M352.27,166.806
	c0,0.595,0.238,0.476-0.714,0.476c0,0.119,0,0.357,0,0.476c0.477-0.357,0.477-0.476,1.31-0.357
	C352.627,167.163,352.389,167.044,352.27,166.806z M452.992,205.856c-0.238,0.238-2.023,0.357-1.429-0.476
	c0.357,0.357,0.715,0.595,1.071,0.952C452.873,206.094,452.873,205.975,452.992,205.856z M434.776,193.713
	c0.238,0.119,0.477,0.238,0.596,0.357C435.133,193.95,435.014,193.831,434.776,193.713z M449.063,203.951l1.667,1.31
	L449.063,203.951z M310.72,167.044c0,0.119,0,0.357,0,0.477C310.72,167.282,310.72,167.163,310.72,167.044z M384.296,172.997
	c0.238,0,0.477,0.119,0.715,0.119c-0.715,0.357-1.905,0.595-3.096,0.714c-1.071,0.238-2.262,0.238-3.215,0.119
	c0-0.357,0.119-0.595,0.119-0.952C380.606,172.878,382.273,172.878,384.296,172.997z M295.481,168.354
	c-1.786,0.595-11.191,2.857-10.953,4.048c0.476,0.238,0.714,0.476,0.118,0.476c0.953,0.595,2.024,1.31,3.334,1.19
	c0,0.119,0,0.357,0.119,0.476c-1.905,0.477-3.69,0.953-5.477,1.429c-2.977,0.596-6.191,0.357-8.215,2.143
	c-0.357,0.357-1.071,0.953-0.119,0.714c0,0.119,0.119,0.357,0.119,0.477c0.238,0,0.476-0.119,0.595-0.119
	c0-0.119,0-0.357-0.119-0.477c2.501-0.476,4.882-1.071,7.263-1.547c0,0.119,0,0.357,0.119,0.476c-0.952,0.119-2.5,0-2.381,0.833
	c0.238,0,0.477-0.119,0.595-0.119c0,0.119,0,0.357,0.119,0.476c1.072-0.119,2.024-0.357,3.096-0.357
	c0.238-0.595,1.071-1.429,0.952-2.143c0.357,0,0.834-0.119,1.191-0.119c0,0.119,0,0.357,0.118,0.476
	c0.596,0.477,1.429,0.953,1.548,1.905c0.238,0,0.477,0,0.596-0.119c1.667-1.548,7.144-3.096,6.786-5.715c-0.238,0-0.357,0-0.596,0
	c-2.023,0.357-4.167,0.714-6.19,1.19c0-0.119,0-0.357-0.119-0.476c0.357,0,0.833-0.119,1.19-0.119
	c0.238-0.714,0.596-1.547,1.667-1.667c0.477,0.238,0.595,0.476,1.31,0.357c1.071-1.19,2.262-2.143,3.334-3.214
	C295.481,168.711,295.481,168.472,295.481,168.354z M340.722,167.877c0.357,0.357,0.595,1.19,0.595,0.595
	C341.08,168.235,340.96,168.115,340.722,167.877z M346.437,168.354c0,0.119,0,0.357,0,0.476c-0.238,0-0.477,0-0.596,0
	c0.596,0.357,1.31,0.357,1.31,1.071c0.238,0,0.477,0,0.596,0c0-0.119,0-0.357,0-0.476c-0.477-0.476,0.238-0.476-0.596-0.595
	C346.913,168.711,346.675,168.472,346.437,168.354z M485.495,242.049c-0.477,0.357-0.238,0.477-0.834-0.238
	c-0.119,0.119-0.238,0.238-0.357,0.357c0.953,1.19,1.548,0.595,2.382,0.714C486.328,242.644,485.851,242.287,485.495,242.049z
	 M487.637,243.954c0.596,0.952,1.786,2.262,1.071,2.857C488.351,245.859,487.995,244.906,487.637,243.954z M278.575,170.615
	c-1.31,0.833-7.857,2.738-7.857,2.738c-0.238,0-0.357,0.119-0.596,0.119c-0.357,0.953-1.548,2.262-1.31,3.333
	c0.596-0.119,1.19-0.238,1.905-0.357c0-0.119-0.119-0.357-0.119-0.477c3.333-1.547,6.786-2.976,10.119-4.524
	c0-0.357-0.119-0.595-0.119-0.953C279.765,170.496,279.169,170.496,278.575,170.615z M282.98,170.615c0,0.119,0,0.357,0.119,0.477
	c-0.953,0.119-0.715-0.357-0.834-0.953C282.503,170.259,282.742,170.378,282.98,170.615z M313.339,168.472
	c-0.357,0.477-1.071,1.072,0.119,0.953c0-0.119,0-0.357,0-0.476C313.458,168.711,313.458,168.592,313.339,168.472z M528.711,530.165
	c0.357-0.834-0.477,0.238-0.714,0.357c0.595,0.238,0.595,0.119,1.071-0.238C528.95,530.284,528.831,530.284,528.711,530.165z
	 M309.648,169.068c-0.952,0.477-1.904,1.072-3.095,1.072c0,0.119,0,0.357,0,0.476c1.071,0,2.143-0.119,3.095-0.119
	c0.596-0.476,1.429-1.071,2.501-1.071c0-0.119,0-0.357,0-0.476C311.315,168.949,310.482,169.068,309.648,169.068z M332.388,169.068
	c0.596,0,1.31,0,1.905,0.119C333.698,169.068,333.102,169.068,332.388,169.068z M528.235,531.475
	c-0.118,0.355-0.356,0.832-0.476,1.309c-0.715-0.119-1.31-0.119-1.905-0.238c0.357-0.834,0.715-1.666,0.953-2.5
	c0.595,0.238,0.476,0,0.237,0.834L528.235,531.475z M524.306,540.88l-0.833,1.785L524.306,540.88z M520.735,548.737
	c-0.357,0.834-0.596,2.025-1.31,1.549c0.238-0.834,0.357-2.857,1.19-2.381C520.616,548.26,520.616,548.499,520.735,548.737z
	 M327.388,169.306c0.833,0,1.904-0.238,1.904,0.595L327.388,169.306z M445.015,204.904c-0.833-0.476-1.667-0.952-2.5-1.31
	c-2.263-1.786-4.524-3.69-6.786-5.357c-0.357,0.595-2.382,0.119-4.524-0.476s-4.524-1.429-5.357-1.786
	c-0.238,0.595-0.119,0.595,0.238,1.191c-0.357,0.595-0.596,0.238-1.429-0.238c-0.119,0.357-0.238,0.595-0.357,0.833
	c2.144,1.19,5.119,0,6.429,2.738c0.357,0.238,0.834,0.476,1.191,0.714c0.476-0.953,3.452-0.238,6.548,1.071
	c1.548,0.595,3.096,1.429,4.523,2.143c1.311,0.714,2.501,1.31,3.096,1.667c0.119-0.119,0.119-0.238,0.238-0.357
	c-0.714-0.595-0.596-0.357-0.357-0.833c-0.119-0.119-0.356-0.238-0.595-0.476C445.134,204.666,445.015,204.784,445.015,204.904z
	 M451.444,209.428c0.715,0.595,1.429,1.19,2.263,1.786c-0.834-0.476-1.667-0.952-2.5-1.429
	C451.207,209.666,451.325,209.547,451.444,209.428z M547.404,444.087c0.356-0.357,0.118-0.238,0.476,0.238
	C547.76,443.493,547.046,444.802,547.404,444.087z M247.144,178.711c-2.738,1.667-7.62,2.62-7.62,5.596c0.238,0,0.357,0,0.596-0.119
	c0.238-0.476,0.357-0.595,1.071-0.833l5.596-1.072c0.596-0.714,1.667-1.071,1.429-1.905c0.357-0.119,0.833-0.238,1.19-0.238
	c0,0.119,0.119,0.357,0.119,0.477c0.119,0.357,0.119,0.595,0.238,0.952c0.238,0,0.476-0.119,0.595-0.119
	c0-0.119-0.119-0.357-0.119-0.476c0.357-0.119,0.834-0.238,1.191-0.238C250.477,179.664,248.811,179.188,247.144,178.711z
	 M263.216,175.14c-0.477,0.714-1.071,1.786-2.143,1.905c0.476,0.476,2.023,1.19,0.952,1.31c-1.429,1.19-2.977,2.024-5.238,2.619
	c0.119,0.357,0.119,0.714,0.238,0.953c0.356-0.119,0.833-0.238,1.19-0.238c0,0.119,0.119,0.357,0.119,0.476
	c-3.572,0.953-5.596,3.334-7.978,3.929c0,0.119,0.119,0.357,0.119,0.476c2.5-0.714,5.001-1.429,7.024-2.619
	c1.19-0.833,2.144-2.619,3.81-2.857c-0.119-0.714-0.356-0.476,0.477-0.595c0,0.119,0.119,0.357,0.119,0.476
	c0.596,0.238,1.429,0.714,1.548,1.19c3.929-3.453,1.071-4.167,0.357-7.262C263.693,175.14,263.455,175.14,263.216,175.14z
	 M267.622,174.426c-0.119,0.476-0.238,1.071-0.357,1.547c0,0.119,0.119,0.357,0.119,0.477c-0.238,0-0.357,0.119-0.596,0.119
	c-0.118-0.357-0.118-0.714-0.237-0.953c-0.953,0.238-0.715-0.238-0.834-0.833C266.431,174.544,267.026,174.426,267.622,174.426z
	 M325.483,169.901c0.238,0,0.477,0,0.596,0C325.959,169.901,325.721,169.901,325.483,169.901z M437.514,203.594
	c-0.595-0.238-1.31-0.595-2.023-0.833c-0.119,0.238-0.357,0.596-0.477,0.833c2.144,1.429,4.167,2.5,6.072,3.572
	s3.929,2.143,5.953,3.572c0.118-0.238,0.356-0.476,0.476-0.833l-1.667-1.31c-0.356-0.238-0.714-0.595-1.071-0.833
	c0.119-0.119,0.119-0.238,0.238-0.357c1.667,0.833,3.334,1.786,5,2.738c0.357-0.477,0.477-0.238-0.237-0.833
	c0.118-0.119,0.118-0.238,0.237-0.357c-0.356-0.357-0.714-0.595-1.071-0.952c-1.667-0.595-3.69-1.667-5.715-2.5
	C441.206,204.547,439.181,203.832,437.514,203.594z M303.458,170.854c0.357,0.357,0.714,0.476,0.714,0.952
	C304.291,171.33,303.696,171.092,303.458,170.854z M361.557,173.354c-0.834-0.119-0.596-0.238-0.715,0.357
	c0.477,0.119,0.834,0.119,1.31,0.119c0,0.119,0,0.357,0,0.476c0.238,0,0.357,0,0.596,0.119c0-0.119,0-0.357,0-0.477
	c0.595,0.119,0.357-0.119,0-0.476c0-0.119,0-0.357,0-0.476c-0.357,0-0.834-0.119-1.31-0.119
	C361.557,172.997,361.557,173.116,361.557,173.354z M525.259,532.188c-0.119-0.119-0.238-0.119-0.477-0.238
	c0.119-0.238,0.119-0.355,0.238-0.594c-0.715-0.357-0.596,0.119-0.952,1.07c-0.119-0.119-0.238-0.119-0.477-0.238
	c-0.119,0.238-0.119,0.357-0.238,0.596c0.833,0.477,1.31,1.191,2.143,1.072C525.497,533.38,525.378,532.784,525.259,532.188z
	 M520.854,545.048c-0.238,0.594-0.596,1.189-0.834,1.785C520.258,546.237,520.616,545.641,520.854,545.048z M510.734,565.167
	c-0.476-0.594-0.833-1.07-1.31-1.666c0.238-0.357,0.357-0.715,0.596-1.191C510.496,563.143,510.615,564.096,510.734,565.167z
	 M282.742,173.116c0,0.357,0.119,0.714,0.119,0.952c0.714-0.357,1.19-0.357,1.071-1.071
	C283.575,172.997,283.217,173.116,282.742,173.116z M470.017,229.429c0.119,0.119,0.357,0.357,0.476,0.476
	C470.375,229.667,470.255,229.548,470.017,229.429z M545.499,431.229c0-0.953,0-1.904,0.119-2.738c-0.715,0-0.596-1.428-0.477-2.143
	c0-0.953,0-1.904,0-2.738c-0.476,0-0.595-0.238-0.952-0.715c0,0.238,0,0.477,0,0.715c-0.357,0-0.596,0-0.952,0
	c0,1.189,0.356,2.977,0.833,4.404c0.477,1.549,1.19,2.857,1.905,3.453C545.856,431.229,545.737,431.229,545.499,431.229z
	 M298.577,172.639c-1.429,1.548-2.62,3.215-5.239,3.453c0,0.119,0,0.357,0.119,0.477c1.548-0.477,3.096-0.833,4.644-1.191
	c0.952-0.476,2.023-1.786,3.096-1.905C300.362,173.235,299.41,172.878,298.577,172.639z M311.792,171.925
	c-0.596,0.238-3.096,0.714-5.357,1.31c-2.263,0.596-4.405,1.31-4.405,1.667c-0.238,0-0.357,0-0.596,0c0,0.119,0,0.357,0,0.476
	c0.238,0,0.477,0,0.596,0c0,0.119,0,0.357,0,0.477c0.238,0,0.477,0,0.596,0c0.714-0.477,1.904-1.191,2.976-1.191
	c0-0.119,0-0.357,0-0.476c0.834,0,0.596-0.238,0.715,0.476c0.833,0.119,1.905,0.119,1.905,0.953c0.356,0,0.833,0,1.19,0
	c0-0.119,0-0.357,0-0.476c1.548-0.833,2.738-2.62,4.762-2.62c0-0.119,0-0.357,0-0.476
	C313.458,171.925,312.625,171.925,311.792,171.925z M367.153,175.14l1.904,0.238L367.153,175.14z M453.349,214.19l1.548,1.429
	L453.349,214.19z M519.902,543.618c-0.357,0.834-0.477,2.023-1.191,1.549L519.902,543.618z M231.071,186.569
	c0.119,0.357,0.238,0.595,0.357,0.953c0.596-0.477,1.071-0.714,0.834-1.31C231.786,186.331,231.428,186.45,231.071,186.569z
	 M330.721,172.997c1.071,0.238,2.144,0.357,3.096,0.595c0,0.119,0,0.357,0,0.476C332.269,173.83,331.555,173.83,330.721,172.997z
	 M543.118,395.512c0.119,0.953,0.595,2.738-0.238,2.857c0-0.238,0-0.476-0.119-0.714c-0.119,0-0.357,0-0.477,0
	C542.641,396.941,542.879,396.227,543.118,395.512z M269.526,177.64c0,0.119,0.119,0.357,0.119,0.476
	c-0.833,0.119-1.31-0.119-1.19,0.714c0.238,0,0.477-0.119,0.596-0.119c0,0.119,0.119,0.357,0.119,0.477
	c0.595-0.119,1.19-0.238,1.785-0.357c0-0.119-0.118-0.357-0.118-0.476c0.356-0.119,0.833-0.119,1.19-0.238
	c0-0.119-0.119-0.357-0.119-0.476C271.312,177.64,270.36,177.64,269.526,177.64z M411.204,188.474c0,0.119-0.119,0.357-0.119,0.477
	c0.356,0.476,0.476,0.714,1.071,1.071c0-0.119,0.119-0.357,0.119-0.476C412.037,189.188,411.679,188.831,411.204,188.474z
	 M463.231,226.453c-0.953-0.953-2.024-2.024-2.977-2.977c-0.952,1.191,4.405,4.048,5.596,4.167
	c-0.119-0.119-0.357-0.357-0.477-0.476L463.231,226.453z M492.756,262.646c0.357,0.595,0.596,0.595,1.19,0.833
	c0.477-0.357,0.357-0.476,0.357-1.19c-0.119-0.238-0.238-0.357-0.357-0.595L492.756,262.646z M539.426,381.226
	c0-0.238-0.119-0.477-0.119-0.714c-0.833,0.119-0.356,1.905-0.476,2.857c0.119,0.833-0.596,0.833-0.834,0.833
	c0.119,0.596,0.238,1.072,0.715,1.31c0.119,0,0.357,0,0.477,0c0.118,0.952,0.237,0.833,0.714,1.31c-0.119-0.833,0-0.833,0.238-1.429
	c0.238,1.429,0.714-2.143,0.952-2.977C540.499,381.94,539.903,381.583,539.426,381.226z M541.927,388.607
	c0.118,1.429,0.356,2.738,0.476,4.167c-0.119,0-0.357,0-0.476,0c0-0.238,0-0.476-0.119-0.714c-0.119,0-0.357,0-0.477,0
	c-0.119-1.31-0.952-5.477-0.238-5.596C541.451,387.298,541.57,387.893,541.927,388.607z M375.129,178.354
	c-0.357,0.476-1.548,1.19-0.119,1.429c0-0.357,0-0.595,0.119-0.953c0.833,0.119,0.595,0.238,0.714-0.357
	C375.606,178.354,375.368,178.354,375.129,178.354z M475.494,238.835c0.595,0.714,1.548,1.429,1.071,1.905
	C476.208,240.144,475.851,239.549,475.494,238.835z M537.878,367.296c0.119,0.714,0.238,1.429,0.477,2.024
	C538.117,368.606,537.998,368.01,537.878,367.296z M357.033,176.33c0,0.357,0,0.714,0,0.952c0.715-0.119,1.905,0,1.905-0.833
	L357.033,176.33z M368.224,177.759c0,0.357,0,0.714-0.119,0.952c0.714-0.119,1.31-0.119,1.31-0.833
	C369.057,177.878,368.701,177.759,368.224,177.759z M410.25,189.069c-0.238,0.595,0,0.595-0.833,0.119
	c0,0.119-0.119,0.357-0.119,0.476c0.596-0.119,0.596-0.238,1.429,0.119C410.608,189.664,410.489,189.427,410.25,189.069z
	 M449.301,213.833c0.357,0.238,0.714,0.595,1.071,0.833c-0.477-0.119-2.5-1.548-1.31-0.476
	C449.063,214.071,449.182,213.952,449.301,213.833z M534.784,360.034c-0.357,0.119-0.596,0.119-0.953,0.238
	c0.477,1.905,2.263,4.286,3.215,5.715c-0.238-0.953-0.357-1.786-0.595-2.738C535.974,362.177,535.378,361.105,534.784,360.034z
	 M241.787,185.379c0,0-1.905,1.19-3.334,2.262c-1.429,1.072-2.381,2.024-0.833,1.548c0.714-0.714,4.048-1.786,3.81-2.619
	c0.833-0.238,0.595-0.357,0.714,0.357c0.238,0,0.357-0.119,0.596-0.119l-0.357-1.429
	C242.262,185.26,242.024,185.379,241.787,185.379z M247.858,183.712c0.238,0.714,0,1.548,0.952,1.31
	c0-0.119-0.118-0.357-0.118-0.476c0.237,0,0.476-0.119,0.595-0.119C248.811,184.188,248.334,183.95,247.858,183.712z
	 M350.723,176.092c-0.953,0.238-3.096,0.357-3.096,1.191c1.071-0.119,3.096-0.238,3.096,0.714c0.237,0,0.476,0,0.595,0.119
	c0-0.119,0-0.357,0-0.476c0.834,0.119,0.596,0.238,0.596-0.476c-0.238,0-0.357,0-0.596-0.119c0-0.119,0-0.357,0-0.476
	c0.357,0,0.834,0.119,1.31,0.119C351.914,176.569,351.318,176.33,350.723,176.092z M364.415,177.759c0,0.357,0,0.714-0.119,0.952
	c0.714-0.119,1.31-0.119,1.31-0.833C365.367,177.878,364.89,177.759,364.415,177.759z M484.185,255.384
	c-0.596,0.476-1.311-0.476-1.905-1.072c0.477-0.357,0.477,1.31,1.31,2.5c1.667,2.381,3.452,4.405,5.238,6.548
	c1.667,2.143,3.215,4.286,4.286,6.905c0.119-0.119,0.238-0.238,0.357-0.238c0.357,0.595,2.143,0,2.977,0.357
	c0.119-0.119,0.237-0.119,0.356-0.238c-0.119-0.238-0.237-0.357-0.356-0.595c0.356-0.238-4.524-8.215-5.477-9.763
	C488.589,258.36,486.328,256.812,484.185,255.384z M533.117,351.105l0.477,2.024L533.117,351.105z M537.284,373.725
	c-0.715,0.119-0.357,2.5-0.357,3.572c0.119,0,0.357,0,0.477-0.119c0,0.238,0.119,0.476,0.119,0.714
	c0.476-0.119,0.595-0.357,0.833-0.833c0.596-0.119,0.477,0.119,0.357-0.714C538.117,375.511,537.641,374.677,537.284,373.725z
	 M360.128,177.64c-0.596,0.357-0.596,0.238-0.715,0.953c0.715-0.238,1.31-0.119,1.31-0.833
	C360.486,177.64,360.248,177.64,360.128,177.64z M472.636,239.787c-0.119,0.119-0.238,0.238-0.357,0.357
	c1.667,1.905,3.096,3.333,4.763,4.881c0.119-0.119,0.238-0.238,0.356-0.357c-0.595-0.714-0.595-0.476-0.118-0.833
	c-0.119-0.119-0.238-0.357-0.477-0.477C475.494,242.168,474.065,240.978,472.636,239.787z M234.524,189.069
	c0,0.119,0.119,0.357,0.119,0.477l1.904-0.119L234.524,189.069z M292.266,177.64c0,0.119,0,0.357,0.119,0.476
	C292.385,177.997,292.266,177.878,292.266,177.64z M296.671,177.283c0,0.119,0,0.357,0.119,0.476
	C296.671,177.64,296.671,177.521,296.671,177.283z M317.03,176.33c0,0.119,0,0.357,0,0.476c-0.595,0.119,0.357,0.477,0.596,0.477
	C317.506,177.045,317.268,176.687,317.03,176.33z M397.393,186.093c0.237,0.119,0.476,0.119,0.714,0.238
	C397.75,186.212,397.63,186.212,397.393,186.093z M453.945,220.381c0.356,0.357,0.714,0.595,1.071,0.952
	c-0.596,0.238-0.834,0.477-1.548-0.119C453.587,220.857,453.826,220.619,453.945,220.381z M467.636,235.025
	c-1.072-1.072-3.572-3.453-5.953-5.715s-4.763-4.405-5.238-5.477c-0.119-0.119-0.357-0.357-0.477-0.477
	c-0.119,0.119-0.238,0.238-0.238,0.357c-0.714-0.714-1.31-0.595-2.023-0.595c-0.119,0.119-0.238,0.238-0.238,0.357
	c-0.715-0.595-0.596-0.357-0.238-0.833c-0.952-0.833-0.357-0.833,0-1.191c0.119-0.119,0.238-0.238,0.238-0.357
	c-1.31-1.19-2.5-2.262-3.929-2.738c-1.31-0.833-2.619-1.786-3.929-2.619c-0.357-0.238-0.715-0.596-1.072-0.833
	c-0.237,0.238-0.356,0.476-0.476,0.833c0.238,0.119,0.356,0.238,0.476,0.476c-0.356,0.476,0.238,1.548,1.429,2.738
	c0.596,0.595,1.31,1.31,2.024,2.024c0.714,0.714,1.667,1.548,2.5,2.262c3.571,2.976,7.382,6.31,8.572,7.262
	c1.31,1.31,3.81,2.262,3.571,4.167c1.071,1.19,2.5,2.143,3.929,2.977c1.429,0.833,2.857,1.547,4.048,2.381
	c0.477-0.119,0.953-0.357,1.429-0.476c-0.476-0.833-0.952-1.548-1.548-2.381C469.66,236.335,468.708,235.62,467.636,235.025z
	 M503.709,282.885c0.477,0.833,0.953,1.667,1.31,2.381C504.663,284.552,504.186,283.719,503.709,282.885z M496.567,575.762
	l-1.191-0.832c-0.476,0.715-0.476,0.477,0,0.832c-0.476,1.549-1.071,2.977-1.666,4.406c0.119,0.119,0.237,0.238,0.356,0.357
	c0.596-0.596,1.19-1.191,1.786-1.787C496.209,577.669,496.448,576.716,496.567,575.762z M375.487,181.926
	c-0.119,0.595,0.119,0.476-0.715,0.357c0,0.357-0.119,0.714-0.119,0.953c0.477,0.119,0.834,0.119,1.19,0.238
	c0-0.119,0-0.357,0-0.476c1.19,0.238,0.477-0.952,0.119-1.429C375.962,181.688,375.724,181.807,375.487,181.926z M487.28,258.122
	c-0.476-0.476-1.071-0.953-1.548-1.429c0,0.595,0,0.714,0.477,1.429c-0.119,0.119-0.238,0.238-0.357,0.238
	c0.715,0.357,1.786,0.833,2.382,1.667L487.28,258.122z M489.662,261.574c-0.119,0.119-0.238,0.238-0.357,0.238
	C489.423,261.694,489.542,261.694,489.662,261.574z M535.259,376.106c-0.119,0-0.356,0-0.476,0.119c0-0.238-0.119-0.476-0.119-0.714
	c-0.119,0-0.357,0-0.477,0.119c0.238,1.429,0.834,2.857,1.548,4.167c0.596,1.31,1.429,2.619,2.143,3.691
	c-0.118-0.953-0.237-1.786-0.356-2.739C536.807,379.202,536.093,377.654,535.259,376.106z M295.481,178.354
	c-0.834,0.238-2.501,0.357-2.382,1.19c0.238,0,0.477,0,0.596-0.119c0,0.119,0,0.357,0.119,0.477c0.833-0.119,1.31,0.238,1.19-0.595
	C295.362,179.188,294.766,178.593,295.481,178.354z M310.363,177.521c0,0.119,0,0.357,0,0.476
	C310.363,177.878,310.363,177.759,310.363,177.521z M347.508,178.354c0.596,0.595,1.429,1.071,2.5,1.19
	C349.175,179.188,348.341,178.83,347.508,178.354z M468.827,240.978c-0.238,0.476,2.023,2.857,4.643,5.238
	c2.619,2.262,5.596,4.524,7.263,4.048c-0.952-0.595-3.69-3.333-6.31-5.714C471.803,242.287,469.183,240.383,468.827,240.978z
	 M491.089,584.454l-1.071,1.549L491.089,584.454z M288.813,179.545c-0.476,0.477-0.595,0.357-0.476,1.072
	c0.714-0.357,1.19-0.357,1.071-1.072C289.17,179.545,289.051,179.545,288.813,179.545z M290.004,179.426
	c0.118,0.714-0.238,1.072,0.714,0.953c0-0.119,0-0.357-0.119-0.476l1.786-0.238C291.67,179.545,290.837,179.545,290.004,179.426z
	 M520.973,526.354c-0.477,1.191-0.953,2.502-1.429,3.691c-0.119-0.119-0.238-0.119-0.477-0.238
	C519.664,528.618,520.377,527.427,520.973,526.354z M497.876,572.788c-0.477,0.713-0.715,1.904-1.429,1.309
	C496.923,573.739,497.4,573.262,497.876,572.788z M266.907,183.236c-0.714,0.595-1.666,0.833-1.548,1.786
	c0.238,0,0.357-0.119,0.596-0.119c1.548-0.833,6.786-0.476,6.429-2.738c-0.237,0-0.356,0.119-0.595,0.119
	C270.36,182.997,268.455,183.355,266.907,183.236z M353.699,180.497c0,0.119,0,0.357,0,0.476c-0.237,0-0.356,0-0.595-0.119
	c0,0.119,0,0.357,0,0.477l1.905,0.238c0-0.714,1.19-0.833,1.904-1.31c-0.357,0-0.833-0.119-1.19-0.119L353.699,180.497z
	 M368.582,181.807c0.356,0,0.833,0.119,1.19,0.119c-0.596,0.357-1.905,1.19-1.905,0.238
	C368.105,182.045,368.343,181.926,368.582,181.807z M385.011,184.664c0.714,0.119,1.31,0.238,2.023,0.476
	C386.321,185.021,385.606,184.783,385.011,184.664z M500.496,280.862c0.119,0.238,0.237,0.357,0.356,0.595
	C500.733,281.338,500.615,281.1,500.496,280.862z M526.211,507.067c-0.238,0.834-0.119,0.715,0,1.43
	c0.238-0.834,0-0.715,0.596-0.477c0.118-0.238,0.118-0.477,0.237-0.596C526.807,507.305,526.45,507.186,526.211,507.067z
	 M260.359,185.021c0.952,0.238,2.144,0.595,3.215,0.357c0-0.119-0.119-0.357-0.119-0.477c0.238,0,0.357-0.119,0.595-0.119
	C262.859,184.902,261.549,184.902,260.359,185.021z M450.015,220.024c-0.119,0.119-0.237,0.238-0.237,0.357
	C449.778,220.262,449.896,220.143,450.015,220.024z M491.328,267.17c0,0.595,0.119,0.714-0.356,1.071
	c-0.119-0.357-0.596-1.667,0-0.833C491.089,267.408,491.208,267.289,491.328,267.17z M535.736,468.376
	c-0.119,0.951,0,2.023-0.833,1.904c-0.238-1.549-0.953-3.215-0.596-5c0.119,0,0.357,0.119,0.477,0.119
	c0,0.238-0.119,0.475-0.119,0.713C535.022,466.827,535.378,467.542,535.736,468.376z M430.372,206.809
	c-0.119,0.119-0.119,0.238-0.238,0.476c-0.119-0.119-0.357-0.238-0.596-0.357c-0.238,0.595,1.548,1.667,3.691,2.857
	c2.023,1.19,4.285,2.262,4.881,2.5c0.119-0.119,0.119-0.238,0.238-0.357c0.238,0.119,0.357,0.238,0.595,0.357
	c0.119-0.119,0.119-0.238,0.238-0.357c-0.952-0.714-1.785-1.31-2.738-2.024c-0.952-0.476-2.023-1.071-2.977-1.548L430.372,206.809z
	 M480.97,253.598c0,0.595,0.119,0.833-0.238,1.19c-0.119-0.357-0.596-1.667-0.119-0.833
	C480.732,253.836,480.851,253.717,480.97,253.598z M535.736,384.321c-0.238,0.714-0.477,1.429-1.19,1.548
	c0-0.238-0.119-0.476-0.119-0.714c0.357,0,0.596-0.119,0.952-0.119C535.498,384.798,535.617,384.678,535.736,384.321z
	 M373.939,184.664c0,0.714,0,0.595,0.476,1.071c-0.356-0.119-0.833-0.119-1.19-0.238c0,0.357,0,0.714-0.119,0.952l3.811-0.357
	c0.237,0,0.356,0.119,0.595,0.119c0.119-0.953-1.905-1.548-2.977-2.024C374.415,184.426,374.177,184.545,373.939,184.664z
	 M399.774,190.617c0.238,0.119,0.477,0.119,0.595,0.238c-0.118,0.595-0.356,0.357,0.477,0.714c-0.595,0.238-0.595,0.357-1.429,0
	C399.536,191.212,399.655,190.974,399.774,190.617z M535.14,383.726c-0.237,0.477-0.237,0.714-0.833,0.714
	c0-0.357,0.238-1.667,0.357-0.714C534.903,383.726,535.022,383.726,535.14,383.726z M532.284,481.829
	c0,0.238-0.119,0.475-0.119,0.713C532.165,482.303,532.165,482.067,532.284,481.829z M318.578,180.378
	c0,0.714,0.119,1.31,0.119,2.024c-0.357,0-0.833,0-1.19,0c0-0.119,0-0.357,0-0.476c0.476-0.477,0.357-0.477,1.19-0.477
	C318.578,180.973,318.578,180.735,318.578,180.378z M336.436,180.735c0,0.357,0,0.714,0,0.953l-1.786-0.119
	c0-0.714-0.238-0.476,0.596-0.476c0-0.119,0-0.357,0-0.476C335.603,180.616,335.959,180.616,336.436,180.735z M516.687,529.212
	c-0.119-0.119-0.238-0.119-0.477-0.238c1.667-3.094,2.024-6.309,1.548-9.285c0.119-0.238,0.119-0.357,0.238-0.596
	c-0.357-0.119-0.596-0.238-0.833-0.357c-0.953,2.381-1.548,4.881-2.144,7.383c-0.477,2.5-0.714,4.881-0.595,7.143
	c-0.357,0.953,0,0.715,0.595,1.072l1.548-3.572C516.687,530.165,516.687,529.688,516.687,529.212z M322.268,180.854
	c0.834,0,1.786-0.357,1.905,0.477c-0.715,0.119-2.381,0.952-2.5,0C321.912,181.212,322.149,180.973,322.268,180.854z
	 M326.554,180.854c0,0.595-0.357,0.953,0.715,0.953c0-0.119,0-0.357,0-0.476C327.031,181.212,326.792,181.093,326.554,180.854z
	 M529.783,371.463c-0.714,0.119-0.356,0.476-0.237,1.429c0.595-0.119,1.19-0.238,1.785-0.238c0.119,0.833,0.238,0.714,0.715,1.31
	c0.119,0,0.356,0,0.476-0.119c-0.119-0.477-0.119-0.953-0.237-1.31C531.688,372.058,530.378,370.868,529.783,371.463z
	 M285.003,183.473c0.119,0.714-0.357,0.714-1.071,1.072c-0.119-0.714,0-0.595,0.477-1.072
	C284.646,183.593,284.884,183.473,285.003,183.473z M520.497,516.712l0.238-2.023c0.357-1.668,0.833-3.453,1.19-5.119
	c0.238-0.715,0.119-0.953,0-1.43c-0.119,0.238-0.119,0.357-0.238,0.596c-0.476-0.238-0.595,0-1.071,0.238
	c0.357,0.357,0.715,0.832,1.071,1.189c-0.356,1.072-1.19,1.072-1.904,1.311c-0.119,0.238-0.119,0.357-0.238,0.596
	c0.238,0.119,0.595,0.238,0.833,0.355c0.119,0.119,0.238,0.119,0.477,0.238c-0.715,1.906-0.952,3.691-0.357,5.477
	c0.119-0.355,0.238-0.832,0.477-1.189C520.735,516.831,520.616,516.712,520.497,516.712z M535.14,398.727
	c0.119,0.953,0.477,1.31-0.356,1.31c-0.357-0.476-0.477-0.714-0.953-0.595c0,0.477,0.119,0.953,0.119,1.31c-0.119,0-0.356,0-0.476,0
	c0.119-0.952,0.237-2.738,1.19-2.738C534.784,398.37,534.903,398.489,535.14,398.727z M535.736,406.823c0,0.238,0,0.476,0,0.714
	c-0.596-0.238-1.429-0.238-1.429-1.31C534.784,405.632,534.903,405.99,535.736,406.823z M524.425,501.354
	c0.238-1.311,0.357-2.621,0.596-3.93c0.119-0.357,0.238-0.834,0.357-1.311c-0.119,0-0.238-0.119-0.477-0.119
	c-0.357,1.43-0.833,2.977-1.19,4.406c0.952,0.357-0.715,0.357-1.071,0.238c-0.715,2.143-0.596,4.166-0.357,6.072
	c-0.119,0.238-0.119,0.355-0.238,0.594c0.119,0,0.238,0.119,0.477,0.238l2.619-5.238
	C524.902,502.067,524.664,501.71,524.425,501.354z M488.828,270.028c0.238,0.357,0.477,0.714,0.715,1.071
	c0.119-0.119,0.237-0.238,0.356-0.238c-0.952-1.429-2.023-2.976-2.976-4.524C487.161,267.646,487.875,268.837,488.828,270.028z
	 M494.662,278.242c0.477,0.952,1.429,2.381,0.595,2.857c-0.118-0.238-0.237-0.357-0.356-0.595L494.662,278.242z M447.753,223
	c0.357,0.238,0.715,0.595,0.952,0.833c-0.119,0.119-0.237,0.238-0.237,0.357c0.118,0.119,0.356,0.357,0.476,0.477
	c-1.548-0.953-2.977-1.786-4.643-2.738c0.237-0.238,0.356-0.477,0.595-0.833C445.967,221.81,446.92,222.405,447.753,223z
	 M455.73,230.262c0.715,0.596,1.667,1.191,1.19,1.786c-0.595-0.119-0.119,0.595-0.714-0.119c-0.596,0.119-0.834,0.476-1.548-0.238
	c-0.119,0.119-0.238,0.238-0.238,0.357c0.596,0.595,1.31,1.19,1.905,1.905c0,0-0.953-0.119-1.786-0.357
	c-0.833-0.357-1.548-0.714-0.833-1.548c-0.238-0.833-0.477-1.429-0.119-2.024L455.73,230.262z M473.946,250.026
	c0.833,1.071,1.667,2.143,2.5,3.095c-0.119,0.119-0.238,0.238-0.357,0.357C475.375,252.288,474.66,251.097,473.946,250.026z
	 M479.78,257.407l1.19,1.667L479.78,257.407z M450.015,225.619c0.715,0.595,1.31,1.19,2.024,1.786c-0.596-0.119-0.596,0-1.31-0.477
	C450.492,226.453,450.253,226.096,450.015,225.619z M464.541,243.359c-0.477,0.477,0.119,2.024,0,2.857
	c0.119,0.119,0.238,0.357,0.476,0.477c0.119-0.119,0.238-0.238,0.357-0.357c1.31,1.548,2.619-1.429,3.096-2.143
	c-0.119-0.119-0.238-0.357-0.477-0.476C466.802,243.597,465.731,243.478,464.541,243.359z M529.664,478.376l-0.356,1.904
	L529.664,478.376z M526.925,490.518c-0.237,1.311-0.595,2.502-0.952,3.811c-0.119,0-0.357-0.119-0.477-0.119
	c0-0.238,0.119-0.357,0.119-0.596c-0.119,0-0.356-0.119-0.476-0.119C525.735,492.186,526.092,491.352,526.925,490.518z
	 M519.425,515.401c-0.357,0.238-1.31,0.119-0.596,0.357C518.949,515.759,519.187,515.639,519.425,515.401z M429.657,210.857
	c0.477,0.476,0.953,1.071,1.429,1.547c0.119-0.119,0.119-0.238,0.238-0.357c0.238,0.119,0.357,0.238,0.596,0.357
	c0.118-0.119,0.118-0.238,0.237-0.476c-0.714-0.476-1.429-0.953-2.262-1.429C429.776,210.618,429.657,210.738,429.657,210.857z
	 M493.114,278.48c0.238,0.357,0.477,0.833,0.715,1.191C493.352,279.075,492.995,279.314,493.114,278.48z M326.792,185.379
	c-2.024,0.119-4.048,0.357-6.072,0.476c-0.833,0-1.666,0-2.381,0c0,0.119,0,0.357,0,0.476c4.405,0,6.548,0.595,10.834-0.476
	c-0.238-0.476-0.476-1.071-0.714-1.548C327.983,184.664,327.388,185.021,326.792,185.379z M352.27,185.855l1.786,0.238
	C353.581,186.093,352.866,186.093,352.27,185.855z M415.727,203.594c-0.356-0.238-0.833-0.357-1.19-0.595c0,0.595,0,1.072,0,1.667
	c-0.119,0.119-0.119,0.238-0.238,0.476c-0.952-0.476-0.237-1.071,0-1.667c-0.119-0.119-0.356-0.238-0.595-0.357
	c-0.119,0.119-0.119,0.238-0.238,0.476c-0.715-0.357-0.833-0.357-1.31-0.119c-0.833-0.476-0.715,0-0.952,0.596
	c0.237,0.119,0.356,0.238,0.595,0.238c-0.119,0.119-0.119,0.357-0.119,0.476l3.81,0.833c1.429,0.833,1.905-1.19,2.263-2.024
	C417.037,203.594,416.442,203.594,415.727,203.594z M433.347,216.333c-0.118-0.119-0.356-0.238-0.476-0.357
	c-0.119,0.119-0.119,0.238-0.238,0.357c0.357,0.238,0.715,0.476,1.071,0.714c-0.357,0.595-0.476,0.238,0.238,0.833
	c0,0.119,2.024,1.072,4.286,2.024c2.381,1.072,4.881,2.262,5.715,2.857c0.119-0.238,0.357-0.476,0.595-0.833
	c-0.714-0.596-0.476-0.596-0.833,0c-0.119-0.119-0.357-0.238-0.477-0.477c0.357-0.476,0.477-0.238-0.238-0.833
	c-1.547-0.595-3.214-1.547-4.762-2.381C436.443,217.524,434.895,216.69,433.347,216.333z M443.11,223.953
	c-0.595-0.477-0.595-0.596-0.714-1.191c-0.477,0.714,0.833,1.905,2.5,3.215c1.548,1.31,3.453,2.619,4.167,3.095
	c0.119-0.119,0.238-0.238,0.238-0.357c0.595,0.595,0.357,0.595,0.833,0.119c-0.356-0.357-0.833-0.833-0.714-1.31
	c0.357-0.476,0.238-0.714,0.119-1.19C447.277,225.739,445.253,224.548,443.11,223.953z M532.402,453.969
	c-0.356,0.357-0.476,0.596-0.952,0.477c0.119-0.238,0.596-1.43,0.596-0.596C532.165,453.969,532.284,453.969,532.402,453.969z
	 M524.902,494.567c-0.238,0.834-0.238,2.023-0.952,1.666c0.237-0.832,0.595-1.189-0.119-1.428c0.119-0.238,0.833-1.311,0.595-0.477
	C524.544,494.448,524.664,494.567,524.902,494.567z M410.012,200.141l-0.476,1.429c-0.238-0.595-0.715-1.429,0.357-0.952
	C409.894,200.499,409.894,200.38,410.012,200.141z M462.16,240.144c-0.357,0.357-0.596,0.714-0.953,1.072
	c0.715,0.833,1.548,1.547,2.263,2.381c0.119-0.119,0.237-0.238,0.356-0.357c-0.714-0.833-0.476-1.786-0.356-2.5
	c-0.119-0.119-0.357-0.357-0.477-0.476C462.635,240.263,462.397,240.144,462.16,240.144z M480.018,260.741
	c0.237,0.357,0.595,0.714,0.833,1.072C480.255,261.336,480.018,261.574,480.018,260.741z M527.521,481.829
	c-0.357,0.832-0.952,2.381-1.905,2.143C526.211,483.257,526.807,482.542,527.521,481.829z M273.693,189.188
	c0.596,0.119,1.31,0.119,1.905,0.238c0.119,0.357,0.119,0.714,0.238,0.952c-0.834,0.119-2.381,0.714-2.5-0.119
	c0.238,0,0.356-0.119,0.595-0.119C273.812,189.783,273.693,189.546,273.693,189.188z M306.196,186.212c0,0.119,0,0.357,0,0.476
	c-0.238,0-0.357,0-0.596,0c0,0.357,0.119,0.714,0.119,0.952c1.786-0.119,3.215-1.071,5.357-1.19c0-0.357,0-0.714-0.118-0.952
	l-1.786,0.119C308.22,185.855,307.148,185.974,306.196,186.212z M312.863,185.498c0.238,0,0.357,0,0.596,0
	C313.22,185.498,312.982,185.498,312.863,185.498z M333.459,185.616c1.071,0.119,3.096,0.119,3.096,1.072c-0.238,0-0.357,0-0.596,0
	C334.769,186.331,334.293,186.331,333.459,185.616z M340.722,185.855l1.786,0.119L340.722,185.855z M428.585,211.333
	c0.596,0.357,1.071,0.714,1.667,1.071c-0.119,0.238-0.357,0.596-0.477,0.833c-0.238-0.119-0.357-0.238-0.595-0.357
	c-0.119,0.119-0.119,0.238-0.238,0.476c-0.357-0.238-0.715-0.476-1.072-0.714c0.357-0.595,0.357-0.357-0.356-0.833
	C427.99,211.69,428.228,211.571,428.585,211.333z M532.284,427.538c-0.238,0.238-0.119,1.668-1.072,3.096c0,0.238,0,0.477,0,0.715
	c0.596,0,1.19,0.119,1.905,0.119C532.759,430.157,532.521,428.848,532.284,427.538z M232.738,199.784
	c0.238,0.595,0.357,0.476-0.356,0.714c0,0.119,0.118,0.357,0.118,0.476c0.238-0.476,0.357-0.595,0.953-0.833
	C233.333,200.022,233.095,199.904,232.738,199.784z M235.714,198.832c0,0.119,0.119,0.357,0.119,0.476
	c0.238-0.119,0.357-0.119,0.596-0.238c0,0.119,0.118,0.357,0.118,0.476c0.357-0.476,0.477-0.595,0.238-1.19
	C236.428,198.594,236.072,198.713,235.714,198.832z M278.694,189.903c-1.31,0.238-1.429,0.238-2.263,0.833
	c0.119,0.357,0.119,0.714,0.238,0.953c1.31-0.477,2.738-0.953,4.048-1.31c1.786-0.238,3.572-0.476,5.357-0.714
	c2.977-0.357,5.477-1.667,8.453-0.714c-0.119-0.714,0-0.596,0.477-1.072c-0.833,0.119-0.596,0.238-0.715-0.476
	c0.834-0.119,0.596,0.119,0.477-0.595c-5.357,0.595-11.311,2.262-16.191,1.905C278.575,189.307,278.694,189.664,278.694,189.903z
	 M298.577,188.236c0.118,0.714,1.547-0.357,2.381-0.714c0.833,0,0.595,0.119,0.595-0.596c-0.714,0-0.833-0.119-1.31-0.476
	c-0.237,0-0.356,0-0.595,0C299.171,187.164,298.933,187.76,298.577,188.236z M422.394,209.19c0.834,0.714,1.667,1.429,2.501,2.143
	c0.833,0.714,1.666,1.429,2.5,2.262c0.476-0.953-1.071-2.619-1.786-3.453C424.538,209.666,423.466,209.428,422.394,209.19z
	 M532.165,420.157c0,0.238,0,0.476,0,0.715C532.165,420.514,532.165,420.395,532.165,420.157z M530.617,453.016
	c0,0.238,0,0.477-0.119,0.596c-0.596-0.119-0.477-0.357-0.477,0.596c-0.357-0.596-0.238-0.715-0.833-0.834
	c0.119-0.596,0.119-1.311,0.238-1.904c0.119,0,0.356,0,0.476,0.119c0,0.238,0,0.475-0.119,0.594
	c0.596,0.119,0.477-0.119,0.357,0.715C530.378,452.897,530.498,453.016,530.617,453.016z M317.149,186.807h1.786
	c-0.477,0.595-1.786,1.19-1.667,2.024c-0.238,0-0.357,0-0.596,0c0-0.357,0-0.714-0.119-0.953
	C316.792,187.522,317.03,187.164,317.149,186.807z M460.731,240.62c0.118,0.119,0.356,0.357,0.476,0.477
	C461.087,240.978,460.968,240.859,460.731,240.62z M528.235,381.226c0,1.786-0.118,3.572-0.118,5.357c0.118,0,0.237,0,0.476,0
	c0.119,0.476,0.119,0.833,0.238,1.31c0.357,1.31,0.596,2.619,0.952,3.929c-0.119,0-0.356,0-0.476,0
	c-0.357-1.547-4.763-12.739-2.857-12.977c0-0.238-0.119-0.476-0.119-0.595c0.357,0.357,0.595,0.595,1.071,0.477
	c0.119,0.833,0.357,1.786,0.477,2.619C527.998,381.226,528.117,381.226,528.235,381.226z M530.378,396.941
	c0.119,1.071,0.714,3.333-0.119,3.333C530.259,399.203,530.259,398.132,530.378,396.941z M331.673,187.522c0.238,0,0.357,0,0.596,0
	C332.031,187.522,331.912,187.522,331.673,187.522z M353.342,190.974c1.071,0.119,2.143-0.833,3.095-1.191c0-0.119,0-0.357,0-0.476
	c-0.356,0-0.833-0.119-1.19-0.119C354.414,189.664,353.818,190.141,353.342,190.974z M312.387,187.998
	c0,0.476,0.118,0.953,0.118,1.548c-0.356-0.477-1.19-0.953-0.118-0.953C312.387,188.355,312.387,188.236,312.387,187.998z
	 M524.544,366.344c0.238,1.072,0.952,3.215,0.238,3.334C524.664,368.487,524.544,367.415,524.544,366.344z M237.976,203.951
	l-6.548,2.738c-0.119-0.477-1.071-0.477-2.262,0c-1.19,0.476-2.738,1.19-4.286,2.143c-1.548,0.952-3.096,1.905-4.286,2.738
	c-1.19,0.833-2.143,1.667-2.381,1.905c-0.119,0.119-0.357,0.119-0.596,0.238c0.119,0.119,0.119,0.357,0.238,0.476
	c1.31-0.357,2.619-0.833,3.929-1.19c-0.357-0.953,3.929-2.977,5.001-3.572c0.118,0.476,0.356,0.952,0.476,1.429
	c-0.119,0.119-0.357,0.119-0.595,0.238c0.237,0.595-3.691,2.738-4.167,3.81c-0.119,0.119-0.357,0.119-0.596,0.238
	c0.119,0.119,0.119,0.357,0.238,0.477c3.215-1.191,6.786-3.572,9.048-5.715c-0.356,0.119-0.714,0.238-1.071,0.357
	c-0.119-0.357-0.238-0.596-0.357-0.953c3.334-1.786,6.786-3.333,10.12-5c0,0.119,0.119,0.357,0.119,0.476
	c-0.119,0-0.357,0.119-0.596,0.238c0.238,0.714-2.143,2.143-2.738,2.977c-0.714,0.238-1.429,0.476-2.262,0.714
	c-0.714,0.238-1.429,0.476-2.262,0.714c0,0.119,0.119,0.357,0.119,0.476c0.237-0.119,0.356-0.119,0.595-0.238
	c0.238,0.833-0.595,1.548-2.023,2.62c-1.429,0.952-3.453,2.024-5.596,2.976c-1.071,0.477-2.144,0.953-3.215,1.429
	s-2.024,1.072-2.977,1.548c-1.786,0.953-3.214,1.786-3.81,2.381c-0.833,0.357-0.357,0.477-0.119,1.191
	c0.952-0.714,2.024-1.31,2.977-1.905c1.31-0.714,2.738-1.428,4.167-2.024c1.429-0.595,2.857-1.071,4.286-1.667
	c5.357-2.143,10.834-4.048,16.311-6.072c2.738-0.833,5.596-1.667,8.334-2.5l2.023-0.595l2.024-0.476
	c1.429-0.357,2.738-0.714,4.167-1.072c1.667-0.357,3.452-0.833,5.119-1.19c1.667-0.238,3.453-0.595,5.119-0.952
	c1.667-0.357,3.334-0.714,4.882-1.191c1.548-0.476,3.096-0.952,4.643-1.667c0.357,0,0.715-0.119,1.191-0.119
	c0-0.119,0-0.357-0.119-0.476c-1.548,0.238-3.929,0.714-6.667,1.429c-2.738,0.714-5.834,1.547-8.93,2.262s-5.953,1.548-8.453,1.905
	c-1.31,0.238-2.381,0.357-3.333,0.357c-0.953,0-1.786,0-2.382-0.238c-1.31,0.357-2.738,1.667-3.452,2.5
	c-1.667,0.476-3.334,0.952-5.001,1.429c-0.118-0.357-0.237-0.596-0.356-0.953c2.5-0.714,5.715-3.453,8.929-4.643
	c-0.238-0.714-1.19-1.072-1.667-1.667c1.548-0.357,2.144-1.071,3.215-1.905c0-0.119-0.119-0.357-0.119-0.476
	c-1.904,0.476-4.167,1.071-5.596,2.024c-1.904,0.476-3.81,1.071-5.715,1.547c0-0.119-0.118-0.357-0.118-0.476
	c1.071-0.357,0.833-1.429,0.595-2.262C240.358,202.165,239.048,202.642,237.976,203.951z M520.258,356.462
	c0,0.238,0.119,0.476,0.119,0.595C520.377,356.819,520.258,356.581,520.258,356.462z M522.877,367.296
	c0.119,0.595,0.238,1.31,0.357,1.905C522.877,368.725,522.758,367.891,522.877,367.296z M526.211,389.322
	c-0.119-1.429,0.477,0.833,0.596,1.31c0-0.476-0.119-0.833-0.119-1.31C526.45,389.322,526.331,389.322,526.211,389.322z
	 M481.208,275.028c0,0.357-0.953,1.548-0.238,2.381c1.904,2.857,3.69,2.977,5.834,4.881c1.548,2.024,3.095,3.929,4.643,5.953
	c0.119-0.119,0.238-0.119,0.357-0.238c-0.833-1.547-1.786-2.976-2.619-4.524s-1.786-2.977-2.738-4.405
	c-0.238-0.238-1.548-2.143-2.857-3.571C482.28,274.195,481.089,273.361,481.208,275.028z M256.788,198.713
	c0.119,0.595,0.356,0.477-0.477,0.595c0,0.119,0.119,0.357,0.119,0.477c0.238,0,0.357-0.119,0.596-0.119
	c0,0.119,0.118,0.357,0.118,0.476c0.357-0.119,0.715-0.119,1.191-0.238c0-0.119-0.119-0.357-0.119-0.477
	c0.356-0.119,0.833-0.238,1.19-0.238c-0.119-0.477-0.357-0.595-0.834-0.833c-0.595,0.119-0.833,0-1.31-0.238
	C257.144,198.356,256.907,198.475,256.788,198.713z M275.122,196.57c-0.833,0.119-0.595-0.119-0.476,0.596
	c-0.477,0.119-0.715,1.071-0.834,1.667c-0.238,0-0.356,0.119-0.595,0.119c0,0.119,0.119,0.357,0.119,0.476
	c0.238,0,0.356-0.119,0.595-0.119c0.119,0.596,6.43-2.262,7.858-2.738c0-0.357-0.119-0.714-0.119-0.952
	c-0.238,0-0.357,0-0.596,0.119c0.119,0.952-1.071,0.357-1.786,0.238c0.119,0.477-0.238,0.357-0.595,0.119
	c-1.19,0.119-0.119-0.476-0.238-0.952c-0.119-0.953-2.143-0.596-3.096-0.596C275.241,195.26,275.122,195.855,275.122,196.57z
	 M320.006,194.903c-0.952-0.119-2.024-0.357-2.977-0.476c-0.833-0.119-1.548-0.238-2.381-0.477c0,0.119,0,0.357,0,0.477
	c-0.357,0-0.834,0-1.19,0c0,0.119,0,0.357,0,0.476c-0.238,0-0.357,0-0.596,0c0-0.119,0-0.357,0-0.476c0.238,0,0.357,0,0.596,0
	c0-0.119,0-0.357,0-0.477c-1.071,0-1.19,0.953-1.667,1.548c0.119,0.833-3.571,0.714-4.644,1.19c-2.5,0.119-5.596,0.119-7.5,1.072
	c1.667-0.119,3.452-0.119,5.119-0.119c0.833,0,1.786,0,2.738,0s1.786,0,2.738-0.119c2.262-0.119,4.524-0.357,6.786-0.476
	c2.262-0.238,4.524-0.357,6.786-0.477c4.524-0.357,9.049-0.595,13.453-0.714c0-0.119,0-0.357,0-0.476
	c-3.929-0.119-7.857-0.357-11.786-0.357c0-0.119,0-0.357,0-0.477c1.786,0,2.977-1.547,4.048-2.5c0-0.714-0.238-0.476,0.596-0.476
	c0-0.119,0-0.357,0-0.477c-0.953,0-2.024-0.119-2.977-0.119C324.768,192.641,322.03,192.998,320.006,194.903z M200.95,219.905
	c-0.714,0.357,0.477,0.238,0.715,0.238c-0.238-0.595-0.357-0.476-0.953-0.595C200.831,219.667,200.831,219.786,200.95,219.905z
	 M266.074,196.689c0.119,0.714,0.119,1.548-0.833,1.667c-0.119-0.714-0.357-0.476,0.476-0.595c-0.119-0.714-0.357-0.477,0.477-0.595
	C266.193,197.046,266.074,196.927,266.074,196.689z M454.182,241.216c-0.119,0.119-0.237,0.238-0.356,0.357
	c-0.715-0.476-1.429-0.953-2.144-1.429c-0.238,0.238-0.357,0.476-0.595,0.714c3.69,3.572,6.786,6.905,10.477,10.239
	c1.548,1.429,3.334,2.977,5.119,4.524c1.786,1.667,3.453,3.453,4.763,5.357c0.119,0.119,0.238,0.357,0.357,0.476
	c1.071-0.953-4.644-7.144-5.834-8.691c-0.477-0.357-1.31-1.31-2.5-2.5c-1.191-1.19-2.62-2.619-3.93-4.048
	c-1.429-1.429-2.738-2.619-3.69-3.69c-0.477-0.477-0.952-0.833-1.19-1.191C454.42,241.454,454.182,241.216,454.182,241.216z
	 M474.66,265.265c0.238,0.357,0.477,0.714,0.715,1.071c0.238-0.238,0.477-0.357,0.714-0.595c-0.356-0.476-0.833-1.072-1.19-1.548
	C474.898,264.432,474.779,264.789,474.66,265.265z M478.47,268.837c0.476,0.714,1.429,1.429,0.714,1.905
	c0.119,0.238,0.238,0.357,0.357,0.476c-0.119,0.119-0.238,0.238-0.357,0.238l-4.405-3.81c0.119-0.119,0.238-0.238,0.357-0.357
	c0.477,0.714,0.238,0.595,0.715,0.238C476.684,268.004,477.517,268.48,478.47,268.837z M169.876,240.025
	c0.238,0.238,0.714,2.143,0.119,1.191C169.996,240.859,169.996,240.383,169.876,240.025z M434.658,223.953
	c-0.119,0.119-0.119,0.238-0.238,0.357c-0.715-0.357-1.548-0.714-2.263-1.19c-0.119,0.119-0.119,0.238-0.237,0.357
	c-0.953-0.714-0.238-0.714-0.834-1.429c-1.31-1.786-3.69-3.095-5.596-3.69c0.119-0.119,0.119-0.238,0.238-0.477
	c-0.952-0.595-1.667-0.119-2.262,0.238c1.071,0.595,2.143,1.19,3.214,1.786c2.024,1.667,4.048,3.81,6.191,5.595
	c1.19,0.714,2.381,1.31,3.452,2.024l3.453,2.143c2.977,2.381,5.953,4.762,9.167,5.715l-2.857-2.619
	C442.396,230.858,438.586,226.691,434.658,223.953z M451.325,237.763l1.31,1.31L451.325,237.763z M495.614,298.72
	c0.238,0.833,0.596,1.667,0.834,2.5c-0.119,0.119-0.238,0.119-0.357,0.238c-0.119-0.238-0.238-0.357-0.238-0.595
	c-0.119,0.119-0.238,0.119-0.357,0.238c-0.476-1.19-0.952-2.381-1.429-3.69c0.119-0.119,0.238-0.119,0.357-0.238L495.614,298.72z
	 M385.844,200.141c0,0.119,0,0.357-0.119,0.477c-0.238,0-0.357-0.119-0.595-0.119c0,0.357-0.119,0.714-0.119,0.952
	c1.31,0.357,2.5,0.357,3.69,0.477c1.31,0.119,2.5,0.476,3.929,1.19c0-0.119,0.119-0.357,0.119-0.476
	c1.071,0.357,0.357-0.477,0.238-0.953c-0.238,0-0.357-0.119-0.596-0.238c-1.071-0.119-2.143-0.357-3.214-0.595
	C388.106,200.618,386.916,200.38,385.844,200.141z M400.488,204.427c2.857,1.19,5.715,2.5,8.453,3.81
	c-0.119,0.119-0.119,0.357-0.119,0.477c-0.595-0.238-2.738-0.953-4.523-1.667c-1.786-0.714-3.572-1.429-3.334-1.905
	C400.845,204.904,400.726,204.666,400.488,204.427z M416.68,212.404c1.19,0.596,2.381,1.429,3.452,2.143
	c1.19,0.714,2.381,1.429,3.453,2.143c-0.119,0.119-0.119,0.238-0.238,0.476c-0.238-0.119-0.357-0.238-0.477-0.357
	c-0.714,0.119-1.19,0.357-2.023-0.119C419.538,215.738,417.275,213.714,416.68,212.404z M263.574,199.189
	c0.356-0.119,0.833-0.119,1.19-0.238c-0.357,0.476-1.429,1.786-1.667,0.833C263.335,199.665,263.455,199.427,263.574,199.189z
	 M412.632,212.285l1.666,0.952c0.238-0.476,0.357-0.833,0.596-1.31c-0.119-0.119-0.357-0.238-0.596-0.357
	c-0.237,0.595,0,0.595-0.714,0.119c0.357-0.714-0.119-0.714-0.952-1.071C412.632,211.333,412.632,211.809,412.632,212.285z
	 M205.712,220.381c0.119,0.119,0.119,0.357,0.238,0.476c-0.834,0.357-0.715-0.119-0.953-0.595
	C205.236,220.262,205.474,220.262,205.712,220.381z M288.694,195.737c0.119,0.476,0.119,0.952,0.238,1.547
	c-0.476-0.476-1.19-0.833-0.119-0.952C288.813,196.094,288.813,195.974,288.694,195.737z M355.008,195.617
	c1.786,0.238,3.572,0.357,5.358,0.595c0,0.119,0,0.357,0,0.476c-2.619,0.238-5.12,0.477-7.739,0.714
	c0.477-0.714,1.19-1.429,2.381-1.19C355.008,195.974,355.008,195.737,355.008,195.617z M362.152,196.451
	c0.596,0.476,1.786,0.952,1.667,1.786C362.986,197.641,362.628,197.165,362.152,196.451z M364.534,196.808
	c0.833,0.595,1.19,0.595,1.071,1.667c-0.477-0.477-0.357-0.595-1.19-0.714C364.415,197.403,364.415,197.046,364.534,196.808z
	 M211.666,219.072c2.738-1.191,5.477-1.786,8.096-1.905c0.237,0.596,0,0.596,0.714,0.238c0-0.119-0.119-0.357-0.238-0.476
	c0.238-0.119,0.357-0.119,0.477-0.238c-0.357-0.833-0.477-0.357-1.31,0c-0.119-0.119-0.119-0.357-0.238-0.476
	c0.833-0.595,1.667-1.072,2.5-1.667c0-0.119-0.119-0.357-0.238-0.476c-1.904,0.714-4.523,1.667-6.31,1.667
	C214.046,216.928,212.856,218,211.666,219.072z M254.049,202.523l1.666-0.357c0.119,0.357,0.119,0.714,0.238,0.953
	c-0.356,0.119-0.714,0.119-1.19,0.238c-0.476,0.238-1.071,0.595-1.548,0.833c0-0.119-0.119-0.357-0.119-0.476
	C253.454,203.356,253.811,202.88,254.049,202.523z M347.866,195.379c0.714,0.238,0.952,1.548,0,1.548c0-0.119,0-0.357,0-0.476
	C347.866,196.094,347.866,195.737,347.866,195.379z M350.247,195.617c0.238,0,0.357,0,0.596,0.119
	C350.604,195.617,350.485,195.617,350.247,195.617z M382.749,200.38c0.834,0.119,1.786,0,1.667,0.833
	C383.939,200.975,383.344,200.618,382.749,200.38z M391.559,202.76c0.357,0.477,0.477,0.596,0.357,1.191
	c-0.238-0.238-1.31-0.953-0.477-0.714C391.44,203.118,391.44,202.88,391.559,202.76z M271.431,199.308
	c0.119,0.477,0.238,0.953,0.357,1.429c-0.477-0.357-1.31-0.833-0.238-0.952C271.55,199.665,271.431,199.427,271.431,199.308z
	 M281.075,199.784c0.119,0.595-0.119,0.476,0.715,0.357c0,0.119,0,0.357,0.118,0.477c1.429-0.238,2.857-0.477,4.286-0.714
	c1.429-0.119,2.857-0.357,4.405-0.357c0-0.119,0-0.357-0.119-0.476c0.238,0,0.357,0,0.596-0.119c0-0.119,0-0.357-0.119-0.476
	c-1.548,0.119-2.977,0.238-4.524,0.357c-1.429,0.119-2.977,0.238-4.286,0.238C281.79,199.308,281.432,199.546,281.075,199.784z
	 M292.028,197.88c0.477,0.238,0.596,0.357,0.715,0.952c-0.238-0.119-1.429-0.357-0.596-0.476
	C292.028,198.237,292.028,198.117,292.028,197.88z M235.953,210.975c0,0.119,0.119,0.357,0.119,0.477
	c-0.834,0.238-0.715-0.238-0.834-0.714C235.476,210.857,235.714,210.857,235.953,210.975z M239.048,209.428
	c0.119,0.357,0.237,0.595,0.356,0.952C239.286,210.023,239.167,209.785,239.048,209.428z M293.218,198.356
	c0.834-0.119,1.548-0.119,2.381-0.238c0,0.119,0,0.357,0.119,0.477C294.885,198.475,294.052,198.356,293.218,198.356z
	 M205.474,223.834c0.477-0.238,1.071-0.477,1.548-0.833C206.545,223.357,205.951,223.595,205.474,223.834z M232.024,212.285
	c-0.119,0.119-0.238,0.238-0.477,0.357C231.667,212.285,232.143,211.809,232.024,212.285z M177.615,243.002
	c-0.595-0.833,0.715-0.357,1.19-0.238c-0.714,0.714-1.31,1.429-2.023,2.143c-0.477-0.357-0.834-0.595-1.31-0.952
	C176.186,243.597,176.901,243.359,177.615,243.002z M180.234,240.502c0.119,0.119,0.238,0.238,0.238,0.476
	c0.357,0.357,0.834,0,1.19-0.238C181.187,240.62,180.71,240.502,180.234,240.502z M191.069,233.834
	c0.356,0.595,1.19,0.595,2.023,0.714s1.548,0.238,1.667,1.19c0.119,0.357,0.357,0.596,0.476,0.833
	c2.024-1.19,4.405-2.976,6.668-3.214c-0.357-0.595-0.238-0.714,0-1.19c-0.119-0.119-0.119-0.238-0.238-0.477
	c-1.667,0.953-3.334,1.905-4.882,2.857c-0.119-0.119-0.119-0.238-0.237-0.476c0.118-0.119,0.356-0.238,0.476-0.238
	c-0.357-0.714,1.429-2.262,3.572-3.69c2.143-1.548,4.881-2.62,5.952-2.738c0.119,0.238,2.738-2.857,4.167-3.215
	c0.119-0.119,0.357-0.119,0.477-0.238c-0.357-0.714-0.715-0.477-1.429-0.119c-1.548,0.595-3.215,1.31-4.763,2.143
	c-1.548,0.833-3.214,1.667-4.643,2.619c-2.977,1.905-6.072,3.69-9.049,4.762C191.187,233.239,191.069,233.477,191.069,233.834z
	 M214.641,221.572c-0.119-0.357-0.237-0.595-0.356-0.953c-0.834,0.357-1.786,0.833-2.619,1.191
	C212.618,222.048,213.451,221.929,214.641,221.572z M189.283,235.501l1.548-0.953L189.283,235.501z M195.235,231.81
	c0.238,0.595,0.238,1.072,0.953,0.595c-0.119-0.119-0.119-0.238-0.238-0.476C195.711,231.929,195.473,231.929,195.235,231.81z
	 M252.263,209.19c0.714-0.238,1.429-0.476,2.262-0.595c0,0.119,0.119,0.357,0.119,0.476
	C253.811,209.071,253.096,209.19,252.263,209.19z M154.875,266.456c0,0.833-0.357,2.143,0.119,2.738
	c-0.119,0.119-0.238,0.238-0.357,0.476c0.119,0.119,0.238,0.238,0.357,0.357l3.214-3.929c0.238-0.357,1.191-2.738,0.119-1.786
	c-0.119-0.119-0.237-0.238-0.356-0.357C156.899,264.67,155.947,265.622,154.875,266.456z M203.807,230.977
	c0.238,0.477,0.477,0.953,0.715,1.31c0.952-0.476,1.31-2.619,1.429-3.571c-0.119,0.119-0.357,0.119-0.477,0.238
	C204.878,229.667,204.403,230.262,203.807,230.977z M209.284,229.31c-0.119,0.119-0.356,0.119-0.476,0.238
	c-0.238-0.476-0.477-0.952-0.596-1.31c-0.357,0.119-0.714,0.357-1.071,0.477c0.119,0.357,0.238,0.595,0.476,0.952
	c1.072-0.595-0.595,1.786-0.833,2.143c0.119,0.119,0.119,0.238,0.238,0.476c1.786-1.071,3.571-2.143,5.357-3.333l1.548-0.714
	c-0.119-0.357-0.238-0.595-0.357-0.952c-0.595,0.476-1.19,0.952-1.786,1.429c-0.714,0.357-0.476,0.357-0.714-0.238
	c-0.357,0.119-0.715,0.357-1.071,0.476c-0.357-0.595,0.119-1.786,0.119-2.381c-0.119,0.119-0.357,0.119-0.477,0.238
	c0.238,0.596,0.357,0.357-0.238,0.714c-0.357-0.714-0.476-0.238-1.19,0.119C208.451,228.239,208.808,228.715,209.284,229.31z
	 M150.47,272.766c-0.596,2.024-2.5,4.643-4.167,6.548c0.119,0.119,0.238,0.238,0.357,0.357c0.476-0.596,2.738-3.215,4.167-5.239
	C152.495,272.408,153.208,270.98,150.47,272.766z M159.518,263.837c0.953-0.119,1.905-0.357,2.738-1.191
	c-0.237-0.238-0.476-0.476-0.595-0.714C160.829,262.527,160.233,263.241,159.518,263.837z M187.616,241.454
	c0.357,0.595,0.119,0.476,0.715,0.119c-0.119-0.119-0.119-0.238-0.238-0.476c0.119-0.119,0.356-0.238,0.476-0.357
	c-0.476-0.714-1.904,0.595-2.619,1.19L187.616,241.454z M222.737,221.81c0.477,0.238,1.548,0.952,0.596,1.429
	c0.119,0.119,0.119,0.357,0.238,0.476l-1.786,0.238c-0.119-0.119-0.119-0.357-0.238-0.477c0.357-0.119,0.715-0.357,1.072-0.476
	C222.737,222.643,222.737,222.286,222.737,221.81z M176.663,252.526c-0.596,0.476-0.477,0.238-0.119,0.833
	c0.833-0.714,1.548-1.548,2.262-2.262c0.715-0.833,1.31-1.548,2.024-2.262c-0.357-0.476-0.477-0.476-1.071-0.476
	c-0.119-0.119-0.238-0.238-0.238-0.357c0.119-0.119-1.429,0.952-3.453,2.262c-1.904,1.429-4.167,3.096-5.238,4.167
	C172.972,253.717,174.401,251.812,176.663,252.526z M182.853,244.668c0.715,0,0.715,0.714,1.429,0.119
	C183.925,244.787,183.449,244.787,182.853,244.668z M197.378,235.858c0.714-0.357,0.833-0.833,1.19-0.119
	c0.596-0.357,0.357-0.476,0.715,0.119H197.378z M265.478,209.666c0.238,0,0.357-0.119,0.596-0.119
	C265.835,209.666,265.597,209.666,265.478,209.666z M197.378,236.93c0.477,0.119,1.071,0.833,0.714,0.119
	C197.855,237.049,197.617,237.049,197.378,236.93z M213.094,230.739c0.714-0.357,0.476-0.357,0.833-0.953
	c-0.715,0.357-0.477,0.357-0.715-0.238c-0.118,0.119-0.356,0.119-0.476,0.238C212.856,230.144,212.975,230.382,213.094,230.739z
	 M174.757,254.788c0.834,0,1.548,0.119,2.024,0.833c-0.119,0.119-0.238,0.238-0.477,0.357c0.119,0.119,0.238,0.238,0.238,0.357
	c-0.119,0.119-0.238,0.238-0.477,0.357c-0.118-0.119-0.237-0.238-0.237-0.357c-0.119,0.119-0.238,0.238-0.477,0.357
	c-0.119-0.119-0.238-0.238-0.238-0.357C174.996,255.86,174.876,255.264,174.757,254.788z M145.232,287.648
	c0,0.119-0.119,0.357-0.119,0.476C144.994,287.886,145.113,287.172,145.232,287.648z M143.684,291.576
	c0.119,0.119,0.238,0.238,0.357,0.357C143.922,291.696,143.803,291.696,143.684,291.576z M139.875,302.292
	c0.476-0.833,0.952-1.548,1.548-2.381c0.119,0.119,0.237,0.238,0.356,0.357c-0.237,0.357-0.356,0.595-0.595,0.952
	c0.119,0.119,0.238,0.238,0.357,0.357l-1.311,1.071C140.113,302.41,139.994,302.41,139.875,302.292z"/>
</svg>
