<?xml version="1.0" encoding="utf-8"?>
<!-- Generator: Adobe Illustrator 15.0.0, SVG Export Plug-In . SVG Version: 6.00 Build 0)  -->
<!DOCTYPE svg PUBLIC "-//W3C//DTD SVG 1.1//EN" "http://www.w3.org/Graphics/SVG/1.1/DTD/svg11.dtd">
<svg version="1.1" id="レイヤー_1" xmlns="http://www.w3.org/2000/svg" xmlns:xlink="http://www.w3.org/1999/xlink" x="0px"
	 y="0px" width="26px" height="26px" viewBox="0 -2 26 26" enable-background="new 0 -2 26 26" xml:space="preserve">
<g>
	<path fill="#EEEDEB" d="M1.571,0H24.43C25.297,0,26,0.703,26,1.571v0.001c0,0.867-0.703,1.571-1.57,1.571H1.571
		C0.703,3.143,0,2.439,0,1.572V1.571C0,0.703,0.703,0,1.571,0z"/>
	<path fill="#EEEDEB" d="M1.571,9.429H24.43C25.297,9.429,26,10.132,26,11v0.001c0,0.868-0.703,1.571-1.57,1.571H1.571
		C0.703,12.572,0,11.869,0,11.001V11C0,10.132,0.703,9.429,1.571,9.429z"/>
	<path fill="#EEEDEB" d="M1.571,18.857H24.43c0.867,0,1.57,0.703,1.57,1.57v0.002c0,0.867-0.703,1.57-1.57,1.57H1.571
		C0.703,22,0,21.297,0,20.43v-0.002C0,19.561,0.703,18.857,1.571,18.857z"/>
</g>
</svg>
