<?xml version="1.0" encoding="utf-8"?>
<!-- Generator: Adobe Illustrator 15.0.0, SVG Export Plug-In . SVG Version: 6.00 Build 0)  -->
<!DOCTYPE svg PUBLIC "-//W3C//DTD SVG 1.1//EN" "http://www.w3.org/Graphics/SVG/1.1/DTD/svg11.dtd">
<svg version="1.1" id="レイヤー_1" xmlns="http://www.w3.org/2000/svg" xmlns:xlink="http://www.w3.org/1999/xlink" x="0px"
	 y="0px" width="26px" height="26px" viewBox="0 0 26 26" enable-background="new 0 0 26 26" xml:space="preserve">
<g id="レイヤー_1_1_">
	<path fill="#F7F7F7" d="M6.03,4.212l16.164,16.164c0.613,0.613,0.613,1.606,0,2.222h-0.002c-0.611,0.613-1.606,0.614-2.221,0.002
		L3.807,6.435c-0.614-0.613-0.613-1.608,0-2.221l0.001-0.001C4.422,3.599,5.416,3.599,6.03,4.212z"/>
	<path fill="#F7F7F7" d="M3.807,19.973L19.971,3.808c0.613-0.613,1.607-0.614,2.223,0v0.001c0.613,0.613,0.613,1.608,0,2.221
		L6.029,22.193c-0.613,0.613-1.608,0.613-2.221,0H3.807C3.193,21.579,3.194,20.585,3.807,19.973z"/>
</g>
<g id="レイヤー_2">
</g>
</svg>
