<?xml version="1.0" encoding="utf-8"?>
<!-- Generator: Adobe Illustrator 21.1.0, SVG Export Plug-In . SVG Version: 6.00 Build 0)  -->
<svg version="1.1" id="レイヤー_1" xmlns="http://www.w3.org/2000/svg" xmlns:xlink="http://www.w3.org/1999/xlink" x="0px"
	 y="0px" viewBox="0 0 1920 1080" style="enable-background:new 0 0 1920 1080;" xml:space="preserve">
<style type="text/css">
	.st0{fill:#FFFFFF;}
	.st1{opacity:0;fill:#FFFFFF;}
</style>
<g>
	<path class="st0" d="M142.6,530.7c2.8-1.4,13-18.7,13-21.6c0-1,0-2.1,0.1-2.9l0.5-0.3h3.6c3.4,1,8,3,9.4,4.5
		c0.1,0.1,0.4,0.3,0.5,0.5c0.1,1,0.4,2.3,1.6,2.3c1.3,0,6.1-3.8,6.8-3.8c1.1,0,6.1,3.6,6.9,4.1c0.4,0.3,2,1,2.3,1.4
		c0.1,0.4,0.4,0.9,0.4,1.4c0,2.1-1.9,2.5-4.8,3.4c-0.4,0-10,8.9-10.8,10.2c0.6,0,5.1-1.3,5.3-1.3c0.6-0.3,3-1.9,3.5-2.1
		c0.3,0,3.5-0.4,3.6-0.4c0.5,0,1.5,0.5,1.8,0.8c0.3,0.2,1.4,1.6,1.6,1.9c3.3,2.9,3.6,3.3,4,3.5c0.1,0.5,1.9,2.6,1.9,3.1
		c0,0.5-0.2,0.6-1.5,2.1c-0.6,0.6-1,1.3-1.3,2.3c0.5,0.1,1.8,0.5,2.4,0.5c0.8,0,14.1-2.9,16.9-4.6c0.1-0.8,0.3-1.8,0.3-2
		c0-0.9-0.5-8.9-1-9.9c-0.8-1.4-2-3.3-4.3-3.3c-1,0-5.3,1.9-6.3,2c-1,0.1-1.6,0.1-2.9,0.1c0-0.1-0.3-0.5-0.3-0.8
		c0-0.6,3.8-4.1,4.4-4.6c2.1-0.8,9.8-7.7,11.4-8.9c2.8-2,4.9-3.8,4.9-5.5c0-0.5-0.3-0.9-0.6-1.8c0-0.5,0.1-0.6,0.5-0.9
		c0.6,0,0.8,0,2.4-0.1c0,0,4.6,0.9,4.9,1.1c0.9,0.6,5.5,3.5,5.8,3.8c0,0.1,0.6,1.3,1,2c0.2,0.3,0.9,0.9,0.9,1.5c0,1-2.4,2.6-3.4,2.6
		c-4.4,0.4-9.3,3.4-10.3,4.5c0.5,0.6,3.1,3.1,3.1,3.8c0,1-1.4,6.3-1.4,6.3c0,0.5,0,7.5,0.1,7.9c2,0.1,11.2-3.1,12-3.1
		c2.9,0,8.9,1.3,8.9,4.6c0,2-2,3.5-5.3,3.4l-10.3-0.1L220,539c-0.1,0.3-0.2,0.8-0.2,0.9l0.1,2.3c0,1.6,0,1.9,1,3.1
		c2.4,3.5,7.3,8.5,7.4,8.5c1.9,0.9,9.7,6.6,11.3,7.7c3.9,2.5,13.7,10.2,13.7,11.3c0,0.9-1,1.1-1.9,1.1c-2.9,0-8.2,0-11.2-0.6
		c-5.6-1.1-7.5-3.8-10.8-8.2c0,0-5.6-6.6-6.5-8c-0.5-0.6-2.3-3.5-2.8-4l-0.4,0.1l-0.3,2.3l0.1,1.9l1.1,14.7c0.3,4.5,0.4,6,0.4,7.5
		c0,6.5-0.5,7.7-0.9,8.7c-0.1,0.5-1.5,3.8-2.9,3.8c-2.9,0-7.3-7.4-7.3-10.7c0-1,0.6-5.1,0.6-6l1-11.4c0.1-1,0.2-9.4-0.5-11.2h-0.8
		c-1.9,2.5-7.8,9-10.5,11.3c-1.8,1.5-8.8,7-10.2,7.5c-0.5,0.1-0.8,0-1.4-0.1c-0.1-1.1,0.1-1.4,2-3.3c1.9-2,4.5-4.6,7.5-10.3
		c0.2-0.4,3.1-4.5,3.6-5.1c1.1-1.6,4.3-7.7,4.5-10c-0.4-0.1-0.9-0.3-1.3-0.3c-0.4,0-2.9,0.3-3.3,0.4c-3.3,1.1-3.6,1.3-4.5,1.3
		c-1.1,0-5.8-1.6-6.8-1.9c-1.1,1.3-1.3,1.6-2.1,4.3c-0.1,0.3-5.4,12.5-5.4,12.8c-0.9,0.9-1.1,1.3-2.1,3.3c-0.5,0.4-0.8,0.5-1.8,0.1
		c-0.4-0.6-0.8-1.3-1.6-1.3c-5.4,0-10.9,1.5-15.7,3.1c-0.9,0.3-4.6,2-5.4,2c-1.5,0-3.6-6.1-3.8-6.4c-0.3-0.9-2.4-13.3-3-15.8
		c-0.4-0.9-1.8-5.1-2-6c-0.6-2-1-2.3-1.9-2.8c-0.1,0-7.2,4.1-7.9,4.1c-0.5,0-1.4-0.3-1.4-1.1c0-0.6,0.5-1.5,1.1-2.1
		c1.6-1.5,1.9-1.8,3.9-3.6L142.6,530.7z M142.6,578c0.1-0.4,1.4-2.1,1.5-2.5c0.6-2,2.1-6.6,2.4-7h0.4c2.9,5.4,3,5.5,3,14.1
		c0,0.1-2.4,7-2.9,7.5c-1,0.8-1.8,1.3-2.6,1.3c-2.9,0-2.9-5.9-2.9-7.9c0-1.5,0.1-3.3,0.5-4.8L142.6,578z M217.4,493.6
		c-1.5,0-4.4,0.1-5.9,0.1c-0.9,1.6-5.3,8.9-5.3,8.9c-3.8,3.9-6.1,6.3-7.8,6.3c-0.8,0-1.1-0.5-1.1-1c0-0.8,4.3-11.5,4.9-13.8
		c-9.3,0.5-19.4,2.1-23.3,2.9c0.3,1.9,0.4,10.7-2.5,10.7c-1.9,0-4.4-7.5-4.9-9.2c-2.3,0.5-13.5,4.5-14.2,4.5s-9.3-5.8-10-9.7l-1-1.3
		h0.6c4.1,1.8,9.3,2,9.9,2c1.3,0,6.6-0.6,7.8-0.6c1.9-0.1,2.6-0.3,5.3-0.6c-1.6-5.4-1.8-6-2.4-7c-0.8-1.1-4.9-6.5-4.9-7
		c0-0.4,0.1-0.6,0.5-1.1c4.5,0.5,4.9,0.8,8.4,3.1c0.6,0.5,4.5,2.4,5.1,3.1c1,1.4,1,2,1.4,5.1c0.1,0.3,0.5,2.4,0.5,2.9
		c2.8-0.4,14.8-1.6,17.2-1.9c1.3,0,6.6-0.3,7.8-0.4c0.1-0.8,0.8-4,1-4.8c0.1-0.2,0.4-1.3,0.4-1.5c0-3-0.4-3.5-3-7.7
		c-0.1-0.8-0.2-1.8,1.6-1.8c6.4,0,8.3,1.6,10.3,3.3c0.4,0.4,2.8,1.6,3.1,2.1c0.9,0.9,1.6,2.3,1.6,3.5c0,1.8-0.6,2.4-1.3,2.9
		c-2,1.4-2.1,1.5-3,2.6c1.5-0.4,1.8-0.4,4.4-1c0.6-0.1,7.4-1.6,7.7-1.6c0.6,0,8.4,1.3,8.4,4.5c0,3.9-6.3,3.6-7.9,3.6L217.4,493.6z
		 M171,516.4c-2.1,0.1-7.7,0.8-8.9,2.9c-1.6,2.5-7.2,6.8-7.5,6.9c-0.9,1.6-1.1,1.8-2.6,3.1c-0.4,0.3-2.4,2.3-2.4,2.6
		c3,2.6,3.3,2.8,4.6,3.4c0.9-0.4,5.3-1.1,6.1-1.6c1.3-0.8,6.8-7.9,7-8.4c0.8-1.5,4-7.9,4.1-8.7L171,516.4z M156.8,567.6
		c0.5,0,6.4,4,6.4,13.3c0,2.3-0.8,6-3.1,6c-1.8,0-2-1-2.9-4.4c-0.3-1.1-2-5.6-2-6.6c0-0.9,1-4.6,1.1-5.4c0.1-0.9,0.1-1.4-0.1-2.5
		C156.3,567.8,156.6,567.6,156.8,567.6z M163.6,545.4c0-1.8-0.3-4.4-0.6-6c-0.2-0.3-3-2.3-3.1-2.3c-0.8-0.2-1.5-0.2-4.4-0.2
		c0.4,2.3,1.4,9.4,2.6,10.5C158.8,547.4,163.6,546.8,163.6,545.4z M163.6,556.1c0-0.9-0.1-5.3,0-6.1c-0.8-0.1-4.9,0.9-5.6,1.1
		c0,0.5-0.3,2.9-0.3,3.4c0,0,0.6,4,0.8,4.9c0.1,2,0.4,2.4,1.1,2.4c1.5,0,3.5-0.5,4.8-1.5C164.3,559.6,163.6,556.3,163.6,556.1z
		 M172.4,571.5c1.8,2,2.1,3,2.5,4c-0.3,0.9-0.6,4.6-0.9,5.4c-0.5,0.9-1.3,1.3-1.8,1.3c-2.1,0-2.9-2.8-3.5-5.3
		c-0.1-0.6-1.5-2.9-1.5-3.4c-0.2-2.1-0.5-5-0.9-5.6c-0.5-0.9-0.5-1-0.4-1.6C167.8,566.5,169.2,568,172.4,571.5z M179.4,533.1
		c-0.8,0.3-2.6,0.8-3.3,0.8c-2.8,0.1-3,0.3-5.9,1.3v0.4c0.5,0.3,1.4,1,1.4,1.9c0,0.6-1,3.1-1.1,3.6c-0.3,0.6-0.1,0.9,0,2.8
		c0.8,0,2.5-0.4,3-0.4c1.1,0,3.1,0,4.6,0.8c0.1,1.3-0.1,1.4-2.1,2.5c-1.4,0.8-1.6,0.8-3.3,1.1c-0.3,0-0.9,0.3-2.1,0.6
		c0.1,1.3-0.9,7.8-0.9,8l0.1,2.3c1,0.1,6.8-1.5,7-2c0.4-0.5,3.1-17.7,2.9-23.2L179.4,533.1z M182.6,567.5c0.5,0.5,3.1,2.3,3.4,2.8
		c1,1.5,1,5.6,1,5.9c0,1-0.1,2.6-1.5,2.6c-2.5,0-3.9-2.6-4.9-4.9c-0.3-0.5-2-2.9-2.1-3.5c-0.3-0.9-1.5-5.5-1.5-6.1
		C179.9,564.3,182,566.7,182.6,567.5z"/>
	<path class="st0" d="M277.8,546.5c2.5-1.1,4.7-2.5,7.1-4c1.6-1.1,10.4-4.5,15.2-4.5c3.7,0,9.8,2.3,13.8,6.3c2.7,2.7,5.1,9,5.1,12.8
		c0,4.1-0.4,6-2.7,10.4c-1,1.8-7,8-9.8,9c-1.2,0.4-2.6,1.3-3.3,1.6c-5.7,0.9-6.7,1-9.2,1c-2.9,0-12.8,0-12.8-7.1
		c0-2.6,0.6-5.6,2.8-7.2c0.2-0.3,0.5-0.8,0.9-1.1c0.5-0.1,2.4-0.3,3-0.3c1.2,0,7.4,1.4,8.8,2.7c0.4,0.4,2.9,2.5,3.1,2.8
		c1.2,1.8,1.3,1.9,1.7,2.5c6-2.4,13.2-10.1,13.2-15.7s-3.8-12.6-13-12.6c-6.2,0-12,3-20,8.6c-2.5,1.7-7.4,6.2-9.6,8.5
		c-1.8,1.8-2.9,2.9-3.9,2.9c-0.6,0-2-0.5-2.2-1.7c-0.2-0.6-0.9-5.4-0.9-6c0-4.3,1.1-4.5,2.6-4.9c1.1-0.3,2.4-2.5,2.7-3.1
		c0.2-0.4,3.3-4.4,3.8-5.4c0.2-0.3,5.7-8.7,6.5-10.5c1.1-2.8,9-15.3,9.2-16.7c-0.5-0.5-0.8-0.5-1-0.5s-2.7,1.4-3.1,1.7
		c-0.9,0.4-2,0.8-2.9,0.8c-3.9,0-8.4-4.1-8.4-4.6c0-0.4,0.2-1,0.3-1.2c0.2-0.1,0.9-0.4,1-0.4s3.2,0.2,3.3,0.2c2.9,0,5.2-0.4,7.7-1.9
		c0.5-0.3,3-1.5,3.3-1.9c1-1,2.3-2.6,3.2-3.4c0.8-0.5,1.3-0.5,1.5-0.5c2,0,3.4,1.3,6.1,3.8c1.9,1.8,3.7,3.4,3.7,4.6
		c0,1.6-0.6,2.3-1.7,2.9c-2.4,1.4-3.4,2.8-13.8,15.5c-2.3,2.8-11.3,14.8-11.8,16.6L277.8,546.5z M291.1,569.3
		c-0.5-0.3-3.3-1.9-3.7-1.9c-1.2,0-1.5,1.4-1.5,2.3c0,3.5,4.5,4.6,7.2,4.6c0.9,0,1.6-0.2,2.7-0.4
		C294.9,571.8,293.2,570.5,291.1,569.3z"/>
	<path class="st0" d="M335.3,524.1c1.8-0.6,9.8-2.4,11.4-3c3.5-1.3,19.4-5.5,22.2-7.5c0.4,0,2-0.4,2.4-0.4c1.8,0,10.2,1,9.5,5.3
		c-2.5,1.9-7.8,2.6-11.9,3.1c-3.9,0.5-4.3,0.6-4.5,1.5c1.1,1.1,1.8,3.1,1.8,3.9c0,1.4,0,1.5-4.1,6.4c-0.4,0.4-2,2-2.3,2.4
		c-0.5,0.6-0.6,0.9-1.6,2.8c-0.4,0.8-7.2,9-7.4,9.4c0,0.4,0.3,0.8,0.3,0.9c1.4,0.1,5.4-1.4,6.8-1.9c4-1.6,6.5-2.8,11-4.8
		c0.6-0.3,1-0.5,1-1.3c0-0.8-3.1-8.4-3.3-8.8v-1c3.5,0.5,15.6,11.5,15.6,18.3c0,1-0.1,4.8-0.9,6.1l-1.5,1.6l-0.5-0.1
		c-1.6-1-3.3-3.8-4.4-5.8c-0.1-0.5-2.1-4.4-2.6-4.9c-1.1-0.1-1.4,0-3.4,1.3c0,0.1-4.4,2.1-6.5,3.1c-0.8,0.4-3.9,2.5-4.8,3.3
		c-2.3,0.6-8.9,6.3-10,8c-0.2,0.5-1.4,2.5-1.8,2.8s-0.9,0.6-1.5,0.6s-0.9-0.3-2.4-2.4c-1.4-1.9-5-4.1-5-6.6c0-0.3,0.3-1.4,0.3-1.8
		c0-0.5-0.6-2.8-0.6-3.3c0-0.4,0.2-0.6,0.6-1.1c0.4,0.1,2.5,1,2.9,1.1c4.1-1.3,13.7-21.5,13.8-22.2l0.6-3.9
		c-2.5-0.1-5.4,1.3-7.5,2.6c-2.8,0.1-9.5-2-11.7-3L335.3,524.1z M345.9,496.5c3.4,0,14.1-0.4,17.4-2.8c1.5-1,2.4-1.8,5.3-1.8
		c3.9,0,8.9,2.8,8.9,4c0,1.4-1.5,2.3-2.6,2.8c-3.8,0.5-12.2,1.6-16.9,2.4c-5.3,0-11-2.1-12.2-4L345.9,496.5z M368.8,579.1
		c0.9-0.4,11.5-11.3,12.3-12.5c1.1-1.5,5.5-7.7,6-8.4c4.3-7.8,6.3-11.4,6.3-15.2c0-1.5-0.6-2.6-1.1-3.4c0.5-0.8,0.9-1,1.6-1
		c2.5,0,4.8,1.3,6.9,2.6c0.1,0,2.5,2.5,3,3c0.1,0.4,0.5,1.9,0.5,2.3c0,0.8-2.8,3.1-3,3.6c-2.5,4.6-7.5,13.9-9.8,15.9
		c-1.5,1.4-3.4,4-4.9,5.3c-7.3,6.5-9,7.8-15.7,10.9c-2,0.9-5.8,2-5.8,2c-0.5,0-0.8,0-1.4-1C364.2,581.4,365.1,581,368.8,579.1z
		 M380,499.6c1.3,0,2,0,2.5,0.1c0.6,0,3.1,0.6,3.6,0.6c1.4,0,15.9-13.5,15.9-19.3c0-0.5-0.2-2.4-0.2-2.8c0-0.9,0.9-1.3,1.6-1.3
		c7.3,0,12.9,8.8,12.9,9.3c0,0.4-0.1,0.8-0.4,1.3c-0.9,0.1-4.6,1.9-7.8,4.5c-0.1,0.1-7.9,5.1-9.9,6.4c-0.6,0.4-3.9,1.5-4.5,1.9
		c-0.8,0.5-1.3,0.9-2.1,1.5l0.4,0.1c1.8-0.4,9.7-1.6,11.2-2.1c1.1-0.4,17.1-3,20.3-3.5c1-0.3,4.9-3.8,5.5-3.8
		c5.1,0,15.7,13,15.7,13.9c0,0.4-0.3,1-0.4,1.3c-0.6,0.5-3.8,2.6-4.3,3.3s-0.8,0.9-1.8,2.6c-1,1.6-5.8,8-6.6,9.4
		c-0.9,1.5-4.4,8.3-5.3,9.5c-0.4,0.4-1.4,1.9-1.8,2.1c-0.4,0.3-1.1,0.4-1.4,0.4c-0.5,0-2.5-1.5-2.9-1.6c-1.3-0.5-2.4-0.5-2.8-0.5
		c-0.8,0-5.1,0.5-7.3,0.9c0.6,0.5,3.4,2.5,4,2.9c1.4,1,2.3,1.9,2.3,2.6c0,1.4-1.4,4.8-2,6.1c-0.1,0.3-1.8,6.3-1.8,9
		c0,1.3,2.5,2,2.8,2c0.8,0,8.2-10.4,8.2-12.7c0-1-0.3-3.3-0.4-5c1.4-0.3,1.4-0.3,1.8-0.3c0.9,0,4.1,1.1,5.1,1.9c0.5,0.4,4,3.6,4,5.5
		c0,0.8-0.1,1.1-1,1.8c-1.6,0.1-1.9,0.4-2.3,1.4c0.5,0.6,3.6,3,4.9,3.9c0.1,0.3,2.3,2.5,2.8,2.9c0.4,1.1,1.4,3.6,1.4,6.1
		c0,2.1-0.9,2.8-2,3.5c-2.6-1.8-3-2.4-5.3-5.8c-1.8,0.6-11.5,4.5-12.9,5.8c-0.3,0.1-2.9,2.4-3.3,2.4c-0.9,0-1-0.3-1.8-2.6
		c-0.4-1-1.9-4.4-2.5-5.6c-0.1,0.8-0.8,14.2,1.1,16.2c3.6,3.8,12.9,4,13.5,4c0.9,0,10.2-0.6,11.4-1.4c2.3-1.3,2.6-4.6,2.9-6.8
		c0.1-1.1,1.1-6.3,1.1-7.3c0-0.6-0.3-3.5-0.3-4l0.1-1.3l1.4,0.3c2.5,4.6,3,7.3,4.4,12.7c0.3,1.3,1.3,2.5,1.5,2.9
		c0.3,0.4,3.8,3.4,4.4,4c0.5,1.1,0.6,1.6,0.6,2.1c0,3.1-2.4,3.4-10.2,4.5c-0.8,0.1-4.6,0.3-5.4,0.4c-0.5,0.1-1.8,0.3-2.9,0.5
		c-0.4,0-2.4-0.4-2.6-0.4c-4,0-18.1-0.6-23.7-7c-3.6-4.1-3.6-14.9-3.6-19.9c0-0.8,0.4-3.9,0.4-4.5c0-8.8,0-15.2-0.5-16.4
		c-0.5-0.3-2.4-2.3-2.8-2.6c-0.8-0.6-0.9-0.6-1.1-0.6c-0.6,0-3.6,0.6-3.8,0.8c-2.1,0.9-2.4,1-4.9,0.9c-1.3-0.8-4.3-4.9-4.3-5.6
		c-0.1-4.3-2.1-12.9-4.1-21.5c-0.8-1.4-3.4-7.4-4.8-8.2c-0.8-0.4-0.8-0.6-0.9-1.4L380,499.6z M394.4,510.3c0.4,4.5,0.5,5,1.5,5
		c0.6,0,3.8-0.8,5.5-1c2.1-0.4,2.4-0.5,2.4-2.3c0-1.5-0.3-5.1-2.1-6.8c-0.5-0.4-8.3-2.1-8.9-2.1c-0.4,0-1.1,0-1.6,0.4
		C392.2,504.7,394.2,509.8,394.4,510.3z M402.6,518.3c-1,0.4-1.8,0.8-2.5,0.8c-0.8,0-3.8-0.8-4.4-0.9c0.6,7.9,1.5,10.8,2.4,12.4
		c0.9,0.3,1.4,0.3,2,0.3c1.3,0,2.6-0.3,3.9-0.5c-0.3-1.4-0.3-3.1-0.3-4.3c0-0.9,0.4-5.1,0.4-6c0-0.5-0.1-0.9-0.2-1.5L402.6,518.3z
		 M428.1,505.2c0.1-0.6,0.5-2.8,0.5-3.1c0-1-1.4-1.4-2.5-1.4c-0.4,0-2.1,0.2-2.5,0.2c-2.8,0-11,0.8-14.2,2.3c2,0.8,4,4.6,4,4.8
		c0,0.5-0.5,2.6-0.4,3c1.1,0.3,1.8,0.3,2.5,0.1c0.6,0,3-0.5,3.5-0.5c1,0,5.1,0,5.1,2c0,0.9-0.4,1-2.1,1.8c-0.6,0.3-3,1.5-3.5,1.5
		c-0.9,0.1-5.1,0.5-5.9,0.8c-0.3,1.1-0.5,6.4-0.6,7.5c-0.1,0.3-0.6,3.9-0.6,4.4c0,0.5,0.5,0.8,1,0.8c1,0,5-0.4,5.8-0.4
		c1.1,0,1.6,0,2.5-0.3c0.5-3,0.8-4.4,1.6-6.3c0.4-1.1,1.3-3.1,2.1-5.9L428.1,505.2z M421.3,557.8c0.8,0,8.3-1.4,9.2-1.9
		c-0.1-1.3-0.8-5-2.1-5c-0.4,0-0.6,0.3-0.8,0.4c-1.3,1.5-1.5,1.8-2.5,2.1c-0.6,0.9-0.6,0.9-1.6,1.4l-2.4,2.6L421.3,557.8z"/>
	<path class="st0" d="M520.3,572.3c-0.2,0.1-6.5,3-7,3h-1.2c-0.3,0-1.7,0.4-1.9,0.4c-0.9,0-1.6-0.5-1.6-1.2c0-1.6,2.7-2.2,3.8-3.1
		c2.8-2.3,8.7-8.5,12-14c3.9-6.2,6.3-13.5,6.3-18.1c0-2.3-0.3-9.8-6.7-17.4c-1.9-2.3-6.1-4.7-6.3-4.8c-3.3-1-4.9-1.4-9.5-1.4
		c-1.7,0-7,0.8-8.4,1.1c-0.5,0.2-1.5,0.4-1.5,1.2c0,0.9,3.9,3,4.4,3.5c2.2,2.4,2.4,2.6,2.5,4.6c-3.1,3.8-3.9,5.4-7.1,11.9
		c-0.8,1.4-9.4,17.8-11.9,21.1c-1,1.3-6.5,7.7-7.5,8.4c-1.2,0.9-3.9,1.9-4.4,1.9c-1.2,0-2.3-2-2.5-2.9c-1.3-4.6-1.8-6.7-4.1-11.5
		c-1.4-3.1-3.4-9.5-3.4-10.1c0-5.2,2.3-8.7,2.8-9.5c3.2-4.7,7.8-11.5,13.7-15.1c6.9-4.2,8.1-4.6,17.7-8.1c1.4-0.4,6.6-1.2,8-1.2
		c12.8,0,20.8,6.2,22.5,8.2c0.4,0.4,4.8,5.9,5.2,6.7c1.8,3.8,4.6,9.7,4.6,14.5c0,6.3-0.1,7-0.8,10.2c-1,4.3-1.5,7.3-6.5,12.9
		c-0.6,0.8-3,3.1-3.4,3.4L520.3,572.3z M491.5,520.7c-1.9,0-5.8,2.7-12.8,7.6c-3.5,2.6-10,11.2-10,15.2c0,4.7,7.6,12.3,9,12.3
		c1.5,0,1.8-0.5,4.9-5.8c3.2-5.5,3.7-6.1,4.8-8.9c0.8-1.7,4.3-9.1,4.8-10.6c0.8-2.2,1.7-6.8,1.7-7.6
		C494,521.6,491.9,520.7,491.5,520.7z"/>
	<path class="st0" d="M158,654.6c0.1-0.1,4.6-1.1,5.6-1.6c0.4-3.7,0.9-12.5,0.9-16.3c0-2.3-0.6-6.3-1.1-12c-0.1-1.3-3.7-6.6-3.7-7.3
		c0-1.6,2.3-1.9,3.4-1.9c1.1,0,2,0.1,3.2,0.9c2.4,0.1,5.2,0.9,7.7,3.3c0.9,0.7,4.9,3.2,5.6,3.9c0.7,0.9,1,1.9,1,2.9
		c0,1.1-2.6,5.2-3,6c-0.1,0.7-2.6,15.6-2.4,17.3c1.4,0,7.9-2.7,8.6-2.7c4,0,5,0,9,2.3c1.9,1.1,2.2,2.6,2.2,2.9c0,2.7-4.4,3-11,3.2
		c-2.4,0.1-9.9,0.9-10,2.3c-0.1,0.9-0.3,4.6-0.3,5.3c-0.1,1.7-1.7,15.1-2.2,17.3l0.9,0.3c1.1-0.4,6.7-1.3,7.3-2c2.7-2.7,2.9-3,4.4-3
		c0.6,0,1,0.1,1.9,0.3c0.1,0.3,8,8.9,9.6,10.5c0.9,1.1,1.6,2.4,1.6,3.6c0,0.9-0.4,1.3-4.2,4.4c-0.3,0.1-9.3,16.3-9.3,17.6
		c0,0.4,0.3,1.3,0.3,1.4c-0.3,1.3-0.7,2-1.9,2.4c-0.1,0.1-7,0.9-7.6,0.9c-2.2,0-14.8,1.7-16.2,3.3c-0.3,0.4-1.6,2.6-2,3
		c-0.7,0.7-1.9,0.9-2.7,0.9c-1.7,0-2.2-0.9-3.9-4.2c-0.6-0.9-2.9-4.6-3.3-5.4c-0.3-0.3-0.3-0.6-0.4-1.6l-1.3-11.9
		c-0.3-2.6-1.1-8-2-11c-0.4-1.3-3.2-6.7-3.2-8c1.6-0.3,1.9-0.3,5,1.1c1.7,0.7,4.2,2.9,6.2,2.9c1.4,0,9-1.3,10.8-2.9
		c-0.3-3.2-0.1-3.6,0.6-7.9c1.3-6.7,1.9-14.1,1.9-15.5c-0.9,0-6.3,1.4-6.9,1.4c-0.4,0.3-7.5,2.7-8.3,2.7c-2,0-9.8-4.9-11.3-5.7
		c-0.7-0.3-1.3-0.9-1.3-1.6c0-0.3,0.1-0.4,0.4-1c1.6-0.1,8.6,0.9,10,0.7L158,654.6z M178.9,695c0.1-0.4,2-8.5,2-8.9
		c0-1.3-0.7-1.7-1.9-1.7c-1.4,0-8,1.3-9.3,1.4c-1,0.1-14.6,3.9-16.5,4.3c-0.1,0.6-0.3,1-0.3,1.3c0,0.6,3,22.7,5,22.7
		c2.2,0,6.6-1.3,7.3-1.6c2.3-0.6,5.9-1.1,8-2c1-0.3,2-2.6,2-3L178.9,695z M236.4,646.4c1.7-0.3,5.2-1.7,6.3-2.9c1.3-1.4,2.7-3,4.7-3
		c0.4,0,10.9,2.7,12.3,3.7c0.6,0.4,1.4,1.3,1.4,2.2c0,1-1.9,2.7-4.2,3l-12.5,1.9c-7.3,1.1-17.5,2.7-24.8,2.7c-1.1,0-5.9-1.7-6.9-1.7
		c-0.6,0-1.1,0.4-1.4,0.9c-1,1.7-4.3,6.6-5.6,7.9v0.4c1.4,1.6,2.3,2.3,3.4,4.9c0,0.3,6.7,10.2,7.3,10.8c0.6,0.6,2.2,2.4,2.7,2.9
		c0.7,1.1,2.6,4.4,4.4,4.7c0.3-0.7,4.2-9.2,5-11c1-2.4,2-9.9,2-10.8c0-3.4,0-4.2-1.1-6.6c-0.1-0.3-0.4-0.9-0.4-1.1l0.4-0.4
		c1.4-0.3,3.3-0.6,3.7-0.6c0.7,0,4.9,3,5.4,3.3c4,2.2,6.9,3.6,6.9,5.9c0,0.4-4.4,6-5.2,7.2c-0.6,1-2.2,6.6-2.6,7.6
		c-0.1,0.6-1.6,3-1.9,3.4c-0.4,1-2,6-2.6,7c-0.4,0.4-2,4-2,4.6c0,0.6,4,5.7,10.3,10c2.2,1.6,11.8,8.9,13.8,10.2
		c1.6,1.1,15.2,9.2,15.5,9.5c0.6,0.6,1.7,1.6,1.7,2.3c0,1.6-3.4,2.4-5.2,2.4c-1.3,0-6.6,0.1-7.6,0.1c-0.7,0-9-1.3-10.8-1.3
		c-1.1,0-1.6-0.1-3.2-1.7c-2.4-2.6-14.1-16.1-15.3-17.1c-0.1-0.6-4.2-5.6-5-5.7c-1.4,2-5.4,7-6.6,8.2c-2.2,2.2-8.6,6.9-10,8.2
		c-0.9,0.7-15.9,6.9-20.5,6.9c-2.6,0-4.6,0-5-0.7l0.6-1.6c9.5-4,10.2-4.6,19.2-12c6.6-5.6,16.5-17.5,16.5-18.6c0-1.7-6.5-8.9-7-9.9
		c-1.4-2.7-9.2-16.3-10.9-16.3c-0.7,0-2.9,2.3-3.4,2.7c-2.4,1.6-6.6,4.3-7.3,4.3c-0.4,0-1.3-0.1-1.3-0.7c0-1.3,7.9-12.5,8.7-13.6
		c4-5.4,10.2-19.2,11.9-26.4c2.3-8.9,2.6-9.9,2.6-11c0-0.6-0.6-3.3-0.9-4.4c-0.9-1.1-1.6-2-1.6-2.6c0-0.3,0.4-2,2.7-2
		c9,0,15.5,11.6,15.5,12c0,2.3-0.7,2.7-3.7,5.2c-2.9,2.2-9.9,18.4-10.6,19.4c1.3,0.4,1.7,0.6,2.2,0.6c1,0,5.2-0.6,6-0.6h1.3
		L236.4,646.4z"/>
	<path class="st0" d="M302.1,613.1l0.4-0.7c2-0.3,8.3,1.4,8.7,2.2c1.4,2.4,1.9,3,5.4,7.9c0.9,1,1.4,1.9,1.4,2.2
		c0,0.3-0.4,1.9-0.4,2.2c-3,0.7-3.2,1-6.6,4.6c4,1.9,12,9,12,13.5c0,2-0.6,3.4-3.4,6.6c-1.4,1.6-7.7,8.3-9,9.8
		c1.9,0.9,11.2,6,11.8,7.2c0.4,0.9,0.6,2,0.6,2.9c0,2.9-0.9,3.6-2.2,4.6c-0.4,1.9-5.2,16.2-7.7,19.6c-0.7,1-3,6.2-3.9,6.9
		c-0.6,0.6-5,7-5.4,7.6c-0.9,0.7-4.4,4.3-5.2,5c-0.4,0.3-3.2,2-3.6,2.4c-2.6,2.4-3.3,3.2-7.6,4.7c-0.4,0.3-1.3,0.4-1.9,0.4
		c-1.7,0-2-1.1-2-1.6c0-1.3,4.4-4.9,5.2-5.7c5.4-5.6,6.2-6.6,13.6-18.4c2.6-4.2,6.9-11,6.3-14.3c-0.9,0.4-1.4,0.9-5.9,3.7
		c-1,0.6-5.9,2.7-6.7,3.3c-0.9,0.6-4.4,3.9-5.3,3.9c-0.6,0-2.7-2.3-3-2.7c-1-1.1-1-1.9-3-6.7c-0.1-0.3-1-2-1-2.4
		c-0.1-0.7,0.1-2.4,0.1-2.7c1-0.1,3.4-1.3,4.4-1.6c0.7-1,4.4-4.9,5-5.9c0.4-0.4,7.3-10.3,7.3-11.9c-1.6-0.7-10.2-5.3-11.6-6.6
		c-1-1-6.3-4.3-6.9-5.3c-0.4-0.7-0.7-1.3-0.7-1.9c0-1.3,2.3-2.2,2.7-2.2s2.4,0.4,2.9,0.4c0.6,0,3.6-0.1,5.2-1.7
		c0.3-0.3,4.7-6.7,5.7-8.7c0.9-2.3,6.2-11.9,6.2-14.1c0-0.9-0.1-1-1.1-3.4L302.1,613.1z M296.7,646.5c1.6,1.6,1.7,1.7,3.4,2.9
		c0.7,0.6,3.4,3.6,4,4c1-1.9,5.6-10,6.2-11.5c0.7-1.7,1.1-3.7,1.1-4.6c0-0.7-0.6-1.6-2.3-3.7c-2.4,2.7-6,6.5-7.5,8
		c-0.9,0.7-4.4,3.7-5.2,4.4L296.7,646.5z M310.2,672.9c0.1-0.1,0.9-0.4,1.3-0.6c0.4-0.7,0.9-1.4,0.9-3c0-1.9-3.2-4.4-3.9-5
		c-3.2,3.3-10.2,12.3-10.9,13.6C300.2,677.9,307.5,675.1,310.2,672.9z M321.8,616.7c0.9-0.3,4.7-1.1,5.4-1.4
		c0.7,0.1,1.3,0.1,1.6,0.1s1.9-0.4,2.2-0.4c2,0,4.6,1,5.7,1.7c0.3,0.1,1.7,1.6,2,1.7c0.1,0,0.6,0.1,0.9,0.1c0.9,0,8.7-3.2,10.5-3.7
		c2.6-1,3-1.3,3.4-2.3c0.3-0.7,0.4-1.1,1.6-1.1c1.7,0,7.7,5,9,5.9c2.7,1.4,3,1.7,4.7,4.9c0.1,0.3,0.3,0.6,0.3,0.9
		c0,0.3-2.6,5.9-2.7,6c-0.1,0.4-2.6,9.5-2.9,10.6c-0.6,2.2-4,12.8-4.9,15.6c-1.1,3.6-3.3,3.6-3.9,3.6c-0.4,0-2.2-0.9-2.6-0.9
		c-0.6,0-3.7,0.7-5.3,1.4c-1.6,0.7-4.7,2.2-8.5,1.9c-0.4,1.4-0.6,1.9-0.6,2.2c0,0.7,0.4,3.7,0.4,4.4c0,1.6-0.4,9-0.4,10.5
		c0,3.7,0,6.3,0.1,9.2c2.6-1,14.2-6.5,16.3-8.2c-0.6-2.7-2-8.3-3-10.2c-0.9-1.9-1-2.2-0.9-4.3c2.3,0,6.6,2.9,7.5,3.7
		c1.6,1.7,1.7,1.9,2.9,2.9c0.6,0.4,6,8,6.6,9c0.6,1,1,4.2,1,4.6c0,0.6-1.1,6.2-1.7,6.9c-0.7,1-1.4,1.4-2,1.4c-1.7,0-6-5.3-7.3-8.5
		l-0.4-0.1c-3.7,3-4.4,3.6-7.7,7.3c-0.7,0.9-4.6,3.4-5.2,4.3s-4.2,4.3-4.7,5c-1.3,1.7-1.7,2.3-4.4,6.2c-0.6,0.3-1.3,0.6-1.9,0.6
		c-0.3,0-1.9-1-2.2-1.1c-0.7-1.6-4.3-7.9-4.9-9.3c-1.1-2.6-1.1-3.2-0.9-5.2l2.3-1.9c1.7-2.3,2.6-4.6,2.6-6.2
		c0-2.6,0.4-13.8,0.4-16.1c0-1-0.1-5.9-0.1-6.9l0.3-18.1c-0.1-0.7-0.9-7.9-0.9-8.6c0-3.3,0-5.7-1-8.6c-0.1-0.6-1.3-2.4-1.4-2.9
		c-3.2-2.9-4.4-4-5.7-6.2L321.8,616.7z M350.1,652.1c0.7-2.2,2.2-8.5,1.9-12c-1.6-0.1-1.7-0.1-3.7,0.7c-0.6,0.3-3.3,0.6-3.9,0.7
		c-0.6,0.3-1.1,0.6-2.4,1.6c-0.7,0.1-2.6,0.4-2.9,0.7c-0.1,1-0.6,12.5-0.6,12.5C340.9,656.3,349.5,652.5,350.1,652.1z M352.7,631.9
		c0.3-0.9,0.7-6,0.7-6.5c0-4.3,0-4.7-1.1-4.7c-3.9,0-6.5,1-9.9,2.3c-1.1,3.7-1.3,4.2-1.3,5.3c0,0.6-1.7,6.5-1.7,7.6
		c1.4,0.3,6.2-1.7,7.2-2.4c0.6,0,3.2-0.6,3.7-0.6L352.7,631.9z M375.3,673.1l-0.1-4.6c-0.1-4.7,0.1-25.5,0-29.8
		c-0.3-11.8-0.6-14.1-2.2-16.9c-0.4-0.9-3.6-6.9-3.6-7c0-0.3,0.3-1.6,1.9-1.6c3.2,0,3.2,0,5.4,1.9c0.4,0.4,2.6,1.4,2.9,1.7
		c0.7,0.6,2.4,2,3.2,2.7c7.2-2.2,7.9-2.4,11-7.6c1.7-0.3,1.9-0.1,9,5.2c0.9,0.6,5.4,2.9,6.2,3.6c0.6,0.4,2.6,2.3,2.6,3
		c0,0.4,0.4,2.2,0.4,2.4c0,0.4-0.4,1-1.3,2.6c-2.9,1.1-5,3.3-10,8.7c-2.4,2.4-2.7,2.7-4,3.6c-1.1,0.7-1.6,1.6-1.6,2.4
		c0,1.9,0.6,2.3,4.7,7c0.6,0.6,7.5,11,7.5,11.3c3.4,8.9,3.9,9.9,3.9,11.8c0.1,9.6-4.3,19.6-11.3,19.5c-3.4-2.6-3.6-2.9-4.3-4
		c-0.4-0.9-2.3-4.7-3-5.3c-0.4-0.4-2.9-1.7-3-2c-2.2-1.9-2.3-2.2-3.6-2.7c-0.3,3.3,0.4,20.4,0.4,20.6c0,1.1,0.3,6.5,0.3,7.5
		c0,10.8-2.3,26.5-5.2,26.5c-2.3,0-3.2-2.7-5-8.5c-1.6-5.2-1.7-17.3-1.7-21.4c0-0.1,0.3-5.6,0.3-5.7v-12.3L375.3,673.1z M395,625.9
		c0.1-0.6,0.9-3.3,1-3.9l-0.3-0.6c-1.6-0.1-1.9,0-4,1.3c-1.1,0.7-2,0.9-5.7,1.4l-0.6,0.6c0,0.3,0.3,2,0.3,2.3c0,0.6-0.3,3-0.1,3.6
		v19.9c0,1.3-0.3,7.5-0.3,8.3v11.6c0.4,1,1.1,1,3.2,1.4c8.2,1.6,9,1.9,10.6,1.7c0.4-1.7,0.9-3.4,0.9-5.4c0-3.7-3.2-9.3-5.3-13.2
		c-0.3-0.6-2.3-2.9-2.6-3.4c-0.3-0.3-0.6-0.9-0.7-1c-2.6-1.3-3.7-5.2-3.7-6.3c0-1.3,0.7-4.9,1.7-6.6c0.3-0.4,1.6-2.2,1.9-2.6
		c0.9-2,1-2.3,2.4-4.9c0.3-1,0.9-3.2,1.1-3.9L395,625.9z"/>
</g>
<g>
	<path class="st0" d="M169.5,780.5c8.3,0,12.3,3.7,12.3,8.9c0,3.9-2.5,7.4-9.2,8.7c8,1,11.2,4.6,11.2,9.3c0,5-3.9,10.2-15.2,10.2
		h-15.3v-1.8l5-0.6c0.1-5,0.1-10,0.1-15.2v-2.5c0-4.9,0-9.9-0.1-14.8l-5-0.6v-1.8H169.5z M164.2,782.6c-0.1,4.8-0.1,9.7-0.1,14.8
		h2.7c6.3,0,9.2-2.6,9.2-7.7c0-4.8-2.6-7.1-8.4-7.1H164.2z M167.8,815.6c6.5,0,10-2.8,10-8c0-5.4-3.2-8.1-10.5-8.1h-3
		c0,5.8,0,11,0.1,16.1H167.8z"/>
	<path class="st0" d="M203.7,816.1v1.6h-13.2v-1.6l3.9-0.6c0-2.9,0.1-6.9,0.1-9.5v-3.2c0-3.1-0.1-5-0.2-7.5l-4.3-0.4v-1.6l9.2-2.9
		l0.7,0.5l-0.1,7.5v7.5c0,2.7,0.1,6.7,0.1,9.5L203.7,816.1z M193.4,780.8c0-2.1,1.7-3.5,3.7-3.5c2,0,3.7,1.4,3.7,3.5
		s-1.7,3.5-3.7,3.5C195,784.3,193.4,782.9,193.4,780.8z"/>
	<path class="st0" d="M226.4,815.3c-1.4,2-3.7,3.2-6.8,3.2c-4.2,0-6.6-2.2-6.6-6.8c0-1.5,0.1-2.8,0.1-4.9v-13.3h-4.6v-1.8l4.9-0.6
		l1.7-7.7h3.6l-0.3,7.8h7.1v2.3h-7.2v18.2c0,2.9,1.3,4.1,3.3,4.1c1.3,0,2.3-0.5,3.7-1.6L226.4,815.3z"/>
	<path class="st0" d="M258.7,807.4l-0.4,10.3h-28v-2l21-32.9h-15.5l-2,7.9h-3l0.5-10.1h26.4v2l-20.9,32.9h17l2-8.1H258.7z"/>
	<path class="st0" d="M270.6,804.2c0.2,7.5,3.9,11,9.1,11c3.6,0,5.8-1.5,7.7-3.9l1,0.7c-2,4-5.7,6.4-10.6,6.4c-7.6,0-13-5.1-13-14
		c0-8.7,6.2-14.1,13.1-14.1c6.4,0,10.6,4.3,10.6,10.7c0,1.3-0.1,2.3-0.4,3.1H270.6z M280.5,802.3c2.3,0,2.9-1.2,2.9-3.3
		c0-3.7-2.4-6.6-5.8-6.6c-3.3,0-6.6,3-7,9.9H280.5z"/>
	<path class="st0" d="M325.8,816.1v1.6h-13.2v-1.6l3.9-0.6c0.1-2.8,0.1-6.8,0.1-9.5v-5.7c0-4.7-1.4-6.4-4.4-6.4
		c-2.2,0-4.5,1.1-7.3,3.6v8.5c0,2.7,0.1,6.7,0.1,9.5l3.6,0.6v1.6h-13.2v-1.6l3.9-0.6c0.1-2.9,0.2-6.9,0.2-9.5v-3.2
		c0-3.2-0.1-5.1-0.2-7.4l-4.2-0.4v-1.5l8.5-3l0.8,0.5l0.4,4.5c3-3.4,6.5-5.1,9.8-5.1c4.7,0,7.3,2.9,7.3,9.9v5.7
		c0,2.8,0.1,6.7,0.1,9.5L325.8,816.1z"/>
	<path class="st0" d="M358.6,792.8l-3.1,0.5l-9.8,25.8c-3.3,9-7.2,12.3-10.9,12.3c-2.6,0-5-1.5-5-3.6c0.4-1.7,2.1-2.5,3.7-2.5
		c1.7,0,2.8,0.9,4.1,2.3l0.6,0.6c2.4-1.9,4-4.7,5.4-8.3l0.1-0.3l-10.7-26.4l-3.1-0.4v-1.6h13.6v1.7l-4.5,0.5l7.2,19.8l6.8-19.7
		l-4.9-0.6v-1.6h10.6V792.8z"/>
	<path class="st0" d="M377.7,799.5c-1,2.7-2.9,7.9-3.4,9.7c-0.5,1.9-0.7,2.9-0.7,3.7c0,1.7,0.9,3.3,0.9,4.7c0,1.5-0.8,2.3-2.1,2.3
		c-1.1,0-2.1-0.9-3-2.1c-1.7-2.3-3.1-6.8-3.1-12.2c0-5.2,1.5-10.8,2.3-13.8c0.7-2.4,1.2-4.4,1.2-6.3c0.1-2.1-1.3-4-2.7-5.8l0.6-0.6
		c1.5,0.4,2.3,0.8,3.4,1.6c1.4,0.9,3.9,3.6,3.9,6.1c0,1.3-0.8,2.2-2,4.8c-1.6,3.2-3.6,8.3-3.6,13.4c0,2.1,0.3,3.4,0.7,4.2
		c0.3,0.7,0.8,0.8,1.3,0c1.2-1.8,3.9-7.8,5.1-10.3L377.7,799.5z M397.9,794.4c0,4.7,0.4,8.9,0.7,12.2c4.1,1.1,6.8,3.1,8.4,4.6
		c1.1,1,1.7,2.1,1.7,3.1c0,1.4-0.7,2.2-1.9,2.2c-1,0-1.7-0.7-3-2c-1.6-1.5-3.1-2.7-4.8-3.6v0.8c0,4.4-2.8,7-9.3,7
		c-4.5,0-8.4-2.3-8.4-6.3c0-4.7,4.8-6.8,10.5-6.8c1,0,2,0.1,2.9,0.2c-0.2-3.3-0.4-7.8-0.5-11.6v-0.5c-1.8,0.2-3.5,0.4-5.2,0.4
		c-3.2,0-5.5-0.6-8.1-5.4l0.7-0.6c2.3,1.6,4.5,2.4,6.9,2.4c2.1,0,4-0.2,5.7-0.5v-5.8c0-1.7-0.3-1.9-1.2-2.2c-1-0.4-2.3-0.6-3.6-0.7
		l-0.1-0.9c1.2-0.7,2.9-1.5,4.2-1.5c2.9,0,5.8,1.6,5.8,2.9c0,1.2-0.5,1.5-0.8,3.5c-0.2,0.9-0.4,2.2-0.5,3.7c0.5-0.2,0.9-0.3,1.3-0.5
		c3-1,4-1.7,4.4-1.7c1.5,0.1,3.3,0.8,3.3,2.1c0,1.4-0.8,1.8-2.8,2.6c-1.2,0.5-3.6,1.1-6.4,1.7V794.4z M394.8,809.4
		c-1.6-0.5-3.4-0.7-5.3-0.7c-2.9,0-6,1.3-6,3.5c0,2.1,2.2,2.9,4.9,2.9c5.2,0,6.4-1.9,6.4-5.6V809.4z"/>
	<path class="st0" d="M456.9,777.2c0,0,3.5,2.6,5.6,4.5c-0.2,0.6-0.7,0.8-1.4,0.8h-23.9c-0.1,3.6-0.3,7.3-0.8,10.9h12.8l2.7-2.7
		l4.7,4c-0.4,0.4-1.1,0.7-2.2,0.9c-0.8,12.3-2.4,21-5.2,23.5c-1.8,1.5-3.9,2.2-7,2.2c0-1.4-0.3-2.6-1.2-3.4c-1-0.8-3.5-1.6-6-2
		l0.1-0.8c2.8,0.3,7.3,0.7,8.6,0.7c1,0,1.5-0.2,2.1-0.7c1.8-1.5,3.2-9.7,3.8-20.3h-13.5c-1.7,10.2-6.1,19.8-19.5,27.2l-0.6-0.8
		c15-11.7,15.5-25.8,15.6-38.8h-15.1l-0.4-1.5h37.6L456.9,777.2z"/>
	<path class="st0" d="M494.6,776.8c-0.1,0.7-0.5,1.2-1.8,1.4c1.1,19,5.7,31.3,23.1,38.4l-0.1,0.6c-2.5,0.5-4.1,2-4.8,4.6
		c-13.1-7.1-17.2-18.8-18.5-34.6c-0.9,12.6-4.5,25.6-23.1,34.7l-0.6-0.8c19.2-13.1,18.8-29.3,18.8-45.1L494.6,776.8z"/>
	<path class="st0" d="M542.8,817.2c12.5-2.6,17.8-9.4,17.8-18.3c0-9.1-6.2-15-14.5-15c-0.6,0-1.3,0.1-1.9,0.1c1.4,1.6,2.9,3.8,2.9,6
		c0,2.5-0.6,5.6-1.7,8.6c-2.2,6.2-7.9,15.7-13.6,15.7c-3.8,0-7.4-5.8-7.4-12.2c0-4.8,2.3-10.5,7.1-14.6c4.1-3.6,9.2-5.3,15.1-5.3
		c11,0,19.2,7.5,19.2,18c0,9-6.1,17.3-22.8,18.2L542.8,817.2z M542.1,784.5c-3.4,0.8-6.7,2.6-9.2,5.2c-3,3.2-4.8,6.9-4.8,11.1
		c0,4.4,1.9,8.1,4,8.1c3.1,0,7.6-7.4,9.4-11.4c1.2-2.7,2.1-6,2.1-8.5C543.6,787.2,542.9,785.8,542.1,784.5z"/>
	<path class="st0" d="M594.2,787.5c2.4-0.8,4.2-1.7,5.7-2.4c0.9-0.6,1.6-1,2-1c1.1,0,3.1,0.6,3.1,2.1c0,1.2-0.9,1.9-3.8,3
		c-1.3,0.6-4.8,1.7-8.2,2.5c-0.7,2.3-1.4,4.8-2.2,7.1c-2.1,6.1-5.2,14.8-7.3,18.4c-0.8,1.5-1.5,2.3-3,2.3c-1.3,0-2.2-1.4-2.2-3
		c0-1.7,0.9-2.3,2-4.2c2.2-3.4,4.8-8.2,7.1-14.8c0.5-1.5,1.1-3.2,1.5-4.9c-1.6,0.3-3.4,0.5-4.8,0.5c-3.5,0-5.8-1-7.5-5.8l0.7-0.5
		c2.4,1.9,3.9,2.6,6.1,2.6c2.2,0.1,4.5-0.3,6.4-0.7c0.6-2.5,1-4.8,1.1-6.2c0-1.2-0.2-1.6-1-2.2c-0.9-0.5-1.9-0.9-3-1.2l0-0.9
		c1.2-0.5,2.4-0.7,3.7-0.7c2.5,0.1,5.7,1.5,5.7,2.8c0,1.1-0.9,2.2-1.8,5.2L594.2,787.5z M596.6,806.1c0.2,1.4,0.6,3.2,1.6,4.6
		c1.9,2.8,4.8,3.8,9,3.8c4.7,0,6.5-1,7.7-1c1.6,0,3.5,0.8,3.5,2.5c0,1.2-1.3,2-3.1,2.4c-1.6,0.4-3.8,0.7-7,0.7
		c-6.9,0-11.4-2.5-12.4-7.7c-0.6-1.8-0.5-3.7-0.4-5.2L596.6,806.1z M598.9,795.5c2.5-1.5,6.3-2.7,10.1-2.7c3.3,0,5.5,0.8,6.7,1.3
		c1.4,0.8,2,1.8,2,2.8c0,1.2-0.9,1.7-2.7,1.8c-0.9,0-1.8,0.1-3.1,0.6c-1.9,0.5-4.2,1.3-5.9,2l-0.6-0.8c1.6-1,4.2-2.9,4.8-3.5
		c0.4-0.3,0.2-0.6-0.2-0.7c-1.2-0.4-2.9-0.6-4.4-0.6c-1.9,0-4,0.3-6.3,0.7L598.9,795.5z"/>
	<path class="st0" d="M657.3,787.6c8.8,1.1,14.2,7.3,14.2,15c0,8.8-5.8,16-23.9,16.7l-0.2-1.1c15.1-2.8,19.2-9.7,19.2-16.5
		c0-5.3-3.5-10.7-10-11.8c-1,2.9-2.3,5.9-4.3,10.1c-0.8,1.6-1.6,3-2.4,4.3c1.3,0.7,2.5,1.7,2.5,3.3c0,1.1-0.8,1.7-2,1.7
		c-1.1,0-2.2-0.6-3.2-1.2c-1.3,1.6-2.6,2.9-3.9,3.8c-2,1.6-4.3,3.2-7.5,3.2c-3.3,0-4.8-3.4-4.8-6.7c0-7.3,4.6-12.4,7.4-14.9
		c-0.4-1.3-0.8-2.4-1.1-3.4c-0.8-2.1-2.4-4-4.6-6l0.5-0.6c1.9,0.4,3.7,1,4.8,1.9c1.3,0.9,2.7,1.9,3.3,4.1c0.1,0.5,0.3,1,0.4,1.6
		c2.9-1.9,6.6-3.3,11.3-3.6c0.5-2,0.8-3.6,0.9-4.9c0.1-1.2-0.5-1.5-1.3-1.7c-0.9-0.3-1.9-0.4-3-0.5l-0.1-0.9
		c1.2-0.7,2.5-1.2,3.7-1.2c2.1,0,6.1,2,6.1,3.7c0,1.1-0.8,1.7-1.3,3.3L657.3,787.6z M644,805.5c-1.5-1.6-2.6-3.4-3.3-5.1
		c-0.6-1.4-1.2-2.9-1.7-4.5c-3.2,3.5-4.7,7.7-4.7,10.5c0,2.7,1,3.9,2.3,3.9c1.7,0,3-0.8,4.4-2C642,807.6,643,806.6,644,805.5z
		 M652.3,789.7c-3.7,0.2-7,1.2-10.2,3.5c0.5,1.8,1.1,3.7,2,5.4c0.8,1.4,1.7,2.6,2.6,3.5c0.8-1.1,1.5-2.2,2.1-3.4
		C650.3,795.7,651.5,792.5,652.3,789.7z"/>
	<path class="st0" d="M701.5,817.2c12.5-2.6,17.8-9.4,17.8-18.3c0-9.1-6.2-15-14.5-15c-0.6,0-1.3,0.1-1.9,0.1c1.4,1.6,2.9,3.8,2.9,6
		c0,2.5-0.6,5.6-1.7,8.6c-2.2,6.2-7.9,15.7-13.6,15.7c-3.8,0-7.4-5.8-7.4-12.2c0-4.8,2.3-10.5,7.1-14.6c4.1-3.6,9.2-5.3,15.1-5.3
		c11,0,19.2,7.5,19.2,18c0,9-6.1,17.3-22.8,18.2L701.5,817.2z M700.9,784.5c-3.4,0.8-6.7,2.6-9.2,5.2c-3,3.2-4.8,6.9-4.8,11.1
		c0,4.4,1.9,8.1,4,8.1c3.1,0,7.6-7.4,9.4-11.4c1.2-2.7,2.1-6,2.1-8.5C702.4,787.2,701.7,785.8,700.9,784.5z"/>
	<path class="st0" d="M752,784.9c-1.4,2.8-3,5.5-5,8.2l0.6,0.1c-0.1,0.5-0.5,0.8-1.4,1l-0.5,0.7v25.5c0,0.4-1.4,1.5-4,1.5H741v-21.8
		c-2.2,2.1-4.6,3.9-7.4,5.5l-0.5-0.6c3-2.6,5.6-5.6,7.9-9v-4l2.2,0.4c1.4-2.5,2.7-5,3.7-7.6h-12.6l-0.5-1.5h13.7
		c1.1-2.9,2-5.7,2.6-8.4l6.8,2.2c-0.2,0.6-0.6,1-1.9,0.9c-0.7,1.7-1.4,3.5-2.2,5.3h18.2l3.1-3.9c0,0,3.5,2.7,5.7,4.6
		c-0.2,0.6-0.7,0.8-1.5,0.8H752z M775.4,799.6c0,0,3.3,2.5,5.3,4.3c-0.2,0.6-0.7,0.8-1.4,0.8h-12.7v11.2c0,3.6-0.8,5.5-6.9,6.1
		c-0.2-1.5-0.5-2.6-1.3-3.4c-0.9-0.8-2.1-1.3-4.6-1.7v-0.7c0,0,5.7,0.4,6.8,0.4c0.9,0,1.1-0.3,1.1-1v-10.9h-13.3l-0.4-1.5h13.7v-5.5
		l2.4,0.2c1.7-1.6,3.7-3.8,5.1-5.6h-17.2l-0.5-1.5h18.1l2.8-2.7l4.7,4.4c-0.4,0.4-1,0.5-2.1,0.6c-2.2,1.7-5.8,3.5-9,4.9l2.3,0.2
		c-0.2,0.8-0.7,1.1-1.8,1.3v3.6h5.9L775.4,799.6z"/>
	<path class="st0" d="M804.2,786.6c-1.5,2.9-3.2,5.8-5.3,8.6l1.5,0.4c-0.2,0.5-0.7,0.9-1.9,1v23.8c0,0.4-1.4,1.5-4,1.5h-0.7V801
		c-2.2,2-4.6,3.9-7.3,5.5l-0.6-0.5c3-2.6,5.6-5.7,7.8-9v-3.1l1.7,0.5c1.5-2.5,2.7-5.1,3.8-7.7h-11.9l-0.4-1.4h13
		c1.3-3.5,2.3-7,3-10.2l7,1.9c-0.2,0.6-0.6,1-2,1c-0.8,2.4-1.8,4.8-3,7.3h19.2l3.1-3.9c0,0,3.5,2.7,5.6,4.5
		c-0.2,0.6-0.7,0.8-1.4,0.8H804.2z M827.8,815.1c0,0,3.3,2.6,5.4,4.4c-0.2,0.6-0.7,0.8-1.4,0.8h-31l-0.4-1.5h12.5v-16.5h-10.4
		l-0.4-1.5h10.8v-11.6l6.5,0.6c-0.1,0.7-0.5,1.1-1.6,1.3v9.7h4.9l2.8-3.5c0,0,3.2,2.4,5.1,4.1c-0.2,0.6-0.7,0.8-1.4,0.8h-11.4v16.5
		h7L827.8,815.1z"/>
	<path class="st0" d="M868.9,785.6c1.6,0.1,3.1,0.3,4.2,0.8c1.9,1,3.6,3.2,3.6,4.6c0,1.1-1.1,1.6-3.3,2.4c-3.5,1.1-9.3,3.6-13.2,5.9
		c-4.3,2.5-8.9,6.4-8.9,10.5c0,3,2.9,4.9,9.7,4.9c7.1,0,10.9-1.5,12.1-1.5c2.5,0,4.7,0.6,4.7,2.6c0,0.9-0.9,1.8-2.1,2.3
		c-2,0.7-6.6,1.3-12.9,1.3c-8.8,0-14.6-2.9-14.6-8.6s5.5-10.7,9.1-13.4c-1.4-0.9-2.3-2.3-3-3.8c-1.1-2.5-1.8-7.1-2.2-10.4
		c-0.2-1-0.5-1.6-1.5-2.1c-0.8-0.4-2-0.8-2.9-1l0-0.9c1.4-0.5,2.5-0.8,3.8-0.8c2.9,0,5.8,2.1,5.8,3.5c0.1,1-0.4,1.8-0.3,3.1
		c0,2,0.4,5.1,1,6.9c0.6,1.5,1.4,2.6,2.6,3.4c3.6-2.2,8.1-4.6,9.6-5.4c0.7-0.4,0.8-0.8,0.6-1.5c-0.4-0.9-1.4-1.6-2.3-2.2
		L868.9,785.6z"/>
	<path class="st0" d="M900.3,780.5v-0.9c1.3-0.4,2.5-0.8,3.7-0.7c3,0.1,7.2,3.3,7.2,5.1c0,1.3-1.2,1.8-1.7,4.3c-1,4.8-2,12.3-2,18.5
		c0,6,1.7,8.3,7.5,8.3c7.9,0,15.3-4.9,19.3-10.3l1,0.7c-3.5,8.1-11,14.5-20.8,14.5c-7,0-10.9-3.5-10.9-12.6c0-7.5,1.1-18.3,1.1-21.8
		c0-2.2-0.3-3-1.2-3.6C902.7,781.3,901.8,781,900.3,780.5z"/>
	<path class="st0" d="M947.7,785.3c0.8,1.3,2,2.6,3.2,2.6c2.9,0,11.2-2.4,19.9-4.4c5.5-1.4,10.2-2.4,11.9-2.4c1.4,0,2.9,0.2,4,0.7
		c1.2,0.6,2,1.3,2,2.4c0,1-0.9,1.8-2.3,1.8c-1.2,0-2.8-0.2-4.4-0.2c-2.3,0-5.6,0.3-8.2,2c-2,1.3-6.6,5.7-6.6,14.9
		c0,6,2.8,8.3,5.8,9.3c3,1.2,5.8,1,7.5,1c1.5,0,3.5,1.3,3.5,2.9c0,1.9-2,2.4-4.3,2.4c-3.5,0-7.7-0.4-11-2.6
		c-3.3-2.3-5.3-5.5-5.3-11.6c0-6.7,2.7-13.1,8.4-17.2c0.4-0.3,0.4-0.6-0.2-0.5c-5.8,1.4-12.9,3.8-15.9,5.4c-1.1,0.6-2.1,1.6-3.3,1.6
		c-2.2,0-5.2-2.9-5.5-5c-0.2-1,0-2,0.2-2.8L947.7,785.3z"/>
	<path class="st0" d="M167.1,853c12,4.3,8.4,12.3,4.3,9.3c-0.6-2.6-2.5-5.7-4.3-8v23.9c-0.1,0.3-1.6,1.4-3.9,1.4h-0.9v-20
		c-2.5,4.1-5.7,7.8-9.5,10.9l-0.7-0.7c4.4-5.4,7.6-13.1,9.4-20.3h-8.5l-0.4-1.5h9.6v-8c-3.1,0.5-6.2,0.9-9.2,1.1l-0.2-0.7
		c6.2-1.8,14-5.1,17.8-7.5l5.4,4.8c-0.5,0.5-1.5,0.5-3,0c-1.7,0.5-3.8,1-6,1.4v8.9h2.5l2.6-3.5c0,0,3,2.5,4.7,4.2
		c-0.2,0.6-0.7,0.8-1.3,0.8h-8.4V853z M188,856.9c16,13,12.6,25.8,7.2,21c-0.3-2.2-1-4.5-1.8-7c-4.7,1.6-11,3.5-19.8,5.8
		c-0.3,0.7-0.9,1.1-1.5,1.2l-2.4-6.2c1.6,0,3.9-0.2,6.7-0.5c2.7-12.2,5.5-28.9,6.5-37.1l7.4,1.7c-0.1,0.7-0.7,1.4-2,1.5
		c-1.9,8.2-5.8,22.8-10.7,33.8c4.3-0.4,9.7-0.9,15.3-1.4c-1.6-4.4-3.8-9-5.7-12.6L188,856.9z"/>
	<path class="st0" d="M225.2,845.1c2.4-0.8,4.2-1.7,5.7-2.4c0.9-0.6,1.6-1,2-1c1.1,0,3.1,0.6,3.1,2.1c0,1.2-0.9,1.9-3.8,3
		c-1.3,0.6-4.8,1.7-8.2,2.5c-0.7,2.3-1.4,4.8-2.2,7.1c-2.1,6.1-5.2,14.8-7.3,18.4c-0.8,1.5-1.5,2.3-3,2.3c-1.3,0-2.2-1.4-2.2-3
		c0-1.7,0.9-2.3,2-4.2c2.2-3.4,4.8-8.2,7.1-14.8c0.5-1.5,1.1-3.2,1.5-4.9c-1.6,0.3-3.4,0.5-4.8,0.5c-3.5,0-5.8-1-7.5-5.8l0.7-0.5
		c2.4,1.9,3.9,2.6,6.1,2.6c2.2,0.1,4.5-0.3,6.4-0.7c0.6-2.5,1-4.8,1.1-6.2c0-1.2-0.2-1.6-1-2.2c-0.9-0.5-1.9-0.9-3-1.2l0-0.9
		c1.2-0.5,2.4-0.7,3.7-0.7c2.5,0.1,5.7,1.5,5.7,2.8c0,1.1-0.9,2.2-1.8,5.2L225.2,845.1z M227.6,863.7c0.2,1.4,0.6,3.2,1.6,4.6
		c1.9,2.8,4.8,3.8,9,3.8c4.7,0,6.5-1,7.7-1c1.6,0,3.5,0.8,3.5,2.5c0,1.2-1.3,2-3.1,2.4c-1.6,0.4-3.8,0.7-7,0.7
		c-6.9,0-11.4-2.5-12.4-7.7c-0.6-1.8-0.5-3.7-0.4-5.2L227.6,863.7z M229.9,853.1c2.5-1.5,6.3-2.7,10.1-2.7c3.3,0,5.5,0.8,6.7,1.3
		c1.4,0.8,2,1.8,2,2.8c0,1.2-0.9,1.7-2.7,1.8c-0.9,0-1.8,0.1-3.1,0.6c-1.9,0.5-4.2,1.3-5.9,2l-0.6-0.8c1.6-1,4.2-2.9,4.8-3.5
		c0.4-0.3,0.2-0.6-0.2-0.7c-1.2-0.4-2.9-0.6-4.4-0.6c-1.9,0-4,0.3-6.3,0.7L229.9,853.1z"/>
	<path class="st0" d="M270.5,836.2c1.3-0.5,2.4-0.8,3.5-0.8c2.9,0,6.1,1.6,6.1,2.8c0,1.2-1.1,1.6-1.6,3.5c-0.3,0.9-0.6,2-0.9,3.3
		c2.9-0.7,5.7-1.6,7.5-2.5c2-1,2.9-1.6,3.5-1.6c1.3,0,3.6,0.4,3.6,2.1c0,1.2-1.2,2-3.2,2.8c-2.1,0.8-6.9,2.3-12.4,3.1
		c-1,4-2.5,9.4-3.2,11.6c-0.2,0.9-0.2,1.1,0.7,0.4c4.9-3.3,9.2-5.5,14.3-5.5c7.8,0,11.4,4.7,11.4,10c0,9.6-13.2,13.2-25.4,12.1
		l-0.2-1.2c3.8-0.2,7.4-0.9,10.5-2c8.1-2.6,10.3-6.6,10.3-10.3c0-3.8-2.8-6.7-7-6.7c-5.5,0-11.2,5.1-14.6,9.1c-0.9,1-1.5,3-2.8,3
		c-1.4,0-2.8-2.5-2.8-4.3c0-0.8,0.4-1,1.1-2.6c1.1-2.4,2.8-9.1,3.8-13.3c-1,0-2,0.1-2.9,0.1c-4.3,0-6.1-0.8-8.6-6.4l0.8-0.6
		c2.7,2.5,4.9,3.4,8.1,3.4c1.1,0,2.2,0,3.4-0.2c0.5-2.4,0.9-4.6,1-5.8c0.1-1.1-0.2-1.4-1-1.8c-0.8-0.4-1.7-0.7-3-1L270.5,836.2z"/>
	<path class="st0" d="M332.6,874.8c12.5-2.6,17.8-9.4,17.8-18.3c0-9.1-6.2-15-14.5-15c-0.6,0-1.3,0.1-1.9,0.1c1.4,1.6,2.9,3.8,2.9,6
		c0,2.5-0.6,5.6-1.7,8.6c-2.2,6.2-7.9,15.7-13.6,15.7c-3.8,0-7.4-5.8-7.4-12.2c0-4.8,2.3-10.5,7.1-14.6c4.1-3.6,9.2-5.3,15.1-5.3
		c11,0,19.2,7.5,19.2,18c0,9-6.1,17.3-22.8,18.2L332.6,874.8z M331.9,842.1c-3.4,0.8-6.7,2.6-9.2,5.2c-3,3.2-4.8,6.9-4.8,11.1
		c0,4.4,1.9,8.1,4,8.1c3.1,0,7.6-7.4,9.4-11.4c1.2-2.7,2.1-6,2.1-8.5C333.4,844.8,332.7,843.4,331.9,842.1z"/>
	<path class="st0" d="M405.4,871.7c0,0,3.6,2.7,5.8,4.7c-0.2,0.6-0.7,0.8-1.4,0.8h-45.1l-0.5-1.5H385v-15h-14.4l-0.4-1.5H385v-12.8
		h-10c-3,5-6.5,9-10.4,12l-0.7-0.5c4.1-5.6,8.2-14.6,10.2-23.6l7.1,2.2c-0.2,0.6-0.8,1.1-2,1c-1,2.6-2.2,5.1-3.4,7.4h9.2v-12.1
		l7,0.7c-0.1,0.8-0.5,1.3-1.8,1.5v10h9.4l3.1-3.8c0,0,3.4,2.5,5.7,4.4c-0.2,0.6-0.7,0.8-1.4,0.8h-16.8v12.8h7.7l3.1-3.8
		c0,0,3.5,2.6,5.7,4.5c-0.1,0.6-0.7,0.8-1.4,0.8h-15.2v15h12L405.4,871.7z"/>
	<path class="st0" d="M417.4,844.6c12.4,0.9,9.4,9.9,4.8,7.2c-0.8-2.4-3.1-5.2-5.2-6.8L417.4,844.6z M432.8,843
		c-2.2,6-6.1,17.1-6.8,19.6c-0.5,1.6-0.9,3.2-0.9,4.5c0.1,2.5,1.8,4.4,1.7,8.7c-0.1,2.4-1.5,3.9-3.7,3.9c-1.1,0-2-0.9-2.3-2.5
		c0.8-5.2,0.6-9.5-0.6-10.3c-0.7-0.5-1.5-0.7-2.5-0.8v-1h2.3c0.7,0,0.9,0,1.5-1c1.1-1.9,1.1-1.9,10.5-21.3L432.8,843z M421.1,833.6
		c12.8,1.1,9.9,10.3,5.2,7.7c-0.9-2.6-3.5-5.5-5.6-7.3L421.1,833.6z M459.2,845.1c0,0,3.3,2.7,5.2,4.5c-0.1,0.6-0.7,0.8-1.4,0.8
		h-13.5v9.9h5.4l2.4-2.6l5,3.8c-0.3,0.4-1,0.9-2.1,1.1v15.3c0,0.4-2.4,1.4-4,1.4h-0.8v-4h-16.7v2.7c0,0.5-2,1.5-4,1.5h-0.7v-21.3
		l5,2.1h5.6v-9.9h-13.2l-0.4-1.4h13.6v-8.8c-4.2,0.5-8.5,0.9-12.6,1l-0.2-0.9c8.7-1.5,19.6-4.6,25.1-7.1l5,4.7
		c-0.5,0.5-1.6,0.5-3-0.1c-2.7,0.6-5.9,1.1-9.5,1.6v9.4h6.8L459.2,845.1z M438.8,861.7v12h16.7v-12H438.8z"/>
	<path class="st0" d="M505.7,847c2.2,0.3,3.4,0.6,4.5,1.2c1.6,1,3.4,3.1,3.4,4.8c0,1.3-1,1.3-3.3,2c-3.6,1.1-9.1,3-13.4,4.9
		c0.2,2.9,0.3,6,0.3,7.8c0,1.5-0.8,2.6-2.2,2.6c-1.3,0-2.4-0.7-2.4-2.4c0-1.3,0.2-3.5,0.3-5.9c-4.5,2.5-8,5.5-8,8.4
		c0,2.3,2.5,3.7,7.4,3.7c7.5,0,10.4-1.7,12.6-1.7c2.2,0,3.8,0.6,3.8,2.2c0,1.2-0.5,1.9-2.2,2.4c-2,0.6-7.1,1.4-11.3,1.4
		c-9.6,0-12.7-3.3-12.7-7.5c0-4.2,5-8.5,10.5-11.9c-0.2-4-0.9-5.6-3.4-5.6c-2.6,0-5.8,3.3-7.8,5.5c-1.8,2.1-3.3,4.9-4.9,5
		c-1.4,0.1-2.1-1.2-2.2-2.8c0-1.6,1.8-2.7,3.8-4.9c2.7-2.7,5.1-5.9,6.8-9c-1.3,0.1-2.5,0.2-3.8,0.2c-4.1,0-5-2-6.7-5.9l0.9-0.5
		c1.9,1.8,3.2,3,6.8,2.9c1.5-0.1,3.1-0.3,4.8-0.6c0.7-1.6,1.2-2.9,1.4-3.8c0.2-0.9,0-1.3-0.6-1.7c-0.8-0.7-2-1-3.2-1.3v-0.8
		c1.1-0.4,2.5-0.8,3.4-0.8c1.9-0.1,5.6,0.8,5.6,2.3c0.1,0.7-0.4,1.1-0.9,2.1c-0.3,0.8-0.9,1.9-1.5,3c2.1-0.6,4-1.3,5.2-1.8
		c1.9-0.9,2.3-1.4,3-1.4c1.5,0,2.8,0.5,2.8,1.9c0,0.7-0.5,1.4-1.6,1.9c-1.8,1-6.6,2.6-11.8,3.6c-1,1.8-2.3,3.9-4.3,6.5
		c-0.2,0.3-0.1,0.6,0.4,0.3c1.7-1,3.5-1.9,5.5-1.9c3.1,0,5.1,2,5.7,5.4c3.8-2,8.3-3.9,10.9-5.4c0.9-0.5,1-1,0.3-1.8
		c-0.5-0.7-1.5-1.3-2.5-1.8L505.7,847z"/>
	<path class="st0" d="M563.5,853.4c-0.5,0.5-1,0.7-2.4,0.7c-2.7,5.1-6.3,9.7-10.9,13.5c5.8,3.5,12.8,5.8,20.1,7.2l-0.1,0.6
		c-2.2,0.4-3.8,1.9-4.5,4.1c-7.2-2-13.5-5-18.7-9.4c-6.2,4.3-13.9,7.5-23.4,9.4l-0.4-0.8c8.3-2.6,15.4-6.4,21.1-11.1
		c-3.8-3.9-6.8-8.7-8.7-14.6h-7.7l-0.5-1.5H544v-8.7h-19.5l-0.4-1.5H544v-8.6l6.7,0.6c-0.1,0.7-0.5,1.2-1.9,1.4v6.6h11.7l3-3.9
		c0,0,3.5,2.7,5.7,4.6c-0.2,0.6-0.7,0.8-1.4,0.8h-19.1v8.7h6.8l3.1-2.8L563.5,853.4z M536.6,853.1c2.3,5,5.8,9,10.2,12.2
		c3.8-3.6,6.8-7.7,8.8-12.2H536.6z"/>
	<path class="st0" d="M585.6,847.7c0.8,1.5,1.8,2.7,3,2.7c2.2,0,10.4-2,13.5-2.9c1.2-0.4,1.7-1.2,2.5-1.2c1.7,0,5.5,2.2,5.5,4.1
		c0,1.1-2,1.7-3.7,2.8c-2.2,1.5-7.1,5.7-9.9,8.4c1-0.3,2.2-0.4,3.2-0.4c2,0,3.6,1.1,4.2,3.1c0.5,1.7,1,3.8,1.4,5.2
		c0.6,2.1,1.3,2.8,3.3,2.8c5.2,0,6.1-1.1,8.1-1.1c2.3,0,3.9,1.1,3.9,2.7c0,2.4-5.9,3-10.6,3c-5.7,0-7.6-1.5-8.3-5.4
		c-0.3-1.8-0.6-3.9-1-5.7c-0.3-1.6-1.2-2.4-2.6-2.4c-1.7,0-3.1,0.9-4.6,2.3c-2.9,2.6-5.6,6.5-7.5,8.9c-0.9,1.2-1.8,1.9-2.9,1.9
		s-2.2-0.8-2.2-2.2c0-2.1,1-3,2.6-4.4c2.1-2,6.2-5.7,8.7-8.1c3.8-3.6,8.4-8.2,10.4-10.5c0.9-1.1,0.4-1.6-0.9-1.3
		c-1.8,0.5-5.9,2-8.5,3.3c-1.6,0.9-2.2,1.8-3.3,1.8c-2.5,0-4.6-2.2-5.1-3.9c-0.4-1.1-0.3-2.2,0-3.4L585.6,847.7z M590.5,834.6
		l0.6-0.6c3.3,2.2,6.2,3.1,9.1,3.2c1.8,0,2.7-0.5,3.6-0.5c2,0,4.2,1.6,4.2,3.6c0,0.9-0.6,1.7-2.1,1.7c-1.4,0-2.6-0.2-3.9-0.1
		c-2.1,0.1-6.4,1.4-8.6,2l-0.4-1c2.1-0.9,4.3-2,5.8-2.7C597.1,839.7,593.3,838.7,590.5,834.6z"/>
	<path class="st0" d="M629.4,866.4c6.5,1.5,9.9,3.9,11.7,6.6c0.9,1.3,1.1,2.3,1.1,3.4c0,1.8-1.1,2.9-2.8,2.9c-1.3,0-2.1-0.7-2.9-2.2
		c-1.5-3.1-3.2-6.5-7.7-9.9L629.4,866.4z"/>
	<path class="st0" d="M159.8,906.4c3,8.9,0.7,14.9-1.9,17.5c-1.7,1.8-4.1,2.1-5.2,0.6c-1-1.3-0.4-2.8,0.9-3.9
		c2.8-2.2,5.6-7.7,5.4-14.2H159.8z M172.6,902.4c-0.1,0.7-0.6,1.2-1.8,1.4v25.4c0,1.2,0.5,1.6,2.8,1.6h6c2.5,0,4.4-0.1,5.3-0.2
		c0.8-0.1,1.2-0.3,1.5-0.9c0.6-1,1.4-4.3,2.3-8.2h0.6l0.2,8.5c1.6,0.6,2,1.2,2,2.1c0,2.4-2.2,3.3-12.2,3.3h-6.5c-5.3,0-6.9-1-6.9-5
		v-28.7L172.6,902.4z M178.6,902.6c-1.5-2.9-5.5-7.4-11.9-10.5l0.3-0.7C188,893.7,183.9,905.7,178.6,902.6z M194.3,923
		c0-4.6-1.5-11.9-6.4-16.7l0.4-0.5C206,914.4,198.8,928.8,194.3,923z"/>
	<path class="st0" d="M226.7,932.4c12.5-2.6,17.8-9.4,17.8-18.3c0-9.1-6.2-15-14.5-15c-0.6,0-1.3,0.1-1.9,0.1c1.4,1.6,2.9,3.8,2.9,6
		c0,2.5-0.6,5.6-1.7,8.6c-2.2,6.2-7.9,15.7-13.6,15.7c-3.8,0-7.4-5.8-7.4-12.2c0-4.8,2.3-10.5,7.1-14.6c4.1-3.6,9.2-5.3,15.1-5.3
		c11,0,19.2,7.5,19.2,18c0,9-6.1,17.3-22.8,18.2L226.7,932.4z M226.1,899.7c-3.4,0.8-6.7,2.6-9.2,5.2c-3,3.2-4.8,6.9-4.8,11.1
		c0,4.4,1.9,8.1,4,8.1c3.1,0,7.6-7.4,9.4-11.4c1.2-2.7,2.1-6,2.1-8.5C227.5,902.4,226.9,901,226.1,899.7z"/>
	<path class="st0" d="M299.7,912.9c0,0,3.6,2.6,5.7,4.5c-0.1,0.6-0.7,0.8-1.4,0.8h-19.7v17.5c0,0.4-1.5,1.4-4,1.4h-0.9v-19h-20.4
		l-0.4-1.5h20.8v-20.9h-18l-0.5-1.5h33.5l3.1-3.7c0,0,3.6,2.6,5.7,4.4c-0.1,0.6-0.7,0.8-1.4,0.8h-17.6v20.9h12.2L299.7,912.9z
		 M265.8,898.8c13.2,7.6,8.4,18,3.7,13.6c-0.3-4.4-2.3-9.6-4.3-13.3L265.8,898.8z M288,913.6c1.9-3.7,4.2-9.6,5.8-14.9l6.7,2.5
		c-0.2,0.6-0.9,1-2,0.9c-2.8,4.6-6.4,9-9.8,12L288,913.6z"/>
	<path class="st0" d="M323.3,912c10.7,3.9,6.8,11,3.2,8.1c-0.4-2.3-1.9-4.9-3.2-7v22.7c0,0.4-1.5,1.4-3.6,1.4h-0.8v-19.1
		c-2.1,3.7-4.7,7.1-7.8,10l-0.7-0.6c3.7-5.5,6.2-13,7.7-20.1H312l-0.4-1.5h7.4v-8c-2.5,0.5-5.1,1-7.5,1.3l-0.2-0.7
		c5-1.9,11.2-5.3,14.2-7.7l5.5,4.5c-0.6,0.5-1.5,0.6-3,0.2c-1.3,0.5-2.9,1-4.7,1.4v9.1h1.2l2.4-3.3c0,0,2.7,2.3,4.2,4
		c-0.2,0.6-0.6,0.8-1.3,0.8h-6.5V912z M332.3,924.2c1.5,4.9-0.2,8.3-2.1,9.5c-1.3,0.9-3.1,0.8-3.7-0.7c-0.5-1.3,0.3-2.4,1.5-3
		c1.7-0.9,3.5-3.3,3.5-5.8H332.3z M329.3,896.4c7.4-1.4,16.7-4.1,21.5-6.1l5.1,4.4c-0.5,0.5-1.6,0.6-3,0.1
		c-5.9,1.2-15.6,2.2-23.5,2.5L329.3,896.4z M356.3,898.3c-0.2,0.5-0.8,1-1.8,0.8c-1.5,1.7-4.3,4.6-7,6.8h4l2.1-2.3l4,3.6
		c-0.4,0.4-1.1,0.7-1.8,0.8v12.5c-0.1,0.3-1.5,1.6-3.6,1.6h-0.9v-2.2h-19.4l-0.5-1.5h19.9v-5h-18.6l-0.5-1.4h19.1v-4.7H332l-0.5-1.5
		H347l-0.3-0.2c1.4-2.9,3.1-7.5,3.7-9.8L356.3,898.3z M332.2,897.4c8.8,3.5,4.8,9.7,1.6,6.9c-0.1-2.2-1.2-4.9-2.2-6.6L332.2,897.4z
		 M350.8,932.1c1.2,0.5,1.5,0.9,1.5,1.7c0,1.7-1.7,2.5-8.4,2.5h-4.3c-3.9,0-4.6-0.9-4.6-3.7v-10l5.5,0.6c-0.1,0.7-0.6,1.1-1.5,1.2
		v7.3c0,0.6,0.2,0.8,1.6,0.8h3.6h3.4c0.5-0.1,0.8-0.1,1.1-0.4c0.4-0.5,0.9-2,1.3-3.5h0.6L350.8,932.1z M339,921.2
		c11.2-0.1,9.7,8,5.5,6.4c-1.1-2.1-3.7-4.6-5.9-5.9L339,921.2z M340,896.8c8.4,4.2,3.7,10.1,0.9,6.8c0.1-2.2-0.8-4.8-1.5-6.6
		L340,896.8z M350.9,923.9c11.4,4.3,7.5,12.5,3.6,9.3c-0.3-3-2.3-6.7-4.2-8.9L350.9,923.9z"/>
	<path class="st0" d="M399.9,904.6c2.2,0.3,3.4,0.6,4.5,1.2c1.6,1,3.4,3.1,3.4,4.8c0,1.3-1,1.3-3.3,2c-3.6,1.1-9.1,3-13.4,4.9
		c0.2,2.9,0.3,6,0.3,7.8c0,1.5-0.8,2.6-2.2,2.6c-1.3,0-2.4-0.7-2.4-2.4c0-1.3,0.2-3.5,0.3-5.9c-4.5,2.5-8,5.5-8,8.4
		c0,2.3,2.5,3.7,7.4,3.7c7.5,0,10.4-1.7,12.6-1.7c2.2,0,3.8,0.6,3.8,2.2c0,1.2-0.5,1.9-2.2,2.4c-2,0.6-7.1,1.4-11.3,1.4
		c-9.6,0-12.7-3.3-12.7-7.5c0-4.2,5-8.5,10.5-11.9c-0.2-4-0.9-5.6-3.4-5.6c-2.6,0-5.8,3.3-7.8,5.5c-1.8,2.1-3.3,4.9-4.9,5
		c-1.4,0.1-2.1-1.2-2.2-2.8c0-1.6,1.8-2.7,3.8-4.9c2.7-2.7,5.1-5.9,6.8-9c-1.3,0.1-2.5,0.2-3.8,0.2c-4.1,0-5-2-6.7-5.9l0.9-0.5
		c1.9,1.8,3.2,3,6.8,2.9c1.5-0.1,3.1-0.3,4.8-0.6c0.7-1.6,1.2-2.9,1.4-3.8c0.2-0.9,0-1.3-0.6-1.7c-0.8-0.7-2-1-3.2-1.3v-0.8
		c1.1-0.4,2.5-0.8,3.4-0.8c1.9-0.1,5.6,0.8,5.6,2.3c0.1,0.7-0.4,1.1-0.9,2.1c-0.3,0.8-0.9,1.9-1.5,3c2.1-0.6,4-1.3,5.2-1.8
		c1.9-0.9,2.3-1.4,3-1.4c1.5,0,2.8,0.5,2.8,1.9c0,0.7-0.5,1.4-1.6,1.9c-1.8,1-6.6,2.6-11.8,3.6c-1,1.8-2.3,3.9-4.3,6.5
		c-0.2,0.3-0.1,0.6,0.4,0.3c1.7-1,3.5-1.9,5.5-1.9c3.1,0,5.1,2,5.7,5.4c3.8-2,8.3-3.9,10.9-5.4c0.9-0.5,1-1,0.3-1.8
		c-0.5-0.7-1.5-1.3-2.5-1.8L399.9,904.6z"/>
	<path class="st0" d="M458.9,915.3c0,0,3.4,2.6,5.4,4.5c-0.2,0.6-0.7,0.8-1.4,0.8h-10.3c-1,7.3-2.4,12.5-4.5,14.4
		c-1.7,1.5-3.9,2.1-7.4,2.1c0-1.4-0.3-2.5-1.3-3.3c-1.1-0.9-4-1.7-6.8-2.1l0.1-0.7c3.2,0.3,8.3,0.7,9.7,0.7c1.1,0,1.6-0.2,2.2-0.6
		c1.2-1,2.2-5,3-10.4H418l-0.5-1.5h30.1c0.4-2.6,0.6-5.4,0.8-8.4h-17.2c-0.3,1.2-0.5,2.2-0.8,3.2c-1.1,0.7-3.2,0.9-5.3,0.3
		c1.8-5.7,4.5-18.5,5-23.9l6.7,0.8c-0.1,0.7-0.6,1.2-1.9,1.4c-0.3,1.7-0.8,4.3-1.3,7.2H450l3.1-3.8c0,0,3.4,2.6,5.6,4.5
		c-0.2,0.5-0.7,0.8-1.4,0.8h-23.9c-0.6,2.7-1.2,5.6-1.7,8.2h16.3l2.8-2.7l4.8,4.1c-0.4,0.4-1,0.7-2.1,0.9c-0.2,2.7-0.4,5.2-0.7,7.6
		h3.2L458.9,915.3z"/>
	<path class="st0" d="M479.8,905.3c0.8,1.5,1.8,2.7,3,2.7c2.2,0,10.4-2,13.5-2.9c1.2-0.4,1.7-1.2,2.5-1.2c1.7,0,5.5,2.2,5.5,4.1
		c0,1.1-2,1.7-3.7,2.8c-2.2,1.5-7.1,5.7-9.9,8.4c1-0.3,2.2-0.4,3.2-0.4c2,0,3.6,1.1,4.2,3.1c0.5,1.7,1,3.8,1.4,5.2
		c0.6,2.1,1.3,2.8,3.3,2.8c5.2,0,6.1-1.1,8.1-1.1c2.3,0,3.9,1.1,3.9,2.7c0,2.4-5.9,3-10.6,3c-5.7,0-7.6-1.5-8.3-5.4
		c-0.3-1.8-0.6-3.9-1-5.7c-0.3-1.6-1.2-2.4-2.6-2.4c-1.7,0-3.1,0.9-4.6,2.3c-2.9,2.6-5.6,6.5-7.5,8.9c-0.9,1.2-1.8,1.9-2.9,1.9
		s-2.2-0.8-2.2-2.2c0-2.1,1-3,2.6-4.4c2.1-2,6.2-5.7,8.7-8.1c3.8-3.6,8.4-8.2,10.4-10.5c0.9-1.1,0.4-1.6-0.9-1.3
		c-1.8,0.5-5.9,2-8.5,3.3c-1.6,0.9-2.2,1.8-3.3,1.8c-2.5,0-4.6-2.2-5.1-3.9c-0.4-1.1-0.3-2.2,0-3.4L479.8,905.3z M484.6,892.2
		l0.6-0.6c3.3,2.2,6.2,3.1,9.1,3.2c1.8,0,2.7-0.5,3.6-0.5c2,0,4.2,1.6,4.2,3.6c0,0.9-0.6,1.7-2.1,1.7c-1.4,0-2.6-0.2-3.9-0.1
		c-2.1,0.1-6.4,1.4-8.6,2l-0.4-1c2.1-0.9,4.3-2,5.8-2.7C491.2,897.3,487.5,896.3,484.6,892.2z"/>
	<path class="st0" d="M525.8,900.5c0.8,1.3,2,2.6,3.2,2.6c2.9,0,11.2-2.4,19.9-4.4c5.5-1.4,10.2-2.4,11.9-2.4c1.4,0,2.9,0.2,4,0.7
		c1.2,0.6,2,1.3,2,2.4c0,1-0.9,1.8-2.3,1.8c-1.2,0-2.8-0.2-4.4-0.2c-2.3,0-5.6,0.3-8.2,2c-2,1.3-6.6,5.7-6.6,14.9
		c0,6,2.8,8.3,5.8,9.3c3,1.2,5.8,1,7.5,1c1.5,0,3.5,1.3,3.5,2.9c0,1.9-2,2.4-4.3,2.4c-3.5,0-7.7-0.4-11-2.6
		c-3.3-2.3-5.3-5.5-5.3-11.6c0-6.7,2.7-13.1,8.4-17.2c0.4-0.3,0.4-0.6-0.2-0.5c-5.8,1.4-12.9,3.8-15.9,5.4c-1.1,0.6-2.1,1.6-3.3,1.6
		c-2.2,0-5.2-2.9-5.5-5c-0.2-1,0-2,0.2-2.8L525.8,900.5z"/>
	<path class="st0" d="M599,892.9l0.6-0.8c1.4,0.2,2.6,0.4,3.7,1c2.4,1.3,4.6,3.8,4.6,5.4c0,1.3-1.3,1.7-3.3,3.2
		c-3.5,2.6-9.8,8-11.9,10.1c-1.4,1.4-1.8,2-1.8,2.6c0,0.7,0.7,1.4,1.8,2.2c5,3.7,10.1,7,13.6,11.4c1.6,2,2.4,3.8,2.4,5.4
		c0,1.5-0.8,2.9-2.8,2.9c-1.1,0-2-0.7-2.5-1.6c-0.6-1.1-1.1-2.3-2.5-4.4c-2.2-3.3-5.9-7.1-11.9-12.2c-1.3-1.1-1.9-2.2-1.9-3.3
		c0-1,0.5-1.9,1.5-3c2.6-3.1,9.9-10.6,12-13.3c0.8-1,1.1-1.5,1.1-2.2C601.7,895.4,600.8,894.3,599,892.9z"/>
	<path class="st0" d="M677.2,924.2c-2,3.5-5.7,7.4-10.8,7.4c-3.8,0-6.3-2.3-6.3-7.2c0-5.8,2.1-11.4,2.1-16.9c0-3.1-0.9-4.8-3.3-4.8
		c-4.3,0-9.9,4.4-14.4,9.8l-0.1,0.7c-0.4,4.9,0.1,10.5,0.4,13.6c0.2,1.8,0.5,3,0.5,4.2c0,2.4-1.2,4.8-2.9,4.8c-1.4,0-2-0.8-2.2-2.1
		c-0.3-1.3-0.5-2.4-1-3.7c-0.5-1.2-1.7-3.4-2.9-5.2l-2.3,3.4c-0.8,1.2-1.4,2.1-2.5,2.2c-1,0-1.8-0.9-1.8-2.4c0-1.2,0.3-2.1,1.3-3.2
		c2.2-2.3,7.2-8.4,10.7-13.7c0.1-1.2,0.2-2.3,0.3-3.4c-1.5,0.8-3,1.7-3.9,2.3c-1.1,0.7-1.6,2-2.5,2c-1.9,0-4.4-2.3-5-4.2
		c-0.2-0.8-0.2-1.8-0.1-2.6l0.8-0.3c0.8,1.4,1.6,2.3,2.7,2.3c1.4,0,6-2.2,8.5-3.5c0.4-3,0.7-5.4,0.7-6.7c0-1.1-0.2-1.4-1.1-1.8
		c-0.7-0.4-1.7-0.7-2.9-1l0-0.9c1.2-0.5,2.3-0.8,3.6-0.8c2.5,0,5.5,2.7,5.5,4.3c0,1.2-0.6,1.8-1.2,3.5c-0.3,0.7-0.6,1.7-0.9,3
		c0.9,0.6,1.8,1.7,1.8,2.1c0,0.7-0.5,1.1-1.2,1.9l-0.1,0.1c4-3.5,9.1-7.1,13.6-7.1c4.3,0,6.4,2.6,6.4,7.5c0,4.4-2,10.3-2,15.6
		c0,2.7,1,3.7,3.3,3.7c3.1,0,5.6-1.2,8.6-3.6L677.2,924.2z M641.4,917.2c-1.4,2.1-2.9,4.3-4.3,6.5c1.2,1.4,2.7,3.1,3.3,3.7
		c0.6,0.6,1,0.5,1-0.5C641.3,924.9,641.2,921.1,641.4,917.2z"/>
	<path class="st0" d="M694.2,895.2c0.8,1.5,1.8,3,3.1,3c1.9,0,7.7-1.4,10.2-2.2c1.6-0.5,1.7-1.2,2.6-1.2c2,0,5.5,2.7,5.5,4.5
		c0,1.2-1.5,1.5-3.2,2.8c-3,2.2-9.4,8-11.5,10.2c-0.5,0.5-0.2,0.9,0.3,0.7c2-0.7,4.9-1.7,8.6-1.7c6.7,0,12.3,4.3,12.2,11.6
		c0,6.6-5.9,11.9-15.9,11.9c-5.8,0-9.9-2.5-9.9-6.5c0-3.1,2.7-5.2,6.3-5.2c3.5,0,7.5,2.1,8.5,7.1c4.6-1.6,6.6-4.9,6.7-8.6
		c0.1-4.4-3-8.3-9-8.3c-7,0-11.9,4.8-16.2,10.3c-1,1.4-1.5,1.7-2.5,1.7c-0.9,0-1.9-1.1-1.8-2.7c0.1-1.2,0.7-2.1,2.2-3.5
		c6.2-6.3,16.2-15.8,18.5-19.3c0.7-0.9,0.3-1.2-0.5-1.1c-1.8,0.4-5.4,2-7.4,3c-1,0.5-1.8,1.3-2.7,1.3c-2.5,0-4.6-2.9-4.8-4.5
		c-0.2-1-0.1-2,0.2-3.1L694.2,895.2z M706.9,931c-0.7-3.6-2.9-5.7-5.7-5.7c-1.9,0-3.1,1-3.1,2.6c0,1.9,2.2,3.2,6.5,3.2
		C705.4,931.1,706.1,931,706.9,931z"/>
	<path class="st0" d="M736.6,900.6c0.8,1.3,2,2.6,3.2,2.6c2.9,0,11.2-2.4,19.9-4.4c5.5-1.4,10.2-2.4,11.9-2.4c1.4,0,2.9,0.2,4,0.7
		c1.2,0.6,2,1.3,2,2.4c0,1-0.9,1.8-2.3,1.8c-1.2,0-2.8-0.2-4.4-0.2c-2.3,0-5.6,0.3-8.2,2c-2,1.3-6.6,5.7-6.6,14.9
		c0,6,2.8,8.3,5.8,9.3c3,1.2,5.8,1,7.5,1c1.5,0,3.5,1.3,3.5,2.9c0,1.9-2,2.4-4.3,2.4c-3.5,0-7.7-0.4-11-2.6
		c-3.3-2.3-5.3-5.5-5.3-11.6c0-6.7,2.7-13.1,8.4-17.2c0.4-0.3,0.4-0.6-0.2-0.5c-5.8,1.4-12.9,3.8-15.9,5.4c-1.1,0.6-2.1,1.6-3.3,1.6
		c-2.2,0-5.2-2.9-5.5-5c-0.2-1,0.1-2,0.2-2.8L736.6,900.6z M767.9,907.6c2.7,0.9,4.9,2,6.3,3.3c1.1,1.1,1.6,2,1.5,2.9
		c0,1-0.6,1.6-1.6,1.6c-0.8,0-1.4-0.9-2.3-2.2c-1-1.3-2.3-3-4.6-4.9L767.9,907.6z M772.4,904.3c2.7,0.8,4.9,1.7,6.2,2.7
		c1.3,1.1,1.8,2,1.8,3.1c0,1-0.6,1.6-1.5,1.6s-1.5-0.9-2.5-2.2c-1-1.2-2.2-2.6-4.6-4.4L772.4,904.3z"/>
	<path class="st0" d="M795.9,895.7v-0.9c1.3-0.4,2.5-0.8,3.7-0.7c3,0.1,7.2,3.3,7.2,5.1c0,1.3-1.2,1.8-1.7,4.3c-1,4.8-2,12.3-2,18.5
		c0,6,1.7,8.3,7.5,8.3c7.9,0,15.3-4.9,19.3-10.3l1,0.7c-3.5,8.1-11,14.5-20.8,14.5c-7,0-10.9-3.5-10.9-12.6c0-7.5,1.1-18.3,1.1-21.8
		c0-2.2-0.3-3-1.2-3.6C798.4,896.5,797.4,896.2,795.9,895.7z"/>
	<path class="st0" d="M866.3,912.9c1.1,0,3.3-0.4,4.7-1c1.3-0.5,2.1-1,2.4-1c1.5,0,3.4,0.4,3.4,2c0,0.8-0.4,1.3-1.5,1.8
		c-1,0.4-3.7,1.1-6.2,1.1c-1,0-2.2-0.6-3.2-1.2c0,1.1-0.1,2.1-0.1,2.8c0,1.7,0.2,5,0.4,7.7c2.2,0.5,4.1,1.2,5.6,1.8
		c2.8,1.4,5.7,3.5,5.7,5.8c0,1.2-0.7,1.8-1.7,1.8c-1.8,0-3.2-2.6-6.9-4.7c-0.7-0.4-1.4-0.8-2.2-1.1c0.1,0.4,0.1,0.8,0.1,1.2
		c0,3-1.7,5.8-7.7,5.8c-4.2,0-7.4-1.9-7.4-5.1c0-4.1,4.6-6,10-6c0.5,0,1,0,1.5,0.1c-0.1-3-0.3-6-0.4-8.2c-0.1-2.2-0.2-7.8-0.3-8.8
		c-0.1-0.8-0.3-1.1-1-1.4c-0.9-0.5-2.2-0.7-2.9-0.8l-0.1-0.5c1-0.6,2.3-1.3,3.6-1.3c2.6,0,5.4,1.8,5.4,3.2c0,1-0.7,1.3-1,2.4
		c-0.2,0.7-0.4,2-0.5,3.5H866.3z M863.1,927.7c-1.2-0.2-2.4-0.4-3.8-0.4c-3.7,0-5.8,1.4-5.8,2.9c0,1.4,1.6,2.2,3.8,2.2
		C861.3,932.5,863,931.1,863.1,927.7z"/>
	<path class="st0" d="M903.6,906.2c0.7,1.7,1.8,3.1,2.9,3.1c2.7,0,8.8-3.9,14.2-3.9c5.8,0,9.6,4.3,9.6,11.4
		c0,11.5-8.8,17.7-23.6,19.6l-0.4-1.1c12.1-3.2,19-9.2,19-19.2c0-5.2-1.9-8.4-5-8.4c-3.2,0-7.4,3.1-9.4,4.7
		c-1.1,0.9-2.3,2.3-3.7,2.3c-1.9,0-4.1-2.5-4.7-4.1c-0.4-1.2,0-2.8,0.3-4.2L903.6,906.2z M907.1,892.4l0.6-0.6
		c3.3,2.3,6.6,2.7,9.3,2.7c2.1,0,3.6-0.6,4.5-0.6c2.2,0,4.9,1.3,4.9,3c0,0.9-0.7,1.4-2.1,1.5c-1,0-2.8,0.1-4.2,0.5
		c-2.8,0.6-7.3,2.3-9.7,3.2l-0.5-0.9c2.1-1.2,4.6-2.7,6-3.6C913.8,897.1,909.7,896.6,907.1,892.4z"/>
</g>
<rect class="st1" width="1920" height="1080"/>
</svg>
