<?xml version="1.0" encoding="utf-8"?>
<!-- Generator: Adobe Illustrator 21.1.0, SVG Export Plug-In . SVG Version: 6.00 Build 0)  -->
<svg version="1.1" id="レイヤー_1" xmlns="http://www.w3.org/2000/svg" xmlns:xlink="http://www.w3.org/1999/xlink" x="0px"
	 y="0px" viewBox="0 0 1920 1080" style="enable-background:new 0 0 1920 1080;" xml:space="preserve">
<style type="text/css">
	.st0{fill:#FFFFFF;}
	.st1{opacity:0;fill:#FFFFFF;}
</style>
<g>
	<path class="st0" d="M203.2,504.2c-1.9-0.1-2.3,0.1-4.9,2.4c-0.6,0.5-9.2,6.6-10.5,7.4c-1.1,0.5-3.5,0.6-4.5,0.6
		c-2.9,0-10.2-5.8-10.2-13.9c0-0.4,0-1,0.5-2.4c2.1-0.4,2.6,0.3,5.8,3.5c0.9,1,2.8,2,4.4,2h4.5c2.8-0.4,8.7-4.3,13.8-7.5
		c0.9-0.5,1.3-0.6,2-0.6c3,0,3.3,0.3,5.8,2.1c0.5,0.4,5.4,3.9,5.9,4.5c0.4,0.5,0.8,1.6,0.8,3c0,2-0.5,2.9-1.6,4.5
		c-0.3,0.3-1.5,1.3-1.8,1.4l-8.4,7.9c-1.5,1.5-3.6,4-5.4,5.3c-2.3,1.8-11.9,9.9-14.1,11.3c-2,1.4-2.6,1.8-3.3,2.3v0.5
		c0.5,0,3.9-1.3,4.5-1.5l9.9-3.4c0.4-0.3,9.9-3.3,10-3.4c0.8-0.5,5.9-3.6,6.4-3.6c6.1,0,11.4,6,11.4,7.9c0,1.5-0.4,1.6-3.9,3.1
		c-1.6,0.6-15.2,6.4-19.6,20.1c-0.6,1.9-1.4,6.9-1.4,7.8c0,8.5,6.4,12,9.4,13.5c2.5,1.4,2.8,1.5,3,2.1c0.9,1.6,1.4,5.1,1.4,6.8
		c0,3.5-0.9,3.8-3.3,3.8c-1.9,0-8.3-5.5-8.8-6.4c-2.3-3.1-5.1-7.2-5.8-9.2c-0.1-0.5-1.8-5.3-1.8-5.6c0-7.8,2-15.8,2.1-16.2
		c0.3-0.8,2.3-5.9,2.6-6.5c1-1.8,5.6-10.3,6.6-11.9l-0.1-0.4c-2,0.3-20.6,8.3-23.6,9.7c-1.1,0.5-6.4,3.6-7.5,4.3
		c-0.6,0.4-4.3,2.3-4.9,2.6c-0.9,0.6-4.1,2.9-4.9,2.9c-0.9,0-1.6-0.4-3.6-2.4c-0.6-0.6-0.8-4.3-0.8-5.3c0-5.3,1.4-5.4,7.3-6.1
		c9-1.1,28.5-23.1,36.3-36.1V504.2z"/>
	<path class="st0" d="M310.8,541.2V552c0,15.9,0.6,21,9.2,23.2c7.5,1.8,8.8,2.2,8.8,4.2c0,1.4-7.8,1.9-8.5,1.9
		c-6.3,0-9.6-1.4-10-1.9c-4.4-4.9-5-5.6-5.9-9.1c-0.7-3.1-1.4-9.6-1.3-12.8c0.1-3.1,0.6-12.2,0.6-14.2c0-1.6,0.2-8.2,0.2-9.7
		c0-10.2,0-11.2-1.8-13c-1.7,0.5-3.3,1.3-4.4,2.4c-8.2,7.6-10.8,10.6-18,19.4c-0.5,0.5-13.6,15.4-14.6,17.3
		c-0.5,0.7-0.5,1.9-0.5,2.3c0,0.7,0.1,3.9,0.1,4.5c0,1.2,0.6,6.6,0.6,7.6c0,1,0.2,5,0.2,5.9c0,0.4-0.5,9.8-3.6,9.8
		c-2.6,0-5.5-8.1-5.5-9.1c0-1.4,0.5-7.9,0.5-9.2c-1.3,0.5-6,9.2-7.5,10.4c-0.2,0.2-0.5,0.5-0.8,0.6c-2.3-1-2.5-1.2-3.9-4.1
		c-0.5-0.8-0.6-5.1-0.6-6.3c0-5.1,1.2-6.1,3.7-8.1c0.4-0.2,0.7-1.7,1-1.9c0.5-0.4,4.1-7.8,4.8-9.2c3.7-7.5,6-12.2,5.9-15.1
		c-1.3-0.1-1.8,0-6.7,1.7c-1.2,0.4-3.3,0.6-4.7,0.6c-1.4,0-5.6-0.6-5.6-2c0-1.2,1.1-1.7,4.8-2.9c3.3-1.2,9.9-6,13-9
		c0.4-0.2,1.9-1.2,2.2-1.6c1.4-2.6,1.7-8.7,1.7-9.1c0-2-0.2-3-1.3-8.1c-0.1-0.7-1.3-4.1-1.4-4.7c0.2-1.7,0.6-2.6,2.3-2.6
		c4.9,0,9.3,8.7,9.3,13c0,0.6-1.9,10-1.9,12.1c0,0.8,1.2,4.7,1.2,5.4c0,1.8-6.1,16.5-6.1,18.6c0,0.2,0,0.4,0.4,0.5
		c1.4-0.8,1.6-1,2.9-2.9c0.1-0.1,0.8-0.6,1.2-1c4.2-4.2,5.3-5.4,9.3-10.2c0.1-0.1,0.7-0.5,1.1-0.7c2.2-2.2,5.3-5.7,7.5-7.8
		c2.9-2.5,7.4-6.5,8.5-7.6c0.2-0.2,5.1-3.8,8.4-3.8c1.1,0,2.2,0.7,4.3,2.4c0.7,0.6,2,3.8,1.8,8.6L310.8,541.2z"/>
	<path class="st0" d="M352.6,552l-1,9.6c-0.1,1.5,0,7.7,0,9c0,0.8,0.2,1.1,1.1,2.7c0.3,0.1,0.6,0.2,1.1,0.1c0.5-0.8,3.1-4,3.3-4.8
		c0.4-1,1.2-1.6,1.5-1.6c0.2,0,0.6,0.2,0.8,0.3c0.1,0.1,0.3,0.9,0.3,1.2c0,0.8-0.5,4.5-0.5,4.8c0,0.4-2.6,8.9-2.6,10.6
		c0,7.5,0,9-1.4,9c-1.3,0-1.9-0.6-4.3-3.5c-3.8-4.6-4.6-6.1-6.1-11.3c-0.2-0.6-0.3-1.4-0.3-2.3c0-0.5,0.8-3,0.9-3.4
		c0.2-1.2,0.4-4.3,0.5-6.5c0.1-1.5,0.9-7.8,0.9-9.1c0-3.9,0.1-4.4,0.9-9.6c0.2-1.2,0.3-6.8,0.5-7.9c0.3-2.4,1.2-10.6,1.2-12.5
		c0-0.8-0.4-4.1-0.4-4.7c0-0.3-0.8-2-0.8-2.5c0-1.3,1.2-1.6,1.8-1.6c1.4,0,1.7,0.5,3.4,3.2c1.9,2.9,3.8,7,3.8,10.1
		c0,0.8-1.7,6.6-1.9,7.3l-1.7,8.9L352.6,552z M396.6,536.1c-2,0.4-8.8,1.9-10.6,1.9c-1.5,0-3.4-0.1-5.4-0.2l-0.2-0.5
		c1-1.4,11.4-7.3,16.1-8.6c0.1-0.6,0.2-1.6,0.2-2.2c0-0.9-0.3-4.6-0.3-5.4c0-0.4,0.1-2.3,0.1-2.7c0-0.3,0.2-1.6,0.2-1.9
		c0-1.3,0.8-5.6,1.3-6.5c0.9-1.4,2.5-3.4,3.9-3.4c1.9,0,3.2,1.2,3.2,3.2c0,1.1-1.2,6.5-1.3,7.2c-0.3,1.8-0.8,6.2-0.8,7.1
		c0,1.1,0.1,1.8,0.3,2.7c0.5,0,2.8-0.5,3.3-0.5c2.7,0,8.9,1.8,8.9,4.6c0,3.7-9.1,3.7-11.4,3.4l-0.3,0.3c0,0.5,1.7,15.8,1.9,18.8
		c0.1,1.8,0.4,10.2,0.4,11.5c0,1.8-1.1,7-1.6,8.4l0.2,0.4c1.1,0.4,8.4,3.8,11.1,5.5c3,1.9,5.6,8.4,5.6,10.6c0,0.6-0.8,1-1.4,1
		s-3-1.6-3.5-1.7c-0.8-0.4-4.2-3.5-4.9-4.2c-1.3-1-8.9-5.3-9.5-5.4c-0.4,0.3-1.9,2.7-2.3,3.1c-1.7,1.9-4.4,5.2-11,5.2
		c-4.8,0-13.4-4.3-13.4-11.4c0-0.9,0.8-3.9,2-4.8c1.8-1.3,5.6-2,7.8-2c0.5,0,11.3,1.5,11.8,1.5c2,0,2.8-9.6,2.8-9.8
		c0-0.8-0.1-3.9-0.1-4.5c0.1-1.3-0.6-7.3-0.6-8.6c0-0.6-1-6.7-1.2-7.9c-0.1-0.6-0.9-3.4-1-4.1L396.6,536.1z M384.7,574.2
		c-1.6,0-4.3,0.5-4.3,1.9c0,1.9,5.2,4.5,7.6,4.5c3.1,0,5.3-2.8,6.6-4.6C392.7,575.1,386.6,574.2,384.7,574.2z"/>
	<path class="st0" d="M460.1,548.7c-4.9,0-11.3-2-11.3-4c0-0.5,0.1-1.1,0.3-1.5c0.1,0,0.8-0.1,0.9-0.1c0.1,0,4.9,0,5.6-0.1
		c0.8-0.1,3.9-0.8,4.5-0.8c1-0.1,8.3-2.9,8.7-3.3c0.4-0.4,0.5-1,0.5-1.3c0-2.1-0.5-11.3-0.5-13c0-2.9-0.1-4,0-5.9
		c-0.4-0.1-0.6-0.3-0.9-0.3c-3.4,0-18.1,6.1-19.9,6.1c-1,0-1.6-0.4-2.5-1c0-0.4,0.1-1.5,0.4-1.6c1.3-1.1,3.3-3.1,4.6-4.1
		c2.3-1.5,11-6.6,15.4-8c3.4-1.1,3.8-1.3,3.8-2.9c0-3.1,1.6-10.2,3-13.8c0.3-0.9,2.3-4.5,2.5-5.4c0.5-0.3,0.8-0.5,1-0.5
		c2.9,0,4.3,8.4,4.3,9.5c0,1.4-2.1,9.4-2.1,10.2c1.6,0.4,6.5,1.1,7.8,2.4c0.4,0.3,4.5,5.9,4.5,7.5c0,1.9-1.8,2.5-2.8,2.5
		c-0.6,0-6.4-1.1-6.8-1.1c-3.3-0.8-3.6-0.8-5.1-0.6c-0.4,1.3-0.6,2.4-0.6,3.5c0,0.4,0.4,1.5,0.4,1.9c0,1-0.2,5.5-0.2,6.4
		c0,0.5,0.4,2.6,0.4,3c0,1.5,0,1.6,0.5,2.5c0.8-0.3,4-2.3,4.8-2.5c0.9-0.4,1.9-0.5,2.9-0.5c2.4,0,5.9,1,5.9,3c0,2-5.3,5.6-7.5,6.8
		c-1.4,0.6-5.5,2.8-5.5,3.5s1.1,3.6,1.1,4.3c0,0.5,0,3,0.1,3.5c0,1.1,0.9,6.4,0.9,7.4c0,1.3,0.3,7.3,0.1,8c-0.5,3.1-0.6,3.5-0.6,3.9
		c0,1.3,0.3,1.4,2.8,2.3s12.4,5.1,14.7,7.4c2.1,2,3.3,7.5,3.3,7.9c0,1.9-1,2.5-1.9,3.1c-6-1.9-11.3-4.8-12.4-6
		c-0.4-0.4-5.9-4.9-8.3-5c-0.8,0.9-6.1,6.6-7.4,7.4c-0.5,0.3-6,3.8-10.2,3.8c-7.4,0-12.4-1.5-12.8-1.6c-2.5-1.1-4.1-5.4-4.1-6.5
		c0-3.8,3.4-6.4,5.5-8.2c1.3-1,6.6-5.5,10.7-5.6c0.8,0,4.1-0.3,4.9-0.3c1.3,0,6.9,0.9,8,0.9c1.4,0,2-0.9,2-2.3c0-0.5,0.5-2.6,0.5-3
		c0-4.6-0.1-5-1-9.3c-0.3-1.1-1.9-8.5-2.1-9.5C466,548.7,465.4,548.7,460.1,548.7z M460.6,575.5c-7.4,0-12.2,6.3-12.2,8
		c0,1.6,2.6,1.9,3.8,1.9c5.8,0,15.2-4.3,16.7-7.8C465.7,575.5,461.5,575.5,460.6,575.5z"/>
	<path class="st0" d="M560.3,548.9c-1.3-1.6-5.3-5.9-6.7-6.9c-0.2-0.1-0.6-0.8-0.7-1.1c-1.3-1.4-6.3-7.4-7.4-9.1
		c-0.4-0.5-1-1.3-1.4-1.3c-0.4,0-10.8,3-11.2,3c-1.7,0-10.9-1.1-10.9-3.8c0-1.8,2.5-2,3.6-2c0.1,0,1.2,0.2,1.4,0.2
		c0.2,0,5.4-0.8,5.6-0.8c0.6-0.2,3.9-1.3,4.3-1.3c1,0,2.7-1,2.7-1.6s-1.4-3.1-1.7-3.7c-1.2-3.5-2.4-7.2-3.8-10.4
		c-1.4-3.3-3.3-7.9-5.5-9.4c0-0.4-0.5-1.9-0.5-2.2c0-0.8,1.1-1.3,2.2-1.3c1.4,0,9.2,3.2,10.3,6.8c4.9,15.8,5.4,17.2,6.6,17.9
		c2.2-1.2,3.5-2.6,4.8-4.2c0.1-0.1,2.9-1.9,5.3-1.9c1.4,0,7.8,0.2,7.8,3.1c0,2.4-5.3,4.9-7.2,5.9c-0.2,0.1-1.2,0.8-1.4,1
		c-0.8,0.5-4.5,1.9-5.1,2.4c-0.4,0.4-0.7,0.6-1.1,1c1.1,2.6,10.3,10.2,10.4,10.3c1.1,0.7,6.3,4.4,6.8,4.9c0.1,0.2,1.2,1.1,1.4,1.2
		c1,1.2,3.7,6.2,3.7,8.5c0,4.7-2,4.7-4.2,4.7c-1.9,0-2.7-0.5-4.3-1.3c-1.3-0.7-1.9-0.8-6.8-1.6c-0.6,0-3.5-0.1-3.9-0.4
		c-0.8-0.5-1-1.2-1-1.3c0-0.4,0.4-0.6,0.7-0.8c1-0.7,6-3.1,6.9-3.7L560.3,548.9z M547.4,590.6c-6.2,0-15.1-2.4-20.5-6
		c-2-1.3-4.7-5.4-4.7-8.5c0-2.6,0.5-8.1,2.4-9.7c0.4,0.1,1.7,0.2,1.7,1.2c0,6.7,0,7.4,2.2,9.6c3.8,3.8,13.3,4.2,13.7,4.2
		c1.1,0,6.3-0.5,7.3-0.5c0.5-0.1,1.2-0.5,1.6-0.5c0.5,0,1.7,0.6,2.5,0.8c0.8,0.1,2.4,0.4,2.7,0.7c0.8,0.8,6.8,3.9,6.9,4.1
		c0.2,0.2,0.7,0.6,0.7,1.1c0,2.2-2.3,3.5-6,3.5H547.4z"/>
	<path class="st0" d="M599.3,548.3l-0.4,10.3c-0.2,3.9,0.1,10.2,1.5,10.2c0.6,0,4.6-9,5.8-9c0.3,0,0.6,0.2,0.6,0.5
		c0,1.9-2.9,10.1-3.3,11.8c-1.1,4.5-1.2,4.9-1.2,6.2c0,1,0.2,5.3,0.2,6.1c0,4-1.9,4.8-2.5,4.8c-1.6,0-8.2-6.5-8.2-13.4
		c0-0.3,0.4-2,0.4-2.4c0.1-1.6,0.2-6.1,0.2-8v-3.3c0.2-1.6,0.3-3.3,0.3-5.1c0-1.6,0.8-8.8,0.9-10.2l0.6-9.8c0.1-1.3,0.8-7.1,0.8-7.8
		c0-1.3-0.4-6-1-7.3c-0.4-1.1-0.5-1.3-1.1-3.2c0.2-0.9,1.3-1.1,1.7-1.1c1.9,0,3.4,3,3.9,4.3c0.1,0.1,0.9,0.9,1,1.1
		c1.5,2.9,2.2,4,2.2,7.8c0,1.3-1.3,6.9-1.4,7.8L599.3,548.3z M642.9,531.9c-1.3-0.2-1.7-0.2-2.2-0.2c-1,0-5.3,1.3-6.1,1.5
		c-0.6,0.1-4,0.6-4.6,0.8c-0.4,0.1-2.6,0.9-3,0.9c-1.4,0-1.3-1.1-1.2-1.6c3.2-3.3,7.4-5.6,11.7-7.4c3.1-1.4,11.2-3.2,11.8-3.2
		c2.2,0,10.5,2.7,10.5,6.5c0,0.8-0.3,2.2-1.6,2.4c-6.9,1.2-8.2,1.4-15.3,7.1c-1.7,1.3-1.8,1.4-3,1.1c0-0.4-0.1-0.8-0.2-1.1
		c0-1,3-4.5,3.2-5.4c0.1-0.3,0.1-0.8,0.2-1.1L642.9,531.9z M642.1,576.9c-3.3-0.2-8.1-1.2-11.4-3.3c-2.2-1.4-3.5-5.1-3.5-5.5
		c0-0.3,0.1-1.5,0.1-1.8c0-0.3-0.4-2.5-0.4-2.9c0-0.5,0.4-3.2,2.5-3c0.6,0.6,0.6,1.1,1.2,5.5c0.4,4.3,8.4,4.4,10.2,4.3
		c1.3,0,3.2-0.4,4.8-0.6c0.6-0.1,3-1.2,3.5-1.2c2,0,7.3,0.6,9.5,2c0.3,0.2,1.8,1,2.2,1.2c1.8,1.3,1.8,1.5,1.8,2.6
		c0,3.2-9.6,3.7-10.3,3.5L642.1,576.9z"/>
	<path class="st0" d="M146.1,736.4c0.6-0.1,1.9-1.9,2.3-2.2c1.3-0.4,6.3-3.9,7.5-4.4c4.6-2.6,15.2-13.5,19.8-20.1
		c0.7-1.3,4.2-6.7,5-7.7c0.7-1.9,4.9-9.8,5.7-11.3c1.3-3.2,5.6-16.9,6.2-19.5c-1.7,0.1-2,0.3-4.6,0.7l-15.3,2.9
		c-1.6,0.3-9.8,2.7-10,2.7c-0.7,0-12.2-5.4-12.2-8.2c0-0.9,1.1-1.4,1.9-1.4c0.4,0,8,0.9,8.7,0.9l13-1.4l3.7-0.4l12.5-1.6
		c0.6,0,3.9-0.6,4.3-2c0-0.6,1.4-11,1.4-11.8c0-0.6-0.3-3-0.3-3.4v-10.8c-0.1-1.6-1.6-10.8-2.9-12c-0.1-0.1-4.7-5.3-5.7-6.3
		c-0.3-0.1-0.4-0.3-0.7-0.6l-0.6-0.1l0.3-0.6c1.9-0.6,9.6-1.4,10-1.4c3.3,0,16.1,9.3,16.1,11.9c0,0.4-0.1,0.6-1.7,2.3
		c-0.7,0.7-2.3,5.7-2.7,9.8c-0.3,3.4-3.6,21.9-3.6,22.1c0,0.7,1,0.7,1.9,0.7c1,0,5.3-0.3,6.2-0.3h2.3l12.3-0.7
		c1.4-0.1,4.6-0.3,5.7-1c2.9-1.9,6.9-3.3,7.5-3.3c3.3,0,13.8,6.2,16.3,12.6c-1.6,1.7-1.9,1.9-2.7,1.9c-0.7,0-3.7-0.6-4.4-0.7
		l-12.2-0.9l-17.8-1.1h-5.6c-0.7,0-4,0.6-4.9,0.6c-0.3,0-2.3-0.3-2.7-0.3c-0.6,0.1-1.6,0.4-1.9,0.6c1.6,5.9,2.2,6.9,4.6,10.5
		c0.9,1.3,4,7.3,4.7,8.5c2,3,10.6,13.2,12,14.6c0.7,0.7,1.7,2.3,2.2,3c2,2.2,3.2,3.2,12.8,11.2c3.7,3.2,14.8,11.8,17.5,12.9
		c0.6,0.3,6.9,3.2,6.9,4.6c0,2-3.3,2.4-15.9,2.4c-7.5,0-7.7-0.4-12.5-6c-0.9-1-1.1-1.3-4-3.7c-0.1-0.3-8.2-11-10.5-14.6
		c-3.3-5.3-10-16.1-12.2-19.8l-7.7-13.2c-0.7,0.4-3.2,7.7-3.9,9.6c-0.3,0.7-5.7,12.9-6.6,13.8c-1.6,1.9-1.7,2.3-3.6,5.4
		c-1.4,2.6-11.6,14.8-22.2,20.5c-8.5,4.6-14.1,7.6-17.9,7.6c-1,0-1.1,0-1.9-0.4L146.1,736.4z"/>
	<path class="st0" d="M278.2,674.9c0.3-0.3,0.5-0.4,0.8-0.4c0.5,0,5.8,0.8,6.9,0.8c3.2,0,11.5-2.3,17.3-4c1.9-0.5,10.3-3.2,12.1-3.6
		c1.2-0.4,1.5-0.5,1.5-1.8c0-3.3,0-12.5-0.5-14.8c-0.3-1.2-2.7-3.8-3.6-3.8c-0.7,0-5.2,1.8-6.2,2.2c-1.4,0.5-8,1.9-9.6,2.2
		c-0.4,0-2.2,0.4-2.3,0.4c-0.5,0-1.4-0.5-1.4-1.6c0-1.4,0.5-1.6,4-2.7c3-1,22.9-12,29.7-17.9c0.3-0.4,0.5-1,0.5-1.5
		c0-0.1-0.1-1.5-0.3-1.9c0.7-1.1,1.1-1.4,1.8-1.4c2.6,0,4.9,2.3,6.5,3.7c1.4,1.5,1.9,1.9,3.7,2.9c0.3,0.1,0.8,1.4,1.1,1.5
		c0.3,0.4,2.2,2.1,2.2,2.6c0,1.2-1.2,2.2-2.7,3.3h-2.5c-2.3,0.7-7.7,2.3-9.8,3.4c-2.6,1.4-3.4,1.6-5.9,2.3c1.4,1.8,2.6,2.9,5.2,5.4
		c0.4,0.3,1.5,3,1.5,3.6c0,0.7-0.8,8.2-0.8,8.5v1.4l0.3,0.5c0.7-0.1,4-1,4.7-1.1c1.8-1,3.8-1.5,5.9-1.5c3.3,0,10.3,2.7,10.3,6.3
		c0,1.9-0.5,1.9-5.9,2.1c-6.5,0.1-13.7,0.4-15.7,1.8c0,0.4-0.8,6-0.5,7.4c-0.1,1.5,0.3,1.6,4,3.3c0.5,0.1,3,0.8,3.6,1.1
		c0.7,0.3,4.8,2.6,5.6,3.8c0.5,0.8,3.2,4.9,3.2,8.1c0,0.4-0.4,2.2-2.2,2.2c-2.1,0-12-7.1-13.6-8.9c-0.4-0.3-0.7-0.4-1.2-0.4
		c-0.1,0.8-0.4,1.8-0.4,2.3c0,0.7-0.4,4-0.4,4.3c0,0.7,0.5,7.7,0.5,9.2c0,0.4-0.3,5.1-0.3,6c0,2.7,0.4,14.6,0.4,17
		c0,7.4-2.1,13.9-4.8,13.6c-2.1-2.1-6.2-9.8-6.2-13.2c0-1.2,1.1-7.3,1.1-8.5c0-1.1,0.7-6.5,0.7-7.4c0-1.6,0.4-8.7,0.4-10
		c0-1,0.3-7.3,0.4-8.1c-1.2,0.7-3.7,4.3-5.6,7c-2.3,3.6-5.1,7-10.6,11.7c-1.2,1.1-6.7,6.2-8,7c-1.1,0.5-9.9,5.2-10.2,5.2
		c-0.7,0-1-0.3-1-0.7c0-1.9,9.8-11.5,10.7-12.8c0.5-0.7,7.3-9.2,7.6-10c2.9-4.4,11.8-17.9,13.2-26.1l-0.1-0.3
		c-0.1-0.1-0.7-0.3-1-0.3c-1,0-13.3,4.7-15,5.4c-1.2,0.5-6.3,4.5-7.6,4.5c-1.5,0-8.4-4.8-8.7-5.2c-2.3-1.8-2.6-2.5-2.9-3.7V674.9z
		 M383.8,710.4l-11.5,0.3c-7.8,0.1-8.7,0.5-8.8,1.8c-0.5,3.2-0.5,3.2-1.6,4.7c-2.9-0.5-4.3-2.7-6.2-6.5c-0.4-0.7-2.2-3.4-2.5-4.1
		c0-0.8-0.3-8.5-0.7-10c-0.7-2.5-3-14-3.7-15.5c-1.4-2.6-1.5-2.9-2.3-5.6c-0.1-0.7-0.4-1.1-1-1.9l0.3-0.7c0.5-0.1,2.2-0.3,2.7,0
		c5.1,3,5.6,3.4,6.9,3.4c1.2,0,19-4.1,22.5-4.5c3.6-0.4,7.8-1.4,10.3-2.6c1-1,2.3-2.3,3.7-2.3c1.2,0,15.9,11.1,15.9,12.8
		c0,1.1-1.2,1.9-2.7,2.7c-0.5,0.8-3,4.1-3.4,4.9c-1.9,3.7-5.2,9.6-7,13.5c-0.5,1.1-0.7,1.8-1,3.3c0.7,0.5,3.4,2.7,3.4,3.6
		c0,0.5-0.1,1.1-0.3,1.9c-1.2,0.5-4.7,1.1-5.9,1.1L383.8,710.4z M365.3,678.1c-0.3,0-6.3,1.4-6.9,1.6c0,1,1.9,13.1,2.3,14.4
		c0.7,1.9,1.8,10.9,2.5,12.5c2.6,0.1,12.1-1.6,15.1-2.2c4.4-0.8,4.4-0.8,4.5-1.6c0.7-2.7,4.8-13.9,5.5-16.4c0.3-0.8,1.6-5.1,1.6-5.8
		c0.1-0.1,0.1-2.6,0.1-2.7c0-1,0-3.2-5.2-3.2c-2.9,0-7.1,0.7-8.2,1L365.3,678.1z"/>
	<path class="st0" d="M419.6,667.6c2.1-0.7,11.6-2.8,13.6-3.6c4.2-1.5,23.1-6.6,26.4-9c0.4,0,2.4-0.4,2.8-0.4
		c2.1,0,12.1,1.2,11.4,6.3c-3,2.2-9.3,3.1-14.2,3.7c-4.6,0.6-5.1,0.7-5.4,1.8c1.3,1.3,2.1,3.7,2.1,4.6c0,1.6,0,1.8-4.9,7.6
		c-0.4,0.4-2.4,2.4-2.7,2.8c-0.6,0.7-0.7,1-1.9,3.3c-0.4,0.9-8.5,10.8-8.8,11.2c0,0.4,0.3,0.9,0.3,1c1.6,0.1,6.4-1.6,8.1-2.2
		c4.8-1.9,7.8-3.3,13.1-5.7c0.7-0.3,1.2-0.6,1.2-1.5s-3.7-10-3.9-10.5v-1.2c4.2,0.6,18.5,13.7,18.5,21.8c0,1.2-0.1,5.7-1,7.3
		l-1.8,1.9l-0.6-0.1c-1.9-1.2-3.9-4.5-5.2-6.9c-0.1-0.6-2.5-5.2-3.1-5.8c-1.3-0.1-1.6,0-4,1.5c0,0.1-5.2,2.5-7.8,3.7
		c-0.9,0.4-4.6,3-5.7,3.9c-2.7,0.7-10.6,7.5-11.9,9.6c-0.3,0.6-1.6,3-2.1,3.3s-1,0.7-1.8,0.7s-1-0.3-2.8-2.8c-1.6-2.2-6-4.9-6-7.9
		c0-0.3,0.3-1.6,0.3-2.1c0-0.6-0.7-3.3-0.7-3.9c0-0.4,0.3-0.7,0.7-1.3c0.4,0.1,3,1.2,3.4,1.3c4.9-1.5,16.3-25.5,16.4-26.4l0.7-4.6
		c-3-0.1-6.4,1.5-9,3.1c-3.3,0.1-11.4-2.4-13.9-3.6L419.6,667.6z M432.2,634.7c4,0,16.7-0.4,20.8-3.3c1.8-1.2,2.8-2.1,6.3-2.1
		c4.6,0,10.6,3.3,10.6,4.8c0,1.6-1.8,2.7-3.1,3.3c-4.5,0.6-14.5,1.9-20.2,2.8c-6.3,0-13.1-2.5-14.5-4.8L432.2,634.7z M459.5,733.1
		c1-0.4,13.7-13.4,14.6-14.9c1.3-1.8,6.6-9.1,7.2-10c5.1-9.3,7.5-13.6,7.5-18.1c0-1.8-0.7-3.1-1.3-4c0.6-0.9,1-1.2,1.9-1.2
		c3,0,5.7,1.5,8.2,3.1c0.1,0,3,3,3.6,3.6c0.1,0.4,0.6,2.2,0.6,2.7c0,0.9-3.3,3.7-3.6,4.3c-3,5.5-9,16.6-11.6,19
		c-1.8,1.6-4,4.8-5.8,6.3c-8.7,7.8-10.8,9.3-18.7,13c-2.4,1-6.9,2.4-6.9,2.4c-0.6,0-0.9,0-1.6-1.2C454,735.8,455,735.4,459.5,733.1z
		 M472.8,638.5c1.5,0,2.4,0,3,0.1c0.7,0,3.7,0.7,4.3,0.7c1.6,0,19-16.1,19-23c0-0.6-0.3-2.8-0.3-3.3c0-1,1-1.5,1.9-1.5
		c8.7,0,15.4,10.5,15.4,11.1c0,0.4-0.1,0.9-0.4,1.5c-1,0.1-5.5,2.2-9.3,5.4c-0.1,0.1-9.4,6.1-11.8,7.6c-0.7,0.4-4.6,1.8-5.4,2.2
		c-0.9,0.6-1.5,1-2.5,1.8l0.4,0.1c2.1-0.4,11.5-1.9,13.3-2.5c1.3-0.4,20.3-3.6,24.2-4.2c1.2-0.3,5.8-4.5,6.6-4.5
		c6.1,0,18.7,15.5,18.7,16.6c0,0.4-0.3,1.2-0.4,1.5c-0.7,0.6-4.5,3.1-5.1,3.9s-0.9,1-2.1,3.1c-1.2,1.9-6.9,9.6-7.9,11.2
		c-1,1.8-5.2,9.9-6.3,11.4c-0.4,0.4-1.6,2.2-2.1,2.5s-1.3,0.4-1.6,0.4c-0.6,0-3-1.8-3.4-1.9c-1.5-0.6-2.8-0.6-3.3-0.6
		c-0.9,0-6.1,0.6-8.7,1c0.7,0.6,4,3,4.8,3.4c1.6,1.2,2.7,2.2,2.7,3.1c0,1.6-1.6,5.7-2.4,7.3c-0.1,0.3-2.1,7.5-2.1,10.8
		c0,1.5,3,2.4,3.3,2.4c0.9,0,9.7-12.4,9.7-15.1c0-1.2-0.3-3.9-0.4-6c1.6-0.3,1.6-0.3,2.1-0.3c1,0,4.9,1.3,6.1,2.2
		c0.6,0.4,4.8,4.3,4.8,6.6c0,0.9-0.1,1.3-1.2,2.1c-1.9,0.1-2.2,0.4-2.7,1.6c0.6,0.7,4.3,3.6,5.8,4.6c0.1,0.3,2.7,3,3.3,3.4
		c0.4,1.3,1.6,4.3,1.6,7.3c0,2.5-1,3.3-2.4,4.2c-3.1-2.1-3.6-2.8-6.3-6.9c-2.1,0.7-13.7,5.4-15.4,6.9c-0.3,0.1-3.4,2.8-3.9,2.8
		c-1,0-1.2-0.3-2.1-3.1c-0.4-1.2-2.2-5.2-3-6.7c-0.1,0.9-0.9,16.9,1.3,19.3c4.3,4.5,15.4,4.8,16.1,4.8c1,0,12.1-0.7,13.6-1.6
		c2.7-1.5,3.1-5.5,3.4-8.1c0.1-1.3,1.3-7.5,1.3-8.7c0-0.7-0.3-4.2-0.3-4.8l0.1-1.5l1.6,0.3c3,5.5,3.6,8.7,5.2,15.1
		c0.3,1.5,1.5,3,1.8,3.4c0.3,0.4,4.5,4,5.2,4.8c0.6,1.3,0.7,1.9,0.7,2.5c0,3.7-2.8,4-12.1,5.4c-0.9,0.1-5.5,0.3-6.4,0.4
		c-0.6,0.1-2.1,0.3-3.4,0.6c-0.4,0-2.8-0.4-3.1-0.4c-4.8,0-21.5-0.7-28.2-8.4c-4.3-4.9-4.3-17.8-4.3-23.7c0-0.9,0.4-4.6,0.4-5.4
		c0-10.5,0-18.1-0.6-19.6c-0.6-0.3-2.8-2.7-3.3-3.1c-0.9-0.7-1-0.7-1.3-0.7c-0.7,0-4.3,0.7-4.5,0.9c-2.5,1-2.8,1.2-5.8,1
		c-1.5-0.9-5.1-5.8-5.1-6.7c-0.1-5.1-2.5-15.4-4.9-25.5c-0.9-1.6-4-8.8-5.7-9.7c-0.9-0.4-0.9-0.7-1-1.6L472.8,638.5z M490,651.1
		c0.4,5.4,0.6,6,1.8,6c0.7,0,4.5-0.9,6.6-1.2c2.5-0.4,2.8-0.6,2.8-2.7c0-1.8-0.3-6.1-2.5-8.1c-0.6-0.4-9.9-2.5-10.6-2.5
		c-0.4,0-1.3,0-1.9,0.4C487.3,644.6,489.7,650.5,490,651.1z M499.7,660.7c-1.2,0.4-2.1,0.9-3,0.9c-0.9,0-4.5-0.9-5.2-1
		c0.7,9.4,1.8,12.8,2.8,14.8c1,0.3,1.6,0.3,2.4,0.3c1.5,0,3.1-0.3,4.6-0.6c-0.3-1.6-0.3-3.7-0.3-5.1c0-1,0.4-6.1,0.4-7.2
		c0-0.6-0.1-1-0.3-1.8L499.7,660.7z M530,645.2c0.1-0.7,0.6-3.3,0.6-3.7c0-1.2-1.6-1.6-3-1.6c-0.4,0-2.5,0.3-3,0.3
		c-3.3,0-13.1,0.9-16.9,2.7c2.4,0.9,4.8,5.5,4.8,5.7c0,0.6-0.6,3.1-0.4,3.6c1.3,0.3,2.1,0.3,3,0.1c0.7,0,3.6-0.6,4.2-0.6
		c1.2,0,6.1,0,6.1,2.4c0,1-0.4,1.2-2.5,2.1c-0.7,0.3-3.6,1.8-4.2,1.8c-1,0.1-6.1,0.6-7,0.9c-0.3,1.3-0.6,7.6-0.7,9
		c-0.1,0.3-0.7,4.6-0.7,5.2s0.6,0.9,1.2,0.9c1.2,0,6-0.4,6.9-0.4c1.3,0,1.9,0,3-0.3c0.6-3.6,0.9-5.2,1.9-7.5c0.4-1.3,1.5-3.7,2.5-7
		L530,645.2z M521.9,707.8c0.9,0,9.9-1.6,10.9-2.2c-0.1-1.5-0.9-6-2.5-6c-0.4,0-0.7,0.3-0.9,0.4c-1.5,1.8-1.8,2.1-3,2.5
		c-0.7,1-0.7,1-1.9,1.6l-2.8,3.1L521.9,707.8z"/>
</g>
<g>
	<path class="st0" d="M169.5,780.5c8.3,0,12.3,3.7,12.3,8.9c0,3.9-2.5,7.4-9.2,8.7c8,1,11.2,4.6,11.2,9.3c0,5-3.9,10.2-15.2,10.2
		h-15.3v-1.8l5-0.6c0.1-5,0.1-10,0.1-15.2v-2.5c0-4.9,0-9.9-0.1-14.8l-5-0.6v-1.8H169.5z M164.2,782.6c-0.1,4.8-0.1,9.7-0.1,14.8
		h2.7c6.3,0,9.2-2.6,9.2-7.7c0-4.8-2.6-7.1-8.4-7.1H164.2z M167.8,815.6c6.5,0,10-2.8,10-8c0-5.4-3.2-8.1-10.5-8.1h-3
		c0,5.8,0,11,0.1,16.1H167.8z"/>
	<path class="st0" d="M203.7,816.1v1.6h-13.2v-1.6l3.9-0.6c0.1-2.9,0.1-6.9,0.1-9.5v-3.2c0-3.1-0.1-5-0.2-7.5l-4.3-0.4v-1.6l9.2-2.9
		l0.7,0.5l-0.1,7.5v7.5c0,2.7,0.1,6.7,0.1,9.5L203.7,816.1z M193.4,780.8c0-2.1,1.7-3.5,3.7-3.5c2,0,3.7,1.4,3.7,3.5
		s-1.7,3.5-3.7,3.5C195,784.3,193.4,782.9,193.4,780.8z"/>
	<path class="st0" d="M226.4,815.3c-1.4,2-3.7,3.2-6.8,3.2c-4.2,0-6.6-2.2-6.6-6.8c0-1.5,0.1-2.8,0.1-4.9v-13.3h-4.6v-1.8l4.9-0.6
		l1.7-7.7h3.6l-0.3,7.8h7.1v2.3h-7.2v18.2c0,2.9,1.3,4.1,3.3,4.1c1.3,0,2.3-0.5,3.7-1.6L226.4,815.3z"/>
	<path class="st0" d="M258.7,807.4l-0.4,10.3h-28v-2l21-32.9h-15.5l-2,7.9h-3l0.5-10.1h26.4v2l-20.9,32.9h17l2-8.1H258.7z"/>
	<path class="st0" d="M270.6,804.2c0.2,7.5,3.9,11,9.1,11c3.6,0,5.8-1.5,7.7-3.9l1,0.7c-2,4-5.7,6.4-10.6,6.4c-7.6,0-13-5.1-13-14
		c0-8.7,6.2-14.1,13.1-14.1c6.4,0,10.6,4.3,10.6,10.7c0,1.3-0.1,2.3-0.4,3.1H270.6z M280.5,802.3c2.3,0,2.9-1.2,2.9-3.3
		c0-3.7-2.4-6.6-5.8-6.6c-3.3,0-6.6,3-7,9.9H280.5z"/>
	<path class="st0" d="M325.8,816.1v1.6h-13.2v-1.6l3.9-0.6c0.1-2.8,0.1-6.8,0.1-9.5v-5.7c0-4.7-1.4-6.4-4.4-6.4
		c-2.2,0-4.5,1.1-7.3,3.6v8.5c0,2.7,0.1,6.7,0.1,9.5l3.6,0.6v1.6h-13.2v-1.6l3.9-0.6c0.1-2.9,0.2-6.9,0.2-9.5v-3.2
		c0-3.2-0.1-5.1-0.2-7.4l-4.2-0.4v-1.5l8.5-3l0.8,0.5l0.4,4.5c3-3.4,6.5-5.1,9.8-5.1c4.7,0,7.3,2.9,7.3,9.9v5.7
		c0,2.8,0.1,6.7,0.1,9.5L325.8,816.1z"/>
	<path class="st0" d="M358.6,792.8l-3.1,0.5l-9.8,25.8c-3.3,9-7.2,12.3-10.9,12.3c-2.6,0-5-1.5-5-3.6c0.4-1.7,2.1-2.5,3.7-2.5
		c1.7,0,2.8,0.9,4.1,2.3l0.6,0.6c2.4-1.9,4-4.7,5.4-8.3l0.1-0.3l-10.7-26.4l-3.1-0.4v-1.6h13.6v1.7l-4.5,0.5l7.2,19.8l6.8-19.7
		l-4.9-0.6v-1.6h10.6V792.8z"/>
	<path class="st0" d="M378.5,799.2c-1,2.7-3,7.7-3.5,9.5c-0.5,1.8-0.7,3-0.7,3.8c0,1.7,1,3.3,1,4.7c0,1.5-0.7,2.3-2.1,2.3
		c-1.1,0-2.1-0.9-3-2.1c-1.7-2.3-3-6.6-3-11.8c0-5.2,1.5-10,2.3-13.1c0.7-2.4,1.2-4.4,1.2-6.4c0.1-2.1-1.2-4.1-2.7-5.7l0.7-0.6
		c1.4,0.4,2.3,0.9,3.3,1.6c1.4,1,3.9,3.5,3.9,6c0,1.3-0.7,2.3-1.9,4.8c-1.6,3.2-3.5,7.8-3.5,12.3c0,2,0.3,3.1,0.6,3.7
		c0.3,0.7,0.8,0.8,1.2,0c1.2-1.8,3.9-7.3,5.1-9.8L378.5,799.2z M383.4,803.3c0.3,1.2,0.8,2.9,1.4,4c1.9,3.3,4.4,4.8,10.6,4.8
		c5.2,0,7.3-1,8.4-1c1.8,0,3.7,0.8,3.7,2.3c0,2.7-4.9,3.3-10.7,3.3c-8.8,0-12.9-3.5-14-9c-0.4-1.5-0.4-3.1-0.3-4.3L383.4,803.3z
		 M383.8,788.3c3.9-2.9,9-4,12.6-4c3.4,0,5.4,0.4,7.1,1.2c1.4,0.7,1.8,1.6,1.8,2.3c0,1-0.5,1.5-1.7,1.7c-1.4,0.3-3,0.4-4.8,1
		c-2.3,0.9-5.7,2.7-8.3,4.2l-0.8-0.8c2.2-1.8,5.2-4.1,6.1-5c0.6-0.6,0.7-1.1-2.9-1.1c-1.7,0-4.5,0.3-8.8,1.5L383.8,788.3z"/>
	<path class="st0" d="M433.4,787.6c-0.3,0.6-0.9,1-2,0.9c-1.4,2.6-3,4.9-4.6,7.1l1.9,0.7c-0.2,0.5-0.7,0.8-1.6,0.9v23.5
		c-0.1,0.4-2,1.3-3.7,1.3h-0.9v-21.7c-2.1,2-4.2,3.7-6.4,5.1l-0.6-0.6c4.2-4.4,8.8-11.8,11.5-19.6L433.4,787.6z M423.6,783
		c0.1,3.4-1.4,5.7-3.1,6.8c-1.6,1-3.8,0.8-4.5-0.9c-0.6-1.6,0.4-2.9,1.8-3.5c2.1-1.1,4.3-3.8,4.2-7h0.8c0.4,1.2,0.6,2.2,0.7,3.2
		h13.1v-6.7l6.8,0.6c-0.1,0.7-0.5,1.2-1.8,1.4v4.6h13.3l2.6-2.7l4.6,4.4c-0.4,0.4-1,0.5-1.9,0.6c-1.9,1.5-5.2,3.2-7.6,4.2l-0.6-0.4
		c0.9-1.3,2-3.1,2.8-4.7H423.6z M457.3,786.5c0,0,3,2.1,4.8,3.7c-0.1,0.6-0.7,0.8-1.4,0.8h-12.4c-1.1,1.9-2.5,4.2-3.8,6h8l2.3-2.6
		l5,3.9c-0.3,0.4-1.1,0.8-2.1,1.1v20.9c-0.1,0.4-2.4,1.4-4,1.4h-0.7V818h-14.1v2.4c0,0.5-2,1.6-3.9,1.6h-0.8v-27l4.9,2.1h2.8
		c0.4-1.9,0.7-4.2,0.9-6H432l-0.4-1.4h23.1L457.3,786.5z M439.1,798.5v8h14.1v-8H439.1z M453.1,816.5v-8.6h-14.1v8.6H453.1z"/>
	<path class="st0" d="M481.1,780c0.8,1.5,1.8,3,3.1,3c1.9,0,7.7-1.4,10.2-2.2c1.6-0.5,1.7-1.2,2.6-1.2c2,0,5.5,2.7,5.5,4.5
		c0,1.2-1.5,1.5-3.2,2.8c-3,2.2-9.4,8-11.5,10.2c-0.5,0.5-0.2,0.9,0.3,0.7c2-0.7,4.9-1.7,8.6-1.7c6.7,0,12.3,4.3,12.2,11.6
		c0,6.6-5.9,11.9-15.9,11.9c-5.8,0-9.9-2.5-9.9-6.5c0-3.1,2.7-5.2,6.3-5.2c3.5,0,7.5,2.1,8.5,7.1c4.6-1.6,6.6-4.9,6.7-8.6
		c0.1-4.4-3-8.3-9-8.3c-7,0-11.9,4.8-16.2,10.3c-1,1.4-1.5,1.7-2.5,1.7c-0.9,0-1.9-1.1-1.8-2.7c0.1-1.2,0.7-2.1,2.2-3.5
		c6.2-6.3,16.2-15.8,18.5-19.3c0.7-0.9,0.3-1.2-0.5-1.1c-1.8,0.4-5.4,2-7.4,3c-1,0.5-1.8,1.3-2.7,1.3c-2.5,0-4.6-2.9-4.8-4.5
		c-0.2-1-0.1-2,0.2-3.1L481.1,780z M493.8,815.8c-0.7-3.6-2.9-5.7-5.7-5.7c-1.9,0-3.1,1-3.1,2.6c0,1.9,2.2,3.2,6.5,3.2
		C492.2,815.9,493,815.8,493.8,815.8z"/>
	<path class="st0" d="M542.8,817.2c12.5-2.6,17.8-9.4,17.8-18.3c0-9.1-6.2-15-14.5-15c-0.6,0-1.3,0.1-1.9,0.1c1.4,1.6,2.9,3.8,2.9,6
		c0,2.5-0.6,5.6-1.7,8.6c-2.2,6.2-7.9,15.7-13.6,15.7c-3.8,0-7.4-5.8-7.4-12.2c0-4.8,2.3-10.5,7.1-14.6c4.1-3.6,9.2-5.3,15.1-5.3
		c11,0,19.2,7.5,19.2,18c0,9-6.1,17.3-22.8,18.2L542.8,817.2z M542.1,784.5c-3.4,0.8-6.7,2.6-9.2,5.2c-3,3.2-4.8,6.9-4.8,11.1
		c0,4.4,1.9,8.1,4,8.1c3.1,0,7.6-7.4,9.4-11.4c1.2-2.7,2.1-6,2.1-8.5C543.6,787.2,542.9,785.8,542.1,784.5z"/>
	<path class="st0" d="M589.4,799.5c-1,2.7-2.9,7.9-3.4,9.7c-0.5,1.9-0.7,2.9-0.7,3.7c0,1.7,0.9,3.3,0.9,4.7c0,1.5-0.8,2.3-2.1,2.3
		c-1.1,0-2.1-0.9-3-2.1c-1.7-2.3-3.1-6.8-3.1-12.2c0-5.2,1.5-10.8,2.3-13.8c0.7-2.4,1.2-4.4,1.2-6.3c0.1-2.1-1.3-4-2.7-5.8l0.6-0.6
		c1.5,0.4,2.3,0.8,3.4,1.6c1.4,0.9,3.9,3.6,3.9,6.1c0,1.3-0.8,2.2-2,4.8c-1.6,3.2-3.6,8.3-3.6,13.4c0,2.1,0.3,3.4,0.7,4.2
		c0.3,0.7,0.8,0.8,1.3,0c1.2-1.8,3.9-7.8,5.1-10.3L589.4,799.5z M609.6,794.4c0,4.7,0.4,8.9,0.7,12.2c4.1,1.1,6.8,3.1,8.4,4.6
		c1.1,1,1.7,2.1,1.7,3.1c0,1.4-0.7,2.2-1.9,2.2c-1,0-1.7-0.7-3-2c-1.6-1.5-3.1-2.7-4.8-3.6v0.8c0,4.4-2.8,7-9.3,7
		c-4.5,0-8.4-2.3-8.4-6.3c0-4.7,4.8-6.8,10.5-6.8c1,0,2,0.1,2.9,0.2c-0.2-3.3-0.4-7.8-0.5-11.6v-0.5c-1.8,0.2-3.5,0.4-5.2,0.4
		c-3.2,0-5.5-0.6-8.1-5.4l0.7-0.6c2.3,1.6,4.5,2.4,6.9,2.4c2.1,0,4-0.2,5.7-0.5v-5.8c0-1.7-0.3-1.9-1.2-2.2c-1-0.4-2.3-0.6-3.6-0.7
		l-0.1-0.9c1.2-0.7,2.9-1.5,4.2-1.5c2.9,0,5.8,1.6,5.8,2.9c0,1.2-0.5,1.5-0.8,3.5c-0.2,0.9-0.4,2.2-0.5,3.7c0.5-0.2,0.9-0.3,1.3-0.5
		c3-1,4-1.7,4.4-1.7c1.5,0.1,3.3,0.8,3.3,2.1c0,1.4-0.8,1.8-2.8,2.6c-1.2,0.5-3.6,1.1-6.4,1.7V794.4z M606.5,809.4
		c-1.6-0.5-3.4-0.7-5.3-0.7c-2.9,0-6,1.3-6,3.5c0,2.1,2.2,2.9,4.9,2.9c5.2,0,6.4-1.9,6.4-5.6V809.4z"/>
	<path class="st0" d="M628,808.8c6.5,1.5,9.9,3.9,11.7,6.6c0.9,1.3,1.1,2.3,1.1,3.4c0,1.8-1.1,2.9-2.8,2.9c-1.3,0-2.1-0.7-2.9-2.2
		c-1.5-3.1-3.2-6.5-7.7-9.9L628,808.8z"/>
	<path class="st0" d="M160.4,861.8c2.1,6.6,0.1,11-2.3,12.8c-1.6,1.2-3.9,1.1-4.7-0.6c-0.6-1.5,0.3-2.8,1.6-3.6
		c2.2-1.3,4.6-4.7,4.7-8.6L160.4,861.8z M169.8,855.8c-6.4,0-8-0.7-8-4.4v-9.7h-8l-0.5-1.5h20.2v-7.5l6.7,0.6
		c-0.1,0.7-0.5,1.2-1.9,1.4v5.5h12.4l2.9-3.7c0,0,3.3,2.5,5.3,4.3c-0.1,0.6-0.7,0.8-1.4,0.8h-30.9v0.3v8.4c0,0.9,0.3,1.1,3.3,1.1
		h9.7c3.5,0,6.9,0,8.2-0.1c0.9-0.1,1.7-0.2,2.1-0.2c0.5-0.1,1.2-0.3,1.8-0.5h0.5l0.3,0.1c1.9,0.4,2.5,1.1,2.5,2c0,2.4-2.2,3-15.7,3
		H169.8z M188,873.5c1.5,0.5,1.9,1.1,1.9,2c0,2.2-2.2,3-11.6,3h-6.4c-5.1,0-6.2-0.9-6.2-4.4v-13.1l6.3,0.6c-0.1,0.7-0.6,1.1-1.6,1.3
		v10.2c0,0.8,0.3,1,2.3,1h5.9c2.4,0,4.4,0,5.2,0c0.8-0.1,1-0.2,1.3-0.7c0.6-0.9,1.2-3,2.1-5.9h0.6L188,873.5z M172.2,857.8
		c14.6,2.3,11.6,12.3,6.6,9.4c-1.1-3.1-4.3-6.8-7-9L172.2,857.8z M188.2,861.2c16.1,4.7,11.7,16.8,6.4,12.6
		c-0.4-4.3-3.6-9.3-6.9-12.2L188.2,861.2z"/>
	<path class="st0" d="M253.8,866.6c-2,3.5-5.7,7.4-10.8,7.4c-3.8,0-6.3-2.3-6.3-7.2c0-5.8,2.1-11.4,2.1-16.9c0-3.1-0.9-4.8-3.3-4.8
		c-4.3,0-9.9,4.4-14.4,9.8l-0.1,0.7c-0.4,4.9,0.1,10.5,0.4,13.6c0.2,1.8,0.5,3,0.5,4.2c0,2.4-1.2,4.8-2.9,4.8c-1.4,0-2-0.8-2.2-2.1
		c-0.3-1.3-0.5-2.4-1-3.7c-0.5-1.2-1.7-3.4-2.9-5.2l-2.3,3.4c-0.8,1.2-1.4,2.1-2.5,2.2c-1,0-1.8-0.9-1.8-2.4c0-1.2,0.3-2.1,1.3-3.2
		c2.2-2.3,7.2-8.4,10.7-13.7c0.1-1.2,0.2-2.3,0.3-3.4c-1.5,0.8-3,1.7-3.9,2.3c-1.1,0.7-1.6,2-2.5,2c-1.9,0-4.4-2.3-5-4.2
		c-0.2-0.8-0.2-1.8-0.1-2.6l0.8-0.3c0.8,1.4,1.6,2.3,2.7,2.3c1.4,0,6-2.2,8.5-3.5c0.4-3,0.7-5.4,0.7-6.7c0-1.1-0.2-1.4-1.1-1.8
		c-0.7-0.4-1.7-0.7-2.9-1l0-0.9c1.2-0.5,2.3-0.8,3.6-0.8c2.5,0,5.5,2.7,5.5,4.3c0,1.2-0.6,1.8-1.2,3.5c-0.3,0.7-0.6,1.7-0.9,3
		c0.9,0.6,1.8,1.7,1.8,2.1c0,0.7-0.5,1.1-1.2,1.9l-0.1,0.1c4-3.5,9.1-7.1,13.6-7.1c4.3,0,6.4,2.6,6.4,7.5c0,4.4-2,10.3-2,15.6
		c0,2.7,1,3.7,3.3,3.7c3.1,0,5.6-1.2,8.6-3.6L253.8,866.6z M218,859.6c-1.4,2.1-2.9,4.3-4.3,6.5c1.2,1.4,2.7,3.1,3.3,3.7
		c0.6,0.6,1,0.5,1-0.5C218,867.3,217.9,863.5,218,859.6z"/>
	<path class="st0" d="M299.4,850.2c0,0,3.7,2.8,5.9,4.7c-0.2,0.6-0.7,0.8-1.4,0.8h-21c-3,5.4-7.2,11.9-10.8,16.2
		c6.2-0.4,13.9-1,21.9-1.8c-2.3-3.3-5.1-6.4-7.6-8.8l0.6-0.4c20.8,8.1,17.4,21.4,11.3,17.2c-0.7-2.2-2-4.5-3.5-6.9
		c-6.9,1.8-16.1,3.9-29.3,6.4c-0.4,0.6-0.9,1-1.5,1.1l-2.9-6.3c2.2,0,5.3-0.3,9.1-0.5c2.1-4.5,4.5-11.3,5.9-16.3h-17l-0.5-1.5h20.6
		v-10.5h-16.5l-0.4-1.4h16.9v-9.4l6.8,0.7c-0.1,0.7-0.5,1.2-1.9,1.4v7.3h9l3.1-4c0,0,3.6,2.8,5.7,4.7c-0.2,0.5-0.7,0.8-1.4,0.8
		h-16.5v10.5h12L299.4,850.2z"/>
	<path class="st0" d="M326,836.9l0.3-0.9c4.9,0,7.8,1,9.7,2.2c2.6,1.6,3.8,3.5,3.8,5.9c0,1.4-0.6,2.1-2,2.1c-1.6,0-2.4-0.5-4.6-0.6
		c-2.6-0.1-5.9,0.5-7.2,0.8c-0.9,0.2-1.1,0.6-1.1,1c0,0.7,0.7,2,0.8,3.2c0.1,1.4-0.3,2.5-0.6,4.2c-0.4,2.1-1,4.4-1,6.3
		c0,0.6,0.3,0.6,0.7,0.4c4.4-3.3,10.6-6.8,16.8-6.8c7.8,0,11.7,5.2,11.7,10.5c0,9.5-14.1,13.4-26.3,12.4l-0.2-1.2
		c3.8-0.4,7.6-1,10.7-2.3c8.1-2.7,10.7-6.6,10.7-10.5c0-4-2.9-7.1-7.2-7.1c-5.6,0-11.6,5.4-15,9.4c-1.1,1.4-1.7,3.2-3.1,3.2
		c-0.8,0-1.6-0.5-2.4-1.4c-0.8-0.8-1.2-1.9-1.2-2.8c0-0.9,0.4-2,0.6-3.7c0.4-2.6,1.2-7.4,1.5-9.8c0.3-1.8,0.2-2.8,0.2-4
		c0-1.3,0.5-2.5,2.2-2.8c2.4-0.6,7.2-1.7,9-2.5c0.7-0.3,0.7-0.8,0.1-1.5C331.7,838.9,329.1,837.9,326,836.9z"/>
	<path class="st0" d="M412.6,866.6c-2,3.5-5.7,7.4-10.8,7.4c-3.8,0-6.3-2.3-6.3-7.2c0-5.8,2.1-11.4,2.1-16.9c0-3.1-0.9-4.8-3.3-4.8
		c-4.3,0-9.9,4.4-14.4,9.8l-0.1,0.7c-0.4,4.9,0.1,10.5,0.4,13.6c0.2,1.8,0.5,3,0.5,4.2c0,2.4-1.2,4.8-2.9,4.8c-1.4,0-2-0.8-2.2-2.1
		c-0.3-1.3-0.5-2.4-1-3.7c-0.5-1.2-1.7-3.4-2.9-5.2l-2.3,3.4c-0.8,1.2-1.4,2.1-2.5,2.2c-1,0-1.8-0.9-1.8-2.4c0-1.2,0.3-2.1,1.3-3.2
		c2.2-2.3,7.2-8.4,10.7-13.7c0.1-1.2,0.2-2.3,0.3-3.4c-1.5,0.8-3,1.7-3.9,2.3c-1.1,0.7-1.6,2-2.5,2c-1.9,0-4.4-2.3-5-4.2
		c-0.2-0.8-0.2-1.8-0.1-2.6l0.8-0.3c0.8,1.4,1.6,2.3,2.7,2.3c1.4,0,6-2.2,8.5-3.5c0.4-3,0.7-5.4,0.7-6.7c0-1.1-0.2-1.4-1.1-1.8
		c-0.7-0.4-1.7-0.7-2.9-1l0-0.9c1.2-0.5,2.3-0.8,3.6-0.8c2.5,0,5.5,2.7,5.5,4.3c0,1.2-0.6,1.8-1.2,3.5c-0.3,0.7-0.6,1.7-0.9,3
		c0.9,0.6,1.8,1.7,1.8,2.1c0,0.7-0.5,1.1-1.2,1.9l-0.1,0.1c4-3.5,9.1-7.1,13.6-7.1c4.3,0,6.4,2.6,6.4,7.5c0,4.4-2,10.3-2,15.6
		c0,2.7,1,3.7,3.3,3.7c3.1,0,5.6-1.2,8.6-3.6L412.6,866.6z M376.8,859.6c-1.4,2.1-2.9,4.3-4.3,6.5c1.2,1.4,2.7,3.1,3.3,3.7
		c0.6,0.6,1,0.5,1-0.5C376.7,867.3,376.6,863.5,376.8,859.6z"/>
	<path class="st0" d="M419.9,842.9c0.8,1.3,2,2.6,3.2,2.6c2.9,0,11.2-2.4,19.9-4.4c5.5-1.4,10.2-2.4,11.9-2.4c1.4,0,2.9,0.2,4,0.7
		c1.2,0.6,2,1.3,2,2.4c0,1-0.9,1.8-2.3,1.8c-1.2,0-2.8-0.2-4.4-0.2c-2.3,0-5.6,0.3-8.2,2c-2,1.3-6.6,5.7-6.6,14.9
		c0,6,2.8,8.3,5.8,9.3c3,1.2,5.8,1,7.5,1c1.5,0,3.5,1.3,3.5,2.9c0,1.9-2,2.4-4.3,2.4c-3.5,0-7.7-0.4-11-2.6
		c-3.3-2.3-5.3-5.5-5.3-11.6c0-6.7,2.7-13.1,8.4-17.2c0.4-0.3,0.4-0.6-0.2-0.5c-5.8,1.4-12.9,3.8-15.9,5.4c-1.1,0.6-2.1,1.6-3.3,1.6
		c-2.2,0-5.2-2.9-5.5-5c-0.2-1,0-2,0.2-2.8L419.9,842.9z"/>
	<path class="st0" d="M504.5,843.2c-0.4,0.5-1,0.7-2.2,0.8c-0.6,2.4-1.2,4.6-1.9,6.9c1.4,9.6,5.9,18,17.5,23.4l-0.1,0.6
		c-2.5,0.4-3.9,1.8-4.4,4.7c-9.4-6-12.6-16.6-13.8-26.7c-4.6,11.9-12.9,21.7-29.4,26.8l-0.5-0.7c16-7.2,24.1-20.3,27.2-36h-10.4
		c-3.7,8.2-8.8,14.1-15.2,18.2l-0.6-0.5c5.9-6.4,11.1-16.6,13.3-28.1l7.3,2.1c-0.2,0.6-0.8,1.1-2,1.1c-0.7,2.1-1.4,3.9-2.2,5.8h9.4
		l2.9-3L504.5,843.2z"/>
	<path class="st0" d="M531.3,838.1v-0.9c1.3-0.4,2.5-0.8,3.7-0.7c3,0.1,7.2,3.3,7.2,5.1c0,1.3-1.2,1.8-1.7,4.3c-1,4.8-2,12.3-2,18.5
		c0,6,1.7,8.3,7.5,8.3c7.9,0,15.3-4.9,19.3-10.3l1,0.7c-3.5,8.1-11,14.5-20.8,14.5c-7,0-10.9-3.5-10.9-12.6c0-7.5,1.1-18.3,1.1-21.8
		c0-2.2-0.3-3-1.2-3.6C533.8,838.9,532.8,838.6,531.3,838.1z"/>
	<path class="st0" d="M581.9,848c0-2.8-0.9-4.5-3.9-6.9l0.4-0.7c1.3,0,2.8,0.2,4.1,0.7c2.2,1,5.1,3.6,5.1,5.8
		c0,2.4-2.3,5.3-2.3,11.2c0,5.2,2.6,8.2,4.4,9c0.8,0.4,1.4,0.3,1.9-0.4c1.7-2.4,3.4-5.8,5-9.1l1.2,0.5c-1.2,3.7-2.5,8-2.6,9.6
		c-0.3,2.7,0.6,2.7,0.6,4.1c0,1.9-1.9,2.9-4.6,1.8c-4-1.7-8.9-6.1-9.3-14.9C581.4,855,581.9,851,581.9,848z M605.4,846.2l0.4-1
		c5,0.6,7.8,2.3,10.5,4.9c3,2.9,4.4,7.5,4.4,11.1c0,2.7-0.9,4-2.9,4c-1,0-1.9-0.6-2.2-1.9c-0.5-2.2-0.6-5.6-2.3-9.6
		C611.8,850.5,609.1,847.8,605.4,846.2z"/>
	<path class="st0" d="M194.2,896.8c-0.4,0.4-1.1,0.8-2.1,1.1v36.9c-0.1,0.4-2.5,1.6-4.3,1.6H187v-4.4h-21.5v2.9
		c0,0.7-1.9,1.9-4.1,1.9h-0.9v-43.5l5.3,2.2h20.6l2.6-2.8L194.2,896.8z M165.5,897v15.8H187V897H165.5z M187,930.6v-16.4h-21.5v16.4
		H187z"/>
	<path class="st0" d="M232.3,903.8c4.5,8.7,12.8,15.9,20.7,19.3l-0.2,0.6c-2,0.4-3.6,1.9-4.4,4.3c-7.7-4.9-13.6-13.3-17.1-24.1V925
		h2.8l2.8-3.9c0,0,3.1,2.6,5,4.5c-0.2,0.6-0.7,0.8-1.4,0.8h-9.2v9.2c0,0.6-2,1.5-3.9,1.5h-1v-10.7h-9.9L216,925h10.3v-15.4
		c-4.5,7.8-11.5,14.3-20.6,18.8l-0.5-0.7c8.2-5.9,14.6-15.1,17.9-23.9h-17l-0.4-1.5h20.6v-12l7,0.8c-0.1,0.8-0.6,1.4-2.1,1.6v9.7
		h12.2l3.1-4.1c0,0,3.5,2.8,5.6,4.7c-0.2,0.6-0.7,0.8-1.4,0.8H232.3z"/>
	<path class="st0" d="M284.4,892c-0.1,0.7-0.5,1.2-1.8,1.4c1.1,19,5.7,31.3,23.1,38.4l-0.1,0.6c-2.5,0.5-4.1,2-4.8,4.6
		c-13.1-7.1-17.2-18.8-18.5-34.6c-0.9,12.6-4.5,25.6-23.1,34.7l-0.6-0.8c19.2-13.1,18.8-29.3,18.8-45.1L284.4,892z"/>
	<path class="st0" d="M332.6,932.4c12.5-2.6,17.8-9.4,17.8-18.3c0-9.1-6.2-15-14.5-15c-0.6,0-1.3,0.1-1.9,0.1c1.4,1.6,2.9,3.8,2.9,6
		c0,2.5-0.6,5.6-1.7,8.6c-2.2,6.2-7.9,15.7-13.6,15.7c-3.8,0-7.4-5.8-7.4-12.2c0-4.8,2.3-10.5,7.1-14.6c4.1-3.6,9.2-5.3,15.1-5.3
		c11,0,19.2,7.5,19.2,18c0,9-6.1,17.3-22.8,18.2L332.6,932.4z M331.9,899.7c-3.4,0.8-6.7,2.6-9.2,5.2c-3,3.2-4.8,6.9-4.8,11.1
		c0,4.4,1.9,8.1,4,8.1c3.1,0,7.6-7.4,9.4-11.4c1.2-2.7,2.1-6,2.1-8.5C333.4,902.4,332.7,901,331.9,899.7z"/>
	<path class="st0" d="M371.5,906.4c3,8.9,0.7,14.9-1.9,17.5c-1.7,1.8-4.1,2.1-5.2,0.6c-1-1.3-0.4-2.8,0.9-3.9
		c2.8-2.2,5.6-7.7,5.4-14.2H371.5z M384.2,902.4c-0.1,0.7-0.6,1.2-1.8,1.4v25.4c0,1.2,0.5,1.6,2.8,1.6h6c2.5,0,4.4-0.1,5.3-0.2
		c0.8-0.1,1.2-0.3,1.5-0.9c0.6-1,1.4-4.3,2.3-8.2h0.6l0.2,8.5c1.6,0.6,2,1.2,2,2.1c0,2.4-2.2,3.3-12.2,3.3h-6.5c-5.3,0-6.9-1-6.9-5
		v-28.7L384.2,902.4z M390.3,902.6c-1.5-2.9-5.5-7.4-11.9-10.5l0.3-0.7C399.7,893.7,395.6,905.7,390.3,902.6z M406,923
		c0-4.6-1.5-11.9-6.4-16.7l0.4-0.5C417.6,914.4,410.4,928.8,406,923z"/>
	<path class="st0" d="M419.1,900.6c0.8,1.3,2,2.6,3.2,2.6c2.9,0,11.2-2.4,19.9-4.4c5.5-1.4,10.2-2.4,11.9-2.4c1.4,0,2.9,0.2,4,0.7
		c1.2,0.6,2,1.3,2,2.4c0,1-0.9,1.8-2.3,1.8c-1.2,0-2.8-0.2-4.4-0.2c-2.3,0-5.6,0.3-8.2,2c-2,1.3-6.6,5.7-6.6,14.9
		c0,6,2.8,8.3,5.8,9.3c3,1.2,5.8,1,7.5,1c1.5,0,3.5,1.3,3.5,2.9c0,1.9-2,2.4-4.3,2.4c-3.5,0-7.7-0.4-11-2.6
		c-3.3-2.3-5.3-5.5-5.3-11.6c0-6.7,2.7-13.1,8.4-17.2c0.4-0.3,0.4-0.6-0.2-0.5c-5.8,1.4-12.9,3.8-15.9,5.4c-1.1,0.6-2.1,1.6-3.3,1.6
		c-2.2,0-5.2-2.9-5.5-5c-0.2-1,0.1-2,0.2-2.8L419.1,900.6z M450.4,907.6c2.7,0.9,4.9,2,6.3,3.3c1.1,1.1,1.6,2,1.5,2.9
		c0,1-0.6,1.6-1.6,1.6c-0.8,0-1.4-0.9-2.3-2.2c-1-1.3-2.3-3-4.6-4.9L450.4,907.6z M454.9,904.3c2.7,0.8,4.9,1.7,6.2,2.7
		c1.3,1.1,1.8,2,1.8,3.1c0,1-0.6,1.6-1.5,1.6s-1.5-0.9-2.5-2.2c-1-1.2-2.2-2.6-4.6-4.4L454.9,904.3z"/>
	<path class="st0" d="M490,894.4c1.1-0.7,2.6-1.5,4.1-1.5c2.5,0,5.9,1.2,5.9,2.7c0,1.3-0.8,2.2-0.9,3.5c-0.1,0.6-0.1,1.4-0.1,2.5
		c8.9-1,10.8-1.6,11.7-1.6c2.3,0,5.3,1.3,5.3,3.3c0,1.4-0.8,1.7-2.1,1.7c-2,0-5.4-1.3-15.1-0.5c0,2.4-0.1,5.2,0,7.7
		c1.5,1.7,2.1,4.2,2.1,7c0,9.9-7.9,15.4-18.3,17.3l-0.5-1.1c6.1-2.2,11.2-5.6,13.2-10.4c-5,1.8-8.9-2.3-8.9-7.4c0-4.1,2.8-7.6,7-7.6
		c0.8,0,1.5,0.1,2.1,0.2c0-1.4-0.1-3.3-0.3-5.3c-5.1,0.7-9.8,1.7-12.4,2.4c-2.3,0.6-3.3,1.6-4.9,1.6c-1.9,0-4.5-2.5-5.1-4.2
		c-0.3-1-0.4-2.3-0.4-3.4l0.9-0.4c1.5,1.9,2.3,3.1,4.1,3.1c2.1,0,11.9-1.3,17.7-2c-0.2-1.8-0.3-3.4-0.4-4.6
		c-0.1-0.9-0.4-1.2-1.2-1.5c-0.8-0.3-2-0.5-3.4-0.7L490,894.4z M496.3,917.1c0-2.8-1.2-4.7-3.4-4.7c-2.4,0-4,2.1-4,4.7
		c0,2.5,1.6,4.4,3.9,4.4C495.3,921.6,496.3,920.3,496.3,917.1z"/>
</g>
<rect class="st1" width="1920" height="1080"/>
</svg>
