<?xml version="1.0" encoding="utf-8"?>
<!-- Generator: Adobe Illustrator 21.1.0, SVG Export Plug-In . SVG Version: 6.00 Build 0)  -->
<svg version="1.1" id="レイヤー_1" xmlns="http://www.w3.org/2000/svg" xmlns:xlink="http://www.w3.org/1999/xlink" x="0px"
	 y="0px" viewBox="0 0 1920 1080" style="enable-background:new 0 0 1920 1080;" xml:space="preserve">
<style type="text/css">
	.st0{fill:#FFFFFF;}
	.st1{font-family:'SeiKaiCB1Pr5-Regular-83pv-RKSJ-H';}
	.st2{font-size:119.4839px;}
	.st3{letter-spacing:-30.5;}
	.st4{letter-spacing:-14;}
	.st5{letter-spacing:-27.8;}
	.st6{letter-spacing:-47.6;}
	.st7{letter-spacing:-31;}
	.st8{letter-spacing:-11.1;}
	.st9{letter-spacing:1.7;}
	.st10{font-family:'NotoSerifCJKjp-SemiBold-83pv-RKSJ-H';}
	.st11{font-size:48px;}
	.st12{letter-spacing:1.9;}
	.st13{opacity:0;fill:#FFFFFF;}
</style>
<text transform="matrix(1.05 0 0 1.05 129.7055 590.1481)" class="st0 st1 st2 st3">そ</text>
<text transform="matrix(1 0 0 1 222.5444 590.8649)" class="st0 st1 st2 st4">れ</text>
<text transform="matrix(0.9 0 0 0.9 327.6899 592.2985)" class="st0 st1 st2 st5">は</text>
<text transform="matrix(1.05 0 0 1.05 409.4174 590.1481)" class="st0 st1 st2 st6">ま</text>
<text transform="matrix(1 0 0 1 484.6918 590.8649)" class="st0 st1 st2 st7">さ</text>
<text transform="matrix(0.9 0 0 0.9 573.1098 592.2985)" class="st0 st1 st2 st8">に</text>
<text transform="matrix(1.2 0 0 1.2 129.7055 734.2458)" class="st0 st1 st2 st9">大</text>
<text transform="matrix(1.15 0 0 1.15 275.9536 734.9626)" class="st0 st1 st2">和</text>
<text transform="matrix(1.25 0 0 1.25 413.3598 735.529)" class="st0 st1 st2">魂</text>
<text transform="matrix(1.05 0 0 1.05 150.882 817.6774)"><tspan x="0" y="0" class="st0 st10 st11 st12">BitZenyに宿るのは、</tspan><tspan x="0" y="54.9" class="st0 st10 st11 st12">忘れ去られて久しい</tspan><tspan x="0" y="109.7" class="st0 st10 st11 st12">日本人の心です</tspan></text>
<rect class="st13" width="1920" height="1080"/>
</svg>
