<?xml version="1.0" encoding="utf-8"?>
<!-- Generator: Adobe Illustrator 21.1.0, SVG Export Plug-In . SVG Version: 6.00 Build 0)  -->
<svg version="1.1" id="レイヤー_1" xmlns="http://www.w3.org/2000/svg" xmlns:xlink="http://www.w3.org/1999/xlink" x="0px"
	 y="0px" viewBox="0 0 1150 1080" style="enable-background:new 0 0 1150 1080;" xml:space="preserve">
<style type="text/css">
	.st0{fill:#FFFFFF;}
	.st1{fill:none;}
</style>
<g>
	<path class="st0" d="M203.2,495.2c-1.9-0.1-2.3,0.1-4.9,2.4c-0.6,0.5-9.2,6.6-10.5,7.4c-1.1,0.5-3.5,0.6-4.5,0.6
		c-2.9,0-10.2-5.8-10.2-13.9c0-0.4,0-1,0.5-2.4c2.1-0.4,2.6,0.3,5.8,3.5c0.9,1,2.8,2,4.4,2h4.5c2.8-0.4,8.7-4.3,13.8-7.5
		c0.9-0.5,1.3-0.6,2-0.6c3,0,3.3,0.3,5.8,2.1c0.5,0.4,5.4,3.9,5.9,4.5c0.4,0.5,0.8,1.6,0.8,3c0,2-0.5,2.9-1.6,4.5
		c-0.2,0.3-1.5,1.3-1.8,1.4l-8.4,7.9c-1.5,1.5-3.6,4-5.4,5.3c-2.3,1.8-11.9,9.9-14.1,11.3c-2,1.4-2.6,1.8-3.3,2.3v0.5
		c0.5,0,3.9-1.3,4.5-1.5l9.9-3.4c0.4-0.3,9.9-3.3,10-3.4c0.8-0.5,5.9-3.6,6.4-3.6c6.1,0,11.4,6,11.4,7.9c0,1.5-0.4,1.6-3.9,3.1
		c-1.6,0.6-15.2,6.4-19.6,20.1c-0.6,1.9-1.4,6.9-1.4,7.8c0,8.5,6.4,12,9.4,13.5c2.5,1.4,2.8,1.5,3,2.1c0.9,1.6,1.4,5.1,1.4,6.8
		c0,3.5-0.9,3.8-3.3,3.8c-1.9,0-8.3-5.5-8.8-6.4c-2.3-3.1-5.1-7.2-5.8-9.2c-0.1-0.5-1.8-5.3-1.8-5.6c0-7.8,2-15.8,2.1-16.2
		c0.2-0.8,2.3-5.9,2.6-6.5c1-1.8,5.6-10.3,6.6-11.9l-0.1-0.4c-2,0.3-20.6,8.3-23.6,9.7c-1.1,0.5-6.4,3.6-7.5,4.3
		c-0.6,0.4-4.3,2.3-4.9,2.6c-0.9,0.6-4.1,2.9-4.9,2.9c-0.9,0-1.6-0.4-3.6-2.4c-0.6-0.6-0.8-4.3-0.8-5.3c0-5.3,1.4-5.4,7.3-6.1
		c9-1.1,28.5-23.1,36.3-36.1V495.2z"/>
	<path class="st0" d="M322.9,569.7c-0.2,0.1-7.2,3.3-7.8,3.3h-1.3c-0.4,0-1.9,0.5-2.2,0.5c-1,0-1.8-0.6-1.8-1.3c0-1.8,3-2.4,4.2-3.5
		c3.1-2.5,9.7-9.4,13.4-15.5c4.3-6.9,7-15.1,7-20.1c0-2.5-0.4-10.9-7.4-19.4c-2.2-2.5-6.8-5.3-7-5.4c-3.7-1.1-5.5-1.6-10.5-1.6
		c-1.9,0-7.8,0.8-9.3,1.2c-0.6,0.2-1.7,0.5-1.7,1.3c0,1,4.3,3.3,4.9,3.9c2.4,2.6,2.6,2.9,2.7,5.1c-3.5,4.2-4.3,6-7.9,13.3
		c-0.8,1.6-10.4,19.8-13.3,23.4c-1.1,1.4-7.2,8.6-8.4,9.3c-1.3,1-4.3,2.2-4.9,2.2c-1.3,0-2.5-2.3-2.7-3.2c-1.4-5.1-2-7.4-4.5-12.8
		c-1.6-3.5-3.8-10.5-3.8-11.2c0-5.7,2.5-9.7,3.1-10.5c3.6-5.3,8.7-12.8,15.2-16.7c7.6-4.7,9-5.1,19.7-9c1.6-0.5,7.3-1.3,8.8-1.3
		c14.2,0,23.1,6.9,25,9.1c0.5,0.5,5.4,6.6,5.7,7.4c2,4.2,5.1,10.8,5.1,16.1c0,7-0.1,7.8-0.8,11.3c-1.1,4.8-1.7,8.1-7.2,14.3
		c-0.7,0.8-3.3,3.5-3.8,3.8L322.9,569.7z M290.9,512.3c-2.2,0-6.5,3-14.2,8.5c-3.9,2.9-11.1,12.4-11.1,16.8c0,5.3,8.5,13.6,10,13.6
		c1.7,0,2-0.6,5.5-6.5c3.6-6.1,4.1-6.8,5.4-9.9c0.8-1.9,4.8-10.2,5.4-11.8c0.8-2.4,1.9-7.5,1.9-8.5
		C293.8,513.3,291.4,512.3,290.9,512.3z"/>
	<path class="st0" d="M379.1,556.8c1.6-0.6,2.9-1.9,3.6-3.3c0.1-1.3,1-6.6,1.1-7.8c0.1-1.6,0.4-8.5,0.5-9.9c0-0.4,0.1-1.1,0.1-1.6
		c0-0.4-0.4-1.8-0.6-2.6c-0.5-0.5-2.9-4.1-3-4.6c-1.3,0-3,0.6-5.3,1.4v0.4c0.5,0.4,4.5,3.8,4.6,3.8c0.5,0.8,0.8,1.6,0.8,2.1
		c0,1-2.8,4.4-3.1,5.1c-0.3,0.6-2.4,8-3,9.4l-4.6,9.9l-6.4,10.7c-0.9,1.5-5.5,6.3-8.3,7.7c-0.5-0.4-0.6-0.5-0.6-0.9
		c0-0.8,2.1-3.5,2.5-4.1c1.5-2.4,6-13,8.2-17.8c1.9-4.5,4.8-15.8,4.8-19.2c0-0.4,0-2.4-1.3-4.5c-1.1-0.1-1.3-0.1-2.6,0.5
		c-3.9,1.6-4.4,1.8-5.5,1.8c-1.4,0-7.5-1.5-7.5-2.4l0.4-0.9c3.6-0.1,13.3-3,13.5-3.1c1.4-0.8,8-2.8,9.4-3.4c0.1-1.5-0.2-8.2-0.2-9.5
		V503c-0.4-2-0.6-11.2-1.4-12.8c-0.4-0.8-3.4-3.4-3.9-3.8c-0.8-0.8-0.9-0.9-0.9-1.3c0-2.5,5.1-3,7-3c1.1,0,10.7,5,10.7,8.3
		c0,0.4-1.1,2.8-1.3,3.1c-0.6,1.3-1.6,8.3-2,12.5l-1,10.7c0,0.9-0.5,4.3-0.5,4.9c1-0.5,6-1.9,7.7-2.4c0.4-0.1,3.5-1.8,4.3-1.8
		c1.1,0,5.8,0.4,6.9,0.8c0.4,0.6,1.5,3,1.5,3.4c0,0.5-0.6,1.1-0.8,1.3c-0.8,0-3.4,0.5-4,0.5c-3,0-13,1.4-15.9,2.9
		c0.8,0.3,1,0.4,3.5,1c0.8,0.1,4.4,2.1,4.4,4.5c0,0.4-0.3,1-0.6,1.8l-1.3,10.8c-0.1,0.6-0.5,4.3-0.5,4.8c0,0.3,0,0.4,0.4,0.6
		c1.3-0.1,2-0.6,4.9-3.5c3.8-3.5,6-5.6,8.5-8.5c1.1-1.1,2.6-3.1,3.8-4.3c0.5-0.1,0.6-0.1,1,0.1c0.1,2.6-9.5,18.1-11.8,21.5
		c-0.5,0.8-2.9,3.6-3.4,4.3c-0.8,1.3-5,8.2-6.4,8.2c-0.6,0-0.9-0.4-3.3-3.8c-0.4-0.6-3.1-2.9-3.3-3.6c0-0.1-0.1-0.4,0-0.6
		L379.1,556.8z M356.1,500.5c0.6,0.1,8.5,2.9,10.9,4.9c0.6,0.5,4.1,2.8,4.6,3.4c1.1,1.3,2.8,6.8,2.8,7c0,1.3-0.6,4-2.5,4
		c-1.6,0-4.3-2.3-4.6-2.8l-7-7.9c-0.9-1-4.5-7.2-4.5-8.3L356.1,500.5z M405.6,500.5c1.1-1,6.9-14.2,7.5-15.7l0.5-0.1
		c0.3,0.8,1.1,4,1.4,4.6c0.5,0.1,0.5,0.1,1,0.1l10.9-2.1c3.1-0.6,17.4-2.6,24.3-3.6c0.8-0.5,1.6-1.5,2.4-2.3
		c0.6-0.5,0.9-0.9,1.6-0.9c1.8,0,2,0.1,6.8,4.4c1,0.9,6.5,4.8,7.2,5.3c1,0.9,1.4,2.5,1.4,3c0,0.9-0.8,1.8-1.4,2.4
		c-3.9,0.1-4.8,0.3-6.5,1c-2.6,1.1-6.3,2.8-9.4,2.8c-0.5,0-2.4-0.3-2.4-2c0-0.5,2-3.4,3.1-5.1c0.5-0.8,1.1-2.4,1.6-3.5
		c-0.1-0.3-0.6-1-1.1-1c-0.4,0-2.6,0.6-3.3,0.6l-10.8,1c-0.4,0.1-1.3,0.5-1.6,0.6c-0.5,0-3,0.3-3.5,0.3l-2,0.6v0.3l1.5,0.3
		c0.5,0.5,1.3,0.9,2.9,1.4c0.3,0.1,0.8,1,0.9,1.3c0.9,0.9,1.8,1.8,2,2.5c-0.1,0.4-0.8,1.9-1,2.3c-0.1,0.4-0.4,1.3-0.4,2.1
		c1-0.1,1.3-0.1,3.3-0.9c0.9,0,2.8-0.1,4-0.3c3.8-0.3,4.9,3,4.9,3.5c0,1.3-0.8,1.4-2.9,2c-1.5,0.4-8.4,1.6-9.7,2.3
		c-0.4,1.4-0.6,2.4-0.6,4.6c0,1,0.1,1.4,0.3,2.4c3.8-1,4.3-1.1,4.6-1.1c3,0,5.9,0,7.7-1.5c2.9-2.3,3.1-2.5,3.9-2.5
		c0.6,0,2.1,0.8,2.5,1c0.1,0.1,1.1,1.5,1.4,1.8c3.3,3.1,7.4,7.2,7.4,9.3c0,1,0,1.1-2.1,2.4c-1.3,0.8-6,8.2-6.8,9.4
		c-4.5,8.4-5.5,10.2-7.5,10.2c-0.4,0-1.5-0.9-1.8-1c-0.5-0.4-0.9-0.4-2-0.4c-0.9,0-4.5,0.5-5.3,0.5c-2.6,0-2.6,0.1-2.6,3.3
		c0,1.5,0,5.5,0.2,6.9c1.9-0.3,10.3-1.4,12-1.9c1.1-0.1,6.3-2,7.3-2c1.1,0,12.3,1.8,12.3,7.3c0,1.4-2.5,2.1-2.9,2.1
		c-0.4,0-5.8,0-8.9-1.3c-1.4-0.5-9.9-0.6-10.7-0.6c-1,0-6.6,0.3-7.2,0.4c-2,0-2.3,0-2.3,1.1s0.4,6.1,0.2,7.2l-0.9,11.5
		c-0.1,1.1-1.5,13-4,13c-1,0-1.8-1-2-2.8l-1.5-10.4l-0.4-10.8l0.1-7.5c-0.4,0-1.1-0.1-1.6-0.1c-3.4,0-8.3,1.8-10.2,2.4
		c-0.9,0.4-8.3,2.6-8.8,2.6s-7.7-2.4-9.3-4.6l0.1-0.3c5.5-0.1,7.3-0.1,12.2-0.6c1.1-0.1,16.2-3.4,17.3-3.6l0.5-0.6
		c-0.1-1.4,0.3-7.3,0.3-8.5c0-0.3,0-0.4-0.4-0.9c-2.5,0.1-6.4,0.6-7.7,1.1c-1.8,0-2.1,0.1-4.6,0.9c-0.5-0.3-2.5-1.5-2.8-1.9
		c-2.3-4.3-2.8-5.9-3.9-9.8c-0.3-0.9-6.9-15.2-6.9-16.9c0-0.6,0.9-0.6,1.4-0.6c0.8,0,3.1,0.4,4.5,1c0.5,0.3,2,1,3.1,1.5
		c1.3,0,2.9-0.3,4.1-0.8l11.9-2.5c0.2,0,0.8-0.3,0.8-0.8c0-0.8-0.4-4.5-0.6-5.5c-1.1-0.1-6.8,0-7.8-0.1c-0.5-0.1-6.8-2.4-6.8-3.5
		c0-0.6,0.6-0.9,1-0.9c0.4,0,1.8,0.3,2,0.3c0.9,0,9.3-0.8,11.2-2c0-2.4-0.2-4.8-1.6-6.6c-0.4-0.5-1.5-2.6-1.9-3
		c-0.1-0.1-0.8-0.9-1.4-0.9c-0.4,0-1.6,0.2-1.9,0.2c-1,0-5.4-0.8-6.3-0.8c0.2,4.4,0,5-2.1,11c0,0.1-3.5,7.2-4.1,8.4
		c-0.5,1.3-1.5,1.4-2.3,1.5c-1.5-1.6-2.4-2.5-2.4-5.4c0-0.9,0.4-4.5,0.4-5.3l-0.4-0.3c-0.2,0.3-4.3,3.3-5,3.8
		c-1,0.8-4.6,4.6-5.5,5.3c-1.3,0.8-5.5,3.4-6.7,3.4c-0.5,0-1.4-0.4-1.4-1.5c0-0.9,2.8-4.3,3.1-5c2.6-5.4,2.9-6,3.5-8.7
		c0.1-0.3,0.8-1.5,0.8-1.9c0-0.3-0.5-1.9-0.5-2.1c0-1.1,1.1-1.3,1.8-1.3c1.9,0,8.3,4.1,8.3,4.3c0.4,0.3,2,1.4,2.1,1.8L405.6,500.5z
		 M430.1,522.7c0-0.9-0.1-1.9-0.4-2.9c-1.6,0.3-11.3,2.9-12.3,2.9c-0.4-0.1-0.8-0.1-1.3-0.1c-0.2,0.6-0.4,1.1-0.4,1.9
		c0,2.3,0,5,1.9,5c3.4,0,9-0.5,12.2-2.1C429.9,525.7,430.1,524.7,430.1,522.7z M428.7,531.3c-0.1,0-0.2,0-1.8,0.5h-2.4
		c-0.9,0.1-4.5,1.5-5,1.6c-0.6,0.3-1.6,0.3-1.9,0.1c-0.1,0.5-0.3,0.8-0.3,1c0,1.4,0.1,6.6,1.9,6.6c2.9,0,6.1-0.5,9.8-1.3
		c0.5-0.3,0.9-0.5,0.9-1.3c0-1-0.1-6-0.3-7.2C429.6,531.6,428.8,531.3,428.7,531.3z M438.2,538c1.4,0.3,1.6,0.4,4.3-0.5
		c0.8-0.3,4-0.4,4.4-0.9c0.6-0.8,5.3-15.9,5.3-18.6c0-0.8-0.4-1.5-1.3-1.5c-1.8,0-9.5,0.9-12.4,1.8c-0.1,0.4-0.3,1-0.3,1.1
		c0,0.8,0,5.6,0.3,6.3c1.4-0.1,1.6-0.4,2.4-0.9c2.3-0.1,5.8-0.4,5.8,1.8c0,1.1-2.1,2.5-4.5,2.5c-2,0-2.3,0-3.9,0.4l-0.2,8.2
		L438.2,538z"/>
	<path class="st0" d="M503.8,510.9c0.7-0.2,0.7-0.2,2-0.2c0.1,0,4.5-1.9,5.5-2.2c0.2-1.3-1.2-4.8-2-6c-0.4-0.5-0.8-3.3-1.2-3.8
		c-0.6-1.1-0.7-3-0.7-4.1c0-0.2,1.4-6.6,4.1-6.6c2.5,0,2.7,1.8,4.2,9.3c0.1,0.8,1.6,4.7,1.6,5.4c0.1,0.5,0.2,0.6,1.6,2l0.7-0.1
		c0.6-0.8,1.6-2,3.8-2c0.8,0,4.8,0.6,5.6,0.6c1.8,0,5.1,0.6,5.1,3.1c0,1.3-0.5,1.4-4.5,3.2c-1.2,0.6-6.8,2.5-7.6,3.3
		c0.5,2.3,5.4,10.9,7.3,13.3c1.4-0.8,1.8-1.2,5.1-4.7c0.5-0.5,3.5-1.3,5.6-1.3c1.9,0,4.9,0.7,5.7,1.1c0.4,0.1,1,0.4,1,1.4
		c0,2-0.2,2.3-3.7,5c-1.2,1-8.2,3.7-8.2,4.4s1.9,3.6,5.5,7.4c1.3,1.6,4.1,4.4,4.1,9.2c0,2-0.8,7.6-3.7,7.6c-1.4,0-2.5-1.2-3.3-2.3
		c-0.7-1-7.4-2.9-10.2-3.6c0.2-1.7,0.7-1.8,3.3-2.6c0.2-0.1,4.4-1.8,4.4-2.7c0-1-3.5-7.3-4.3-8.8c-0.6-1-1.1-1-2.3-1
		c-1.8,0-9.4,3.1-11.1,3.5c-1.1,0.2-5.7,1.6-6.7,1.6c-0.4,0-1.9,0.6-2.3,0.6c-1.9,0-7.1-1-7.1-3.7c0-1.4,0.4-1.6,1.2-1.6
		c4.4,0,7.4-0.4,12.2-2.3c6.2-2.4,9.9-4.1,9.9-5c0-0.2-5-7-5.9-8.1c-0.5-0.8-2.9-4.4-3.6-5c-0.2-0.4-0.5-0.4-1-0.4
		c-0.1,0-3.6,0.2-4.3,0.2c-1.2,0-9-0.6-8.4-4.2c0.2-0.1,0.5-0.1,1.9-0.4L503.8,510.9z M505,560.8c0.6,1.1,0.7,1.4,1.3,4.2
		c0.1,0.6,1.9,3.7,3.1,4.9c1.9,1.8,3.9,2.6,6.9,2.9c0.5,0,2.6,0.4,3,0.4c1.1,0,2.3,0,3.3-0.1c0.4,0,4.1-1,4.3-1c3.6,0,3.9,0,6,1
		c0.5,0.4,2.7,1.2,3.2,1.4c3.1,2.4,3.5,2.6,3.5,3.9c0,0.6,0,1-2.4,2.7c-1.2,1-2.2,1-6.3,1c-5.3,0-12.7-0.7-18.6-3
		c-5.6-2-10.2-7-10.2-12.1c0-1.4,0.5-3.8,1-4.7c0.1-0.4,1.2-1.6,1.3-1.9L505,560.8z"/>
	<path class="st0" d="M595.5,543l-1,9.6c-0.1,1.5,0,7.7,0,9c0,0.8,0.2,1.1,1.1,2.7c0.3,0.1,0.6,0.2,1.1,0.1c0.5-0.8,3.1-4,3.3-4.8
		c0.4-1,1.2-1.6,1.5-1.6c0.2,0,0.6,0.2,0.8,0.3c0.1,0.1,0.3,0.9,0.3,1.2c0,0.8-0.5,4.5-0.5,4.8c0,0.4-2.6,8.9-2.6,10.6
		c0,7.5,0,9-1.4,9c-1.3,0-1.9-0.6-4.3-3.5c-3.8-4.6-4.6-6.1-6.1-11.3c-0.2-0.6-0.3-1.4-0.3-2.3c0-0.5,0.8-3,0.9-3.4
		c0.2-1.2,0.4-4.3,0.5-6.5c0.1-1.5,0.9-7.8,0.9-9.1c0-3.9,0.1-4.4,0.9-9.6c0.2-1.2,0.3-6.8,0.5-7.8c0.3-2.4,1.2-10.6,1.2-12.5
		c0-0.8-0.4-4.1-0.4-4.7c0-0.3-0.8-2-0.8-2.5c0-1.3,1.2-1.6,1.8-1.6c1.4,0,1.7,0.5,3.4,3.2c1.9,2.9,3.8,7,3.8,10.1
		c0,0.8-1.7,6.6-1.9,7.3l-1.7,8.9L595.5,543z M639.5,527.1c-2,0.4-8.8,1.9-10.6,1.9c-1.5,0-3.4-0.1-5.4-0.2l-0.2-0.5
		c1-1.4,11.4-7.3,16.1-8.6c0.1-0.6,0.2-1.6,0.2-2.2c0-0.9-0.3-4.6-0.3-5.4c0-0.4,0.1-2.3,0.1-2.7c0-0.3,0.2-1.6,0.2-1.9
		c0-1.3,0.8-5.6,1.3-6.5c0.9-1.4,2.5-3.4,3.9-3.4c1.9,0,3.2,1.2,3.2,3.2c0,1.1-1.2,6.5-1.3,7.2c-0.3,1.8-0.8,6.2-0.8,7.1
		c0,1.1,0.1,1.8,0.3,2.7c0.5,0,2.8-0.5,3.3-0.5c2.7,0,8.9,1.8,8.9,4.6c0,3.7-9.1,3.7-11.4,3.4l-0.3,0.3c0,0.5,1.7,15.8,1.9,18.8
		c0.1,1.8,0.4,10.2,0.4,11.5c0,1.8-1.1,7-1.6,8.4l0.2,0.4c1.1,0.4,8.4,3.8,11.1,5.5c3,1.9,5.6,8.4,5.6,10.6c0,0.6-0.8,1-1.4,1
		c-0.6,0-3-1.6-3.5-1.7c-0.8-0.4-4.2-3.5-4.9-4.2c-1.3-1-8.9-5.3-9.5-5.4c-0.4,0.3-1.9,2.7-2.3,3.1c-1.7,1.9-4.4,5.2-11,5.2
		c-4.8,0-13.4-4.3-13.4-11.4c0-0.9,0.8-3.9,2-4.8c1.8-1.3,5.6-2,7.8-2c0.5,0,11.3,1.5,11.8,1.5c2,0,2.8-9.6,2.8-9.8
		c0-0.8-0.1-3.9-0.1-4.5c0.1-1.3-0.6-7.3-0.6-8.6c0-0.6-1-6.7-1.2-7.8c-0.1-0.6-0.9-3.4-1-4.1L639.5,527.1z M627.6,565.2
		c-1.6,0-4.3,0.5-4.3,1.9c0,1.9,5.2,4.5,7.6,4.5c3.1,0,5.3-2.8,6.6-4.6C635.7,566.1,629.5,565.2,627.6,565.2z"/>
	<path class="st0" d="M182.2,688.7c0.6-0.4,0.9-0.4,1.7-0.4c0.3,1.3-1.6,3.6-2.9,5.2c-3,3.7-8.5,9-11.3,12.6
		c-1.3,1.7-7.9,9.2-8.3,10c-0.3,0.7-1,4.4-1.6,5c-0.4,0.3-1,0.7-1.4,0.9c-1.4-0.4-5.3-4.9-7.5-7.5c-0.6-0.4-1.4-3.7-1.6-4.3
		c-0.4-0.9-2.2-4.3-2.4-5.2c-0.1-0.4-0.1-0.9-0.1-1.1c0-0.4,0.3-0.7,0.7-1c0.6,0.1,2.9,0.1,3.4,0.1c0.4,0,2.2,0.6,2.6,0.6
		c3,0,6.7-1.6,12.8-5.2c1.3-0.7,7.6-4.2,8.9-5L182.2,688.7z M150.1,660.9c4.4,0,6.7,0.3,8.5,0.6c1.4,0.3,1.7,0.3,3.3,0.3
		c7.9,0,14.2,4.2,14.2,12.8c0,1.7-1,2.4-3.2,2.4c-1.3,0-12.9-7.2-13.6-7.7c-2.4-2-6.6-4.9-9.9-7.2
		C149.5,661.6,149.5,660.9,150.1,660.9z M206.4,709.9c0,1,0.7,5,0.7,5.9c0,0.9,0.1,4.9,0.1,5.6c0,0.9-2.2,9-2.6,9.8
		c-0.4,1-3.4,6.2-5.6,6.2c-1,0-1.6-0.4-2.9-1.4c-0.3-1.3-0.3-1.3-2.2-3.3c-0.3-0.3-1-2-1.1-2.3c-0.6-0.7-2.2-3.6-2.6-4.2
		c-1-1-7.9-8.3-7.9-9.6c0-0.4,0.1-0.7,0.6-1.4c1.1,0.1,6.6,2,7.7,2.3c1.6,0.3,2.3,0.4,3.6,0.4c0.7-1.9,0.9-2.4,1.1-3.2
		c0.3-0.9,0.6-3.7,0.6-4.6c0-1,0.3-5.2,0.3-5.9c0-1.9,0.1-5.3,0.1-6.2c0-0.6,0.3-3,0.3-3.6c0-1.4-0.3-8.3-0.3-9.8l0.1-13.9
		c0.1-10.8-0.1-21.9-0.3-25.5c-2,0.1-8.6,0.9-10.9,1.3c-2.6,0.4-13.8,2.4-16.1,2.7c-1.3,0.1-3.9,0.6-5,0.6c-3.3,0-11.9-5.7-12.3-6.3
		c0.3-0.9,1.1-1.1,1.6-1.1c0.6,0,2.7,0.6,3.2,0.6c1.3,0,6.9,0.6,8,0.6c2,0,10.6-1.1,12.3-1.3c5.4-0.3,15.3-0.9,19.1-1.4
		c0.4-25.1-2.4-29.3-8.2-37.6c2.3-0.3,2.9-0.4,3.9-0.4s6.7,0.9,7.5,1.3c1.9,1,10.8,7.2,11.8,8.9c0.1,0.4,0.6,1.1,0.6,1.6
		c0,0.4-1.4,4.7-1.7,5.6c-0.4,2-1.7,8.2-2.4,13.9c-0.1,0.9-0.4,4.9-0.6,5.6c3.6,0,4.7,0,7-0.3l12.3-1.4c0.9,0,8.5-2.3,9.8-2.3
		c1.4,0,2.3,0.9,3.3,1.6c1.7,0.6,10.9,3.6,10.9,6.5c0,0.7-0.6,1.9-1.6,1.9c-1.3,0-7.3,0.1-8,0.1c-0.9,0-8-1.6-9.6-1.6
		c-1,0-5.6,0.3-6.6,0.3c-0.6,0-2.9-0.4-3.6-0.4c-6.5,0-10.9,0.3-14.3,0.4c0,1.9-0.1,2.7-0.1,4.2l-0.4,12.2c-0.3,7.6-0.1,9-0.1,13.9
		c0.1,0.3,2,2.3,2.3,2.6c0.4-0.6,8.5-6.2,10-7.3c2.4-1.7,11.5-10.9,11.5-13c0-0.3-1.1-3.3-1.7-4.7c1-0.7,2.7-1.7,3.9-1.7
		c2.6,0,5.7,3.2,8.2,5.4c0.6,0.6,4.2,2.3,4.6,3c0.4,0.6,1.3,4,1.7,4.6c-2.3,2.6-2.9,2.9-4.4,3c-0.3,0-4.9,2.2-5.6,2.3
		c-4.9,1.7-5.3,1.9-9.8,4c-0.7,0.1-2.6,0.7-3.9,1c-1.1,0.4-6,3-7,3.3c-1.3,0.3-5,1-6.5,1.3c13.9,15.1,22.2,19.8,36.1,27.7
		c13.9,7.7,15.5,8.6,15.5,9.5c0,2.2-10.8,3.7-15.2,3.7s-7.5,0-21.7-15.5c-2.9-3.2-15.2-17.3-17.9-20.1c0,1.7,0.3,9.3,0.3,10.8
		c0,0.4-0.1,1.9-0.1,2.2L206.4,709.9z M232.5,614.4c4.9,0,5.7,0.4,14.5,3.2c2,0.6,4.3,6.7,4.3,9.8c0,0.6-0.1,2-1.3,2
		c-3,0-23.1-10-23.1-13.3C226.9,614.6,228.9,614.4,232.5,614.4z"/>
	<path class="st0" d="M377,724.1c1.1,0.1,12,1.9,12.8,1.9c0.4,0.3,5,1.3,5.7,1.4c0.7,0.3,1,1,1,1.4c0,1.4-2.6,2.3-4.4,2.9l-11.6,3.9
		c-1.1,0.4-4.9,0.9-6.5,0.9c-3.9,0-12.2-3.2-16.2-5c-2.3-1-26.2-11.6-30.1-13.2l-10.8-4.6c-1.6-0.7-8.9-2.4-10.5-2.9
		c-1.7-0.6-4.7-0.6-6.5-0.6c-4.6,0-11.9,1.9-16.8,4.6c-1.6,0.9-7.6,6.2-9.2,6.2c-2.7,0-2.7-4.9-2.7-6.7c0-0.6,0.9-8,3-8
		c0.4,0,2.3,1,3.4,1.4c0.6,0,3.2,0.3,3.9,0.3c3.4,0,14.1-10.2,14.6-14.2c-0.7-0.6-4.9-2.4-5.6-3c-0.9-1-3-3.6-3-5.4
		c0-2.2,0.4-4.2,1.9-10.9v-3.2c-0.9,0.1-2.9,1-3.6,1.3c-0.7,0.3-4.4,1-5.2,1.1l-3.6-0.6l-5.7-2.3c-0.3-1.3-0.1-2.2,0.6-2.4
		c0.7,0,2,0.3,2.9,0.3c1.7,0,13.8-1.4,17.1-9c0.4-0.1,1.6-0.4,2.3-0.4c1.4,0,13.8,7.2,13.8,9.3c0,1.4-5.3,5.3-6.2,6.3
		c-3,3.9-6.6,9-6.6,10.8c0,1.3,0.6,1.6,5.7,4.2c2.7,1.3,4.4,5.4,4.9,6.9c0,0.7-0.4,2.2-1,3.6c-0.7,0.7-4.2,3.2-4.9,3.7
		c1.7,0.4,8.9,1.3,10.3,1.7c6.9,1.9,19.2,5.3,22.1,7c0.9,0.4,5.6,1.1,6.5,1.4c0.6,0.1,3,1.3,3.6,1.4c1,0.4,6.5,1.7,7.2,2
		c3.2,1,8.2,2.7,9.8,3c0.7,0,3.6,0.4,4,0.6L377,724.1z M301.6,640.6c-4.6-0.7-5.2-0.7-21.4-8.7c-2.4-1.1-2.7-1.4-2.7-2.2
		c0-0.7,1.6-1.6,3.7-1.9c2.2,0,11.6,0.4,13.5,0.4c2.6,0,2.9,0,3.9,0.9c1.1,1,5,6,5,8.3c0,0.4-0.1,1.6-0.3,1.9L301.6,640.6z
		 M332.2,632.2c11.9-1,12.5-1.1,14.2-2.9c3.2-2.9,3.6-3.4,6.9-8.2c1-1.4,5.6-7.2,6.2-8.5c1.1-2.3,1.3-3.7,1.3-4.6
		c0-1-0.1-1.1-0.7-2.3c-0.1-0.3,0-1.1,0.1-1.4c4.4-0.9,7.9,2.7,10.3,5.2c0.7,0.9,3.3,4.6,4,5.4c-0.1,2.7-0.7,2.9-5.4,4.2
		c-2.4,0.7-10.5,8.5-12.5,9.5c-0.3,0.3-2.2,1-2.3,1.3c-0.1,0.1-0.3,0.4-0.3,0.6c2-0.1,12.6-0.9,14.9-1c0.1,0,5.4-1.9,6.6-1.9
		c1.1,0,3.2,0.6,5.4,2.3l2.9,1.4c1.4,1.1,2.7,2.6,2.7,3.6c0,1.6-3.3,3.6-6.3,3l-11.5-2.4c-1-0.1-3.9-0.4-4.9-0.4
		c-3.4,0-12.2,0-15.5,1.1l-0.1,0.3c0.3,1,3.7,4.7,3.7,5.6c0,1.1-0.6,1.6-5,5c-0.7,0.6-1.6,1.6-2.3,2.6c1,0.1,13.2-0.6,15.2-2.3
		c1.9-1.6,2.3-1.9,3.7-1.9c1.9,0,6.6,3.9,8.7,5.6c0.7,0.7,4.7,4,4.9,4.3c0.1,0.3,0.4,0.9,0.4,1.1c0,0.9-2.4,4.4-2.6,5.2
		c-0.3,0.9-1.1,12.3-1.1,13l-0.1,13.5c-0.1,1,0.3,5.9,0.3,6.3c0,1.1-0.4,4.4-0.4,5.3c0,0.7,0.4,6,0.1,7c-0.1,0.7-2.6,8.5-6.3,8.5
		c-0.6,0-3.4-0.9-4.6-3.6c-0.4-1.1-0.7-6-0.9-7c-3.6-1.4-10.8-2.2-11.5-2.2c-0.4,0-3.6,0.3-4.2,0.3c-3.7,0-5.9,0.1-13.3,1.6
		c-1.1,0.1-1.3,0.4-3,2.2c-0.3,0.3-0.9,0.7-1.4,0.7c-0.9,0-4.2-5.7-4.4-8.6c0.9-2.2,2.3-16.9,2.3-19.5c0-1.4-0.3-7.2-0.3-8.3
		c0-0.7,0.4-3.7,0.4-4.3c0-1.4-1-7.7-1.9-9.9c-0.3-0.7-2.2-3-2.2-3.6c0-0.4,0.1-0.6,0.4-1.1c1.9-0.3,4.2,0.9,5.4,1.4
		c2.4-0.4,2.7-0.9,4.6-3.3c2-2.6,6.5-8.5,6.5-11.6c0-0.9-0.7-1.1-1.4-1.1c-0.4,0-8.3,1.1-10.5,2c-1,0.4-6.3,2.4-6.9,2.4
		c-1.3,0-11.5-7.7-11.5-8.9c0-0.4,0.3-1,0.6-1.4c1-0.1,1.6,0,4.2,1.1c0.9,0.4,4.9,0.7,5.4,0.7L332.2,632.2z M320.4,608.1
		c3.4,0,10,4,12.9,6c6.2,4.2,6.3,4.4,6.3,11.8c0,1.7-0.7,4-2.9,4c-2.3,0-2.7-0.6-7.2-5.9c-2-2.4-10.6-12.9-10.6-14.9l0.6-0.7
		C319.8,608.2,320.1,608.1,320.4,608.1z M334.3,665.9c2.2,0.1,8.2-0.6,13-3.2c0.7,0,6.2,0.3,8.3,0.6c0.6-0.1,0.9-0.1,1.3,0.1
		c0.9,1.1,0.9,1.6,0.9,2c0,1.6-1.6,2.7-6.6,2.7c-0.7,0-12,2.3-13.8,2.3c-0.7,0-3.3,0-4,0.4c0.1,1.7,0.1,9.8,0.1,10.3
		c1.7,0.3,7-0.9,10.5-1.9c0.6-0.1,2.9-1.1,3.3-1.3c0.7,0,5.9-0.3,6.5-0.3c2.4,0,4,0.4,4,2.2c0,1.1-0.3,1.9-0.4,2.7
		c-2.6,1.7-11.3,2.9-11.9,2.9c-0.6,0-3.3-0.3-3.7-0.3c-0.4,0.1-3.3,0.4-3.7,0.4c-0.7,0-3.7-0.6-4.4-0.6c-0.1,0.9-0.3,1.7-0.3,2.6
		s0.4,5,0.4,5.9c0,3.2,0,4.6,0.7,5.4c0.6,0,6.9-0.7,8.2-0.9c0.9-0.1,5-0.6,5.7-0.6s4.7,0.1,5.3,0.1c0.6,0,3.9-0.4,4.6-0.4
		c0.6,0,2.3,0.4,2.7,0.4c0.4,0,1-0.3,1.3-0.7l0.1-4l0.4-18.1c0-1.4,0.6-7.5,0.6-8.6c0-10.8-0.6-13.3-6-13.3c-3,0-18.8,2.7-22.1,3.3
		c-0.7,0.4-0.9,0.6-1.9,0.9l-0.3,0.9c0.4,1.1,1.1,3.3,1.1,4.4V665.9z"/>
</g>
<g>
	<path class="st0" d="M164.1,812c3.5,3.7,7.1,4.2,16,4.2c5.7,0,13.5,0,19.6-0.2v0.7c-2,0.4-3,1.8-3.3,4.1h-16.3
		c-9.3,0-13.2-1.4-16.7-7.9c-2.1,2.6-5.4,6-7.5,7.9c0.1,0.6-0.3,1-0.7,1.2l-2.8-5.6c1.8-0.7,4.5-1.8,7.2-3.1v-14.9h-6.8l-0.3-1.5
		h6.3l2.5-3.2l5.3,4.4c-0.4,0.4-1.2,0.8-2.6,1V812z M154.9,776.8c13.8,3.2,9.8,13.1,5,9.6c-0.6-3.2-3.2-7-5.4-9.3L154.9,776.8z
		 M166.6,785.1l-0.4-1.5h18c0.9-2.6,1.8-6,2.3-8.6l7,1.6c-0.2,0.6-0.8,1.1-1.9,1.1c-1.4,1.7-3.7,4-5.9,5.9h6.1l2.8-3.6
		c0,0,3.1,2.5,5,4.3c-0.2,0.6-0.7,0.8-1.4,0.8H184c-0.9,1.5-2,3.2-3.1,4.6h7.8l2.3-2.6l4.9,3.8c-0.3,0.4-1,0.8-2,1v20.6
		c0,0.4-2.4,1.4-4,1.4h-0.8v-3.2h-14v1.9c0,0.5-2,1.5-4,1.5h-0.7v-26.6l5,2.1h2.9c0.2-1.5,0.4-3.2,0.5-4.6H166.6z M172.4,775.1
		c11,2.6,6.6,10.7,2.5,7.4c-0.2-2.5-1.6-5.2-3-7.1L172.4,775.1z M175.2,791.2v4.9h14v-4.9H175.2z M175.2,802.6h14v-5h-14V802.6z
		 M189.2,809.3v-5.2h-14v5.2H189.2z"/>
	<path class="st0" d="M246.8,804.4c0,0,3.5,2.5,5.6,4.4c-0.2,0.6-0.7,0.8-1.4,0.8h-45l-0.5-1.5h38.3L246.8,804.4z M205.9,821.3
		c5.8-2.6,12.1-7.3,15.1-10.6l6,3.4c-0.4,0.6-1.2,0.8-2.7,0.5c-4.1,2.8-11.2,5.9-18.1,7.5L205.9,821.3z M220.5,804.4
		c0,0.5-2,1.6-4.1,1.6h-0.8v-29.4l5.1,2.1h17l2.4-2.6l5,3.9c-0.4,0.4-1.1,0.9-2.1,1.1V804c-0.1,0.4-2.5,1.4-4.1,1.4h-0.8v-2.6h-17.8
		V804.4z M220.5,780.2v5.8h17.8v-5.8H220.5z M238.3,793.5v-6h-17.8v6H238.3z M238.3,801.3V795h-17.8v6.3H238.3z M233.7,811.8
		c24.5,3.5,16.3,12.9,12,9.1c-2.2-2.6-6.4-5.8-12.3-8.4L233.7,811.8z"/>
	<path class="st0" d="M288.3,785.6c1.6,0.1,3.1,0.3,4.2,0.8c1.9,1,3.6,3.2,3.6,4.6c0,1.1-1.1,1.6-3.3,2.4c-3.5,1.1-9.3,3.6-13.2,5.9
		c-4.3,2.5-8.9,6.4-8.9,10.5c0,3,2.9,4.9,9.7,4.9c7.1,0,10.9-1.5,12.1-1.5c2.5,0,4.7,0.6,4.7,2.6c0,0.9-0.9,1.8-2.1,2.3
		c-2,0.7-6.6,1.3-12.9,1.3c-8.8,0-14.6-2.9-14.6-8.6s5.5-10.7,9.1-13.4c-1.4-0.9-2.3-2.3-3-3.8c-1.1-2.5-1.8-7.1-2.2-10.4
		c-0.2-1-0.5-1.6-1.5-2.1c-0.8-0.4-2-0.8-2.9-1l0-0.9c1.4-0.5,2.5-0.8,3.8-0.8c2.9,0,5.8,2.1,5.8,3.5c0.1,1-0.4,1.8-0.3,3.1
		c0,2,0.4,5.1,1,6.9c0.6,1.5,1.4,2.6,2.6,3.4c3.6-2.2,8.1-4.6,9.6-5.4c0.7-0.4,0.8-0.8,0.6-1.5c-0.4-0.9-1.4-1.6-2.3-2.2
		L288.3,785.6z"/>
	<path class="st0" d="M319.6,780.5v-0.9c1.3-0.4,2.5-0.8,3.7-0.7c3,0.1,7.2,3.3,7.2,5.1c0,1.3-1.2,1.8-1.7,4.3c-1,4.8-2,12.3-2,18.5
		c0,6,1.7,8.3,7.5,8.3c7.9,0,15.3-4.9,19.3-10.3l1,0.7c-3.5,8.1-11,14.5-20.8,14.5c-7,0-10.9-3.5-10.9-12.6c0-7.5,1.1-18.3,1.1-21.8
		c0-2.2-0.3-3-1.2-3.6C322.1,781.3,321.1,781,319.6,780.5z"/>
	<path class="st0" d="M367,785.3c0.8,1.3,2,2.6,3.2,2.6c2.9,0,11.2-2.4,19.9-4.4c5.5-1.4,10.2-2.4,11.9-2.4c1.4,0,2.9,0.2,4,0.7
		c1.2,0.6,2,1.3,2,2.4c0,1-0.9,1.8-2.3,1.8c-1.2,0-2.8-0.2-4.4-0.2c-2.3,0-5.6,0.3-8.2,2c-2,1.3-6.6,5.7-6.6,14.9
		c0,6,2.8,8.3,5.8,9.3c3,1.2,5.8,1,7.5,1c1.5,0,3.5,1.3,3.5,2.9c0,1.9-2,2.4-4.3,2.4c-3.5,0-7.7-0.4-11-2.6
		c-3.3-2.3-5.3-5.5-5.3-11.6c0-6.7,2.7-13.1,8.4-17.2c0.4-0.3,0.4-0.6-0.2-0.5c-5.8,1.4-12.9,3.8-15.9,5.4c-1.1,0.6-2.1,1.6-3.3,1.6
		c-2.2,0-5.2-2.9-5.5-5c-0.2-1,0-2,0.2-2.8L367,785.3z"/>
	<path class="st0" d="M460.6,793.2c-0.3,0.5-0.8,0.8-1.9,0.5c-2.6,2.4-6.5,5.3-10.4,7.8c4.2,5.5,9.8,8.8,15.3,10.9l-0.2,0.5
		c-2.1,0.5-3.5,2.2-4.2,4.5c-7.6-4.8-13.1-11.2-16.1-23.7v22c0,3.6-0.8,5.7-7.1,6.3c-0.2-1.6-0.5-2.8-1.3-3.5
		c-0.9-0.8-2.2-1.4-4.9-1.8v-0.8c0,0,5.9,0.5,7.2,0.5c0.9,0,1.2-0.4,1.2-1.1v-12.1c-3.4,3-8.1,7-14.3,11.7c-0.1,0.7-0.4,1.2-0.9,1.5
		l-4.1-5.2c3.3-1.4,11.2-5.3,19.4-9.6v-14.2h-19.5l-0.5-1.5h20v-10.6l6.7,0.7c-0.1,0.7-0.5,1.2-1.8,1.4v8.6h12.2l3-3.7
		c0,0,3.3,2.5,5.3,4.4c-0.1,0.6-0.7,0.8-1.4,0.8H443v3.4c1.1,3.8,2.7,7.1,4.5,9.7c2.7-3.4,5.6-8.1,7-11L460.6,793.2z M424,790.2
		c14.1,4,10,14.1,5.2,10.4c-0.7-3.4-3.3-7.5-5.7-10.1L424,790.2z M446.3,777c12.3,0.7,9.6,9.7,5,7.2c-0.8-2.5-3.3-5.2-5.4-6.8
		L446.3,777z"/>
	<path class="st0" d="M500,787.6c8.8,1.1,14.2,7.3,14.2,15c0,8.8-5.8,16-23.9,16.7l-0.2-1.1c15.1-2.8,19.2-9.7,19.2-16.5
		c0-5.3-3.5-10.7-10-11.8c-1,2.9-2.3,5.9-4.3,10.1c-0.8,1.6-1.6,3-2.4,4.3c1.3,0.7,2.5,1.7,2.5,3.3c0,1.1-0.8,1.7-2,1.7
		c-1.1,0-2.2-0.6-3.2-1.2c-1.3,1.6-2.6,2.9-3.9,3.8c-2,1.6-4.3,3.2-7.5,3.2c-3.3,0-4.8-3.4-4.8-6.7c0-7.3,4.6-12.4,7.4-14.9
		c-0.4-1.3-0.8-2.4-1.1-3.4c-0.8-2.1-2.4-4-4.6-6l0.5-0.6c1.9,0.4,3.7,1,4.8,1.9c1.3,0.9,2.7,1.9,3.3,4.1c0.1,0.5,0.3,1,0.4,1.6
		c2.9-1.9,6.6-3.3,11.3-3.6c0.5-2,0.8-3.6,0.9-4.9c0.1-1.2-0.5-1.5-1.3-1.7c-0.9-0.3-1.9-0.4-3-0.5l-0.1-0.9
		c1.2-0.7,2.5-1.2,3.7-1.2c2.1,0,6.1,2,6.1,3.7c0,1.1-0.8,1.7-1.3,3.3L500,787.6z M486.7,805.5c-1.5-1.6-2.6-3.4-3.3-5.1
		c-0.6-1.4-1.2-2.9-1.7-4.5c-3.2,3.5-4.7,7.7-4.7,10.5c0,2.7,1,3.9,2.3,3.9c1.7,0,3-0.8,4.4-2C484.7,807.6,485.7,806.6,486.7,805.5z
		 M495,789.7c-3.7,0.2-7,1.2-10.2,3.5c0.5,1.8,1.1,3.7,2,5.4c0.8,1.4,1.7,2.6,2.6,3.5c0.8-1.1,1.5-2.2,2.1-3.4
		C493,795.7,494.2,792.5,495,789.7z"/>
	<path class="st0" d="M537.7,779.3l0.3-0.9c4.9,0,7.8,1,9.7,2.2c2.6,1.6,3.8,3.5,3.8,5.9c0,1.4-0.6,2.1-2,2.1
		c-1.6,0-2.4-0.5-4.6-0.6c-2.6-0.1-5.9,0.5-7.2,0.8c-0.9,0.2-1.1,0.6-1.1,1c0,0.7,0.7,2,0.8,3.2c0.1,1.4-0.3,2.5-0.6,4.2
		c-0.4,2.1-1,4.4-1,6.3c0,0.6,0.3,0.6,0.7,0.4c4.4-3.3,10.6-6.8,16.8-6.8c7.8,0,11.7,5.2,11.7,10.5c0,9.5-14.1,13.4-26.3,12.4
		l-0.2-1.2c3.8-0.4,7.6-1,10.7-2.3c8.1-2.7,10.7-6.6,10.7-10.5c0-4-2.9-7.1-7.2-7.1c-5.6,0-11.6,5.4-15,9.4
		c-1.1,1.4-1.7,3.2-3.1,3.2c-0.8,0-1.6-0.5-2.4-1.4c-0.8-0.8-1.2-1.9-1.2-2.8c0-0.9,0.4-2,0.6-3.7c0.4-2.6,1.2-7.4,1.5-9.8
		c0.3-1.8,0.2-2.8,0.2-4c0-1.3,0.5-2.5,2.2-2.8c2.4-0.6,7.2-1.7,9-2.5c0.7-0.3,0.7-0.8,0.1-1.5C543.4,781.3,540.8,780.3,537.7,779.3
		z"/>
	<path class="st0" d="M624.2,809c-2,3.5-5.7,7.4-10.8,7.4c-3.8,0-6.3-2.3-6.3-7.2c0-5.8,2.1-11.4,2.1-16.9c0-3.1-0.9-4.8-3.3-4.8
		c-4.3,0-9.9,4.4-14.4,9.8l-0.1,0.7c-0.4,4.9,0.1,10.5,0.4,13.6c0.2,1.8,0.5,3,0.5,4.2c0,2.4-1.2,4.8-2.9,4.8c-1.4,0-2-0.8-2.2-2.1
		c-0.3-1.3-0.5-2.4-1-3.7c-0.5-1.2-1.7-3.4-2.9-5.2l-2.3,3.4c-0.8,1.2-1.4,2.1-2.5,2.2c-1,0-1.8-0.9-1.8-2.4c0-1.2,0.3-2.1,1.3-3.2
		c2.2-2.3,7.2-8.4,10.7-13.7c0.1-1.2,0.2-2.3,0.3-3.4c-1.5,0.8-3,1.7-3.9,2.3c-1.1,0.7-1.6,2-2.5,2c-1.9,0-4.4-2.3-5-4.2
		c-0.2-0.8-0.2-1.8-0.1-2.6l0.8-0.3c0.8,1.4,1.6,2.3,2.7,2.3c1.4,0,6-2.2,8.5-3.5c0.4-3,0.7-5.4,0.7-6.7c0-1.1-0.2-1.4-1.1-1.8
		c-0.7-0.4-1.7-0.7-2.9-1l0-0.9c1.2-0.5,2.3-0.8,3.6-0.8c2.5,0,5.5,2.7,5.5,4.3c0,1.2-0.6,1.8-1.2,3.5c-0.3,0.7-0.6,1.7-0.9,3
		c0.9,0.6,1.8,1.7,1.8,2.1c0,0.7-0.5,1.1-1.2,1.9l-0.1,0.1c4-3.5,9.1-7.1,13.6-7.1c4.3,0,6.4,2.6,6.4,7.5c0,4.4-2,10.3-2,15.6
		c0,2.7,1,3.7,3.3,3.7c3.1,0,5.6-1.2,8.6-3.6L624.2,809z M588.5,802c-1.4,2.1-2.9,4.3-4.3,6.5c1.2,1.4,2.7,3.1,3.3,3.7
		c0.6,0.6,1,0.5,1-0.5C588.4,809.7,588.3,805.9,588.5,802z"/>
	<path class="st0" d="M641.3,780c0.8,1.5,1.8,3,3.1,3c1.9,0,7.7-1.4,10.2-2.2c1.6-0.5,1.7-1.2,2.6-1.2c2,0,5.5,2.7,5.5,4.5
		c0,1.2-1.5,1.5-3.2,2.8c-3,2.2-9.4,8-11.5,10.2c-0.5,0.5-0.2,0.9,0.3,0.7c2-0.7,4.9-1.7,8.6-1.7c6.7,0,12.3,4.3,12.2,11.6
		c0,6.6-5.9,11.9-15.9,11.9c-5.8,0-9.9-2.5-9.9-6.5c0-3.1,2.7-5.2,6.3-5.2c3.5,0,7.5,2.1,8.5,7.1c4.6-1.6,6.6-4.9,6.7-8.6
		c0.1-4.4-3-8.3-9-8.3c-7,0-11.9,4.8-16.2,10.3c-1,1.4-1.5,1.7-2.5,1.7c-0.9,0-1.9-1.1-1.8-2.7c0.1-1.2,0.7-2.1,2.2-3.5
		c6.2-6.3,16.2-15.8,18.5-19.3c0.7-0.9,0.3-1.2-0.5-1.1c-1.8,0.4-5.4,2-7.4,3c-1,0.5-1.8,1.3-2.7,1.3c-2.5,0-4.6-2.9-4.8-4.5
		c-0.2-1-0.1-2,0.2-3.1L641.3,780z M654,815.8c-0.7-3.6-2.9-5.7-5.7-5.7c-1.9,0-3.1,1-3.1,2.6c0,1.9,2.2,3.2,6.5,3.2
		C652.5,815.9,653.2,815.8,654,815.8z"/>
	<path class="st0" d="M175.5,853.9v24.5c0,0.3-1.5,1.2-3.9,1.2h-0.8v-8.4c-3.5,1.3-8.2,3.1-14.4,5.2c-0.3,0.7-0.8,1.1-1.3,1.2
		l-2.5-5.3c1.4-0.1,3.6-0.4,6.4-0.7v-17.6h-5.9l-0.5-1.5h38.8l2.9-3.8c0,0,3.2,2.6,5.2,4.4c-0.2,0.6-0.7,0.8-1.4,0.8H175.5z
		 M165.5,849.8c0,0.4-2.1,1.5-4,1.5h-0.7v-17.5l5,2.1h20.5l2.4-2.6l5,3.8c-0.3,0.4-1.1,0.9-2.1,1.1v11.2c-0.1,0.4-2.5,1.2-4,1.2
		h-0.8v-1.9h-21.3V849.8z M170.9,853.9h-7.3v4.4h7.3V853.9z M163.6,864.3h7.3v-4.6h-7.3V864.3z M163.6,871c2.3-0.3,4.7-0.7,7.3-1
		v-4.2h-7.3V871z M165.5,837.3v4.1h21.3v-4.1H165.5z M186.8,847.1v-4.3h-21.3v4.3H186.8z M197.3,859.6c-0.4,0.5-0.8,0.6-1.9,0.7
		c-1.3,3.6-3.1,6.9-5.7,9.8c3,1.8,6.5,3,10.4,3.9l-0.1,0.6c-2,0.4-3.4,2-4,4.2c-3.7-1.5-6.8-3.3-9.3-5.8c-2.7,2.3-6,4.3-10,5.8
		l-0.4-0.6c3.3-2,6.1-4.6,8.3-7.5c-2.2-2.9-3.8-6.5-4.9-11h-2.8l-0.5-1.5h13.3l2.8-2.7L197.3,859.6z M180.7,859.7
		c1.3,3.4,3.3,6,5.8,8.2c1.5-2.6,2.7-5.3,3.4-8.2H180.7z"/>
	<path class="st0" d="M246.3,834.8c0,0,3.5,2.6,5.7,4.4c-0.2,0.6-0.7,0.8-1.4,0.8h-43.9l-0.5-1.5h20.2v-5.8l6.6,0.6
		c-0.1,0.7-0.5,1.2-1.8,1.4v3.8h11.9L246.3,834.8z M246.3,854.8l5.1,3.8c-0.3,0.4-1.1,0.9-2.1,1v14.3c0,3.2-0.8,5.1-6.5,5.6
		c-0.2-1.4-0.4-2.5-1.1-3.1c-0.7-0.7-1.8-1.3-4.1-1.6v-0.7c0,0,4.6,0.3,5.7,0.3c0.9,0,1.1-0.3,1.1-1v-14.7h-31.1v19.2
		c0,0.5-2,1.6-4,1.6h-0.7v-24.2l5.2,2.1h30.2L246.3,854.8z M236.8,855.3V853H221v1.3c0,0.4-2.1,1.5-4.1,1.5h-0.7V842l5,2h15l2.4-2.5
		l5,3.7c-0.4,0.4-1.1,0.9-2.1,1.1v7.8c-0.1,0.4-2.5,1.2-4,1.2H236.8z M238.7,873.2c-0.1,0.4-2.3,1.4-3.7,1.4h-0.8v-2.5h-10.7v1.9
		c0,0.4-2,1.4-3.8,1.4h-0.6v-14.3l4.6,1.9h10l2.2-2.3l4.6,3.5c-0.3,0.3-1,0.7-1.9,0.9V873.2z M236.8,851.5v-6.1H221v6.1H236.8z
		 M234.2,870.7v-6.3h-10.7v6.3H234.2z"/>
	<path class="st0" d="M302.3,839.6c-0.4,0.5-0.9,0.6-2.1,0.7c-1.6,2.7-3.6,5.2-6.1,7.4c3.3,1.6,7.4,2.7,12,3.4l-0.1,0.6
		c-1.8,0.6-2.8,1.9-3.1,4.1c-4.9-1.4-8.6-3.4-11.6-5.8c-4,3-9.1,5.3-15.1,6.9v14.9c0,0.5-1.6,1.2-2.9,1.2h-0.7v-3.6h-8.9v4.8
		c0,0.5-1.6,1.3-3.1,1.3h-0.7v-33.8l5.6,0.6c-0.2,0.7-0.6,1.2-1.9,1.3v24.3h2.6v-33.5l5.4,0.6c-0.1,0.7-0.5,1.2-1.8,1.4v31.6h2.7
		v-26.5l5.5,0.6c-0.2,0.7-0.6,1.2-1.9,1.3v12.6c4.9-2,9.2-4.8,12.7-8.2c-1.5-1.6-2.7-3.3-3.8-5.1c-2.5,2.6-5.2,4.5-8,5.9l-0.6-0.6
		c3.7-3.3,7.3-8.8,9.4-15.1l6.1,1.9c-0.2,0.7-0.8,1.1-2,1.1c-0.5,0.9-1,1.8-1.5,2.6h6.6l2.6-2.5L302.3,839.6z M300.3,866.8
		c0,0,3,2.4,4.8,4.1c-0.2,0.6-0.7,0.8-1.4,0.8h-10.9v6.6c0,0.5-2,1.3-3.7,1.3h-0.8v-7.9h-11.1l-0.4-1.4h11.5v-4.6h-8.7l-0.4-1.4h9.1
		v-4.5h-9.1l-0.4-1.5h9.5v-5.1l6.3,0.6c-0.2,0.7-0.5,1.2-1.8,1.3v3.2h3.6l2.6-3.1c0,0,2.9,2.2,4.6,3.8c-0.2,0.6-0.6,0.8-1.3,0.8
		h-9.4v4.5h3.8l2.5-3.3c0,0,2.8,2.3,4.4,3.9c-0.2,0.6-0.6,0.8-1.3,0.8h-9.3v4.6h4.7L300.3,866.8z M287.6,839.6
		c-0.5,0.7-1,1.3-1.6,1.9c1.3,1.6,2.9,3,4.7,4.2c1.7-1.9,3.2-4,4.3-6.1H287.6z"/>
	<path class="st0" d="M346.9,847c2.2,0.3,3.4,0.6,4.5,1.2c1.6,1,3.4,3.1,3.4,4.8c0,1.3-1,1.3-3.3,2c-3.6,1.1-9.1,3-13.4,4.9
		c0.2,2.9,0.3,6,0.3,7.8c0,1.5-0.8,2.6-2.2,2.6c-1.3,0-2.4-0.7-2.4-2.4c0-1.3,0.2-3.5,0.3-5.9c-4.5,2.5-8,5.5-8,8.4
		c0,2.3,2.5,3.7,7.4,3.7c7.5,0,10.4-1.7,12.6-1.7c2.2,0,3.8,0.6,3.8,2.2c0,1.2-0.5,1.9-2.2,2.4c-2,0.6-7.1,1.4-11.3,1.4
		c-9.6,0-12.7-3.3-12.7-7.5c0-4.2,5-8.5,10.5-11.9c-0.2-4-0.9-5.6-3.4-5.6c-2.6,0-5.8,3.3-7.8,5.5c-1.8,2.1-3.3,4.9-4.9,5
		c-1.4,0.1-2.1-1.2-2.2-2.8c0-1.6,1.8-2.7,3.8-4.9c2.7-2.7,5.1-5.9,6.8-9c-1.3,0.1-2.5,0.2-3.8,0.2c-4.1,0-5-2-6.7-5.9l0.9-0.5
		c1.9,1.8,3.2,3,6.8,2.9c1.5-0.1,3.1-0.3,4.8-0.6c0.7-1.6,1.2-2.9,1.4-3.8c0.2-0.9,0-1.3-0.6-1.7c-0.8-0.7-2-1-3.2-1.3v-0.8
		c1.1-0.4,2.5-0.8,3.4-0.8c1.9-0.1,5.6,0.8,5.6,2.3c0.1,0.7-0.4,1.1-0.9,2.1c-0.3,0.8-0.9,1.9-1.5,3c2.1-0.6,4-1.3,5.2-1.8
		c1.9-0.9,2.3-1.4,3-1.4c1.5,0,2.8,0.5,2.8,1.9c0,0.7-0.5,1.4-1.6,1.9c-1.8,1-6.6,2.6-11.8,3.6c-1,1.8-2.3,3.9-4.3,6.5
		c-0.2,0.3-0.1,0.6,0.4,0.3c1.7-1,3.5-1.9,5.5-1.9c3.1,0,5.1,2,5.7,5.4c3.8-2,8.3-3.9,10.9-5.4c0.9-0.5,1-1,0.3-1.8
		c-0.5-0.7-1.5-1.3-2.5-1.8L346.9,847z"/>
	<path class="st0" d="M406.4,838.1c-0.4,0.5-1.3,1-2.4,1.2v38.2c-0.1,0.5-2.4,1.7-4.3,1.7h-0.8V875h-22v2.6c0,0.7-1.9,1.9-4.1,1.9
		h-0.9v-45l5.3,2.3h21.1l2.6-3L406.4,838.1z M376.9,838.3v10.6h22v-10.6H376.9z M376.9,850.3v10.8h22v-10.8H376.9z M398.9,873.6v-11
		h-22v11H398.9z"/>
	<path class="st0" d="M429.2,845.9v8.9c2.5-0.7,5.1-1.5,7.7-2.3l0.2,0.7c-2.1,1.3-4.7,2.8-7.9,4.6v15.8c0,3.4-0.7,5.3-6.1,5.9
		c-0.1-1.5-0.4-2.6-1-3.3c-0.7-0.8-1.8-1.3-3.8-1.6v-0.8c0,0,4.4,0.3,5.4,0.3c0.8,0,1.1-0.3,1.1-0.9v-13.1c-1.5,0.8-3.2,1.7-4.9,2.6
		c-0.2,0.6-0.6,1.2-1.2,1.4l-2.1-5.8c1.7-0.4,4.6-1.2,8.2-2.2v-10.2h-7l-0.4-1.5h7.4v-11.7l6.3,0.7c-0.1,0.8-0.6,1.3-1.9,1.4v9.7
		h1.2l2.5-3.6c0,0,2.8,2.5,4.3,4.3c-0.1,0.6-0.7,0.8-1.3,0.8H429.2z M462.3,848.3c1.5,0.5,1.9,1,1.9,1.9c0,2-2.1,2.8-12.3,2.8h-7.2
		c-5.2,0-6.5-0.8-6.5-4.2V833l6,0.6c-0.1,0.7-0.6,1.1-1.6,1.3v7.9c5.5-2.2,11.3-5.5,14.3-8l5.2,4.1c-0.5,0.5-1.4,0.6-2.8,0.1
		c-4.1,1.9-10.5,3.9-16.8,5.1v3.8c0,0.9,0.4,1.1,2.7,1.1h6.9c2.8,0,5.1-0.1,6-0.1c0.8,0,1.2-0.2,1.5-0.6c0.5-0.7,1.2-2.5,1.9-4.9
		h0.6L462.3,848.3z M458.2,855.1l4.9,3.7c-0.4,0.4-1.1,0.9-2.1,1.1v18c0,0.4-2.4,1.3-3.9,1.3h-0.8v-3.5H443v2.4
		c0,0.5-1.9,1.5-3.8,1.5h-0.8v-24.1l4.9,2.1h12.6L458.2,855.1z M443,859v6.8h13.4V859H443z M456.4,874.2v-7H443v7H456.4z"/>
	<path class="st0" d="M478.4,838.1v-0.9c1.3-0.4,2.5-0.8,3.7-0.7c3,0.1,7.2,3.3,7.2,5.1c0,1.3-1.2,1.8-1.7,4.3c-1,4.8-2,12.3-2,18.5
		c0,6,1.7,8.3,7.5,8.3c7.9,0,15.3-4.9,19.3-10.3l1,0.7c-3.5,8.1-11,14.5-20.8,14.5c-7,0-10.9-3.5-10.9-12.6c0-7.5,1.1-18.3,1.1-21.8
		c0-2.2-0.3-3-1.2-3.6C480.9,838.9,479.9,838.6,478.4,838.1z"/>
	<path class="st0" d="M523.6,866.4c6.5,1.5,9.9,3.9,11.7,6.6c0.9,1.3,1.1,2.3,1.1,3.4c0,1.8-1.1,2.9-2.8,2.9c-1.3,0-2.1-0.7-2.9-2.2
		c-1.5-3.1-3.2-6.5-7.7-9.9L523.6,866.4z"/>
	<path class="st0" d="M171.8,911.3c-2.1,1-4.8,2.2-8.1,3.6v16.4c0,3.4-0.7,5.3-5.9,5.8c-0.1-1.4-0.3-2.6-0.9-3.3
		c-0.7-0.7-1.6-1.2-3.5-1.6v-0.8c0,0,4,0.3,4.9,0.3c0.7,0,0.9-0.2,0.9-0.9v-14.2c-1.2,0.5-2.4,1-3.7,1.5c-0.3,0.6-0.8,1.1-1.3,1.2
		l-1.9-5.8c1.5-0.2,3.9-0.5,6.9-1v-9.9l2.7,0.3c1.1-2.3,2.4-5.6,3.2-7.9h-11.8l-0.5-1.5H165l2.6-2.6l4.5,4.1c-0.4,0.4-1,0.5-2,0.6
		c-1.8,2.1-4.5,5.2-7,7.4l2.4,0.2c-0.2,0.8-0.6,1.2-1.8,1.4v7.3c2.6-0.4,5.3-0.9,8-1.4L171.8,911.3z M197.6,894.7
		c-0.5,0.5-1.6,0.5-2.9-0.2c-0.9,0.2-1.9,0.4-2.9,0.6c0.6,15.3,2.9,29.1,8.7,36.1l-0.2,0.5c-2.4,1-3.4,3-3.7,5.4
		c-5.3-7.8-5.9-24.9-5.9-41.9c-1.6,0.3-3.3,0.5-5,0.7v32.9l3.4-0.3c-0.5-2.4-1.2-4.7-1.9-6.6l0.7-0.2c8.9,8,5,16,1.7,12.4
		c0.1-1.4,0-2.9-0.3-4.5c-2.9,1.1-6.8,2.4-11.8,4c-0.3,0.7-0.8,1.1-1.4,1.2l-2-5.5c1.5-0.1,4.2-0.2,7.3-0.3v-32.7
		c-1.6,0.2-3.2,0.3-4.8,0.4v11.4c0,9.1-0.8,21-10.7,29l-0.7-0.6c6.2-8.4,7-18.8,7-28.5v-14.2l5,1.7c5.6-1.5,12.1-3.7,15.6-5.4
		L197.6,894.7z"/>
	<path class="st0" d="M246.3,892.4c0,0,3.5,2.6,5.7,4.4c-0.2,0.6-0.7,0.8-1.4,0.8h-43.9l-0.5-1.5h20.2v-5.8l6.6,0.6
		c-0.1,0.7-0.5,1.2-1.8,1.4v3.8h11.9L246.3,892.4z M246.3,912.4l5.1,3.8c-0.3,0.4-1.1,0.9-2.1,1v14.3c0,3.2-0.8,5.1-6.5,5.6
		c-0.2-1.4-0.4-2.5-1.1-3.1c-0.7-0.7-1.8-1.3-4.1-1.6v-0.7c0,0,4.6,0.3,5.7,0.3c0.9,0,1.1-0.3,1.1-1v-14.7h-31.1v19.2
		c0,0.5-2,1.6-4,1.6h-0.7v-24.2l5.2,2.1h30.2L246.3,912.4z M236.8,912.9v-2.3H221v1.3c0,0.4-2.1,1.5-4.1,1.5h-0.7v-13.8l5,2h15
		l2.4-2.5l5,3.7c-0.4,0.4-1.1,0.9-2.1,1.1v7.8c-0.1,0.4-2.5,1.2-4,1.2H236.8z M238.7,930.8c-0.1,0.4-2.3,1.4-3.7,1.4h-0.8v-2.5
		h-10.7v1.9c0,0.4-2,1.4-3.8,1.4h-0.6v-14.3l4.6,1.9h10l2.2-2.3l4.6,3.5c-0.3,0.3-1,0.7-1.9,0.9V930.8z M236.8,909.1V903H221v6.1
		H236.8z M234.2,928.3V922h-10.7v6.3H234.2z"/>
	<path class="st0" d="M279.7,932.4c12.5-2.6,17.8-9.4,17.8-18.3c0-9.1-6.2-15-14.5-15c-0.6,0-1.3,0.1-1.9,0.1c1.4,1.6,2.9,3.8,2.9,6
		c0,2.5-0.6,5.6-1.7,8.6c-2.2,6.2-7.9,15.7-13.6,15.7c-3.8,0-7.4-5.8-7.4-12.2c0-4.8,2.3-10.5,7.1-14.6c4.1-3.6,9.2-5.3,15.1-5.3
		c11,0,19.2,7.5,19.2,18c0,9-6.1,17.3-22.8,18.2L279.7,932.4z M279,899.7c-3.4,0.8-6.7,2.6-9.2,5.2c-3,3.2-4.8,6.9-4.8,11.1
		c0,4.4,1.9,8.1,4,8.1c3.1,0,7.6-7.4,9.4-11.4c1.2-2.7,2.1-6,2.1-8.5C280.5,902.4,279.8,901,279,899.7z"/>
	<path class="st0" d="M352.1,892.4c0,0,3.5,2.6,5.7,4.4c-0.2,0.6-0.7,0.8-1.4,0.8h-43.9l-0.5-1.5h20.2v-5.8l6.6,0.6
		c-0.1,0.7-0.5,1.2-1.8,1.4v3.8H349L352.1,892.4z M352.2,912.4l5.1,3.8c-0.3,0.4-1.1,0.9-2.1,1v14.3c0,3.2-0.8,5.1-6.5,5.6
		c-0.2-1.4-0.4-2.5-1.1-3.1c-0.7-0.7-1.8-1.3-4.1-1.6v-0.7c0,0,4.6,0.3,5.7,0.3c0.9,0,1.1-0.3,1.1-1v-14.7h-31.1v19.2
		c0,0.5-2,1.6-4,1.6h-0.7v-24.2l5.2,2.1h30.2L352.2,912.4z M342.7,912.9v-2.3h-15.8v1.3c0,0.4-2.1,1.5-4.1,1.5h-0.7v-13.8l5,2h15
		l2.4-2.5l5,3.7c-0.4,0.4-1.1,0.9-2.1,1.1v7.8c-0.1,0.4-2.5,1.2-4,1.2H342.7z M344.5,930.8c-0.1,0.4-2.3,1.4-3.7,1.4h-0.8v-2.5
		h-10.7v1.9c0,0.4-2,1.4-3.8,1.4H325v-14.3l4.6,1.9h10l2.2-2.3l4.6,3.5c-0.3,0.3-1,0.7-1.9,0.9V930.8z M342.7,909.1V903h-15.8v6.1
		H342.7z M340.1,928.3V922h-10.7v6.3H340.1z"/>
	<path class="st0" d="M397.4,908.9c0.9-0.5,2.1-0.9,3.1-0.8c2,0.1,4.4,1.9,4.4,3.1c0,0.9-0.3,1.9-0.4,3c-0.2,1-0.4,2.6-0.8,4.3
		c2,1.2,3.7,2.5,4.8,3.5c1.1,1.1,1.7,2.1,1.7,3.8c0,1.1-0.6,2.1-2.1,2.1s-3-2-6-4.5c-3.1,6.9-9.9,11.1-19.4,12.9l-0.6-1
		c8.4-2.9,13.8-7.9,16.4-14.5c-3.4-2.3-8.1-4.9-15.9-5.1c-2.1,4.2-4.6,10-5.9,11.8c-1.8,2.8-3.4,4.1-6,4.1c-2.9,0-4.7-4.6-4.2-8.5
		c0.8-5.2,7.3-8.7,13.6-9.6c2.5-4.4,7-11.6,7.9-13.6c0.5-0.9,0.1-1.2-0.7-1c-1.6,0.6-4.2,1.8-5.8,2.7c-0.8,0.5-1.7,1.3-2.7,1.3
		c-1.9,0-4.3-2.5-4.7-4.1c-0.2-0.9-0.1-2,0.1-2.9l0.8-0.2c0.9,1.4,1.5,2.6,2.9,2.6c2.1,0,6.5-1.3,8.5-2c1.9-0.6,2.4-1.5,3.3-1.5
		c1.7,0,5.3,2.5,5.3,4.2c0,1.2-2,1.8-3.3,3.3c-1.8,2-5.5,7.2-7.7,10.8c6.6,0.1,11.9,1.7,15.8,3.4c0.4-1.7,0.5-3.2,0.4-4.2
		c0-0.9-0.2-1.2-0.8-1.7c-0.5-0.4-1.1-0.6-2-0.9V908.9z M378.7,915.8c-5.1,0.8-9.3,3.6-10,6.6c-0.5,1.9,0.7,4.1,1.9,4.1
		c1.2,0,1.9-0.6,3-2.2C374.9,922.6,377.1,918.8,378.7,915.8z"/>
	<path class="st0" d="M452.8,904.6c2.2,0.3,3.4,0.6,4.5,1.2c1.6,1,3.4,3.1,3.4,4.8c0,1.3-1,1.3-3.3,2c-3.6,1.1-9.1,3-13.4,4.9
		c0.2,2.9,0.3,6,0.3,7.8c0,1.5-0.8,2.6-2.2,2.6c-1.3,0-2.4-0.7-2.4-2.4c0-1.3,0.2-3.5,0.3-5.9c-4.5,2.5-8,5.5-8,8.4
		c0,2.3,2.5,3.7,7.4,3.7c7.5,0,10.4-1.7,12.6-1.7c2.2,0,3.8,0.6,3.8,2.2c0,1.2-0.5,1.9-2.2,2.4c-2,0.6-7.1,1.4-11.3,1.4
		c-9.6,0-12.7-3.3-12.7-7.5c0-4.2,5-8.5,10.5-11.9c-0.2-4-0.9-5.6-3.4-5.6c-2.6,0-5.8,3.3-7.8,5.5c-1.8,2.1-3.3,4.9-4.9,5
		c-1.4,0.1-2.1-1.2-2.2-2.8c0-1.6,1.8-2.7,3.8-4.9c2.7-2.7,5.1-5.9,6.8-9c-1.3,0.1-2.5,0.2-3.8,0.2c-4.1,0-5-2-6.7-5.9l0.9-0.5
		c1.9,1.8,3.2,3,6.8,2.9c1.5-0.1,3.1-0.3,4.8-0.6c0.7-1.6,1.2-2.9,1.4-3.8c0.2-0.9,0-1.3-0.6-1.7c-0.8-0.7-2-1-3.2-1.3v-0.8
		c1.1-0.4,2.5-0.8,3.4-0.8c1.9-0.1,5.6,0.8,5.6,2.3c0.1,0.7-0.4,1.1-0.9,2.1c-0.3,0.8-0.9,1.9-1.5,3c2.1-0.6,4-1.3,5.2-1.8
		c1.9-0.9,2.3-1.4,3-1.4c1.5,0,2.8,0.5,2.8,1.9c0,0.7-0.5,1.4-1.6,1.9c-1.8,1-6.6,2.6-11.8,3.6c-1,1.8-2.3,3.9-4.3,6.5
		c-0.2,0.3-0.1,0.6,0.4,0.3c1.7-1,3.5-1.9,5.5-1.9c3.1,0,5.1,2,5.7,5.4c3.8-2,8.3-3.9,10.9-5.4c0.9-0.5,1-1,0.3-1.8
		c-0.5-0.7-1.5-1.3-2.5-1.8L452.8,904.6z"/>
	<path class="st0" d="M513.5,908.4c-0.3,0.5-0.8,0.8-1.9,0.5c-2.6,2.4-6.5,5.3-10.4,7.8c4.2,5.5,9.8,8.8,15.3,10.9l-0.2,0.5
		c-2.1,0.5-3.5,2.2-4.2,4.5c-7.6-4.8-13.1-11.2-16.1-23.7v22c0,3.6-0.8,5.7-7.1,6.3c-0.2-1.6-0.5-2.8-1.3-3.5
		c-0.9-0.8-2.2-1.4-4.9-1.8v-0.8c0,0,5.9,0.5,7.2,0.5c0.9,0,1.2-0.4,1.2-1.1v-12.1c-3.4,3-8.1,7-14.3,11.7c-0.1,0.7-0.4,1.2-0.9,1.5
		l-4.1-5.2c3.3-1.4,11.2-5.3,19.4-9.6v-14.2h-19.5l-0.5-1.5h20v-10.6l6.7,0.7c-0.1,0.7-0.5,1.2-1.8,1.4v8.6h12.2l3-3.7
		c0,0,3.3,2.5,5.3,4.4c-0.1,0.6-0.7,0.8-1.4,0.8H496v3.4c1.1,3.8,2.7,7.1,4.5,9.7c2.7-3.4,5.6-8.1,7-11L513.5,908.4z M476.9,905.4
		c14.1,4,10,14.1,5.2,10.4c-0.7-3.4-3.3-7.5-5.7-10.1L476.9,905.4z M499.2,892.2c12.3,0.7,9.6,9.7,5,7.2c-0.8-2.5-3.3-5.2-5.4-6.8
		L499.2,892.2z"/>
	<path class="st0" d="M552.9,902.8c8.8,1.1,14.2,7.3,14.2,15c0,8.8-5.8,16-23.9,16.7l-0.2-1.1c15.1-2.8,19.2-9.7,19.2-16.5
		c0-5.3-3.5-10.7-10-11.8c-1,2.9-2.3,5.9-4.3,10.1c-0.8,1.6-1.6,3-2.4,4.3c1.3,0.7,2.5,1.7,2.5,3.3c0,1.1-0.8,1.7-2,1.7
		c-1.1,0-2.2-0.6-3.2-1.2c-1.3,1.6-2.6,2.9-3.9,3.8c-2,1.6-4.3,3.2-7.5,3.2c-3.3,0-4.8-3.4-4.8-6.7c0-7.3,4.6-12.4,7.4-14.9
		c-0.4-1.3-0.8-2.4-1.1-3.4c-0.8-2.1-2.4-4-4.6-6l0.5-0.6c1.9,0.4,3.7,1,4.8,1.9c1.3,0.9,2.7,1.9,3.3,4.1c0.1,0.5,0.3,1,0.4,1.6
		c2.9-1.9,6.6-3.3,11.3-3.6c0.5-2,0.8-3.6,0.9-4.9c0.1-1.2-0.5-1.5-1.3-1.7c-0.9-0.3-1.9-0.4-3-0.5l-0.1-0.9
		c1.2-0.7,2.5-1.2,3.7-1.2c2.1,0,6.1,2,6.1,3.7c0,1.1-0.8,1.7-1.3,3.3L552.9,902.8z M539.7,920.7c-1.5-1.6-2.6-3.4-3.3-5.1
		c-0.6-1.4-1.2-2.9-1.7-4.5c-3.2,3.5-4.7,7.7-4.7,10.5c0,2.7,1,3.9,2.3,3.9c1.7,0,3-0.8,4.4-2C537.7,922.8,538.7,921.8,539.7,920.7z
		 M547.9,904.9c-3.7,0.2-7,1.2-10.2,3.5c0.5,1.8,1.1,3.7,2,5.4c0.8,1.4,1.7,2.6,2.6,3.5c0.8-1.1,1.5-2.2,2.1-3.4
		C545.9,910.9,547.1,907.7,547.9,904.9z"/>
	<path class="st0" d="M594,894.3c1.1-0.6,2.5-1.2,4.1-1.2c2.8,0,6.1,1.5,6.1,3.1c0,1-0.7,1.6-1,2.8c-0.2,0.7-0.3,1.5-0.5,2.5
		c2.7-0.5,4.9-1.1,6.3-1.5c1.8-0.6,2.6-1.1,3.1-1.1c1.3,0,3.6,0.6,3.6,2.1c0,1.2-0.9,1.7-2.1,2.1c-1.8,0.7-6,1.7-11.3,2.4
		c-0.1,1.9-0.2,3.9-0.2,6.2c2.2-0.4,4.2-0.9,6-1.4c2-0.6,2.8-1.1,3.2-1.1c1.7,0,3.3,0.5,3.3,1.9c0,1.1-0.8,1.7-1.8,2.2
		c-1.7,0.7-5.8,1.6-10.7,2.2c0.1,2.9,0.4,5.3,0.6,7.5c5.9,1.2,9.9,3.6,11.4,4.9c1.4,1.1,2.3,2.3,2.3,3.6c0,1.4-0.8,2.1-1.9,2.1
		c-1.1,0-1.7-0.6-2.8-1.5c-2.5-2.3-5.4-4.2-8.8-5.5c0.1,0.7,0.1,1.3,0.1,2c0,4.2-3.6,6.8-9.4,6.8c-5.4,0-9.3-2.3-9.3-6.4
		c0-4.1,5.2-6.6,11.7-6.6c1,0,1.9,0,2.8,0.1c-0.1-1.9-0.2-4.2-0.3-6.6c-1.9,0.2-3.9,0.3-5.8,0.3c-6.9,0-10.7-3.9-4.8-8.9l0.9,0.6
		c-2.6,3.7-0.9,4.8,3.7,4.8c2,0,4-0.1,6-0.3c0-0.8,0-1.5,0-2.2c0-1.3,0-2.7,0-4c-2.2,0.2-4.4,0.3-6.7,0.3c-4.8,0-8.1-1.3-10.6-6
		l0.8-0.6c2.5,1.9,4.4,3.1,8.8,3.1c2.6,0,5.3-0.3,7.8-0.6c0.1-2.2,0.1-3.8,0.1-4.4c0-1-0.3-1.4-1.1-1.7c-1.1-0.4-2.1-0.6-3.7-0.9
		L594,894.3z M599.2,925.5c-1.5-0.3-3.1-0.5-4.8-0.5c-4.5,0-7.5,1.7-7.5,3.6c0,1.7,1.9,3,4.8,3C597.2,931.6,599.2,930.1,599.2,925.5
		z"/>
	<path class="st0" d="M648.7,894.4c1.1-0.7,2.6-1.5,4.1-1.5c2.5,0,5.9,1.2,5.9,2.7c0,1.3-0.8,2.2-0.9,3.5c0,0.6-0.1,1.4-0.1,2.5
		c8.9-1,10.8-1.6,11.7-1.6c2.3,0,5.3,1.3,5.3,3.3c0,1.4-0.8,1.7-2.1,1.7c-2,0-5.4-1.3-15.1-0.5c0,2.4-0.1,5.2,0,7.7
		c1.5,1.7,2.1,4.2,2.1,7c0,9.9-7.9,15.4-18.3,17.3l-0.5-1.1c6.1-2.2,11.2-5.6,13.2-10.4c-5,1.8-8.9-2.3-8.9-7.4c0-4.1,2.8-7.6,7-7.6
		c0.8,0,1.5,0.1,2.1,0.2c0-1.4-0.1-3.3-0.3-5.3c-5.1,0.7-9.8,1.7-12.4,2.4c-2.3,0.6-3.3,1.6-4.9,1.6c-1.9,0-4.5-2.5-5.1-4.2
		c-0.3-1-0.4-2.3-0.4-3.4l0.9-0.4c1.5,1.9,2.3,3.1,4.1,3.1c2.1,0,11.9-1.3,17.7-2c-0.2-1.8-0.3-3.4-0.4-4.6
		c-0.1-0.9-0.4-1.2-1.2-1.5c-0.8-0.3-2-0.5-3.4-0.7L648.7,894.4z M655,917.1c0-2.8-1.2-4.7-3.4-4.7c-2.4,0-4,2.1-4,4.7
		c0,2.5,1.6,4.4,3.9,4.4C654,921.6,655,920.3,655,917.1z"/>
</g>
<rect class="st1" width="1150" height="1080"/>
</svg>
